<svg width="180" height="180" fill="none" xmlns="http://www.w3.org/2000/svg"><path fill="url(#anime__a)" d="M0 0h180v180H0z"/><path d="M90.5 158.469a67.742 67.742 0 0 0 47.057-18.941c-1.133-25.409-4.463-62.86-14.33-85.165-5.472-12.37-18.295-20.64-32.727-20.64-14.432 0-27.924 7.93-32.727 20.64-8.53 22.464-12.189 60.3-13.718 85.709A67.677 67.677 0 0 0 90.5 158.469Z" fill="#393C54"/><path d="M113.303 58.928c-3.987-9.606-11.871-14.522-22.361-14.726h-.884c-10.49.25-18.374 5.166-22.362 14.727-4.112 9.866-5.471 24.66 0 44.394 5.313 19.258 11.94 23.212 22.362 23.416h.884c10.422-.204 16.992-4.214 22.361-23.416 5.517-19.733 4.113-34.528 0-44.394Z" fill="#fff"/><path d="M105.884 77.846h4.995" stroke="#393C54" stroke-width="5.51" stroke-miterlimit="10" stroke-linecap="round"/><path d="M95.598 117.688c-3.38.498-6.816.498-10.196 0-1.416-.374-2.832-1.269-2.832-2.832 0-1.564 1.36-2.413 2.832-2.833a23.11 23.11 0 0 1 10.196 0c1.37.352 2.832 1.269 2.832 2.833 0 1.563-1.439 2.469-2.832 2.832Z" fill="#393C54"/><path d="M110.947 83.828a11.227 11.227 0 0 1-6.491-.42" stroke="#393C54" stroke-width="2.21" stroke-miterlimit="10" stroke-linecap="round"/><path d="M103.437 91.633a3.746 3.746 0 0 1 3.727-3.338 3.747 3.747 0 0 1 3.727 3.338c0 2.073-3.75 16.233-6.242 16.233-1.212-.045-1.212-14.205-1.212-16.233Zm-.057-22.656a3.756 3.756 0 0 0 7.511 0c0-2.062-2.934-11.238-4.996-11.238-2.062 0-2.515 9.187-2.515 11.238Z" fill="#A7AECE"/><path d="M70.12 77.846h4.996" stroke="#393C54" stroke-width="5.51" stroke-miterlimit="10" stroke-linecap="round"/><path d="M76.544 83.431a11.328 11.328 0 0 1-6.695.329" stroke="#393C54" stroke-width="2.21" stroke-miterlimit="10" stroke-linecap="round"/><path d="M77.62 68.977a3.755 3.755 0 1 1-7.51 0c0-2.062 2.933-11.238 4.995-11.238 2.062 0 2.515 9.187 2.515 11.238Zm-.057 22.656a3.75 3.75 0 0 0-7.454 0c0 2.073 3.75 16.233 6.242 16.233 1.212-.045 1.212-14.205 1.212-16.233Zm17.933 28.683c0 1.382-2.266 2.503-4.996 2.503-2.73 0-4.996-1.133-4.996-2.503 0-.703 2.266-.306 4.996-.306 2.73 0 4.996-.397 4.996.306Z" fill="#A7AECE"/><path opacity=".2" d="M113.303 58.928a24.679 24.679 0 0 0-5.075-7.861c1.643 11.69.714 26.78-1.54 47.42-2.368 21.636-12.948 26.394-23.79 27.187a23.96 23.96 0 0 0 7.194 1.065h.884c10.422-.204 16.992-4.214 22.361-23.416 5.483-19.733 4.079-34.528-.034-44.394Z" fill="#393C54"/><defs><linearGradient id="anime__a" x1="90" y1="0" x2="90" y2="180" gradientUnits="userSpaceOnUse"><stop stop-color="#D6A700"/><stop offset="1" stop-color="#FCE182"/></linearGradient></defs></svg>