<svg width="180" height="180" fill="none" xmlns="http://www.w3.org/2000/svg"><path fill="url(#Group20__a)" d="M0 0h180v180H0z"/><path d="M147.8 23.333H32.233A6.667 6.667 0 0 0 25.567 30v70.7a6.667 6.667 0 0 0 6.666 6.667H147.8a6.667 6.667 0 0 0 6.667-6.667V30a6.667 6.667 0 0 0-6.667-6.667Z" fill="#525252" stroke="#45413C" stroke-linecap="round" stroke-linejoin="round"/><path d="M62.633 31.967H36.867c-.92 0-1.667.746-1.667 1.666V39.2c0 .92.746 1.667 1.667 1.667h25.766c.92 0 1.667-.746 1.667-1.667v-5.567c0-.92-.746-1.666-1.667-1.666Zm62.467 0H70.4c-.92 0-1.667.746-1.667 1.666V39.2c0 .92.747 1.667 1.667 1.667h54.7c.921 0 1.667-.746 1.667-1.667v-5.567c0-.92-.746-1.666-1.667-1.666Zm18.033 0h-11.4c-.92 0-1.666.746-1.666 1.666V39.2c0 .92.746 1.667 1.666 1.667h11.4c.921 0 1.667-.746 1.667-1.667v-5.567c0-.92-.746-1.666-1.667-1.666ZM40.567 46.433h-3.7c-.92 0-1.667.746-1.667 1.667v5.567c0 .92.746 1.666 1.667 1.666h3.7c.92 0 1.666-.746 1.666-1.666V48.1c0-.92-.746-1.667-1.666-1.667Zm34.8 0h-26.8c-.92 0-1.667.746-1.667 1.667v5.567c0 .92.746 1.666 1.667 1.666h26.8c.92 0 1.666-.746 1.666-1.666V48.1c0-.92-.746-1.667-1.666-1.667Zm19.566 0H83.2c-.92 0-1.667.746-1.667 1.667v5.567c0 .92.746 1.666 1.667 1.666h11.733c.92 0 1.667-.746 1.667-1.666V48.1c0-.92-.746-1.667-1.667-1.667Zm48.167 0h-40.867c-.92 0-1.666.746-1.666 1.667v5.567c0 .92.746 1.666 1.666 1.666H143.1c.92 0 1.667-.746 1.667-1.666V48.1c0-.92-.747-1.667-1.667-1.667ZM66.6 60.9H36.4c-.92 0-1.667.746-1.667 1.667v5.566c0 .92.747 1.667 1.667 1.667h30.2c.92 0 1.667-.746 1.667-1.667v-5.566c0-.92-.746-1.667-1.667-1.667Zm76.533 0H73.567c-.92 0-1.667.746-1.667 1.667v5.566c0 .92.746 1.667 1.667 1.667h69.566c.921 0 1.667-.746 1.667-1.667v-5.566c0-.92-.746-1.667-1.667-1.667ZM55.6 75.367H36.4c-.92 0-1.667.746-1.667 1.666V82.6c0 .92.747 1.667 1.667 1.667h19.2c.92 0 1.667-.746 1.667-1.667v-5.567c0-.92-.747-1.666-1.667-1.666Zm55.867 0H63.933c-.92 0-1.666.746-1.666 1.666V82.6c0 .92.746 1.667 1.666 1.667h47.534c.92 0 1.666-.746 1.666-1.667v-5.567c0-.92-.746-1.666-1.666-1.666Zm12.966 0h-5.5c-.92 0-1.666.746-1.666 1.666V82.6c0 .92.746 1.667 1.666 1.667h5.5c.921 0 1.667-.746 1.667-1.667v-5.567c0-.92-.746-1.666-1.667-1.666Zm18.7 0h-11.4c-.92 0-1.666.746-1.666 1.666V82.6c0 .92.746 1.667 1.666 1.667h11.4c.921 0 1.667-.746 1.667-1.667v-5.567c0-.92-.746-1.666-1.667-1.666ZM115.6 89.833H36.4c-.92 0-1.667.747-1.667 1.667v5.567c0 .92.747 1.666 1.667 1.666h79.2c.921 0 1.667-.746 1.667-1.666V91.5c0-.92-.746-1.667-1.667-1.667Zm27.533 0h-19.8c-.92 0-1.666.747-1.666 1.667v5.567c0 .92.746 1.666 1.666 1.666h19.8c.921 0 1.667-.746 1.667-1.666V91.5c0-.92-.746-1.667-1.667-1.667Z" fill="#6DD627"/><path d="M90 31.067A36.268 36.268 0 0 1 126.267 67.3v40a4.098 4.098 0 0 1-2.567 3.8 90.298 90.298 0 0 1-67.4 0 4.104 4.104 0 0 1-2.567-3.8v-40A36.267 36.267 0 0 1 90 31.067Z" fill="#724F3D"/><path d="M90 31.067A36.266 36.266 0 0 0 53.733 67.3v10a36.266 36.266 0 1 1 72.534 0v-10A36.269 36.269 0 0 0 90 31.067Z" fill="#A86C4D"/><path d="M90 31.067A36.268 36.268 0 0 1 126.267 67.3v40a4.098 4.098 0 0 1-2.567 3.8 90.298 90.298 0 0 1-67.4 0 4.104 4.104 0 0 1-2.567-3.8v-40A36.267 36.267 0 0 1 90 31.067Z" stroke="#45413C" stroke-linecap="round" stroke-linejoin="round"/><path opacity=".15" d="M90 166.667c27.614 0 50-2.239 50-5 0-2.762-22.386-5-50-5s-50 2.238-50 5c0 2.761 22.386 5 50 5Z" fill="#45413C"/><path d="M90 114.067a39.6 39.6 0 0 1 39.6 39.6V160H50.4v-6.333a39.601 39.601 0 0 1 39.6-39.6Z" fill="#FF87AF"/><path d="M90 114.067a39.601 39.601 0 0 0-39.6 39.6V160h.433A39.599 39.599 0 0 1 90 126a39.597 39.597 0 0 1 39.167 34h.433v-6.333a39.6 39.6 0 0 0-39.6-39.6Z" fill="#FF6196"/><path d="M90 114.067a39.6 39.6 0 0 1 39.6 39.6V160H50.4v-6.333a39.601 39.601 0 0 1 39.6-39.6Z" stroke="#45413C" stroke-linecap="round" stroke-linejoin="round"/><path d="M90.034 100.567H90a8.466 8.466 0 0 0-8.467 8.466v9.534A8.466 8.466 0 0 0 90 127.033h.034a8.466 8.466 0 0 0 8.466-8.466v-9.534a8.466 8.466 0 0 0-8.466-8.466Z" fill="#EBDA45"/><path d="M90 100.567a8.47 8.47 0 0 0-8.467 8.466v2a8.467 8.467 0 1 0 16.934 0v-1.966a8.469 8.469 0 0 0-5.22-7.853 8.477 8.477 0 0 0-3.247-.647Z" fill="#EBCB00"/><path d="M90.034 100.567H90a8.466 8.466 0 0 0-8.467 8.466v9.534A8.466 8.466 0 0 0 90 127.033h.034a8.466 8.466 0 0 0 8.466-8.466v-9.534a8.466 8.466 0 0 0-8.466-8.466ZM66.867 160v-8.033M113.133 160v-8.033" stroke="#45413C" stroke-linecap="round" stroke-linejoin="round"/><path d="M120.233 74.9A29.226 29.226 0 0 1 101.3 58.233l-2.067-4.9a53.067 53.067 0 0 1-33.166 20.6L59.8 75.067a6.034 6.034 0 0 0 0 12.066h.367a30 30 0 0 0 59.666 0h.4a6.033 6.033 0 1 0 0-12.066V74.9Z" fill="#EBDA45" stroke="#45413C" stroke-linecap="round" stroke-linejoin="round"/><path d="M71.9 79.7a2.567 2.567 0 1 0 2.566-2.567A2.532 2.532 0 0 0 71.9 79.7Zm36.2 0a2.567 2.567 0 1 1-2.567-2.567A2.535 2.535 0 0 1 108.1 79.7Z" fill="#45413C" stroke="#45413C" stroke-linecap="round" stroke-linejoin="round"/><path d="M80.533 95.333a1.465 1.465 0 0 0-1.1.534 1.4 1.4 0 0 0-.333 1.166 11.067 11.067 0 0 0 21.8 0 1.397 1.397 0 0 0-.333-1.167 1.405 1.405 0 0 0-1.1-.533H80.533Z" fill="#FF6242"/><path d="M90 100a13.33 13.33 0 0 0-8.4 2.567 11.203 11.203 0 0 0 16.667 0A13.335 13.335 0 0 0 90 100Z" fill="#FFA694"/><path d="M80.533 95.333a1.465 1.465 0 0 0-1.1.534 1.4 1.4 0 0 0-.333 1.166 11.067 11.067 0 0 0 21.8 0 1.397 1.397 0 0 0-.333-1.167 1.405 1.405 0 0 0-1.1-.533H80.533Z" stroke="#45413C" stroke-linecap="round" stroke-linejoin="round"/><path d="M70.2 92.633c1.841 0 3.333-.895 3.333-2 0-1.104-1.492-2-3.333-2-1.84 0-3.333.896-3.333 2 0 1.105 1.492 2 3.333 2Zm39.6 0c1.841 0 3.333-.895 3.333-2 0-1.104-1.492-2-3.333-2-1.841 0-3.333.896-3.333 2 0 1.105 1.492 2 3.333 2Z" fill="#FFAA54"/><path d="M118.4 160H61.733a2.535 2.535 0 0 1-2.566-2.067l-4.034-33a2.434 2.434 0 0 1 2.6-2.566H122.4a2.446 2.446 0 0 1 2.442 1.553c.124.323.178.668.158 1.013l-4.033 33A2.533 2.533 0 0 1 118.4 160Z" fill="#ADC4D9"/><path d="M57.6 133.133h64.8a2.637 2.637 0 0 1 1.533.5l1.067-8.7a2.433 2.433 0 0 0-2.6-2.566H57.6a2.42 2.42 0 0 0-1.88.695 2.44 2.44 0 0 0-.72 1.871l1.067 8.7a2.638 2.638 0 0 1 1.533-.5Z" fill="#C0DCEB"/><path d="M118.4 160H61.733a2.535 2.535 0 0 1-2.566-2.067l-4.034-33a2.434 2.434 0 0 1 2.6-2.566H122.4a2.446 2.446 0 0 1 2.442 1.553c.124.323.178.668.158 1.013l-4.033 33A2.533 2.533 0 0 1 118.4 160Z" stroke="#45413C" stroke-linecap="round" stroke-linejoin="round"/><path d="M93.967 141.2a4.765 4.765 0 0 1 .8-2.833 2.16 2.16 0 0 0-1.234-.8 2.693 2.693 0 0 0-1.775-.001 2.693 2.693 0 0 0-1.391 1.101 2.768 2.768 0 0 0-3.334-1.1c-1.666.333-2.5 2.733-1.9 5.3.6 2.566 2.467 4.4 4.167 4.066a2.33 2.33 0 0 0 .933-.5c.252.241.562.414.9.5 1.367.267 2.834-.866 3.667-2.666a4.434 4.434 0 0 1-.833-3.067Zm-1.359-5.174c.754-.857 1.096-1.788.764-2.08-.331-.292-1.211.166-1.965 1.023-.754.857-1.097 1.788-.765 2.08.332.292 1.212-.166 1.966-1.023Z" fill="#fff"/><defs><linearGradient id="Group20__a" x1="90" y1="0" x2="90" y2="180" gradientUnits="userSpaceOnUse"><stop offset=".271" stop-color="#5DBFC6"/><stop offset="1" stop-color="#117B82"/></linearGradient></defs></svg>