<svg xmlns="http://www.w3.org/2000/svg" xmlns:xlink="http://www.w3.org/1999/xlink" viewBox="0 0 4000 4000" xmlns:v="https://vecta.io/nano"><style><![CDATA[.Q{fill:#371a45}.R{opacity:.3}.S{fill:#fff}.T{fill:#716c82}.U{fill:#ccc}.V{fill:#a557ff}.W{fill:#ffb986}]]></style><path d="M0 0h4000v4000H0z" fill="#ff8661"/><use xlink:href="#B" fill="#a660ea"/><use xlink:href="#B" class="V"/><g opacity=".7" class="S"><path d="m2772.95,3073.16c9.94-6.83,21.06-14.18,32.7-21.36-28.22-99.03-155.58-161.39-155.58-161.39-9.91-.89-20.08,5.59-30.28,17.45,22.33,11.79,131.1,73.4,153.16,165.3Z"/></g><g class="R Q"><path d="M3015.47 3045.53c-2.76 27.31-13.75 53.36-36.42 75.51-104.98 102.57-242.34 161.84-333.91 136.76-41.39-11.33-92.1-37.66-135.28-63.12-16.81 63.87-27.3 112.36-27.3 112.36s137.36 98.52 228.94 123.59c91.57 25.07 228.94-34.19 333.91-136.76 73.25-71.57 24.7-183.64-29.93-248.34z"/></g><g fill="#a660ea"><use xlink:href="#C"/><use xlink:href="#C"/></g><path d="M2757.42 3453.49c-17.79 0-34.71-2.09-50.43-6.4-93.46-25.59-228.67-122.08-234.38-126.18-5.53-3.96-8.17-10.83-6.73-17.48.23-1.06 23.42-107.79 55.65-212.3 61.02-197.85 101.53-220.27 130.08-217.72 2.08.19 4.1.75 5.97 1.66 5.3 2.59 121.51 60.4 159.11 155.93 62-40.3 108-57.94 136.94-52.51 41.37 7.75 111.6 83.99 136.76 167.04 19.62 64.74 8.19 120.25-33.06 160.56-94.78 92.61-208.82 147.41-299.91 147.41zm-255.71-153.89c31.94 22.05 140.05 94.24 214.29 114.57 83.64 22.92 214.19-31.59 317.48-132.51 31.99-31.26 40.15-73.73 24.24-126.23-22.77-75.15-86.09-138.83-110.39-143.38-21.31-3.95-70.03 18.37-130.36 59.84-4.63 3.19-10.54 3.89-15.79 1.87s-9.17-6.48-10.48-11.95c-20.22-84.22-122.91-142.7-144.26-154.04-8.21 2.59-39.99 23.86-92.25 193.26-25.8 83.64-45.76 168.83-52.5 198.58z" class="Q"/><path d="M1418.65 3580h1119.74s74.99-682.02-68.22-804.33c-143.22-122.31-995.39-92.32-1262.96 325.02 0 0-83.26-39.32-180.67 3.99s-74.7 165.64-74.7 165.64 119.12 148.78 207.35 175.06c88.22 26.28 274.72-37.54 274.72-37.54s-12.28 59.02-15.26 172.16z" class="V"/><g opacity=".7" class="S"><path d="m1215.31,3088.64c11.04,6.86,21.08,15.57,29.7,26.48,252.07-383.95,1001.74-436.16,1220.03-343.51-155.66-116.36-976.73-84.15-1249.73,317.03Z"/></g><g class="Q R"><path d="M1466.3 3307.05s-218.89 51.6-307.11 25.31c-72.43-21.58-165.62-125.65-196.69-162.25-20.28 48.2-10.65 100.2-10.65 100.2s119.12 148.78 207.35 175.06c76.06 22.66 225.16-21.65 264.82-34.3 12.57-72.88 42.29-104.03 42.29-104.03zm784.18 159.94h-824.81c-2.92 28.01-5.78 65.78-7.03 113.01h1119.74s23.56-214.37 19.04-424.3l-.1 5.02c-3.55 170.25-139.99 306.27-306.85 306.27z"/></g><g class="Q"><path d="M2538.39 3597.07H1418.65a17.09 17.09 0 0 1-12.23-5.16c-3.21-3.3-4.96-7.75-4.83-12.36 1.83-69.59 7.1-118.82 11.02-147.05-56.08 16.88-185.71 50.85-258.29 29.23-92.29-27.5-210.8-174.51-215.8-180.76-1.76-2.19-2.94-4.79-3.46-7.55-8.7-46.89-2.23-145.77 84.56-184.35 80.59-35.83 151.73-19.17 180.92-9.27 66.71-98.46 168.97-181.1 304.18-245.78 117.74-56.33 259.69-97.9 410.5-120.21 247.21-36.59 490.57-15.58 566.05 48.87 63.39 54.14 94.95 209.27 93.8 461.1-.84 184.56-19.51 356.37-19.7 358.09a17.08 17.08 0 0 1-16.97 15.21zm-1102.12-34.14h1086.77c20.36-198.02 44.97-681.26-63.96-774.28-59.26-50.62-277.04-79.82-538.87-41.06-154.91 22.92-533.1 104.13-698.63 362.32a17.07 17.07 0 0 1-21.66 6.22c-.72-.34-77.82-35.25-166.44 4.16-75.42 33.53-68.23 122.32-65.48 142.83 18.31 22.17 121.17 143.6 196.06 165.91 81.97 24.43 262.51-36.71 264.32-37.33a17.11 17.11 0 0 1 16.83 3.35c4.59 4.06 6.67 10.27 5.42 16.28-.11.54-10.76 53-14.36 151.61z"/><path d="M1213.58 3084.85c11.23 5.63 21.36 11.44 31.69 17.7 10.24 6.21 20.24 12.85 29.93 20.01 9.7 7.12 19.11 14.75 27.77 23.44 8.6 8.67 16.83 18.13 22.42 29.76a6.18 6.18 0 0 1-2.89 8.24c-2.78 1.33-6.05.41-7.75-2.05l-.13-.19c-5.95-8.61-14.37-15.79-23.22-22.25-8.87-6.49-18.57-12.12-28.54-17.26-9.94-5.17-20.19-9.87-30.63-14.14-10.34-4.24-21.19-8.34-31.38-11.57l-.12-.04c-9.02-2.86-14.01-12.48-11.15-21.5s12.48-14.01 21.5-11.16c.84.27 1.73.64 2.5 1.02zm258.41 224.88c-2.77 8.16-5.35 16.64-7.69 25.04-2.35 8.42-4.47 16.88-6.36 25.34-3.73 16.9-6.46 33.93-7.14 50.21a17.17 17.17 0 0 1-17.86 16.44 17.17 17.17 0 0 1-16.44-17.86c.05-1.16.21-2.29.48-3.38l.04-.16c4.7-18.72 11.33-35.95 18.75-52.63a527.64 527.64 0 0 1 11.8-24.54c4.15-8.06 8.4-15.92 13.04-23.82 1.77-3.01 5.63-4.02 8.64-2.25a6.32 6.32 0 0 1 2.79 7.48l-.05.15z"/></g><use xlink:href="#C" class="V"/><g class="R Q"><path d="M3174.2 3119.11l-10.8-9.09c-5.56 17.44-15.73 38.15-34.38 57.5-43.93 45.59-99.76 28.87-183.15-42.55-34.49-29.54-54.55-61.54-63.36-91.12-6.13 39.95 12.05 93.91 67.59 141.48 83.38 71.42 139.22 88.14 183.15 42.55s40.95-98.77 40.95-98.77z"/></g><path d="M1098.52 3059.09s82.64 37.23 81.9 85.86-104.98 140.56-228.56 125.37c-123.59-15.2-74.45-127.65-38.71-151.2s185.38-60.02 185.38-60.02z" class="V"/><g class="R Q"><path d="m1044.66,3220.28c-100.55-12.36-86.77-89.1-58.89-129.97-30.88,9.71-59.49,20.13-72.64,28.8-35.74,23.55-84.87,136,38.71,151.2,75.53,9.29,143.77-21.45,185.64-57.84-28.53,8.27-59.98,11.85-92.82,7.81Z"/></g><g class="Q"><path d="M3101.8 3122.34c.92.12 1.43 2.13 1.56 5.77l-.11 6.64c-.06 2.61-.85 5.42-1.46 8.63-2.55 12.72-10.01 29.85-22.99 45.03-12.78 15.38-27.99 25.39-39.31 31.27-11.5 5.77-19.53 7.29-20.22 5.59-.72-1.72 5.56-6.15 15.17-13.61 9.47-7.58 22.58-17.97 34.13-31.91 11.74-13.78 19.58-28.19 24.18-39.22 1.1-2.77 2.49-5.21 3.2-7.5.79-2.27 1.55-4.23 2.27-5.83 1.43-3.2 2.66-4.97 3.58-4.85zm-145.9 53c-.33-.95 3.96-3.23 11.55-7.29 7.58-4.04 18.49-9.98 30.72-18.9 12.2-8.83 25.85-20.94 36.78-37.02 5.33-8.02 9.95-17.23 11.71-26.88 1.89-9.63.11-19.49-6.93-25.47-6.96-6.17-17.7-8.44-28.03-8.55l-7.8-.1c-2.57.03-5.11.48-7.62.68-5.07.26-9.89 1.59-14.65 2.55-18.95 4.65-34.69 13.78-47.1 22.26-12.43 8.63-21.6 17.02-27.88 22.86-6.27 5.88-9.71 9.26-10.46 8.72-.75-.52 1.32-5.05 6.56-12.19 5.25-7.1 13.7-16.85 26.06-26.96 12.36-9.94 28.74-20.73 49.63-26.63 5.25-1.26 10.6-2.85 16.28-3.33 2.83-.31 5.67-.85 8.57-.94l8.8-.05c5.88-.21 12.17.74 18.42 2.28 6.26 1.6 12.69 4.61 18.13 9.38 5.47 4.76 9.34 11.45 10.89 18.25 1.61 6.82 1.25 13.55.03 19.68a68.72 68.72 0 0 1-5.85 17.05c-2.48 5.25-5.48 9.99-8.6 14.42-12.8 17.54-28.11 29.57-41.67 37.87-13.59 8.37-25.56 13.18-33.97 15.84-8.42 2.67-13.31 3.29-13.58 2.49z"/><path d="M3078.38 3258.04c-46.83 0-96.29-35.57-138.03-71.31-48.4-41.45-75.35-92.92-73.96-141.2.85-29.58 12.86-55.29 32.93-70.57 47.57-36.19 120.95-3.12 124.05-1.69a14.63 14.63 0 0 1 3.39 2.15l157.09 132.21c3.16 2.66 5.09 6.51 5.32 10.63.14 2.44 2.79 60.29-45.12 110.02-20.44 21.22-42.74 29.75-65.68 29.75zm-123.61-270.06c-13.26 0-26.62 2.76-37.27 10.86-12.82 9.76-20.52 27.09-21.11 47.56-1.13 39.17 22.01 82.02 63.48 117.54 98.49 84.36 136.34 70.77 162.59 43.53 30.72-31.88 35.88-67.39 36.67-81.45l-149.98-126.22c-6.46-2.68-30.24-11.82-54.38-11.82zm-1877.1 112.71c4-1.38 11.25 17.51 27.34 33.27 8.15 7.68 16.84 13.05 23.71 16.26 6.82 3.38 11.5 5.01 11.49 6.89.04 1.81-5.52 3.6-14.24 2.19-8.7-1.18-20.42-6.32-30.27-15.68-9.64-9.54-15.25-20.56-17.5-28.76-2.33-8.24-2.19-13.64-.53-14.16zm0 122.51c-.43.68-3.73-.76-9.55-4.13-2.95-1.63-5.99-4.38-9.81-7.32-1.97-1.43-3.6-3.42-5.59-5.31-1.89-1.97-4.08-3.94-5.91-6.38-8.01-9.25-15.97-21.82-22.3-37.02-6.33-15.29-11.53-32.61-13.69-52.54l4.63 5.81c.2.06-.06.01-.22-.01-.15-.04-.37-.05-.6-.06-.43-.05-.89-.08-1.4-.04-.96-.05-2 .18-3.03.27-2.08.47-4.2 1.09-6.27 2.16-4.17 2-8.16 5.15-11.68 9.04-7.06 7.55-12.34 16.97-16.75 26.34l-3.14 7.09c-.98 2.38-1.81 4.81-2.71 7.17-1.92 4.73-3.23 9.42-4.57 13.99-1.58 4.54-2.06 9.12-3.05 13.51-.74 4.41-1 8.74-1.33 12.9.16 4.14-.2 8.23.47 12.03.24 1.91.38 3.81.68 5.64l1.18 5.3c3.31 13.83 10.03 23.72 15.01 30.08 5.16 6.33 8.68 9.36 8.19 10.16-.44.79-5.17-.86-11.92-6.51-3.27-2.9-7.18-6.7-10.74-11.91-3.72-5.09-7.09-11.57-9.64-19.15l-1.79-5.88c-.49-2.03-.81-4.15-1.23-6.29-1-4.29-.94-8.83-1.33-13.52.09-4.65.16-9.53.77-14.45.84-4.86 1.25-10.02 2.77-14.99 1.28-5.04 2.59-10.23 4.47-15.22.89-2.53 1.71-5.11 2.71-7.67l3.24-7.7c4.65-10.25 10.3-20.8 18.96-30.11 4.34-4.75 9.55-8.97 15.69-11.88 3.02-1.5 6.36-2.52 9.77-3.18 1.76-.2 3.48-.47 5.31-.41a18.6 18.6 0 0 1 2.76.15c.46.04.93.09 1.46.2.52.1.94.16 1.81.41 2.61.76 4.37 3.03 4.6 5.58l.02.23c1.62 17.71 6.04 34.86 11.25 49.27 5.24 14.55 11.8 26.71 18.4 36.03 13.06 18.89 25.34 26.6 24.11 28.34z"/><path d="m978.98,3286.96c-9.7,0-19.37-.58-28.96-1.76-63.8-7.85-84.25-39.58-90.16-64.81-10.58-45.15,19.09-96.71,45.02-113.8,36.85-24.29,174.51-58.28,190.09-62.08,3.23-.79,6.66-.48,9.71.9,9.38,4.22,91.6,42.92,90.73,99.77-.36,23.69-17.81,52.3-47.86,78.48-46.62,40.61-107.94,63.31-168.57,63.31Zm117.92-212.03c-44.48,11.05-149.07,39.28-175.51,56.7-17.56,11.57-39.35,51.96-32.33,81.91,5.43,23.18,27.17,37.28,64.61,41.88,90.91,11.15,156.27-38.81,174.17-54.39,27.46-23.92,37.4-45.28,37.56-56.31.45-29.3-46.53-58.81-68.51-69.79Z"/></g><path d="M1023.92 2127.31c2.03-68.06 10.52-136.23 24.67-203.5 6.93-33.69 15.7-67.02 25.51-100.12 10-33.04 21.47-65.69 34.19-97.93 51.29-128.67 126.14-249.36 222.42-351.09 95.94-101.96 214.4-183.19 344.23-235.34 65.02-25.71 132.6-44.63 201.2-55.86 34.31-5.55 68.83-9.34 103.38-11.45 17.27-1.06 34.56-1.76 51.83-1.94l12.91-.16 12.61.14 25.22.46c134.42 3.33 270.43 22.3 401.31 66.69 32.67 11.12 64.97 23.76 96.69 38.07 31.68 14.43 62.68 30.71 92.85 48.65 60.41 35.75 116.91 79.43 167.13 129.84 25.08 25.24 48.35 52.36 69.89 80.73 5.39 7.1 10.73 14.22 15.8 21.56l7.7 10.92 7.37 11.14 7.27 11.2 6.96 11.4c4.71 7.55 9.13 15.27 13.5 23.02 35.15 61.85 61.68 128.07 80.53 195.58 18.71 67.61 30.18 136.52 34.87 205.28 2.48 34.36 3.39 68.69 2.95 102.87-.85 34.19-2.36 68.2-5.68 101.99-.87 8.81-8.46 15.23-16.96 14.33-7.42-.78-13.08-6.92-13.81-14.33-6.56-66.22-15.91-131.57-29.71-195.25-13.7-63.67-32.11-125.58-55.9-184.32-23.69-58.77-53.12-114.17-88.03-164.71-4.37-6.32-8.76-12.6-13.4-18.68l-6.84-9.21-7.1-8.98-7.05-9-7.3-8.77c-4.79-5.91-9.82-11.6-14.87-17.26-20.13-22.69-41.74-43.82-64.34-63.65-45.12-39.83-95.35-73.05-148.25-101.21-26.51-14.01-53.87-26.44-81.78-37.66-27.86-11.33-56.36-21.28-85.32-29.94-115.94-34.62-238.41-50.13-361.72-52.6l-23.15-.25c-7.76-.04-15.46-.06-22.86.04-14.99.02-29.95.53-44.88 1.31-29.86 1.58-59.59 4.61-89.05 9.14-58.95 8.88-117.03 23.22-173.04 43.92-112.41 40.37-216.58 105.11-307.2 187.99-90.58 83.06-167.15 184.38-227.92 296.63-15.33 28.02-29.49 56.82-42.71 86.21-13.41 29.32-25.43 59.39-36.86 89.84-22.6 61.01-41.21 124.05-56.79 188.56v.04c-2.08 8.6-10.49 13.82-18.78 11.67-7.19-1.87-11.93-8.68-11.7-16.06z" class="U"/><g class="R Q"><path d="M3049.1 1719.35c-18.86-67.52-45.38-133.73-80.53-195.58-4.37-7.75-8.78-15.48-13.5-23.02l-6.96-11.4-7.27-11.2-7.37-11.14-7.7-10.92c-5.06-7.34-10.41-14.46-15.8-21.56-16.88-22.24-34.86-43.66-53.91-64.05-48.35-47.32-102.2-88.58-159.66-122.58-30.17-17.95-61.17-34.22-92.85-48.65-31.72-14.31-64.02-26.95-96.69-38.07-130.88-44.39-266.89-63.37-401.31-66.69l-25.22-.46-12.61-.14-12.91.16c-17.27.18-34.56.88-51.83 1.94-34.55 2.11-69.07 5.9-103.38 11.45-68.61 11.23-136.18 30.15-201.2 55.86-129.83 52.14-248.29 133.37-344.23 235.34-96.29 101.73-171.13 222.42-222.42 351.09-12.72 32.24-24.19 64.89-34.19 97.93-9.81 33.1-18.58 66.43-25.51 100.12-13.45 63.96-21.72 128.75-24.25 193.48a15.93 15.93 0 0 0 6.6-9.52v-.04c15.59-64.5 34.2-127.54 56.8-188.56 11.44-30.45 23.45-60.52 36.86-89.84 13.22-29.39 27.38-58.2 42.71-86.21 60.78-112.26 137.34-213.57 227.92-296.63 90.62-82.88 194.8-147.62 307.2-187.99 56.01-20.7 114.09-35.04 173.04-43.92 29.47-4.52 59.19-7.55 89.05-9.14 14.93-.79 29.89-1.29 44.88-1.31l22.86-.04 23.15.25c123.32 2.47 245.78 17.98 361.72 52.6 28.96 8.66 57.46 18.6 85.32 29.94 27.91 11.21 55.26 23.65 81.78 37.66 52.9 28.16 103.13 61.38 148.25 101.21 18.39 16.15 36.09 33.2 52.91 51.21 12.01 11.69 23.7 23.77 34.88 36.38 5.05 5.66 10.08 11.35 14.86 17.26l7.3 8.77 7.05 9 7.1 8.98 6.84 9.21c4.64 6.08 9.04 12.37 13.4 18.68 34.92 50.54 64.34 105.94 88.03 164.71 23.79 58.73 42.2 120.64 55.9 184.32 13.01 60.06 22.03 121.63 28.53 184 4.58-2.37 7.94-7.02 8.5-12.69 3.32-33.8 4.83-67.8 5.68-101.99.44-34.17-.47-68.51-2.95-102.87-4.69-68.76-16.16-137.67-34.87-205.28z"/></g><path d="M3065.91 2160.98c-1.14 0-2.28-.06-3.42-.18-15.27-1.62-27.47-14.08-29.01-29.62-7.08-71.45-16.7-134.68-29.4-193.31-13.89-64.59-32.41-125.65-55.04-181.52-23.48-58.25-52.5-112.55-86.26-161.41-4.06-5.89-8.41-12.13-12.92-18.03l-6.83-9.17-13.88-17.64-7.14-8.58c-4.74-5.85-9.75-11.51-14.48-16.82-18.65-21.02-39.79-41.93-62.86-62.19-41.24-36.4-90.01-69.69-145.01-98.97-24.58-12.99-51.55-25.41-80.12-36.89-26.83-10.92-55.01-20.81-83.84-29.43-106.56-31.81-226.73-49.27-357.17-51.88l-22.78-.25c-7.78-.04-15.37-.06-22.66.04-13.76.02-28.15.44-44.21 1.29-29.39 1.56-58.79 4.58-87.36 8.96-59.62 8.98-116.7 23.47-169.71 43.06-109.07 39.17-210.49 101.25-301.6 184.58-87.31 80.07-162.83 178.37-224.43 292.17-14.5 26.49-28.67 55.09-42.16 85.09-11.81 25.84-23.38 54.03-36.45 88.84-21.51 58.08-39.89 119.13-56.18 186.57-2.11 8.77-7.47 16.1-15.09 20.66-7.47 4.48-16.21 5.74-24.57 3.56-14.66-3.81-24.95-17.73-24.49-33.1h0c2.02-67.67 10.43-137.15 25.03-206.5 6.44-31.29 14.89-64.5 25.84-101.45 9.89-32.67 21.55-66.06 34.68-99.34 53.12-133.26 131.23-256.54 225.9-356.56 97.72-103.85 218.85-186.66 350.27-239.44 66.86-26.44 135.74-45.55 204.8-56.87 34.43-5.56 69.78-9.48 105.1-11.64 18.88-1.15 36.12-1.8 52.7-1.97l12.88-.16 13 .14 25.55.47c148.15 3.67 284.87 26.41 406.28 67.59 33.78 11.49 66.82 24.5 98.23 38.67 31.99 14.57 63.78 31.23 94.56 49.54 62.27 36.86 119.64 81.43 170.5 132.46 24.76 24.92 48.77 52.66 71.4 82.46 5.29 6.96 10.93 14.47 16.25 22.18l7.6 10.78a9.95 9.95 0 0 1 .28.41l14.73 22.47 7.21 11.8c5 8.02 9.75 16.36 13.8 23.54 34.46 60.64 62.09 127.73 82.1 199.38 18.7 67.58 30.62 137.78 35.46 208.71 2.44 33.8 3.45 68.9 2.99 104.25-1.04 41.6-2.81 73.45-5.76 103.45-.87 8.93-5.15 16.93-12.03 22.54-5.83 4.75-12.92 7.27-20.28 7.27zm-2028.13-33.27h0zm-13.87-.4h.05-.05zm1020.16-1040.3l-12.51.16c-16.03.17-32.7.79-51 1.9-34.19 2.09-68.41 5.88-101.7 11.26-66.63 10.91-133.14 29.38-197.65 54.88-126.76 50.91-243.7 130.85-338.08 231.16-91.76 96.95-167.48 216.49-218.99 345.71-12.77 32.36-24.12 64.86-33.71 96.55-10.64 35.92-18.87 68.21-25.12 98.61-13.09 62.18-21.05 124.36-23.75 185.12 15.67-62.78 33.27-120.23 53.62-175.2 13.38-35.64 25.24-64.53 37.34-91.01 13.81-30.71 28.38-60.11 43.27-87.31 63.38-117.07 141.23-218.37 231.36-301.02 94.48-86.41 199.78-150.82 312.97-191.47 55.03-20.34 114.38-35.42 176.26-44.74 29.64-4.55 60.17-7.68 90.69-9.3 16.65-.88 31.62-1.32 45.76-1.34l22.98-.04c7.66-.04 15.6.07 23.46.26 133.46 2.67 256.69 20.61 366.2 53.31 29.88 8.93 59.11 19.19 86.88 30.49 29.6 11.89 57.66 24.82 83.32 38.38 57.4 30.55 108.37 65.37 151.57 103.5 24.1 21.15 46.25 43.07 65.81 65.12 4.98 5.58 10.3 11.59 15.37 17.85l7.15 8.59c.11.13.21.26.32.39l14.11 17.93.31.4 6.85 9.21c4.83 6.32 9.44 12.94 13.74 19.17 35.19 50.93 65.41 107.47 89.83 168.03 23.35 57.67 42.45 120.63 56.75 187.11 11.98 55.29 21.26 114.49 28.29 180.51 1.99-24.48 3.29-51.17 4.11-84.1.44-34.18-.54-68.3-2.91-101.21-4.68-68.7-16.22-136.63-34.3-201.95-19.25-68.92-45.81-133.44-78.92-191.7-3.89-6.91-8.41-14.85-13.13-22.42l-7.05-11.55-14.17-21.6-7.55-10.71c-5.02-7.28-10.38-14.41-15.43-21.06-21.72-28.61-44.73-55.2-68.41-79.03-48.8-48.98-103.89-91.77-163.72-127.18-29.75-17.7-60.43-33.77-91.24-47.81-30.36-13.7-62.37-26.3-95.11-37.44-118.12-40.07-251.45-62.21-396.24-65.79l-24.91-.46-12.69-.14z" class="Q"/><path d="M1073.2 2073.25c-4.47-12.54-43.55-11.4-68.12 0s-83.76 235.46-83.76 235.46l110.56-18.92s45.79-204.01 41.32-216.54z" class="T"/><g class="R Q"><path d="M1073.2 2073.25c-3.38-9.48-26.56-11.13-48.28-6.44 4.03 1.48 6.9 3.59 7.92 6.44 4.47 12.54-41.32 216.54-41.32 216.54l-68.26 11.68-1.94 7.24 110.56-18.92s45.79-204.01 41.32-216.54z"/></g><path d="m921.32,2325.78c-4.75,0-9.33-1.98-12.59-5.55-3.92-4.28-5.4-10.27-3.91-15.88.15-.56,15.1-57.04,32.87-114.17,37.99-122.11,51.36-128.32,60.21-132.42,20.58-9.56,55.16-14.7,75.09-6.32,10.27,4.3,14.53,11.12,16.29,16.08,1.84,5.14,6.12,17.21-40.74,226.01-1.51,6.75-6.95,11.92-13.77,13.09l-110.56,18.92c-.96.17-1.92.24-2.88.24Zm92.29-237.65c-13.02,14.36-44.08,109.19-68.85,199.25l72.96-12.49c18.03-81.02,35.64-167.56,38.36-193.01-8.83-1.48-27.59-.23-42.48,6.25Zm43.52-9.15h0Zm-.69-3.02h0Z" class="Q"/><path d="m3036.54,2080.78c6.4-11.63,44.79-4.03,67.22,11.28,22.43,15.32,45.2,246.21,45.2,246.21l-106.08-36.98s-12.74-208.89-6.34-220.52Z" class="T"/><g class="R Q"><path d="M3080.84 2301.29s-12.74-208.89-6.34-220.52c.33-.6.8-1.12 1.29-1.62-17.81-5.36-35.15-5.85-39.26 1.62-6.4 11.63 6.34 220.52 6.34 220.52l106.08 36.98-1.42-13.73-66.69-23.25z"/></g><path d="M3148.96 2355.35c-1.89 0-3.79-.31-5.62-.95l-106.08-36.98c-6.5-2.27-11-8.21-11.42-15.08-13.04-213.82-6.88-225.01-4.25-229.79 2.54-4.61 7.83-10.64 18.62-13.22 20.96-5 54.34 5.77 73.18 18.64 8.06 5.5 20.23 13.81 38.29 140.54 8.45 59.32 14.22 117.51 14.28 118.1.57 5.8-1.85 11.48-6.43 15.09a17.08 17.08 0 0 1-10.56 3.66zm-89.73-66.43l69.97 24.39c-10.14-93.03-25.71-191.74-36.28-207.95-13.6-8.82-31.86-13.18-40.86-13.23-1.35 25.71 2.27 113.95 7.17 196.79zm-6.57-202.79" class="Q"/><g class="T"><use xlink:href="#D"/><use xlink:href="#D"/></g><g class="Q"><path d="m1242.2,2822.81c-48.8,0-101.69-12.73-121.91-32.71-26.35-26.01-77.49-201.44-87.47-236.34-14.21-49.69-60.21-216.23-55.21-272.7.29-3.25,1.5-6.34,3.49-8.93,9.21-11.93,92.06-116.45,166.15-111.44,12.95.87,24.93,9.51,37.69,27.18,74.29,102.88,178.56,526.82,163.89,583.71-3.83,14.87-16.08,34.73-52.68,44.85-15.8,4.37-34.55,6.38-53.94,6.38Zm-230.85-533.89c-2.58,90.22,110.26,453.05,132.95,476.91,16.2,15.98,94.38,31.06,142.74,17.69,11.51-3.18,25.84-9.32,28.72-20.46,5.52-21.39-19.07-153.71-60.24-298.77-53.43-188.26-95.51-264.18-110.94-269.55-45.55-2.61-108.56,63.54-133.24,94.18Zm133.05-94.24h0Z"/><path d="M1132.28 2385.9c-.43-1.83 12.82-6.5 34.08-13.88 10.6-3.74 23.26-8.1 36.79-13.7 6.71-2.82 13.72-5.97 20.1-9.81 3.04-1.87 6.17-4.26 7.35-6 .48-.5.19-.55.43-.67-.24.12.05.41-.07.57.28.26-.13 0-.18-.2-.23-.27-.91-.67-1.3-1.06-5.39-3.47-13.17-4.95-20.64-5.34-7.56-.4-15.12 0-22.32.76-14.43 1.54-27.5 4.15-38.44 6.43-21.91 4.7-35.49 8.19-36.14 6.42-.64-1.69 11.91-8.39 33.68-15.58 10.9-3.52 24.11-7.2 39.35-9.54 7.62-1.15 15.78-1.89 24.49-1.63 8.63.4 18.2 1.47 27.51 7.33 1.25 1 2.43 1.76 3.64 3.06 1.2 1.53 2.43 2.77 3.12 5.21.89 2.13.67 4.62.3 6.82-.62 1.81-1.44 3.86-2.39 4.94-3.81 5.08-7.79 7.33-11.61 9.74-7.68 4.38-15.18 7.39-22.37 10.05-14.38 5.2-27.53 8.67-38.63 11.29-22.22 5.13-36.31 6.55-36.72 4.77zm0 159.3c-.54-1.8 10.41-6.62 27.68-14.67 8.6-4.06 18.83-8.93 29.51-15.1 5.32-3.09 10.75-6.53 15.87-10.46 5.01-3.93 9.89-8.53 12.49-13.42 1.39-2.64 1.38-4.5 1.27-3.84.31.03-1.78-1.43-4.54-1.86-5.52-1.11-12.08-.99-18.11-.69-12.24.74-23.49 2.41-32.92 3.75-18.89 2.79-30.74 4.56-31.25 2.74-.5-1.75 10.52-6.78 29.29-12.02 9.41-2.57 20.71-5.28 33.84-6.79 6.63-.63 13.56-1.24 21.7.12 2.04.37 4.22.94 6.54 1.98 1.21.67 2.34 1.08 3.59 2.2.61.5 1.2 1.03 1.77 1.56.55.69 1.07 1.43 1.55 2.18 1.07 1.44 1.37 3.32 1.82 5.04.05 1.54.14 3.36-.16 4.69-.55 2.86-1.49 5.01-2.5 7.08-4.42 8.12-10.6 13.26-16.48 17.74-5.99 4.36-12.03 7.83-17.88 10.83-11.72 5.95-22.66 10.03-31.94 13.07-18.6 5.97-30.64 7.6-31.15 5.85z"/></g><path d="m968.97,2259.78s-130.16,47.06-92.17,258.33c43.18,240.1,203.13,277.44,242.56,272.01l-150.39-530.34Z" class="U"/><g opacity=".5" class="S"><path d="m916.81,2543.11c-26.34-146.44,28.1-213.95,64-241.61l-11.83-41.72s-130.16,47.06-92.17,258.33c27.39,152.29,101.75,222.99,162.53,252.96-50.26-38.69-100.97-108.03-122.53-227.96Z"/></g><path d="M1112.51 2807.58c-52.92 0-208.97-44.38-252.51-286.45-40.09-222.89 97.3-275.28 103.16-277.41a17.07 17.07 0 0 1 13.59.86 17.13 17.13 0 0 1 8.64 10.53l150.39 530.34c1.35 4.76.57 9.86-2.13 14-2.71 4.14-7.07 6.89-11.96 7.57-2.55.35-5.63.55-9.17.55zM958.3 2284.7c-30.95 20.41-91.62 80.69-64.69 230.38 35.58 197.84 151.42 248.64 202.91 257.06L958.3 2284.7z" class="Q"/><path d="m1132.29,2815.96c-10.27,0-20.07-6.06-24.51-16.25-91.55-210.24-147.92-517.42-150.27-530.39-2.7-14.85,6.91-29.12,21.47-31.88,14.57-2.75,28.54,7.06,31.23,21.91.57,3.11,57.6,313.87,146.56,518.14,6.01,13.81-.08,29.97-13.61,36.11-3.54,1.6-7.23,2.36-10.87,2.36Z" class="T"/><path d="m1132.29,2828.46c-15.57,0-29.68-9.33-35.97-23.76-92.18-211.68-148.75-520.12-151.11-533.15-3.91-21.56,10.2-42.37,31.45-46.39,10.24-1.93,20.64.26,29.27,6.19,8.78,6.04,14.67,15.19,16.59,25.77.56,3.1,57.59,313.01,145.72,515.38,8.71,20-.22,43.55-19.9,52.48-5.11,2.31-10.5,3.48-16.04,3.48Zm-148.41-578.98c-.86,0-1.72.08-2.58.24-7.8,1.47-12.96,9.26-11.49,17.36,2.34,12.91,58.4,318.58,149.43,527.63,3.12,7.16,11.67,10.7,18.77,7.5,7.31-3.32,10.59-12.17,7.3-19.73-89.27-204.99-146.83-517.75-147.4-520.88-.72-3.99-2.91-7.41-6.16-9.64-2.36-1.63-5.09-2.47-7.88-2.47Z" class="Q"/><g class="R Q"><path d="M1265.28 2436.59c27.35 108.36 44.76 204.67 38.87 227.51-12.26 47.53-118.96 44.6-173.5 25.12-1.26 9.01-6.88 17.18-15.63 21.15-3.54 1.6-7.23 2.36-10.87 2.36-10.27 0-20.07-6.06-24.51-16.25l-4.06-9.45c-45.96-3.72-145.45-40.46-200.02-176.5l1.24 7.57c38.77 215.55 171.62 267.67 226.92 272.15l4.06 9.45c4.44 10.19 14.24 16.25 24.51 16.25 3.64 0 7.33-.76 10.87-2.36 8.75-3.97 14.36-12.14 15.63-21.15 54.54 19.47 161.24 22.41 173.5-25.12 7.73-29.98-24.67-186.5-67.01-330.74z"/></g><path d="M3087.03 2282.57s-84.4-109.38-151.48-104.84-201.09 531.85-186.2 589.59 169.23 41.03 200.01 10.64 144.79-414.85 137.67-495.39z" class="T"/><g class="Q"><path d="M2839.44 2822.81c-19.39 0-38.14-2.01-53.94-6.38-36.6-10.12-48.85-29.97-52.69-44.85-14.67-56.89 89.6-480.83 163.9-583.71 12.75-17.67 24.73-26.3 37.69-27.18 73.88-4.96 156.94 99.5 166.15 111.44a17.11 17.11 0 0 1 3.49 8.93c5 56.47-41 223.01-55.21 272.7-9.99 34.9-61.12 210.33-87.47 236.34-20.22 19.97-73.11 32.71-121.91 32.71zm97.62-628.07c-15.43 5.36-57.51 81.28-110.94 269.55-41.17 145.06-65.76 277.38-60.24 298.77 2.88 11.15 17.21 17.28 28.73 20.46 48.36 13.38 126.55-1.7 142.76-17.71 22.67-23.84 135.51-386.66 132.93-476.88-24.68-30.64-87.77-96.86-133.24-94.18zm.19-.06"/><path d="M2949.36 2385.9c-.41 1.77-14.5.36-36.72-4.77-11.1-2.62-24.25-6.1-38.63-11.29-7.19-2.65-14.69-5.67-22.37-10.05-3.82-2.41-7.8-4.66-11.61-9.74-.95-1.09-1.77-3.14-2.39-4.94-.37-2.19-.59-4.69.3-6.82.68-2.43 1.91-3.67 3.11-5.21 1.21-1.3 2.39-2.06 3.64-3.06 9.31-5.85 18.88-6.92 27.51-7.33 8.71-.27 16.87.48 24.49 1.63 15.24 2.34 28.45 6.01 39.35 9.54 21.77 7.18 34.33 13.88 33.68 15.58-.65 1.77-14.23-1.72-36.14-6.42-10.95-2.29-24.01-4.9-38.44-6.43-7.21-.76-14.77-1.16-22.32-.76-7.47.39-15.26 1.87-20.64 5.34-.39.39-1.07.79-1.3 1.06-.16.19-.11.53-.83 0-.28-.16-1.1-.18-.43-.12.38 0 .41-.08.83-.19.61.03.05.15.62.63 1.18 1.74 4.31 4.13 7.35 6 6.38 3.83 13.38 6.99 20.1 9.81 13.53 5.59 26.19 9.96 36.79 13.7 21.26 7.38 34.51 12.05 34.08 13.88zm0 159.3c-.51 1.75-12.55.12-31.15-5.85-9.28-3.03-20.22-7.11-31.94-13.07-5.84-3-11.89-6.47-17.88-10.83-5.88-4.48-12.06-9.62-16.48-17.74-1.02-2.07-1.96-4.23-2.5-7.08-.3-1.33-.21-3.16-.16-4.69.45-1.72.75-3.6 1.82-5.04.48-.75 1-1.49 1.55-2.18.57-.54 1.16-1.06 1.77-1.56 1.25-1.13 2.38-1.54 3.59-2.2 2.32-1.04 4.5-1.62 6.54-1.98 8.14-1.36 15.08-.75 21.7-.12 13.13 1.51 24.43 4.22 33.84 6.79 18.77 5.25 29.79 10.28 29.29 12.02-.51 1.81-12.35.05-31.25-2.74-9.43-1.34-20.68-3.02-32.92-3.75-6.03-.31-12.59-.42-18.11.69-2.76.42-4.85 1.89-4.54 1.86-.1-.67-.12 1.2 1.27 3.84 2.6 4.9 7.48 9.49 12.49 13.42 5.12 3.93 10.55 7.37 15.87 10.46 10.68 6.17 20.9 11.04 29.51 15.1 17.27 8.06 28.21 12.87 27.68 14.67z"/></g><path d="m3112.66,2259.78s130.16,47.06,92.17,258.33c-43.18,240.1-203.13,277.45-242.56,272.01l150.39-530.34Z" class="U"/><g opacity=".5" class="S"><path d="m3112.66,2259.78l-9.37,33.03c33.37,20.51,106.2,85.36,76.53,250.3-16.15,89.79-48.63,151.22-85.03,192.66,45.97-40.27,90.25-107.69,110.03-217.66,38-211.27-92.17-258.33-92.17-258.33Z"/></g><path d="M2969.13 2807.58c-3.55 0-6.63-.2-9.18-.55-4.9-.67-9.26-3.43-11.96-7.57s-3.48-9.24-2.13-13.99l150.39-530.34a17.04 17.04 0 0 1 8.64-10.53 17.03 17.03 0 0 1 13.59-.86c5.87 2.12 143.25 54.52 103.16 277.41-43.53 242.06-199.56 286.45-252.5 286.45zm154.2-522.88l-138.22 487.44c51.48-8.4 167.33-59.19 202.91-257.06 26.92-149.69-33.75-209.97-64.69-230.38z" class="Q"/><path d="m2949.35,2815.96c10.27,0,20.07-6.06,24.51-16.25,91.55-210.24,147.92-517.42,150.27-530.39,2.7-14.85-6.91-29.12-21.47-31.88-14.57-2.75-28.54,7.06-31.23,21.91-.57,3.11-57.6,313.87-146.56,518.14-6.01,13.81.08,29.97,13.61,36.11,3.54,1.6,7.23,2.36,10.87,2.36Z" class="T"/><path d="m2949.35,2828.46c-5.54,0-10.93-1.17-16.03-3.48-19.7-8.94-28.63-32.48-19.92-52.49,88.12-202.36,145.16-512.28,145.72-515.39,1.92-10.57,7.81-19.73,16.59-25.76,8.62-5.93,19.02-8.12,29.26-6.2,21.25,4.02,35.36,24.83,31.45,46.39-2.36,13.03-58.94,321.46-151.11,533.15-6.28,14.44-20.4,23.76-35.97,23.76Zm148.41-578.98c-2.78,0-5.51.84-7.88,2.47-3.25,2.23-5.43,5.65-6.16,9.63-.57,3.14-58.13,315.91-147.4,520.89-3.29,7.56,0,16.41,7.32,19.74,7.05,3.19,15.63-.33,18.75-7.5,91.03-209.05,147.09-514.72,149.43-527.63,1.47-8.1-3.69-15.88-11.49-17.36-.86-.16-1.72-.24-2.58-.24Z" class="Q"/><g class="R Q"><path d="M2814.31 2436.59c-27.35 108.36-44.76 204.67-38.87 227.51 12.26 47.53 118.96 44.6 173.5 25.12 1.26 9.01 6.88 17.18 15.63 21.15 3.54 1.6 7.23 2.36 10.87 2.36 10.27 0 20.07-6.06 24.51-16.25l4.06-9.45c45.96-3.72 145.46-40.46 200.02-176.5l-1.24 7.57c-38.77 215.55-171.62 267.67-226.92 272.15l-4.06 9.45c-4.44 10.19-14.24 16.25-24.51 16.25-3.64 0-7.33-.76-10.87-2.36-8.75-3.97-14.36-12.14-15.63-21.15-54.54 19.47-161.24 22.41-173.5-25.12-7.73-29.98 24.67-186.5 67.01-330.74z"/></g><path d="m2804.94,1586.87c-765.34-510.31-1419.05-19.28-1419.05-19.28-44.09-39.52-70.94-80.62-86.7-119.36-15.72-38.63-8.58-83.01,17.34-115.42,139.72-174.67,430.52-294.78,766.57-294.78,356.38,0,661.84,135.02,790.27,326.98,18.77,28.06,24.28,63.56,14.45,96.03-22.36,73.9-82.9,125.83-82.9,125.83Z" class="V"/><g opacity=".5" class="S"><path d="M1324.06 1471.11c-15.45-37.83-8.43-81.29 17.04-113.02 137.3-171.04 423.09-288.65 753.35-288.65 350.23 0 650.42 132.22 776.64 320.19 12.57 18.72 19.07 40.81 18.89 63.04 6.61-30.1.58-61.99-16.59-87.65-128.43-191.96-433.9-326.98-790.28-326.98-336.05 0-626.86 120.11-766.57 294.78-25.92 32.4-33.06 76.79-17.34 115.42 15.76 38.74 42.6 79.83 86.7 119.36l1.28-.94c-30.52-31.99-50.46-64.53-63.12-95.53z"/></g><g class="R Q"><path d="m2804.94,1667.3c-765.34-510.31-1419.05-19.28-1419.05-19.28-44.09-39.52-70.94-80.62-86.7-119.36-15.72-38.63-8.58-83.01,17.34-115.42,139.72-174.67,430.52-294.78,766.57-294.78,356.38,0,661.84,135.02,790.27,326.98,18.77,28.06,24.28,63.56,14.45,96.03-22.36,73.9-82.9,125.83-82.9,125.83Z"/></g><path d="m2804.94,1603.94c-3.29,0-6.59-.95-9.47-2.87-390.3-260.25-750.13-251.62-983.26-198.57-252.62,57.5-414.45,177.52-416.05,178.73-6.51,4.9-15.58,4.5-21.65-.94-41.78-37.45-72.43-79.72-91.11-125.64-17.92-44.05-10.33-94.82,19.82-132.51,148.6-185.78,447.45-301.19,779.91-301.19,352.71,0,668.49,131.32,804.46,334.56,21.57,32.24,27.78,73.54,16.6,110.46-23.54,77.77-85.5,131.59-88.12,133.84-3.18,2.73-7.14,4.11-11.12,4.11Zm-724.31-266.05c61,0,121.85,4.6,182.28,13.8,185.22,28.21,366.88,100.01,540.12,213.45,17-17.11,52.96-57.77,68.48-109.04,8.24-27.25,3.65-57.75-12.3-81.59-129.81-194.03-434.45-319.4-776.08-319.4-322.34,0-610.97,110.5-753.25,288.37-22.43,28.04-28.12,65.72-14.86,98.32,15.21,37.38,39.51,72.25,72.31,103.82,42.11-29.05,193.69-125.51,417.31-176.4,91.71-20.87,184.02-31.33,276-31.33Z" class="Q"/><path d="M1204.22 1760.6c-19.57 7.07-38.24 19.01-51.15 28.31v.05m103.24-193.98c20.55 2.64 47.13 2.6 71.52-8.11" class="T"/><path d="M3056.57 2070.97l-33.5-33.05c-17.29 205.65-93.09 396.89-126.37 472.66h-.04s-1494.05 126.6-1660.4-104.31c-165.24-229.4-84.29-612.2-83.18-617.31-10.63 7.66-17.33 13.63-17.33 13.63s25.33-126.74 120.57-207.56v-.05c-20.95-2.64-35.69-8.11-35.69-8.11s20.55 3.37 114.67-109.69c107.21-128.79 230.23-181.12 230.23-181.12-54.54-28.68-54.54-79.87-54.54-79.87 79.29 33.05 348.43-131.07 795.13-91.54 446.7 39.48 388.9 223.75 388.9 223.75 326.36 86.98 361.56 722.57 361.56 722.57z" fill="#f7b92f"/><g opacity=".6" class="S"><path d="M1538.4 1276.2c104.1-.46 363.05-131.77 767.71-95.97 446.7 39.48 388.9 168.16 388.9 168.16 251 158.42 337.55 555.73 355.94 717.03l5.62 5.54s-35.2-635.59-361.56-722.57c0 0 57.8-184.27-388.9-223.75-446.7-39.52-715.84 124.59-795.13 91.54 0 0 .03 32.34 27.42 60.01zm-402.66 526.39s6.7-5.97 17.33-13.63c-.17.77-2.17 10.26-4.87 26.51 31.91-118.33 161.38-219.04 161.38-219.04s-53.28 14.09 25.7-63.66c119.17-117.33 268.38-223.12 268.38-223.12-19.06-10.02-49.7-7.98-77.66 6.84-44.95 25.77-121.15 77.12-190.72 160.7-94.12 113.06-114.67 109.69-114.67 109.69s14.74 5.47 35.69 8.11v.05c-95.24 80.83-120.57 207.56-120.57 207.56zm17.33 41.96a268.39 268.39 0 0 0-10.32 7.81c-5.98 45.62-11.98 111.98-10.12 186.3 2.65-109.98 19.93-191.77 20.45-194.11z"/></g><g class="R Q"><path d="M3056.57 2070.97l-33.5-33.05c-17.29 205.65-93.09 396.89-126.37 472.66h-.04s-1494.05 126.6-1660.4-104.31c-72.95-101.25-97.92-232.41-102.97-347.75q0 0 .04-.09c89.12-289.48 392.88-475.8 392.88-475.8 31.98 114.61 157.87 170.36 77.46 101.48-80.41-68.93-9.47-173.74-9.47-173.74l70.36 220.01s75.81-3.6 26.22-109.05c-49.58-105.4 35.92-218 35.92-218-4.29 95.69 66.87 230.4 69.02 234.46-73.62-201.64 54.5-251.92 54.5-251.92-.13 74.67 18.32 144.47 36.72 195.48-25.51-133.66 118.24-224.02 118.24-224.02-70.18 184.08 220.54 513.41 95.46 309.82-125.08-203.64 90.82-407.28 251.63-375.37s131.06 142.92 131.06 142.92 170.11-53.25 175.69-144.42c1.07-17.23-3.62-38.11-11.93-60.63 66.74 58.81 47.93 118.76 47.93 118.76 24.84 6.61 47.98 16.41 69.55 28.86 18 142.1-105.56 276.22-105.56 276.22 36.85-3.83 87.11-46.55 87.11-46.55-63.66 101.25-211.07 132.62-211.07 132.62s166.4 331.84 168.41 213.58c.22-11.4-1.12-26.9-4.24-47.27-35.74-232.36 154.87-166.31 154.87-166.31-4.38 124.41-86.44 184.4-126.28 205.06.13-.05.31-.09.45-.14 88.22-28.49 176.45-99.15 176.45-99.15s63.12 68.15 139.02 109.14c10.27 69.84 12.86 116.52 12.86 116.52z"/></g><path d="M1603.66 1309.64c-15.01-3.33-27.61-8.02-38.15-13.59M2896.7 2510.57c-9.69 22.11-15.81 34.37-15.81 34.37" class="T"/><g class="Q"><use xlink:href="#E"/><path d="M1205.12 1763.1c-16.31 11.13-29.83 25.02-42.06 39.65h0l7.09-13.84v.05a17.07 17.07 0 0 1-34.14 0v-3.3c0-4.78 2.94-8.88 7.09-10.6h.01c19.5-8.07 39.77-14.59 60.21-16.96a2.73 2.73 0 0 1 3.02 2.4 2.71 2.71 0 0 1-1.17 2.56l-.05.03zm53.37-185.05c21.3 6.93 44.49 10.22 67.6 4.85l.09-.02a4.39 4.39 0 0 1 5.27 3.28c.43 1.84-.38 3.69-1.88 4.67-10.76 7.03-23.06 12.17-35.87 15.55-12.83 3.39-26.16 5.1-39.57 5.53h-.45a17.34 17.34 0 0 1-17.92-16.78 17.37 17.37 0 0 1 16.8-17.92c2.05-.07 4.09.25 5.94.84z"/><path d="M2073.57 2562.28c-495.09 0-781.33-49.08-851.18-146.03-140.54-195.12-107.83-497.3-91.99-597.45a17.75 17.75 0 0 1-3.16-1.41c-6.36-3.65-9.69-10.95-8.25-18.15.99-4.94 23.17-112.01 101.96-194.31-3.81-1.15-6.04-1.97-6.29-2.06a17.08 17.08 0 0 1-10.56-20.38c1.84-6.94 7.73-11.81 14.56-12.59 4.06-1.71 29.88-15.21 103.5-103.64 79.52-95.52 166.69-149.65 209.72-172.65-37.47-33.07-37.98-75.31-37.98-77.42a17.05 17.05 0 0 1 7.6-14.2c4.76-3.17 10.78-3.75 16.04-1.55 23.91 9.97 81.21-5.27 153.76-24.56 139.96-37.21 351.46-93.44 636.31-68.23 201.5 17.81 330.36 66.76 383 145.5 22.55 33.72 24.91 64.73 23.56 83.11 132.45 42.92 236.1 181.21 300.39 401.26 49.57 169.69 58.96 330.9 59.05 332.51.39 7.05-3.59 13.6-10.02 16.5-6.44 2.9-13.99 1.54-19.01-3.41l-8.1-7.99c-22.73 195.18-93.47 372.43-124.17 442.3-2.58 5.87-8.22 9.78-14.56 10.17-13.03 1.09-383.37 31.75-768.81 34.47l-55.38.2zm-912.11-788.19c.33.19.65.38.97.59a17.09 17.09 0 0 1 7.32 17.91c-.83 3.78-80.48 380.41 80.35 603.7 45.07 62.57 234.09 136.23 878.61 131.65 353.45-2.5 694.09-28.55 756.41-33.55 33.84-78.6 104.49-262.21 120.94-457.9.56-6.6 4.88-12.29 11.09-14.58 6.21-2.3 13.19-.79 17.91 3.86l.4.4c-15.56-145.53-84.22-591.8-344.84-661.27-4.5-1.2-8.32-4.18-10.56-8.26s-2.72-8.9-1.33-13.34c.35-1.19 9.3-33.46-17.23-72.27-32.47-47.5-120.75-108.49-356.88-129.37-278.88-24.67-486.88 30.63-624.53 67.22-64.66 17.19-112.73 29.95-147.09 28.68 5.41 13.59 16.74 30.91 40.48 43.39a17.06 17.06 0 0 1 9.11 15.81c-.27 6.59-4.31 12.43-10.37 15.01-1.18.51-120.74 52.54-223.8 176.34-38.72 46.51-65.88 74.52-85.07 91.32 5.98 2.7 10.04 8.7 10.04 15.56 0 5.01-2.2 9.82-6.03 13.06-61.1 51.85-92.23 124.74-105.89 166.05zm61.85-204.08h.03-.03zm-.03 0zm-.03 0q0 0 0 0zm-.04 0h0 0z"/><path d="M1602.49 1314.96c-14.42.75-29.48-.06-44.94-3.8l-1.26-.3a17.97 17.97 0 0 1-13.24-21.68 17.97 17.97 0 0 1 21.68-13.24c3.47.84 6.45 2.62 8.74 5.03 8.52 8.89 19.37 16.75 31.36 23.37l.08.05a5.64 5.64 0 0 1 2.21 7.67c-.97 1.77-2.77 2.8-4.65 2.91zm1278.38 1247.06c-2.56 0-5.16-.58-7.61-1.8-8.44-4.21-11.87-14.46-7.66-22.9.06-.12 6.08-12.24 15.45-33.61 3.79-8.63 13.86-12.55 22.49-8.78 8.63 3.78 12.56 13.85 8.78 22.49-9.75 22.24-15.91 34.62-16.17 35.14-2.99 5.99-9.02 9.45-15.29 9.45z"/></g><path d="M2906.93 2588.75l-2.99 10.58c-51.01 173.74-210 291.08-387.74 291.08h-920.3c-138.25 0-268.11-71.07-341.77-190.51-82.06-133.12-124.05-346.1 26.98-669.6l-29.21-124.46s149.33-203 292.41-284.52c10.81 15.77 26.71 31.64 50.08 44.27 0 0-9.69-77.18 13.4-121.99 11.48 19.88 30.29 40.3 61.02 55.16v-39.52l2.5-1.82c9.56 9.89 21.89 19.24 37.93 26.9 0 0-9.87-79 16.93-125.37l5.09-1.14c8.35 38.89 30.42 81.37 82.37 109.41 0 0-16.75-66.1 36.85-132.21l2.55-.32c5.23 45.91 19.79 107.77 58.88 149.62 0 0 21.22-85.48 77.06-125.37l6.7-.64c4.56 52.11 25.73 113.61 88.22 163.02 0 0-4.42-93.09 42.39-173.69 171.58-28.04 345.12 44.72 345.12 44.72 119.49 7.25 179.35 42.72 179.35 42.72-10.94 79.6-84.07 188.28-84.07 188.28s100.46 6.11 147.68-39.62c-17.87 21.97-60.48 90.36-19.61 207.52 0 0 23-84.47 92.69-125.14v.05c12.33 71.66-36.09 154.36-36.09 154.36s47.93 7.84 90.19-14.68l-14.25 109.27s133.39 374.87 79.65 573.63z" class="W"/><g class="R Q"><path d="M2906.93 2471.72l-2.99 10.58c-51.01 173.74-210 291.08-387.74 291.08h-920.3c-138.25 0-268.11-71.07-341.77-190.51-35.03-56.83-62.75-128.24-71.27-216.57-12.93 144.55 21.91 253.54 71.27 333.61 73.66 119.44 203.52 190.51 341.77 190.51h920.3c177.74 0 336.73-117.34 387.74-291.08l2.99-10.58c13.5-49.92 15.19-110.96 10.15-174.38-2.04 20.26-5.33 39.51-10.15 57.34z"/></g><g class="Q R"><path d="M2680.43 1834.33c-5.54 33.17-4.07 75.96 14.31 128.65 0 0 22.03-80.78 88.19-122.37 5.75-23.55 8.76-49.65 4.5-74.44v-.05c-69.69 40.66-92.69 125.14-92.69 125.14-7.14-20.47-11.69-39.42-14.31-56.93zm153.61 200.7l-6.76 51.81s81.5 229.06 91.42 424.01c10.09-173.07-61.9-406.91-84.66-475.82zm-82.7-42.78s40.74 6.65 80.22-9.97l9.97-76.43c-21.18 11.29-43.77 14.95-61.05 15.79-11.26 40.05-29.14 70.61-29.14 70.61zm-1138.38-368.68c10.51 15.4 25.79 30.63 47.97 42.85 3.54 1.95 7.87-.66 7.87-4.77v-30.69l2.5-1.82c7.75 8.02 17.31 15.67 29.19 22.37 3.67 2.07 8.15-.88 7.84-5.15-1.62-22.07-3.21-77.04 16.64-113.57.74-1.36 2.04-2.31 3.53-2.64l2.75-.62c7.81 36.35 27.6 75.85 72.6 103.75 3.76 2.33 8.51-.77 8.04-5.24-2.25-21.44-1.91-71.37 38.58-121.31l2.55-.32c4.93 43.27 18.15 100.72 52.39 142.22 2.69 3.26 7.88 2.24 9.15-1.82 7.16-22.96 29.33-83.14 73.2-115.28.78-.57 1.71-.92 2.67-1.01h0c2.9-.28 5.43 1.88 5.75 4.83 5.24 48.36 25.17 104.02 78.86 150.39 3.42 2.95 8.7.58 8.77-3.99.46-26.86 5.34-96.99 41.15-160.11.82-1.44 2.25-2.43 3.86-2.69 164.24-25.88 329.48 39.78 341.83 44.83a5.17 5.17 0 0 0 1.59.36c76.53 4.74 128.48 21.05 155.79 32.07 2.73 1.1 5.8-.28 6.86-3.07 6.97-18.42 12.52-36.96 15.28-54.26.37-2.31-.79-4.59-2.83-5.65-14.16-7.36-72.58-34.47-175.1-40.81a4.84 4.84 0 0 1-1.59-.36c-12.36-5.04-177.6-70.71-341.83-44.83-1.61.25-3.04 1.25-3.86 2.69-35.81 63.12-40.69 133.26-41.15 160.11-.08 4.57-5.36 6.94-8.77 3.99-53.69-46.37-73.62-102.02-78.86-150.39-.32-2.95-2.86-5.1-5.75-4.83h0c-.96.09-1.89.44-2.67 1.01-43.87 32.14-66.04 92.32-73.2 115.28-1.27 4.06-6.46 5.08-9.15 1.82-34.24-41.5-47.46-98.95-52.39-142.22l-2.55.32c-40.49 49.94-40.84 99.87-38.58 121.31.47 4.46-4.28 7.57-8.04 5.24-44.99-27.9-64.79-67.4-72.6-103.75l-2.75.62c-1.49.33-2.79 1.28-3.53 2.64-19.84 36.53-18.25 91.5-16.64 113.57.31 4.27-4.17 7.21-7.84 5.15-11.88-6.69-21.45-14.35-29.19-22.37l-2.5 1.82v30.69c0 4.1-4.33 6.72-7.87 4.77-22.18-12.22-37.46-27.46-47.98-42.86-2.41-3.53-7.72-3.1-9.28.89-8.78 22.43-11.16 50.24-11.31 72.64-.04 6.09 8.2 7.56 10.27 1.85l1.03-2.74c1.56-4 6.89-4.44 9.3-.91zm-68.66 69.48c5.59 8.15 12.53 16.32 21.16 24.06 10.55 9.46 27.13 1.49 26.94-12.84-.15-11.54.22-25.05 1.81-38.77-23.27-12.61-39.12-28.43-49.91-44.17-143.08 81.51-292.41 284.52-292.41 284.52l12.87 54.83c39.16-50.38 161.47-200.36 279.54-267.62zm1022.37 102.03s62.25 3.77 111.77-16.93c4.42-49.54 24.87-80.84 35.91-94.41-27.23 26.37-72.13 35.48-105.3 38.49-21.24 41.42-42.38 72.85-42.38 72.85z"/></g><path d="M2247.29 2313.72c-23.82-21.27-244.94 26.59-363.32 111.69-11.12 64.68-13.91 119.21-8.19 163.36 0 0 255.37-114.73 288.12-111.69 32.76 3.04 116.89 69.14 116.89 69.14s-9.68-211.22-33.5-232.5z" class="Q"/><path d="m2221.23,2430.75l10.1,79.82c-24.35-16.14-51.73-32.05-67.41-33.51-24.93-2.28-178.32,63.37-250.56,95.05l30.91-129.97-30.91-35.88-.04-.05c122.22-72.94,311.98-112.15,333.96-92.5,6.92,6.15,12.64,28.22,17.24,56.48l-43.29,60.54Z" class="S"/><g class="Q"><path d="M2516.19 2907.48h-920.3c-146.41 0-279.6-74.25-356.31-198.62-49.01-79.51-74.74-171.05-76.46-272.08-2.09-122.82 31.56-260.17 100-408.32l-27.87-118.72c-1.14-4.87-.09-9.99 2.87-14.02 6.18-8.41 153.14-206.87 297.71-289.23a17.07 17.07 0 0 1 22.53 5.18c4.86 7.09 10.51 13.62 16.91 19.57-.24-28.18 2.64-67.01 17.3-95.47 2.86-5.55 8.53-9.1 14.77-9.25 6.2-.22 12.08 3.12 15.2 8.53 7.39 12.79 17.15 23.91 29.16 33.24v-9.07c0-5.45 2.6-10.58 7.01-13.79l2.5-1.82c6.88-5.02 16.41-4.2 22.33 1.93a103.61 103.61 0 0 0 6.8 6.42c-.13-29.2 3.34-71.02 21.01-101.57 2.39-4.13 6.4-7.07 11.05-8.12l5.09-1.14c4.45-.99 9.1-.17 12.93 2.28 3.84 2.46 6.53 6.34 7.49 10.79 6.97 32.47 22.5 59.03 46.3 79.3 1.32-28.27 10.17-68.81 42.97-109.26 2.78-3.42 6.77-5.64 11.14-6.19l2.55-.32c4.51-.58 9.09.7 12.68 3.52a17.12 17.12 0 0 1 6.41 11.49c3.9 34.25 13.35 79.11 35.89 115.52 12-30.6 35.01-75.98 73.15-103.23a17 17 0 0 1 8.31-3.1l6.7-.64c4.55-.42 9.05.97 12.54 3.88a17.03 17.03 0 0 1 6.08 11.63c4.33 49.49 22.94 92.03 55.43 126.89 3.18-36.25 13.17-92.58 43.42-144.65a17.06 17.06 0 0 1 12.01-8.27c164.67-26.9 327.91 35.13 351.74 44.71 120.34 7.79 181.63 43.37 184.19 44.89 5.91 3.5 9.15 10.21 8.21 17.01-8.07 58.66-46.95 130.34-69.88 168.56 30.99-1.83 78.36-8.98 104.7-34.49 6.49-6.29 16.75-6.42 23.41-.32a17.07 17.07 0 0 1 1.71 23.35c-14.82 18.22-43.33 65.12-29.24 144.11 15.45-28.83 40.98-64.2 80.47-87.24 5.27-3.09 11.8-3.1 17.1-.06 4.61 2.65 7.69 7.27 8.41 12.46 8.89 52.76-11.51 109.39-25.83 140.84 15.47-.64 36.07-3.75 54.99-13.83 5.63-3 12.49-2.61 17.74 1.03s8.04 9.91 7.21 16.25l-13.73 105.25c14.9 42.82 130.83 386.97 78.67 579.91 0 .03-.01.05-.02.08l-3.06 10.82c-26 88.54-78.74 164.46-152.52 219.58-73.37 54.81-160.38 83.78-251.61 83.78zm-1245.86-997.75l27.39 116.67a17.11 17.11 0 0 1-1.15 11.12c-123.17 263.81-132.56 483.66-27.92 653.41 70.43 114.21 192.77 182.4 327.25 182.4h920.3c170.45 0 323.16-114.65 371.36-278.82l2.9-10.26c51.72-191.41-77.94-559.72-79.26-563.41-.9-2.54-1.19-5.26-.84-7.93l10.5-80.55c-37.17 10.52-70.52 5.3-72.28 5.01-5.55-.91-10.3-4.49-12.69-9.58a17.09 17.09 0 0 1 .72-15.89c.38-.65 32.89-57.1 35.6-113.71-44.46 39.31-60.81 96.91-61 97.58-1.99 7.2-8.43 12.29-15.89 12.53-7.62.28-14.23-4.38-16.69-11.43-25.99-74.5-20.26-130.93-6.96-169.75-49.37 16.4-102.88 13.45-106.03 13.26-6.11-.37-11.55-3.99-14.27-9.48a17.07 17.07 0 0 1 1.14-17.09c.67-1 63.9-95.67 79.24-169.16-21.27-9.64-75.42-30.06-161.4-35.27a17.47 17.47 0 0 1-5.56-1.29c-1.67-.69-165.74-68.24-327.7-44.86-39.46 73.43-36.21 156.44-36.18 157.3.3 6.68-3.32 12.93-9.27 15.97-5.94 3.05-13.12 2.35-18.37-1.79-48.42-38.29-79.47-88.94-90.84-147.67-38 39.01-53.82 100.69-53.99 101.39-1.52 6.06-6.24 10.82-12.29 12.39-6.05 1.56-12.48-.3-16.75-4.87-31.11-33.31-47.7-77.66-56.49-117.68-21.86 45.18-13.2 82.88-12.73 84.82 1.58 6.55-.83 13.47-6.16 17.58-5.34 4.11-12.59 4.75-18.52 1.55-34.71-18.73-60.75-45.7-76.84-79.22-5.98 30.77-4.3 64.84-2.51 79.17.78 6.19-1.89 12.31-6.95 15.96a17.09 17.09 0 0 1-17.34 1.56 162.72 162.72 0 0 1-16-8.78v7.83c0 5.88-3.02 11.34-8 14.46s-11.22 3.46-16.5.91c-18.69-9.04-34.67-20.55-47.78-34.38-7.73 38.31-2.34 83.16-2.27 83.73a17.1 17.1 0 0 1-7.3 16.21c-5.27 3.61-12.12 3.97-17.75.93-18.17-9.82-33.68-22.19-46.25-36.88-120.47 74.59-244.3 232.66-269.67 265.99zm1636.59 679.03h.05-.05zm-675.62-63.55a14.65 14.65 0 0 1-14.5-12.8l-10.09-79.84a14.66 14.66 0 0 1 2.61-10.35l43.29-60.55c4.7-6.57 13.84-8.09 20.42-3.39 6.57 4.7 8.09 13.84 3.39 20.42l-39.96 55.88 9.37 74.16c1.02 8.02-4.66 15.34-12.68 16.35-.62.08-1.25.12-1.86.12zm-254.26-35.01c-.53 0-1.06-.03-1.6-.09a14.64 14.64 0 0 1-11.88-8.84l-10.37-24.5h-8.92c-8.08 0-14.63-6.55-14.63-14.63s6.55-14.63 14.63-14.63h18.61a14.64 14.64 0 0 1 13.48 8.93l3.95 9.33 8.63-12.11c2.54-3.57 6.55-5.81 10.93-6.11l167.51-11.4c8.02-.6 15.04 5.54 15.59 13.61.55 8.06-5.54 15.04-13.61 15.59l-160.61 10.93-19.8 27.79a14.63 14.63 0 0 1-11.92 6.14z"/><path d="M1913.36 2586.77c-1.12 0-2.26-.13-3.4-.4a14.63 14.63 0 0 1-10.84-17.62l29.2-122.73-26.05-30.21c-5.27-6.12-4.59-15.36 1.53-20.64 6.11-5.27 15.36-4.59 20.64 1.53l30.93 35.88c3.07 3.56 4.24 8.37 3.15 12.94l-30.93 130.01c-1.6 6.72-7.6 11.25-14.22 11.25z"/><path d="M1875.78 2603.77a14.98 14.98 0 0 1-14.88-13.07c-5.86-45.28-3.08-101.74 8.28-167.82.67-3.88 2.83-7.34 6.03-9.64 53.36-38.36 134.25-74.1 221.92-98.03 40.14-10.96 136.11-34.15 160.14-12.67 6.25 5.58 19.26 17.2 30.63 133.96 5.37 55.21 7.85 108.51 7.87 109.04a15 15 0 0 1-8.12 14.02c-5.22 2.69-11.51 2.08-16.13-1.54-33.5-26.32-89.47-64.19-109.01-66h-.48c-21.43 0-158.67 55.88-280.11 110.44-1.96.88-4.06 1.32-6.15 1.32zm21.94-169.7c-8.4 50.87-11.42 95.3-9.01 132.49 75.73-33.68 245.46-107.22 276.58-104.41 24.97 2.31 69.58 31.66 98.8 52.76-5.29-86.09-15.96-175.15-26.62-189.69-25.69-10.9-224.29 28.81-339.75 108.86zm340.37-108.57h0zm-1.05-.84h0zM662.23 3574.31c27.9-4.64 55.8-6.99 83.7-8.92 27.9-1.95 55.8-2.56 83.7-3.12 55.8-1.22 111.59-.57 167.39.09l83.7.53 83.69.03h1841.3l83.7-.02 83.7-1.13c27.9-.37 55.8.2 83.69 1.63 13.95.81 27.9 1.95 41.85 3.74 13.95 1.75 27.9 3.82 41.85 7.16 3.14.75 5.08 3.91 4.33 7.05a5.87 5.87 0 0 1-4.33 4.33c-13.95 3.34-27.9 5.41-41.85 7.16-13.95 1.79-27.9 2.92-41.85 3.74-27.9 1.43-55.8 2-83.69 1.63l-83.7-1.13-83.7-.02h-1841.3l-83.69.03-83.7.53-167.39.09c-27.9-.56-55.8-1.17-83.7-3.12-27.9-1.93-55.8-4.28-83.7-8.92a5.76 5.76 0 0 1-4.74-6.64 5.78 5.78 0 0 1 4.74-4.74z"/><g class="R"><path d="m3256.94,3580H734.05c-141.65,13.79-223.55,30.06-223.55,47.5,0,49.71,664.86,90,1485,90s1485-40.29,1485-90c0-17.44-81.91-33.71-223.55-47.5Z"/></g></g><path d="M1369.09 3580H917.83c8.58-41.58 27.52-79.1 53.87-109.59 42.21-48.96 103.55-79.78 171.76-79.78s129.54 30.82 171.76 79.78c26.35 30.5 45.29 68.02 53.87 109.59z" class="T"/><path d="M1369.09 3597.07H917.83a17.06 17.06 0 0 1-13.23-6.29 17.09 17.09 0 0 1-3.49-14.23c8.96-43.46 28.91-84.02 57.68-117.31 46.94-54.45 114.26-85.69 184.67-85.69s137.73 31.24 184.69 85.7c28.75 33.28 48.7 73.84 57.66 117.29a17.06 17.06 0 0 1-3.48 14.23 17.08 17.08 0 0 1-13.24 6.29zm-429.3-34.14h407.33c-9.16-29.97-24.44-57.77-44.82-81.36-40.48-46.95-98.37-73.87-158.84-73.87s-118.36 26.92-158.83 73.86c-20.4 23.6-35.68 51.41-44.84 81.38z" class="Q"/><path d="m1315.22,3470.41c-42.26,47.09-103.55,76.73-171.76,76.73s-129.5-29.63-171.76-76.73c42.21-48.96,103.55-79.78,171.76-79.78s129.54,30.82,171.76,79.78Z" class="U"/><g class="R Q"><path d="M1315.22 3470.41c-39.05-45.29-94.46-74.99-156.54-79.21 31.55 13.87 59.56 34.75 82.08 60.88l.79.92c36.23 42.35 5.84 108.68-49.25 108.68H922.42c-1.73 6.02-3.32 12.11-4.6 18.33h451.26c-8.58-41.58-27.52-79.1-53.87-109.59z"/></g><g class="Q"><path d="m1143.46,3564.2c-70.25,0-137.48-30.03-184.46-82.39-5.74-6.39-5.83-16.04-.22-22.55,46.96-54.47,114.28-85.7,184.69-85.7s137.73,31.24,184.69,85.7c5.61,6.5,5.51,16.16-.22,22.55-46.98,52.36-114.21,82.39-184.46,82.39Zm-148.28-94.03c39.68,38.24,92.9,59.89,148.28,59.89s108.6-21.66,148.28-59.89c-39.65-39.88-92.89-62.47-148.28-62.47s-108.63,22.59-148.28,62.47Z"/><path d="M1127.92 3484.87c-2.25-8.08-3.67-16.09-4.97-24.1-1.18-8-2.13-15.98-2.77-23.93-.63-7.96-1.25-15.91-.96-23.79.27-7.89.96-15.74 3.1-23.48a15.28 15.28 0 0 1 18.8-10.66c6.17 1.7 10.4 6.97 11.11 12.95.94 7.98.43 15.85-.51 23.68-.92 7.84-2.74 15.6-4.58 23.37s-3.99 15.51-6.38 23.23c-2.5 7.72-5.13 15.42-8.58 23.06a2.28 2.28 0 0 1-3.02 1.14c-.64-.29-1.08-.84-1.26-1.47z"/></g><path d="M2176.46 3466.99h844.27v69.52h-844.27z" class="T"/><g class="Q"><path d="m3020.73,3466.99v69.52h-844.27v-69.52h844.27m0-30h-844.27c-16.57,0-30,13.43-30,30v69.52c0,16.57,13.43,30,30,30h844.27c16.57,0,30-13.43,30-30v-69.52c0-16.57-13.43-30-30-30h0Z"/><use xlink:href="#F"/><use xlink:href="#F" x="-78.17"/><use xlink:href="#F" x="-156.34"/><use xlink:href="#F" x="-234.52"/><use xlink:href="#F" x="-312.69"/><use xlink:href="#F" x="-390.87"/><use xlink:href="#F" x="-469.04"/><use xlink:href="#F" x="-547.21"/><use xlink:href="#F" x="-625.39"/><path d="M2235.65 3553.58a17.07 17.07 0 0 1-17.07-17.07v-69.52a17.07 17.07 0 1 1 34.14 0v69.52a17.07 17.07 0 0 1-17.07 17.07z"/></g><path d="M2072.6 3518.27h984.98V3580H2072.6z" class="U"/><path d="M3057.59 3597.07H2072.6a17.07 17.07 0 0 1-17.07-17.07v-61.73a17.07 17.07 0 0 1 17.07-17.07h984.99a17.07 17.07 0 0 1 17.07 17.07V3580a17.07 17.07 0 0 1-17.07 17.07zm-967.91-34.14h950.84v-27.59h-950.84v27.59z" class="Q"/><rect x="1366.81" y="2629.31" width="1328.2" height="677.74" rx="73.16" class="U"/><g opacity=".7" class="S"><path d="M2628.01 2629.31H1433.82c-37.01 0-67.01 30.62-67.01 68.38v42.55c0-37.77 30-68.38 67.01-68.38h1194.19c37.01 0 67.01 30.62 67.01 68.38v-42.55c0-37.77-30-68.38-67.01-68.38z"/></g><g class="R Q"><path d="M2641.25 2630.66l.45 7.67h0c0 336.54-267.33 609.36-597.1 609.36h-664.1a65.63 65.63 0 0 1-13.24-1.35c3.74 34.15 32.1 60.71 66.56 60.71h1194.19c37.01 0 67.01-30.62 67.01-68.38v-540.98c0-33.14-23.1-60.76-53.76-67.03z"/></g><path d="M2621.85 3324.12H1439.97c-49.75 0-90.23-40.48-90.23-90.23v-531.42c0-49.76 40.48-90.23 90.23-90.23h1181.88c49.75 0 90.23 40.48 90.23 90.23v531.42c0 49.76-40.48 90.23-90.23 90.23zm-1181.88-677.74c-30.93 0-56.09 25.17-56.09 56.09v531.42c0 30.93 25.16 56.09 56.09 56.09h1181.88c30.93 0 56.09-25.17 56.09-56.09v-531.42c0-30.93-25.16-56.09-56.09-56.09H1439.97zm1171.66 31.29c0 3.71-261.33 6.71-583.69 6.71s-583.7-3-583.7-6.71 261.33-6.71 583.7-6.71l583.69 6.71z" class="Q"/><path d="M2237.04 3507.97c-42.35-238.61-118.83-397.94-206.11-397.94s-164.08 159.87-206.38 399.26c-65.44 16.68-123.51 40.89-170.64 70.71h759.22c-48.43-30.63-108.42-55.39-176.09-72.03zm-203.52-23.89c-37.39 0-73.84 2.28-108.91 6.61l2.01-12.4 2.36-14.04 2.41-13.73 1.25-6.74 1.12-6.02.67-3.65 1.38-6.98 1.88-9.53c3.84-18.83 7.87-36.61 12.06-53.16l4.47-16.96.22-.77 4.2-14.68c1.78-6.16 3.66-12.08 5.58-17.78l1.65-5.01 1.7-4.88c.54-1.64 1.12-3.19 1.7-4.79 1.12-3.15 2.28-6.2 3.44-9.17 1.7-4.47 3.49-8.75 5.23-12.81.58-1.41 1.2-2.73 1.78-4.06s1.21-2.6 1.79-3.88c5.71-12.22 11.61-22.47 17.65-30.63.53-.77 1.12-1.5 1.65-2.23.99-1.23 1.97-2.46 2.99-3.6a30.67 30.67 0 0 1 1.92-2.14l.98-1 .62-.69.63-.64c3.53-3.51 7.15-6.29 10.76-8.34a21.78 21.78 0 0 1 1.83-.96l1.07-.5c.44-.23.89-.41 1.34-.59 1.03-.41 2.05-.77 3.13-1.05.58-.19 1.16-.32 1.79-.46 1.2-.23 2.36-.41 3.57-.5l1.03-.04 1.03-.04 1.03.04 1.03.04c1.21.09 2.37.28 3.57.5.63.14 1.21.27 1.79.46 1.07.27 2.1.64 3.13 1.05.44.18.89.37 1.34.59l1.07.5a21.78 21.78 0 0 1 1.83.96c3.62 2.05 7.23 4.83 10.76 8.34.45.41.89.86 1.3 1.32l.94 1c.67.69 1.3 1.37 1.92 2.14 1.03 1.14 2.01 2.37 2.99 3.6.53.73 1.12 1.46 1.65 2.23 6.03 8.16 11.93 18.42 17.65 30.63l1.79 3.88c.58 1.32 1.21 2.64 1.78 4.06 1.74 4.06 3.53 8.34 5.23 12.81l3.44 9.17 1.7 4.79 1.7 4.88c.58 1.64 1.12 3.33 1.65 5.01 1.92 5.7 3.8 11.62 5.58 17.78l4.2 14.68.22.77 4.47 16.96c4.2 16.55 8.22 34.33 12.06 53.16l1.88 9.53c.49 2.28.94 4.65 1.38 6.98l.67 3.65 1.12 6.02 1.25 6.74 2.41 13.73 2.36 14.04 2.01 12.4c-35.06-4.33-71.52-6.61-108.91-6.61z" class="U"/><g class="Q R"><path d="M2009.99 3219.44l-1.07-.5c-.44-.23-.89-.41-1.34-.59-1.03-.41-2.05-.77-3.13-1.05-.58-.19-1.16-.32-1.79-.46l-3.57-.5-1.03-.04-1.03-.04-1.03.04-1.03.04c-1.21.09-2.37.28-3.57.5l-1.79.46c-1.07.27-2.1.64-3.13 1.05l-1.34.59-1.07.5-1.83.96c-3.62 2.05-7.23 4.83-10.76 8.34l-.63.64-.62.69-.98 1c-.67.69-1.3 1.37-1.92 2.14-1.03 1.14-2.01 2.37-2.99 3.6-.53.73-1.12 1.46-1.65 2.23-6.03 8.16-11.93 18.42-17.65 30.63l-1.79 3.88c-.58 1.32-1.21 2.64-1.78 4.06-1.74 4.06-3.53 8.34-5.23 12.81l-3.44 9.17-1.7 4.79c-.58 1.59-1.12 3.24-1.7 4.88s-1.12 3.33-1.65 5.01c-1.92 5.7-3.8 11.62-5.58 17.78l-4.2 14.68-.22.77-4.47 16.96c-4.2 16.55-8.22 34.33-12.06 53.16l-1.88 9.53c-.49 2.28-.94 4.65-1.38 6.98l-.67 3.65-1.12 6.02-1.25 6.74-2.41 13.73-2.36 14.04c0 .04-.01.08-.02.12-1.01 6.15 4.04 11.53 10.12 10.87 10.08-1.09 20.28-2 30.56-2.75l8.41-7.86 2.43-14.43 2.41-13.73 1.25-6.74 1.12-6.02.67-3.65 1.38-6.98 1.88-9.53c3.84-18.83 7.87-36.61 12.06-53.16l4.47-16.96.22-.77 4.2-14.68c1.78-6.16 3.66-12.08 5.58-17.78l1.65-5.01 1.7-4.88c.54-1.64 1.12-3.19 1.7-4.79 1.12-3.15 2.28-6.2 3.44-9.17 1.7-4.47 3.49-8.75 5.23-12.81.58-1.41 1.2-2.73 1.78-4.06s1.21-2.6 1.79-3.88c5.71-12.22 11.61-22.47 17.65-30.63.53-.77 1.12-1.5 1.65-2.23.99-1.23 1.97-2.46 2.99-3.6a30.67 30.67 0 0 1 1.92-2.14l.98-1 .62-.69.63-.64c.33-.32.65-.61.98-.92-3.22-3.07-6.5-5.56-9.78-7.42a21.78 21.78 0 0 0-1.83-.96zm-1.04 265.02c28.81.77 57 2.86 84.34 6.24l-.75-4.65c-19.37-1.27-39.04-1.96-59.01-1.96-8.24 0-16.42.15-24.57.37zm228.09 23.51c-42.35-238.61-118.83-397.94-206.11-397.94-8.3 0-16.49 1.45-24.58 4.26 76.94 26.74 143.22 177.74 181.55 393.68 67.67 16.64 127.66 41.39 176.09 72.03h49.14c-48.43-30.63-108.42-55.39-176.09-72.03z"/></g><g class="Q"><path d="M2413.13 3597.07h-759.22c-7.6 0-14.28-5.02-16.4-12.32-2.11-7.3.85-15.12 7.27-19.18 46.68-29.53 102.11-53.07 164.89-70.02 46.73-256.04 127.15-402.58 221.25-402.58s174.18 146.03 220.96 401.17c64.16 16.79 122.87 41.39 170.37 71.44 6.42 4.06 9.38 11.88 7.27 19.18s-8.8 12.32-16.4 12.32zm-691.25-34.14h623.3c-34.23-15.53-72.14-28.53-112.22-38.38a17.06 17.06 0 0 1-12.73-13.59c-41.39-233.18-115.69-383.85-189.31-383.85s-148.22 151.19-189.57 385.16c-1.17 6.61-6.09 11.91-12.59 13.57-38.11 9.72-74.2 22.27-106.88 37.09zm420.54-55.17a16.4 16.4 0 0 1-2.09-.13c-69.65-8.6-143.97-8.6-213.62 0a16.98 16.98 0 0 1-14.38-5.1 17.08 17.08 0 0 1-4.57-14.56l2.02-12.45 2.39-14.2 2.45-13.94 1.29-6.93 1.11-6.04.81-4.36 1.3-6.54 1.81-9.21c3.99-19.52 8.11-37.66 12.27-54.06l4.56-17.29.26-.92 4.26-14.89a431.85 431.85 0 0 1 5.77-18.34c.5-1.59 1.1-3.45 1.74-5.26l.61-1.76 1.04-3c.49-1.46 1-2.87 1.52-4.28l.28-.78c1.12-3.17 2.35-6.4 3.57-9.54 1.72-4.54 3.61-9.05 5.44-13.33.34-.84.83-1.92 1.3-2.99l.53-1.19a98.74 98.74 0 0 1 1.26-2.74l.63-1.35c6.22-13.3 12.68-24.51 19.29-33.49a60.78 60.78 0 0 1 1.28-1.75l.44-.58a15.45 15.45 0 0 1 .49-.64c1.17-1.46 2.25-2.79 3.34-4.03a46.53 46.53 0 0 1 2.73-3.01l1.12-1.18.48-.5.62-.63c4.67-4.64 9.5-8.37 14.5-11.21.95-.55 2.01-1.09 2.99-1.56l.93-.44c.77-.38 1.55-.71 2.32-1.03 1.22-.48 2.9-1.12 4.87-1.65.92-.28 1.86-.5 2.86-.72 2.26-.43 4.04-.7 5.88-.84l.58-.03 2.06-.09a17.77 17.77 0 0 1 1.46 0l2.06.09c.19 0 .39.02.58.03 1.84.14 3.62.41 5.46.75 1.35.29 2.34.53 3.26.81a42.05 42.05 0 0 1 4.78 1.61c.87.36 1.66.69 2.44 1.07l.9.42c1.03.48 2.06 1.02 3.09 1.61 4.85 2.76 9.61 6.42 14.08 10.83.73.68 1.45 1.42 2.11 2.16l.77.83c.69.69 1.56 1.65 2.45 2.72 1.09 1.24 2.15 2.54 3.2 3.86.17.21.45.57.61.79l.44.58 1.28 1.75c6.61 8.97 13.07 20.19 19.23 33.33l.69 1.49 1.26 2.75.53 1.19 1.43 3.27c1.71 3.97 3.59 8.49 5.38 13.19l3.57 9.53.31.85 1.44 4.07c.34.93.66 1.88.99 2.85l.66 1.91c.61 1.73 1.18 3.51 1.74 5.29a478.1 478.1 0 0 1 5.8 18.44l4.26 14.9.16.55 4.62 17.51c4.19 16.54 8.31 34.69 12.25 53.96 0 .03.1.53.11.56l1.8 9.15c.39 1.76.81 3.97 1.23 6.16l.84 4.51 1.04 5.59.11.6 1.25 6.78 2.45 13.95 2.38 14.12 2.01 12.37c.85 5.3-.83 10.69-4.57 14.56a17.06 17.06 0 0 1-12.29 5.22zm-108.91-40.75c29.71 0 59.36 1.43 88.42 4.25l-.71-4.08-2.37-13.51-1.21-6.56-.17-.91-.95-5.1-.86-4.64-1.14-5.7-1.84-9.36c-3.9-19.12-7.9-36.74-11.96-52.75l-4.38-16.62-.16-.53-4.16-14.57a425.13 425.13 0 0 0-5.41-17.22l-.18-.53-1.39-4.23-.78-2.25-.86-2.48-.2-.56c-.36-1.11-.75-2.17-1.14-3.24l-.37-1.03c-1.1-3.08-2.2-5.97-3.29-8.78-1.66-4.35-3.35-8.41-5.01-12.26-.43-1.04-.75-1.75-1.06-2.45l-.67-1.49c-.3-.68-.61-1.34-.92-1.99l-.77-1.67c-5.18-11.05-10.53-20.38-15.84-27.57-.12-.16-.23-.33-.35-.49l-1.05-1.42c-.8-.99-1.49-1.86-2.21-2.67a17.4 17.4 0 0 1-.56-.65 10.07 10.07 0 0 0-.82-.9l-1.24-1.31-.41-.45c-.18-.16-.29-.27-.46-.44-2.39-2.38-4.8-4.27-7.17-5.61-.28-.16-.5-.27-.71-.37l-.99-.47c-.16-.07-.31-.15-.46-.22-.27-.09-.58-.22-.91-.31-.4-.1-.79-.21-1.18-.34-.2-.01-.65-.09-1.14-.14l-.96-.04-.96.04c-.49.05-.97.14-1.46.23-.38.13-.45.15-.84.25-.34.08-.65.22-.97.35l-1.49.69c-.14.07-.33.17-.52.28-2.47 1.4-4.88 3.29-7.28 5.67l-.64.69-.45.48-.98 1c-.33.34-.61.64-.89.98-.17.21-.34.41-.52.61-.76.85-1.48 1.76-2.21 2.68l-1.05 1.42-.35.49c-5.32 7.2-10.67 16.52-15.91 27.72l-.73 1.58c-.3.63-.61 1.27-.89 1.93l-.67 1.49-.94 2.15c-1.77 4.13-3.47 8.18-5.07 12.41l-3.31 8.8-.36.99-1.2 3.4c-.06.19-.13.37-.2.56-.31.85-.61 1.72-.9 2.59l-.72 2.08c-.54 1.51-1.02 3.02-1.49 4.53-2.09 6.21-3.84 11.8-5.46 17.37l-4.14 14.47-.25.9-4.35 16.49c-4.02 15.86-8.02 33.49-11.88 52.36l-1.84 9.35-1.22 6.08-.83 4.49-1.08 5.82-1.25 6.75-2.38 13.52-.73 4.22c29.07-2.82 58.71-4.25 88.42-4.25zm587.53-1580.74l-331.31 72.18c-4.75 35.19 5.35 61.87 26.8 82.06l304.5-154.24z"/><path d="M2316.54 2057.58c-4.26 0-8.46-1.59-11.7-4.64-26.55-24.98-37.32-57.54-32.03-96.77a17.06 17.06 0 0 1 13.29-14.39l331.31-72.18c8.35-1.83 16.84 2.86 19.72 10.96a17.08 17.08 0 0 1-8.37 20.95l-304.5 154.24c-2.45 1.24-5.09 1.84-7.71 1.84zm-10.85-85.13c-.47 18.38 4.37 33.91 14.64 47.01l173.89-88.08-188.53 41.07zm-716.91-149.47l315.57 125.74c-.87 35.51-15.05 60.18-39.41 76.58l-276.16-202.32z"/><path d="M1864.94 2042.37a17.03 17.03 0 0 1-10.09-3.3l-276.16-202.31a17.08 17.08 0 0 1-4.85-22.04c4.16-7.52 13.26-10.77 21.25-7.59l315.57 125.74c6.64 2.64 10.92 9.14 10.75 16.28-.97 39.62-16.76 70.01-46.95 90.32-2.89 1.94-6.21 2.91-9.53 2.91zm-157.84-153.86l157.5 115.39c12.17-11.23 19.36-25.75 21.79-43.95l-179.29-71.44zm208.14 164.92c-.99-1.56-.15-4.35 2.05-7.93 2.18-3.62 5.99-7.74 9.86-13.38 8.35-10.66 18.44-25.5 26.03-43.86 7.9-18.24 11.65-36.43 14.77-49.86 2.97-13.49 5.02-22.32 8.71-22.87 3.62-.57 8.41 8.34 10.24 23.65 1.66 15.15.58 37.19-8.98 59.45-1.21 2.76-2.32 5.52-3.65 8.13l-4.33 7.54c-2.67 5.03-6.39 9.2-9.51 13.36-6.81 7.93-13.78 14.3-20.45 18.44-6.32 4.58-12.39 6.76-16.67 7.94-4.32 1.14-7.08.96-8.08-.6z"/></g><path d="M1619.86 1680.62c.57-1.94 7.72-.95 18.34-1.38 5.29-.37 11.42-1.21 17.7-3.46 6.31-2.16 12.61-5.99 18.53-11.08 11.75-10.45 19.36-23.74 24.63-33.35 5.28-9.72 8.3-16.11 10.14-15.69 1.78.38 1.97 7.9-1.36 19.29-3.36 11.21-10.22 26.98-24.57 39.85-7.22 6.25-15.59 10.83-23.78 12.82-8.16 2.12-15.77 2-21.82 1.11-12.15-2.16-18.33-6.54-17.81-8.09zm166.95 35.33c.6.69-.63 2.98-3.79 6.12-3.19 3.1-8.24 7.23-15.9 10.56-3.82 1.63-8.38 3.03-13.72 3.26-5.28.33-11.46-.96-16.87-4.25-5.4-3.31-9.61-8.33-12.69-13.72-3.12-5.42-5.12-11.31-6.69-17.25-3.22-11.99-3.78-24.15-2.17-34.82 1.58-10.71 5.14-19.86 9.1-26.87 3.97-7.03 8.3-11.98 11.79-14.9 1.75-1.47 3.26-2.43 4.55-2.89.31-.11.58-.2.82-.25a2.74 2.74 0 0 1 .87-.06c.45.06.58.25.58.47s-.13.54-.2.84l-.08.41-.31.7-2.25 4.14c-1.95 3.59-4.71 8.83-7.2 15.57-2.49 6.73-4.69 14.98-5.41 24.26-.75 9.27.06 19.53 2.85 29.95 2.6 10.54 6.98 19.66 13.14 24.05 6.05 4.43 14.13 4.1 20.8 2.38 6.72-1.7 12.17-4.27 16.01-5.89 3.85-1.67 6.13-2.52 6.74-1.82zm-183.14 39.32c-.8-.21-1.02-3.21.43-8.29 1.33-5.13 4.86-12.06 10.98-19.36 6.19-7.11 15.16-14.94 27.71-19.07 6.17-2.31 13.26-3.03 20.55-2.86 3.58.61 7.4.72 10.93 2.07 1.79.58 3.63 1.09 5.4 1.78l5.12 2.53 2.54 1.3 2.3 1.6 4.53 3.2c2.84 2.36 5.49 5.01 7.96 7.64l3.21 4.46 1.55 2.21 1.16 2.44 2.21 4.82c.53 1.65.92 3.34 1.36 4.97 3.24 13.36-.04 25.11-3.37 33.75-3.53 8.76-7.75 14.98-11.01 18.97-3.3 3.97-5.72 5.7-6.45 5.14-1.66-1.11 4.14-10.71 8.44-27.05 1.93-8.06 3.49-18.1.43-27.67l-1.16-3.58-1.79-3.39-.87-1.73-1.23-1.56-2.43-3.2c-1.97-1.91-3.99-3.88-6.22-5.7l-3.66-2.51-1.84-1.29-1.98-.98-3.94-1.99c-1.34-.52-2.73-.89-4.07-1.36-2.65-1.14-5.49-1.13-8.16-1.76-5.46-.2-10.86-.02-15.86 1.57-10.12 2.61-18.37 8.46-24.56 13.87-12.56 11.15-16.17 21.71-18.22 21.05z" fill="#f73737"/><g class="Q"><use xlink:href="#E" x="454.7" y="-245.36"/><path d="M1523.43 1552.44c1.3 5.82 3.31 11.65 5.62 17.15 2.34 5.52 4.97 10.83 8.02 15.82 3.04 4.99 6.27 9.75 9.91 14.11 3.51 4.43 7.48 8.41 11.42 12.18 6.96 6.66 7.21 17.71.55 24.67s-17.71 7.21-24.67.55a17.37 17.37 0 0 1-3.96-5.68l-.11-.28c-2.77-6.49-5.27-12.97-7.08-19.6-1.94-6.57-3.23-13.25-4.18-19.85-.95-6.61-1.32-13.23-1.3-19.75.05-6.55.49-12.93 1.69-19.39a2.07 2.07 0 0 1 2.42-1.66c.84.16 1.47.8 1.65 1.58l.04.16zm67.27-8.84v-.04l2.29 8.54c-4.14-12.74-6.51-25.61-7.11-38.23-.58-12.61.29-24.98 3.22-36.73.11-.44.55-.7.99-.6.31.08.53.32.6.62v.07c2.52 11.44 7.02 22.21 12.44 31.96 2.76 4.86 5.7 9.51 9.01 13.8 3.19 4.35 6.81 8.3 10.41 12.03 1.53 1.58 2.29 3.63 2.29 5.66v2.92a17.07 17.07 0 0 1-34.14 0zm49.94-55.84c1.67 6.15 4.2 12.19 7.09 17.8 2.92 5.63 6.21 10.96 9.97 15.83 3.75 4.87 7.71 9.41 12.13 13.39 4.27 4.09 9.03 7.54 13.73 10.75 7.94 5.44 9.97 16.28 4.53 24.22s-16.28 9.97-24.22 4.53c-1.92-1.32-3.5-2.95-4.7-4.78l-.13-.21c-4.15-6.36-7.97-12.76-10.95-19.53-3.13-6.66-5.46-13.59-7.3-20.48-1.86-6.9-2.99-13.89-3.58-20.81-.58-6.94-.62-13.76.25-20.63a1.62 1.62 0 0 1 1.8-1.4c.67.08 1.19.56 1.35 1.17l.03.13zm73.92-26.34c-.57-8.62-.91-17.14-.48-25.57.28-8.43 1.12-16.74 2.34-24.93 1.19-8.19 2.83-16.24 4.86-24.15 2.04-7.94 4.38-15.61 7.41-23.33a3.55 3.55 0 0 1 4.6-2c1.49.59 2.37 2.08 2.23 3.61l-.02.2c-.67 7.54-.77 15.41-.49 23.06.27 7.69.92 15.32 2 22.83 1.04 7.51 2.44 14.9 4.31 22.09 1.73 7.22 4.13 14.18 6.61 20.95l.06.17c3.28 8.95-1.33 18.86-10.28 22.14-8.95 3.27-18.86-1.33-22.14-10.28-.57-1.56-.9-3.22-1.01-4.79zm121.49-24.8c.81-10.79 1.99-21.46 3.54-32.01 1.57-10.59 3.42-20.93 5.89-31.43.64-2.73 3.37-4.42 6.1-3.78 2.06.49 3.54 2.17 3.85 4.14l.03.21c1.58 9.94 3.75 20.05 6.18 29.89 2.46 9.87 5.24 19.59 8.34 29.12 2.97 9.15-2.04 18.98-11.19 21.95s-18.98-2.04-21.95-11.19c-.71-2.19-.97-4.43-.82-6.6l.03-.3zm951.4 346.57a17.08 17.08 0 0 1-14.76-8.46 17.07 17.07 0 0 1 6.13-23.35c6.28-3.67 12.82-6.96 19.44-9.77 8.69-3.69 18.7.36 22.39 9.03 3.69 8.68-.36 18.7-9.04 22.39a139.2 139.2 0 0 0-15.58 7.83c-2.71 1.58-5.67 2.33-8.59 2.33zm-73.1-82.38a17.05 17.05 0 0 1-11.62-4.56c-6.6-6.13-7.3-16.34-1.6-23.31 3.76-4.6 6.7-7.59 8.28-9.09l.06-.06c6.66-6.67 17.48-6.67 24.14 0 6.42 6.42 6.66 16.67.72 23.38-2.73 3.36-5.42 6.3-8.24 8.97a17.03 17.03 0 0 1-11.75 4.68zm-63.59-148.66a17.12 17.12 0 0 1-2.36-.16c-9.34-1.29-15.86-9.91-14.57-19.25 3.62-26.14-.84-44.05-13.26-53.23-60.88-44.97-136.79 24.63-137.55 25.34-5.41 5.04-13.45 6.03-19.91 2.45-6.47-3.58-9.89-10.92-8.49-18.18 9.64-49.75-4.22-90.97-39.05-116.06-49.11-35.38-128.63-32.9-197.89 6.17-31.58 17.8-57.37 43.7-76.66 76.98a17.071 17.071 0 1 1-29.54-17.12c22.39-38.63 52.48-68.77 89.43-89.6 80.63-45.48 174.92-47.14 234.61-4.13 36.27 26.14 55.59 64.6 56.29 110.65 40.02-24.07 98.57-41.24 149.05-3.95 23.23 17.19 32.24 45.91 26.78 85.36-1.18 8.55-8.5 14.73-16.89 14.73zm-670.05-92.54c-2.25-9.64-2.86-19.55-2.29-29.35.4-9.81 2.33-19.51 4.59-29.01 2.26-9.51 5.35-18.8 9.04-27.8 3.81-8.98 8.09-17.7 13.87-25.79.71-1 2.1-1.23 3.1-.52.62.44.94 1.14.93 1.85v.14c-.46 18.96-.64 37.23-.06 55.11l1.12 26.51c.12 8.76.5 17.4-.42 26.25l-.08.73c-.86 8.32-8.31 14.36-16.62 13.5-6.59-.68-11.75-5.52-13.19-11.62zm860.83 463.31c-6.14 0-12.07-3.32-15.12-9.12-4.39-8.34-1.19-18.66 7.15-23.06 3.54-1.86 7.11-4.07 10.63-6.57 7.69-5.45 18.34-3.64 23.8 4.04 5.46 7.69 3.65 18.35-4.04 23.8-4.74 3.36-9.61 6.37-14.48 8.93-2.54 1.34-5.26 1.97-7.94 1.97zm-652.97 648.95c-1.45 1.24-7.65-4.02-18.37-10.45-5.35-3.14-11.92-6.44-19.35-8.39-7.53-2.17-15.25-1.85-24.39.38-18.16 4.55-34.57 12.23-46.51 17.04-11.98 4.98-19.65 7.84-20.64 6.26-.97-1.56 5.06-7.36 16.2-14.64 5.58-3.63 12.43-7.65 20.4-11.53 8-3.84 17.06-7.68 27.45-10.18 2.63-.57 5.18-1.2 7.9-1.46 2.61-.44 5.38-.51 8.12-.47 2.72-.04 5.33.49 7.89.81 2.47.66 4.98 1.06 7.2 1.98 9.12 3.2 16.12 8.03 21.33 12.54 10.36 9.21 14.17 17.01 12.79 18.12zm103.39-274.1c-1.71.76-5.94-5.04-13.22-13.53-3.66-4.21-8.04-9.12-13.41-13.79-2.69-2.31-5.55-4.66-8.71-6.71-.38-.26-.79-.56-1.15-.78l-1-.43a35.07 35.07 0 0 1-1.94-.97c-1.64-.22-2.99-.97-4.85-.98-7.08-.73-14.93.78-21.87 2.56-7 1.82-13.34 3.99-18.7 5.82-10.71 3.75-17.57 6.09-18.55 4.5-.97-1.56 4.31-6.89 14.51-13.08 5.12-3.05 11.48-6.31 19.09-9.04 7.61-2.61 16.52-5.09 27.09-4.07 2.58.08 5.33 1.15 7.89 1.78a88.61 88.61 0 0 1 3.77 1.91l1.83 1c.52.34.94.68 1.41 1.03 3.72 2.66 6.9 5.64 9.76 8.58 5.69 5.93 9.71 12.03 12.64 17.31 5.8 10.64 7.08 18.19 5.41 18.9z"/></g><path d="M1124.57 3031.73c0 51.65-57.31 147.39-181.67 155.77 0 0-168.99-83.97-180.16-136.4s23.99-101.98 23.99-101.98h.04c-6.61-32.28-10.01-63.18-5.05-82.65 14.52-56.99 77.59-15.96 77.59-15.96s28.23-19.92 48.33-19.92 36.85 23.89 36.85 23.89 26.71-9.66 47.53-7.02c20.86 2.69 43.2 28.13 43.2 28.13s33.15-13.31 46.9 8.75c13.76 22.02 5.58 62.68 5.58 62.68s36.85 33.05 36.85 84.7z" class="W"/><g class="Q"><path d="m942.9,3204.58c-2.63,0-5.23-.61-7.6-1.78-29.45-14.63-176.99-90.56-189.26-148.13-10.23-48.03,12.81-92.76,22.64-109.01-7.15-37.26-8.29-64.58-3.5-83.39,6.37-25.01,20.7-35.33,31.59-39.59,22.52-8.78,48.11.94,61.96,7.94,11.53-6.89,31.51-17.08,48.91-17.08,18.57,0,33.77,12.15,42.62,21.35,11.13-2.96,28.34-6.34,43.91-4.35,18.54,2.39,36.17,16.45,46.02,25.75,18.04-4.04,42.77-2.86,56.42,19.03,12.89,20.63,11.22,50.76,9.28,65.98,12.04,13.51,35.74,45.77,35.74,90.44,0,65.18-70.37,164.23-197.6,172.81-.38.03-.77.04-1.15.04Zm-142.7-244.9c-3.76,5.68-29.54,46.65-20.76,87.88,6.38,29.94,99.97,88.81,166.87,122.57,112.45-9.78,161.19-95.87,161.19-138.39s-30.93-71.76-31.24-72.05c-4.42-4.04-6.46-10.15-5.28-16.02,2.61-13.19,4.01-38.53-3.32-50.28-5.8-9.3-25.95-1.99-26.15-1.91-6.67,2.57-14.38.78-19.1-4.61-7.56-8.55-22.68-21.19-32.55-22.46-13.64-1.75-33.61,4-39.54,6.14-7.25,2.62-15.36.06-19.78-6.25-4.77-6.67-15.37-16.62-22.88-16.62-10.04,0-28.56,9.83-38.51,16.81-5.69,4-13.29,4.16-19.13.35-8.3-5.33-29.24-14.91-40.85-10.35-1.86.73-7.52,2.96-10.89,16.21-2.56,10.06-3.74,31.23,5.23,75.01,1.01,4.92-.2,10.03-3.3,13.97Z"/><path d="M821.22 3079.54c-9.82-20.47-18.95-41.2-27.57-62.29-8.61-21.09-16.61-42.54-23.59-64.69a17.17 17.17 0 0 1 11.21-21.53 17.17 17.17 0 0 1 21.53 11.21 18.6 18.6 0 0 1 .71 3.47c2.17 21.81 5.5 43.87 9.54 65.86 4.05 21.99 8.71 44.02 14.07 65.82v.05c.43 1.69-.61 3.4-2.29 3.81-1.47.36-2.96-.38-3.6-1.7zm52.56-219.9c-.41 0-1.29.81-1.97 1.35l-2.18 1.96-4.24 4.39c-2.73 3.09-5.25 6.45-7.5 10.05-2.3 3.61-4.13 7.49-5.67 11.65-1.57 4.17-2.41 8.6-2.92 13.34-2.27-4.08-4.36-8.63-5.62-13.48-1.3-4.83-2.21-9.96-2.48-15.13-.32-5.19-.2-10.47.34-15.77.29-2.65.65-5.31 1.15-7.99a70.48 70.48 0 0 1 .86-4.07c.38-1.45.59-2.6 1.35-4.53l28.87 18.23z"/></g><g class="W"><path d="M3159.67 2783.83c-.4 12.45-1.83 21.93-1.83 21.93m96.98 25.39c20.64-33.05 21.49-87.48 21.49-87.48m70.49 75.21c-8.31 18.28-16.35 37.97-19.21 51.01"/><path d="M3488.22 2772.75c-8.84 21.38-25.33 62.46-36.32 97.15-13.18 41.67-51.33 46.04-124.27 102.21 4.15-2.51 43.2-25.76 70.67-17.87 8.83 2.54 17.04 8.59 24.19 15.79 16.49 16.59 12.73 44.65-6.89 57.2-17.77 11.37-40.41 28.6-62.73 53.15-47.62 52.43-193.16 72.17-193.16 72.17s-113.33 9.85-165.68-93.46c-76.25-150.44 60.31-221.88 60.31-221.88l15.46-44.13c-1.07-.55-37.39-17.82-35.56-45.13 2.68-39.57 90.82-34.97 111.68-18.6 12.6 9.85 14.34 35.6 13.76 54.48h.04l17.47-37.56s-20.1-51.88-2.77-82.65c10.59-18.87 33.46-16.55 49.58-11.9 9.34 2.69 15.9 10.94 16.97 20.79.8 7.48 3.4 17.92 10.19 31 15.1 29.09 25.15 40.16 25.15 40.16s1.39-59.17 21.49-74.35c13-9.8 37.43.96 53.16 9.85 8.89 5.02 14.25 14.59 14.07 24.94-.4 18.6-.18 49.42 4.24 68.56 0 0-11.44 21.84-22.47 46.23l39.58-28.26s15.63-58.26 49.14-65.83c19.92-4.51 36.94 8.11 47.48 19.15 7.28 7.61 9.29 19.01 5.23 28.81z"/><path d="M3283.63 3008.94c15.77-14.31 30.29-26.3 43.64-36.61 0 0 .13-.09.36-.23m-251.72-196.43l-6.07 17.41h-.05"/><path d="M3327.28 2972.33l.36-.23"/></g><g class="Q"><path d="M3157.86 2822.83a15.95 15.95 0 0 1-2.56-.2c-9.33-1.4-15.75-10.1-14.34-19.42 0-.07 1.28-8.75 1.65-19.94.3-9.43 8.12-17.02 17.62-16.5 9.42.3 16.81 8.19 16.5 17.62-.43 13.29-1.95 23.48-2.01 23.91a17.08 17.08 0 0 1-16.86 14.54zm-88.02-12.68h-.04a17.07 17.07 0 1 1 0-34.14c9.43 0 17.09 7.64 17.09 17.07s-7.62 17.07-17.05 17.07zm183.16 19.86c1.38-7.83 2.42-15.11 3.12-22.42.67-7.32 1.05-14.55 1.4-21.74.29-7.22.24-14.42.81-21.52.26-3.55.55-7.11 1.06-10.63.45-3.46 1.02-7.2 1.93-10.28l.44-1.49c2.38-8.04 10.83-12.62 18.87-10.24 5.79 1.72 9.79 6.6 10.68 12.2.71 4.51.82 8.34.64 12.43-.09 4.04-.58 8.03-1.26 12-1.31 7.95-3.85 15.71-6.75 23.32-2.98 7.61-6.65 15.01-11 22-4.57 6.91-9.83 13.47-16.29 18.64-.98.78-2.41.62-3.19-.36-.42-.53-.57-1.19-.46-1.8l.02-.11zm72.5 39.43c-1.76-5.2-2.31-10.41-2.6-15.51-.19-5.08.05-10.05.57-14.91.57-4.84 1.3-9.64 2.83-14.08s3.49-8.69 6.84-12.26a15.84 15.84 0 0 1 22.39-.72c3.66 3.44 5.33 8.2 4.95 12.85l-.03.29c-.41 4.71-2.13 8.78-4.19 12.7s-4.81 7.53-7.57 11.15c-5.67 7.25-11.63 14.12-19.01 21.41l-.06.06a2.51 2.51 0 0 1-3.54-.02c-.27-.28-.47-.61-.59-.96z"/><path d="M3151.16 3169.9c-30.89 0-124.27-8.22-172.36-103.09-73.05-144.12 33.94-223.64 61.46-241.05l8.77-25.07c-18.03-12.35-33.36-31.16-31.84-53.88 1.13-16.67 11.53-30.2 29.3-38.11 30.62-13.64 81.63-9.25 104.88 3.88-2.31-18.37-1.7-39.85 8.15-57.34 12.24-21.8 37.47-29.08 69.19-19.92 15.91 4.58 27.38 18.45 29.21 35.35.53 4.93 2.32 12.99 7.77 23.81 4.12-15.52 10.84-30.51 21.79-38.78 16.09-12.14 40.27-9.24 71.85 8.6 14.31 8.08 23.03 23.44 22.74 40.09-.41 18.46.07 34.98 1.31 47.84 9.87-18.67 25.52-38.92 48.34-44.08 21.53-4.87 44.13 3.64 63.59 24 11.95 12.5 15.35 31.01 8.65 47.15-8.74 21.14-25.01 61.67-35.81 95.76-9.85 31.16-31.43 45.55-61.27 64.05 9.4 3.5 18.7 9.83 27.7 18.88 11.33 11.41 16.81 27.25 15.02 43.47-1.83 16.59-10.87 31.23-24.82 40.15-21.62 13.84-41.57 30.75-59.3 50.25-51.21 56.38-197.3 76.76-203.49 77.6l-.82.09c-.79.07-4.36.35-10.03.35zm-58.48-435.45c-11.72 0-23.53 1.54-32.28 5.44-8.77 3.9-9.03 7.76-9.13 9.21-.75 11.2 15.11 23.25 25.96 28.61 7.73 3.82 11.52 12.88 8.68 21.02l-15.45 44.13c-1.43 4.09-4.37 7.48-8.2 9.48-4.91 2.6-120.49 65.86-52.99 199.03 45.36 89.5 140.82 84.76 148.64 84.19 39.2-5.4 146.9-27.66 182.33-66.67 19.75-21.73 42.01-40.58 66.17-56.04 5.21-3.34 8.59-8.85 9.29-15.13.38-3.47.2-10.13-5.3-15.66-6-6.04-11.81-9.99-16.8-11.42-14.2-4.07-39.56 5.49-57.14 16.08-7.74 4.68-17.8 2.49-22.91-4.99s-3.49-17.63 3.68-23.15c27.29-21.01 49.76-34.91 67.81-46.08 31.4-19.43 44.38-28.1 50.6-47.75 11.19-35.32 27.88-76.89 36.82-98.53 1.49-3.6.77-7.81-1.8-10.49-7.68-8.03-19.36-17.04-31.38-14.29-17.72 4-32.19 37.84-36.42 53.6a17.11 17.11 0 0 1-6.57 9.47l-39.58 28.26c-6.28 4.48-14.79 4.21-20.76-.7-5.96-4.9-7.9-13.19-4.71-20.22 7.94-17.57 16-33.64 20.11-41.7-3.72-21.31-3.75-50.18-3.4-66.42.07-4.03-2-7.78-5.4-9.7-23.14-13.08-33.42-11.87-34.49-11.08-7.92 5.98-14.1 37.02-14.7 61.13-.17 6.98-4.57 13.15-11.11 15.59-6.54 2.43-13.9.64-18.59-4.52-1.18-1.3-12-13.59-27.66-43.77-6.71-12.93-10.75-25.4-12.01-37.04-.33-3.04-2.18-5.48-4.72-6.21-10.92-3.15-24.99-5.05-29.98 3.84-10.85 19.27-.63 56.6 3.81 68.16 1.66 4.32 1.5 9.15-.45 13.34l-17.47 37.57c-2.8 6.02-8.84 9.87-15.48 9.87a17.12 17.12 0 0 1-12.28-5.19c-3.22-3.32-4.98-7.79-4.83-12.41.83-26.93-4.35-38.27-7.21-40.5-5.7-4.48-24.11-8.35-42.72-8.35z"/><path d="M3279.54 3004.43c5.91-7.83 11.99-15.59 18.26-23.24l9.55-11.4 4.88-5.64 2.47-2.81 1.46-1.57.74-.78.37-.39c.37-.3.95-.72 1.44-1.05 8.04-4.92 18.55-2.4 23.47 5.64s2.4 18.55-5.64 23.47c.23-.17.56-.44.68-.57l-.34.16-.68.31-1.37.63-3.18 1.62-6.35 3.3-12.62 6.82c-8.39 4.65-16.71 9.49-24.97 14.51-2.92 1.79-6.73.87-8.52-2.05-1.36-2.22-1.13-5 .34-6.97zm-209.7-194.28c-9.43 0-17.09-7.64-17.09-17.07a16.92 16.92 0 0 1 1.3-6.54l5.75-16.49c3.1-8.9 12.84-13.61 21.74-10.5 8.91 3.11 13.6 12.84 10.5 21.74l-6.07 17.42a17.07 17.07 0 0 1-16.12 11.45z"/><path d="M3327.29 2989.41c-5.37 0-10.65-2.53-13.97-7.25-5.42-7.71-3.57-18.36 4.14-23.78a36.21 36.21 0 0 1 1.3-.85c8.05-4.91 18.55-2.35 23.46 5.7 4.86 7.99 2.39 18.39-5.51 23.34-2.89 1.92-6.17 2.84-9.41 2.84zm-562.18 116.38c-5.03 0-10.02-2.22-13.39-6.46-5.85-7.39-4.61-18.12 2.77-23.98.72-.57 17.74-14.03 42.23-30.92 2.91-2.3 6.59-3.68 10.59-3.68a17.07 17.07 0 0 1 17.07 17.07v.02h0v.03h0v.04h0c0 2.22-.45 4.35-1.23 6.29-1.24 3.09-3.36 5.79-6.17 7.72-23.96 16.48-41.11 30.04-41.28 30.18a16.99 16.99 0 0 1-10.6 3.69zM1180.25 1323.72a16.5 16.5 0 0 1-12.22-5.41l-71.98-79.4-126.84 82.17c-6.34 4.1-14.67 3.38-20.19-1.76-5.53-5.14-6.86-13.39-3.22-20.01l77.34-140.83-42.75-47.16a16.51 16.51 0 0 1-2.81-17.87c2.71-5.98 8.47-9.69 15.28-9.69l70.71 1.11 81.74-148.84a16.47 16.47 0 0 1 18.09-8.14 16.51 16.51 0 0 1 12.82 15.15l8.11 143.73 88.93 1.39c7.26.11 13.58 4.96 15.59 11.94 2 6.98-.79 14.44-6.88 18.38l-92.47 59.9 7.22 127.93a16.5 16.5 0 0 1-10.1 16.14c-2.06.86-4.22 1.28-6.36 1.28zm-56.16-102.98l37.08 40.9-3.54-62.62-33.54 21.73zm-77.52-36.43l-40.38 73.52 67.43-43.68-27.05-29.84zm16.79-30.57l38.3 42.25 53.84-34.88-2.36-41.87-70.23-1.1-19.55 35.6zm122.83-33.98l1.17 20.71 31.19-20.2-32.35-.51zm-155.85-2.45l9.59 10.58 5.68-10.34-15.28-.24zm70.52-31.87l50.41.79-4.74-83.96-45.68 83.17z"/><path d="M880.45 1336.83c-3.04 0-6.07-.84-8.75-2.51l-126.92-79.54-72.21 48.78c-5.95 4.01-13.8 3.73-19.43-.71s-7.75-12.01-5.23-18.73l27.31-72.95-83.9-52.58a16.5 16.5 0 0 1-7.41-17.2c1.34-6.72 6.7-11.9 13.46-13.03L713.46 1109l81.11-216.68c2.62-6.99 9.69-11.34 17.03-10.63 7.43.72 13.45 6.34 14.67 13.7l31.63 189.53 109.01-18.18c7.63-1.29 15.15 2.95 18.02 10.15s.34 15.43-6.08 19.77l-106.94 72.24 24.82 148.74c1.07 6.4-1.71 12.83-7.11 16.43-2.76 1.84-5.95 2.77-9.15 2.77zm-105.8-102.24l83.51 52.33-16.31-97.73-67.2 45.4zm-70.93-5.55l-6.86 18.31 17.36-11.73-10.5-6.58zm11.8-31.52l28.58 17.92 91.79-62.01-5.1-30.57-93.14 15.53-22.13 59.14zm-69.87-43.79l41.36 25.92 13.1-35-54.46 9.08zm217.67-36.3l2.62 15.7 31.72-21.43-34.35 5.73zM803.88 961.5l-52.87 141.23 74.37-12.4-21.49-128.83z"/></g><path d="m775.16,1536.1s-22.65-111.95-92.74-118.04-181.17,98.54-138.04,184.39,150.98,56.13,150.98,56.13l61.47,57.76c83.04-51.2,110-160.11,110-160.11l-91.67-20.12Z" class="S"/><g class="Q"><path d="M756.83 1732.81a16.47 16.47 0 0 1-11.29-4.47l-55-51.68c-44.57 9.14-124.61 5.36-160.89-66.81-19.49-38.79-14.14-83.88 15.08-126.96 34.08-50.25 93.82-85.18 139.12-81.25 68.13 5.92 96.77 90.22 104.91 120.57l81.61 17.91a16.46 16.46 0 0 1 10.47 7.4c2.34 3.78 3.07 8.34 2 12.66-1.17 4.71-29.58 116.07-117.34 170.18-2.67 1.65-5.67 2.45-8.65 2.45zm-61.47-90.73a16.49 16.49 0 0 1 11.29 4.47l51.92 48.78c50.87-36.84 77.07-97.89 87.18-126.87l-74.13-16.27a16.47 16.47 0 0 1-12.62-12.83c-5.69-27.8-30.79-100.78-78.01-104.89-33.61-2.88-81.53 26.46-108.97 66.91-12.87 18.97-31.65 56.36-12.91 93.65 36.64 72.91 130.93 47.91 131.87 47.64 1.45-.4 2.92-.59 4.38-.59z"/><path d="M786.41 1579.11l64.88 24.24c8.68 3.24 13.08 12.91 9.84 21.58-3.24 8.68-12.91 13.08-21.58 9.84-1.99-.74-3.8-1.87-5.31-3.2l-51.64-46.15c-1.55-1.38-1.68-3.75-.3-5.3 1.06-1.18 2.71-1.54 4.11-1.01zm-19.06 30.31l61.69 34.96c8.03 4.55 10.85 14.75 6.3 22.79-4.55 8.03-14.75 10.85-22.79 6.3-1.65-.93-3.12-2.16-4.31-3.5l-46.85-53.23c-1.75-1.98-1.55-5 .43-6.75 1.57-1.38 3.79-1.54 5.52-.57zm-24.73 23.72l55.14 52.61c6.69 6.38 6.94 16.97.56 23.66s-16.98 6.94-23.66.56c-1.43-1.36-2.59-2.98-3.43-4.64l-34.01-68.2c-.84-1.68-.15-3.72 1.53-4.56 1.32-.66 2.86-.37 3.86.58z"/><ellipse cx="686.91" cy="1587.59" rx="20.46" ry="23.49" transform="matrix(.824324 -.566119 .566119 .824324 -778.07 667.73)"/><ellipse cx="727.17" cy="1527.79" rx="20.46" ry="23.49" transform="matrix(.824324 -.566119 .566119 .824324 -737.13 680.01)"/></g><path d="M3323.54 1307.54s114.78 19.15 145.96-47.67c31.17-66.82-28.25-215.06-125.59-204.35s-108.08 128-108.08 128l-77.24 39.18c18.69 100.8 112.63 167.72 112.63 167.72l52.33-82.88z" class="S"/><g class="Q"><path d="M3271.21 1407.5c-3.53 0-6.99-1.09-9.9-3.17-4.07-2.9-99.79-72.15-119.51-178.51a17.08 17.08 0 0 1 9.06-18.34l69.16-35.08c7.34-47.19 39.9-124.81 122.03-133.85 42.72-4.72 82.98 15.94 113.23 58.14 37.71 52.6 50.47 125.86 29.7 170.39-30.2 64.74-120.53 61.98-152.78 58.75l-46.54 73.71a17.06 17.06 0 0 1-11.14 7.64 17.49 17.49 0 0 1-3.3.32zm-93.1-175.55c16.44 63.69 64.74 112.14 88.91 133.14l42.09-66.66c3.67-5.81 10.47-8.85 17.22-7.73h0c1.03.17 102.41 16.16 127.7-38.05 15.44-33.1 3.55-94.13-26.51-136.06-13.18-18.38-41.3-48.49-81.75-44.1-82.1 9.03-92.55 108.4-92.95 112.62-.56 5.82-4.06 10.99-9.27 13.63l-65.43 33.2z"/><path d="M3277.96 1301.82l-48.47 51.91c-4.76 5.09-12.74 5.37-17.83.61s-5.37-12.74-.61-17.83a13.2 13.2 0 0 1 2.68-2.18l60.72-36.85a2.83 2.83 0 0 1 3.88.95c.67 1.11.49 2.49-.35 3.39zm-21.97-30.36l-57.02 44.79a12.6 12.6 0 0 1-15.57-19.81c.82-.64 1.75-1.19 2.66-1.6l66.24-29.5c1.82-.81 3.95 0 4.75 1.82.69 1.54.2 3.3-1.06 4.3zm-13.28-32.88l-70.85 31.11c-6.37 2.8-13.81-.1-16.61-6.47s.1-13.81 6.47-16.61c1-.44 2.09-.74 3.12-.91l76.44-11.99c1.4-.22 2.71.74 2.93 2.14a2.55 2.55 0 0 1-1.5 2.74z"/><ellipse cx="3306.46" cy="1201.5" rx="24.01" ry="21.46" transform="matrix(.947935 -.318463 .318463 .947935 -210.48 1115.4)"/><ellipse cx="3348.82" cy="1263.33" rx="24.01" ry="21.46" transform="matrix(.947935 -.318463 .318463 .947935 -227.96 1132.11)"/><path d="M1184.51 811.22c.11.77-2.71 2.37-8.66 2.1-5.85-.28-14.77-3.27-22.92-11.1a55.7 55.7 0 0 1-11.22-14.96c-3.12-6.15-5.77-13.48-6.06-22.12-.49-8.48 2.02-18.75 8.92-26.89 3.45-3.98 7.72-7.29 12.38-9.84 4.68-2.32 9.68-4.31 14.76-5.31 9.7-2.16 21.84-3.33 33.89 1.49 12.03 4.74 21.96 15.3 26.86 27.03 5.26 11.74 7.2 24.45 6.94 37.14-.26 12.72-2.51 25.62-7.07 38.22-4.63 12.54-11.42 24.94-21.37 35.74-10.04 10.54-23.55 19.74-39.29 22.94l-5.86 1.16-5.93.48c-3.99.47-7.9.01-11.86-.14-3.94-.27-7.72-1.15-11.61-1.76-3.77-1.03-7.59-2.03-11.32-3.34-14.91-5.47-28.34-15.17-38.72-27.16-10.44-12.02-17.51-25.94-22.34-40.04-4.78-14.16-7.18-28.69-7.52-43.02-.61-28.51 7.09-57.1 24.56-78.78 8.67-10.76 19.86-19.35 31.97-24.62 12.11-5.35 24.78-7.42 36.64-7.61l8.79.22c2.83.18 5.51.54 8.23.8 5.4.52 10.71 1.5 15.88 2.5 10.36 2.03 20.17 5.29 29.14 9.3 18.02 8.01 32.26 20.31 41.02 33.32 8.92 12.98 13.01 25.91 14.99 36.36 1.87 10.54 1.74 18.8 1.08 24.31-.66 5.52-1.87 8.34-2.77 8.25-1.99-.06-2.17-11.47-8.41-29.91-3.26-9.09-8.28-19.83-16.82-29.93-8.45-10.14-20.75-19.13-36.37-24.89-7.8-2.86-16.32-5.17-25.52-6.44-4.59-.61-9.29-1.25-14.16-1.46-2.42-.11-4.91-.32-7.32-.35l-7.09.16c-9.43.6-18.86 2.62-27.45 6.8-8.59 4.14-16.28 10.44-22.45 18.53-12.4 16.18-18.55 39.19-17.66 62.72.9 23.42 8.45 48.18 23.91 66.27 7.76 8.91 17.19 15.68 27.61 19.63 10.5 3.99 21.89 4.99 31.76 2.96 10.08-1.83 18.9-7.6 26.31-14.91 7.27-7.56 12.85-16.97 16.8-26.8 3.92-9.88 6.05-20.28 6.63-30.27.62-10-.65-19.67-3.8-27.6-3.02-8.12-8.21-13.67-14.47-16.73-6.35-3.07-14.21-3.18-22.13-1.96-3.9.47-7.27 1.66-10.44 2.86-3.03 1.39-5.62 3.11-7.74 5.13-4.09 4.1-6.3 9.63-6.58 15.5-.64 11.85 4.52 22.88 9.98 29.96 5.56 7.33 11.84 11.05 16.35 12.87 4.57 1.81 7.46 2.15 7.54 3.19zm153.09-34.39c.07.42-1.19 1.14-3.91 1.76-1.38.25-3.12.46-5.29.22-2.1-.34-4.84-1-7.15-3.21-2.34-2.11-3.93-5.38-4.5-8.86-.6-3.5-.37-7.24.44-11.04 1.7-7.56 5.42-15.68 12.49-22.82 3.58-3.44 8.09-6.9 14.19-8.26 2.98-.81 6.32-.72 9.55-.17 3.18.74 6.33 1.98 8.93 3.82 2.76 1.73 5.32 4.47 7.18 7.28.86 1.44 1.6 2.94 2.34 4.45.54 1.52 1.14 3.07 1.59 4.63 1.71 6.24 2.06 12.59 1.72 18.9-.77 12.61-3.89 25.36-9.4 37.73-2.77 6.18-6.12 12.29-10.42 18.07-4.31 5.74-9.56 11.31-16.71 15.36-6.95 4.26-16.85 5.31-24.74 2.34-7.98-2.88-13.6-8.29-18.1-13.64-4.56-5.38-8.11-11.22-10.85-17.36-2.84-6.08-4.59-12.45-5.67-18.68-2.19-12.53-1.17-24.5.88-35.19 2.17-10.7 5.51-20.21 9.08-28.59 7.27-16.72 15.41-28.92 21.44-36.94 6.1-8.01 10.27-11.8 10.99-11.23.74.58-1.96 5.37-6.59 14.05-4.57 8.69-11.22 21.29-17.01 37.58-5.54 16.14-10.82 36.72-6.64 58.08 1.07 5.27 2.66 10.56 5.15 15.55 2.35 5.01 5.47 9.94 9.24 14.22 3.66 4.31 7.98 8.04 12.52 9.56 4.49 1.48 9.15 1.23 13.83-1.52 4.66-2.62 8.92-6.87 12.5-11.61 3.59-4.77 6.6-10.06 9.12-15.48 5.05-10.85 8.08-22.35 9.04-33.09.96-10.6-.84-21.34-6.8-25.3-3.24-2.41-6.62-3.31-10.09-2.68-3.49.48-6.91 2.62-9.82 5.07-11.6 10.29-15.89 26.41-11.13 32.15 2.3 2.96 6.2 3.59 8.59 3.92 2.48.26 3.93.46 4 .94zm-99.86-217.87c.26-.29 2 .48 4.65 2.93 1.31 1.23 2.86 2.92 4.2 5.34 1.41 2.35 2.51 5.67 2.28 9.55-.34 8.07-7.56 15.85-17.08 19.43-4.81 1.83-10.39 2.9-16.46 2.19-5.99-.61-12.75-3.53-17.29-9.28-4.47-5.74-6.3-13.18-6.24-20.25.01-7.21 1.71-14.58 4.89-21.41 3.12-6.88 7.58-13.32 13.17-19 5.58-5.68 12.33-10.69 20.33-14.08 7.89-3.44 17.48-5.09 27.05-2.87 4.74 1.16 9.29 3.31 13.29 6.16 4.06 2.84 7.27 6.51 10.17 10.32 1.29 1.98 2.73 3.92 3.76 6.02l1.67 3.11 1.42 3.39c1.91 4.53 2.92 9.47 3.41 14.43.67 9.95-1.33 20.01-5.49 28.88-8.24 17.87-22.34 31.37-38.43 39.88-8.1 4.19-16.97 6.93-26.09 7.58-9.09.76-18.51-1.36-26.29-5.79-7.85-4.42-13.76-11.05-17.85-17.94-4.08-6.83-6.94-14.05-8.56-21.33-3.28-14.63-1.33-28.76 2.54-40.31 3.83-11.67 9.33-21.21 14.64-29.08 5.4-7.83 10.69-14.03 15.28-18.8 9.21-9.55 15.41-13.61 15.99-12.94.64.72-4.26 6.01-12.01 16.32-3.87 5.15-8.37 11.6-12.91 19.42-4.46 7.84-9.01 17.1-11.9 27.81-2.96 10.63-3.99 22.86-.81 35 3.26 11.86 10.19 25 21.61 31.07 11.34 6.42 26.86 4.55 40.29-2.65 13.43-7.22 25.64-19.16 32.28-33.75 3.42-7.24 4.83-14.99 4.41-22.33-.47-7.32-3.49-14.18-7.65-20.32-4.17-5.93-9.64-10.09-15.83-11.69-6.2-1.54-13.04-.71-19.28 1.86-12.53 5.13-22.72 15.44-28.16 26.43-2.82 5.5-4.33 11.29-4.59 16.81-.31 5.59.92 10.7 3.44 14.34 5.18 7.42 16.09 8.18 23.74 5.74 7.9-2.33 13.54-7.68 14.35-12.95 1-5.34-1.73-9.85-3.38-12.56-1.79-2.79-2.92-4.27-2.56-4.65z"/></g><path d="m1449.11,824.54l9.75,62.27,64.03-12.49-4.7-63.58c-21.91,2.55-45.42,6.87-69.08,13.8Z" class="S"/><path d="M1458.86 899.01c-2.49 0-4.93-.76-7-2.21-2.71-1.9-4.54-4.83-5.05-8.1l-9.75-62.27c-.95-6.05 2.74-11.87 8.62-13.59 22.32-6.54 46.24-11.32 71.1-14.21a12.15 12.15 0 0 1 9.17 2.71 12.19 12.19 0 0 1 4.39 8.5l4.7 63.58a12.2 12.2 0 0 1-9.83 12.87l-64.03 12.49a12.27 12.27 0 0 1-2.33.23zm3.97-65.62l6.11 39.03 40.98-8-2.95-39.92c-15.22 2.21-30 5.19-44.14 8.89z" class="Q"/><path d="m1514.62,762.58l-25.98-351.4-96.04,52.43,49.52,316.31c16.73-5.68,44.4-13.93,72.5-17.33Z" class="S"/><path d="M1442.12 792.11c-2.2 0-4.38-.6-6.31-1.76a12.16 12.16 0 0 1-5.73-8.54l-49.52-316.31c-.8-5.09 1.68-10.12 6.2-12.59l96.04-52.43c3.64-1.98 8.04-1.99 11.67 0 3.64 1.98 6.03 5.68 6.33 9.81l25.98 351.4c.48 6.49-4.22 12.22-10.69 13-26.55 3.22-52.75 10.9-70.05 16.77-1.27.43-2.6.65-3.92.65zm-36.15-321.91l45.99 293.74c14.23-4.34 31.57-8.85 49.66-11.81l-23.75-321.18-71.9 39.25z" class="Q"/><path d="m1568.64,800.83l1.32,73.5,55.88-1.64,3.13-74c-18.93-1.43-39.42-1.13-60.32,2.14Z" class="S"/><path d="M1569.95 886.52a12.23 12.23 0 0 1-8.42-3.37c-2.36-2.25-3.72-5.35-3.77-8.61l-1.31-73.5c-.11-6.09 4.29-11.32 10.31-12.27 20.07-3.13 41.3-3.9 63.12-2.25 6.56.49 11.54 6.1 11.26 12.67l-3.12 74c-.27 6.39-5.43 11.49-11.83 11.67l-55.88 1.64h-.36zm11.07-75.03l.9 50.29 32.2-.94 2.14-50.62c-12.05-.39-23.84.03-35.24 1.28z" class="Q"/><path d="m1631.32,742.63l17.28-381.22-87.59,13.41,6.68,373.33c14.87-3.21,39.34-7.19,63.63-5.52Z" class="S"/><g class="Q"><path d="M1567.7 760.35c-2.72 0-5.4-.92-7.57-2.64a12.18 12.18 0 0 1-4.62-9.34l-6.68-373.33a12.19 12.19 0 0 1 10.35-12.27l87.59-13.41c3.6-.56 7.28.54 10 2.98a12.16 12.16 0 0 1 4.03 9.62l-17.28 381.22a12.25 12.25 0 0 1-4.06 8.55c-2.45 2.19-5.67 3.29-8.96 3.07-22.43-1.54-45.13 2.01-60.22 5.27-.85.19-1.71.28-2.57.28zm5.7-375.09l6.24 348.22c11.72-1.92 25.51-3.44 39.8-3.44h.25l16.05-354.32-62.35 9.54zm691.76 441.53c-.86.35-2.66-1.56-5.15-5.26l-4.22-6.83-5.56-9c-8.1-13.36-19.63-31.49-33.54-50.79-27.75-38.68-53.84-67.53-51.29-70.2 2.48-2.77 33.57 22.52 62.18 62.37 14.31 19.85 24.98 39.47 31.11 54.34 1.5 3.73 2.88 7.09 3.9 10.12.95 3.07 1.7 5.73 2.22 7.93 1.05 4.41 1.21 6.98.35 7.33zm-33.41 30.32c-.86.35-2.66-1.56-5.15-5.26l-4.22-6.83-5.57-9c-8.09-13.36-19.62-31.49-33.54-50.79-27.75-38.68-53.84-67.53-51.29-70.2 2.48-2.77 33.57 22.52 62.18 62.37 14.31 19.85 24.98 39.47 31.11 54.33 1.5 3.73 2.88 7.09 3.9 10.12.95 3.07 1.7 5.73 2.22 7.93 1.05 4.41 1.21 6.98.35 7.33zm-49.88 18.78c-.86.35-2.66-1.56-5.15-5.26l-4.22-6.83-5.56-9c-8.1-13.36-19.63-31.49-33.54-50.79-27.75-38.68-53.84-67.53-51.29-70.2 2.48-2.77 33.57 22.52 62.18 62.37 14.31 19.85 24.98 39.47 31.11 54.33 1.51 3.73 2.88 7.09 3.9 10.12.95 3.07 1.7 5.73 2.22 7.93 1.05 4.41 1.21 6.98.35 7.33z"/><path d="M2062.66 826.79c-2.54-2.69 27.18-35.11 66.39-72.4s73.15-65.43 75.81-62.84c2.66 2.58-27.07 35-66.39 72.4-39.33 37.4-73.27 65.54-75.81 62.84zm48.11 26.9c-2.54-2.7 22.43-30.58 55.79-62.27 33.35-31.7 62.54-55.29 65.2-52.71 2.65 2.58-22.32 30.47-55.79 62.27-33.46 31.81-62.65 55.4-65.19 52.71zm28.99 22.2c-2.54-2.7 20.73-28.94 51.98-58.63 31.25-29.68 58.73-51.65 61.38-49.06 2.66 2.58-20.62 28.83-51.98 58.62s-58.85 51.76-61.39 49.06zm569.87-457.87c1.19-1.14-6.73 9.13-21.46 30.72l-27.87 41.39c-11.32 16.68-25.05 35.87-40.51 56.44l-2.51-13.1 97.86 54.38c5.24 2.94 7.11 9.58 4.17 14.83-1.19 2.11-2.97 3.67-5.01 4.6l-.3.13-325.12 143.61c-6.8 2.95-14.69-.17-17.64-6.97-2.68-6.17-.34-13.26 5.2-16.72l6.89-4.31 220.06-136.08 4.38 22.44-108.47-20.3-.28-.05a10.83 10.83 0 0 1-8.65-12.63 10.86 10.86 0 0 1 4.16-6.68c33.2-24.81 64.31-47.22 91.72-66.15l69.2-47.4 54.18-38.15c-1.53 1.55-23.83 18.94-59.58 49.35l-62.28 53.73c-23.52 20.24-50.03 42.15-79.97 65.9l-4.77-19.36 108.93 17.64a12.19 12.19 0 0 1 4.65 22.27l-.26.17-218.81 138.06-6.89 4.31-12.44-23.68 327.06-139.14-1.14 19.56-95.71-58.07-.37-.22c-4.07-2.5-5.35-7.82-2.85-11.89.21-.33.46-.69.7-.99 14.67-17.75 28.11-33.11 40.58-46.69l33.03-36.05c18.6-20.79 28.94-33.75 30.12-34.88zm250.14 94.74c1.19-1.14-6.73 9.13-21.46 30.72l-27.86 41.39c-11.32 16.68-25.05 35.87-40.51 56.44l-2.5-13.1 97.86 54.38c5.24 2.94 7.11 9.58 4.17 14.83a10.85 10.85 0 0 1-5.01 4.6l-.3.14-325.12 143.61a13.42 13.42 0 0 1-17.65-6.97c-2.68-6.17-.34-13.26 5.21-16.72l6.89-4.31 220.06-136.08 4.38 22.44-108.46-20.3-.28-.05a10.82 10.82 0 0 1-8.65-12.63 10.86 10.86 0 0 1 4.16-6.68c33.2-24.81 64.32-47.22 91.72-66.15l69.2-47.41 54.18-38.15c-1.53 1.55-23.83 18.94-59.58 49.35l-62.28 53.73c-23.52 20.24-50.03 42.15-79.97 65.9l-4.77-19.36 108.93 17.64c6.65 1.08 11.16 7.33 10.08 13.97a12.19 12.19 0 0 1-5.43 8.3l-.26.17-218.82 138.06-6.89 4.31-12.44-23.68 327.07-139.14-1.15 19.56-95.71-58.07-.37-.22c-4.07-2.5-5.34-7.82-2.85-11.89.21-.34.46-.69.71-.99 14.67-17.75 28.11-33.11 40.58-46.69l33.03-36.05c18.59-20.79 28.94-33.75 30.12-34.88zm-594.1-67.77c0-.83 2.51-1.6 7.02-2.69 4.44-1.12 11.12-2.42 18.29-5.37 3.41-1.46 7.23-3.75 8.32-6.14.1-.6.52-1.07.36-1.69.06-.55.07-1.18-.18-1.59-.28-.8-1.14-1.64-2.89-2.54-3.54-1.77-9.17-2.61-14.9-2.88-5.76-.26-12.17-.04-18.28.6a6.62 6.62 0 0 1-7.27-5.89c-.28-2.62 1.02-5.05 3.13-6.34l.14-.08c4.94-3.01 10.25-6.78 15.2-10.72 11.62-9.34 21.61-20.03 25.53-30.98 1.88-5.39 2.09-10.86.9-15.33-1.18-4.42-4.08-7.63-7.78-9.87-3.67-2.25-7.86-3.5-11.6-4.27-3.75-.83-7.16-1.22-9.96-1.51-5.62-.57-8.86-.83-9.02-1.75-.17-.89 2.89-2.41 8.82-3.47 2.97-.52 6.66-.9 11.04-.72 4.37.15 9.52.79 15.05 3.28 5.46 2.33 11.4 7.46 13.96 14.69 2.57 7.04 2.58 15.11.34 22.73-2.23 7.64-6.54 14.46-11.53 20.69-5.05 6.22-10.97 11.84-17.39 16.99-5.54 4.39-10.98 8.21-17.01 11.71l-3.99-12.31c7.24-.61 13.88-.61 20.6-.04 6.67.71 13.22 1.64 19.73 5.34 3.13 1.83 6.67 5.12 7.73 9.59.63 2.16.54 4.23.16 6.22-.17 2.04-1.19 3.78-2.09 5.47-1.03 1.5-2.28 2.79-3.49 3.83-1.26.85-2.5 1.9-3.74 2.43-2.48 1.31-4.84 2.09-7.08 2.74-8.95 2.27-15.93 2.13-20.74 1.85-4.79-.36-7.39-1.18-7.39-2zm-37.97 14.82c.46.56-1.23 2.95-5.23 6.4-4.09 3.29-10.18 8.23-20.07 11.34-4.87 1.41-11.25 2.5-18.03-.23-6.86-2.73-11.65-9.45-14.25-16.02-2.8-6.88-3.52-15.58-1.03-23.56 1.11-4.04 2.99-7.81 5.21-11.39 2.34-3.62 4.72-6.77 8.32-10.11l5.1 11.11c-8.99 1.13-17.63.81-26.88-1.94-4.58-1.26-9.07-3.58-13.27-6.48-2.03-1.55-3.93-3.39-5.78-5.21-1.54-2.1-3.32-4.12-4.56-6.41-6.32-11.57-6.38-23.86-5.32-34.64.71-5.61 2.22-10.99 4.17-16.02 2.07-4.99 4.66-9.57 7.51-13.75 11.87-16.54 27.09-26.16 39.8-32.89 12.92-6.63 24-10.26 31.77-12.24 7.79-1.96 12.3-2.21 12.53-1.32.24.9-3.71 2.83-10.76 6.23-7.02 3.42-17.22 8.27-28.84 15.57-11.45 7.33-24.81 17.22-34.26 31.56-2.26 3.61-4.26 7.44-5.84 11.51-1.45 4.11-2.56 8.4-3.04 12.87-.79 9.22-.26 18.93 3.9 26.43 6.53 12.21 23.62 15.47 36.92 14.15l.18-.02a6.41 6.41 0 0 1 7.01 5.74c.21 2.09-.64 4.07-2.08 5.39-4.52 4.08-8.64 9.94-10.45 15.41-1.98 5.57-1.81 11.18-.17 16.28 1.82 5.34 4.45 9.28 8 11.11 3.56 1.93 8.14 1.9 12.28 1.18 8.41-1.53 15.07-5.13 19.6-7.19 4.55-2.21 7.09-3.45 7.56-2.87zm-278.82 11.77c-.2-.84 4.47-2.74 12.95-6.07 8.43-3.37 20.82-8.04 35.12-15.5 7.06-3.78 14.73-8.28 21.41-14.3 6.6-5.99 12.02-13.81 9.27-21.73-1.15-4.52-3.49-8.51-6.63-12-3.42-3.27-7.74-5.92-12.73-7.83-9.96-3.7-22.44-4.7-34.06-3.71h-.15c-3.66.33-6.88-2.39-7.2-6.05a6.66 6.66 0 0 1 4.73-6.94c8.11-2.41 16.19-5.41 23.98-9.16 12.4-6.05 23.69-13.81 31.52-23.34 3.79-4.77 6.79-9.96 7.89-15.08 1.16-5.12.52-9.96-2.03-13.92-2.41-4.05-6.68-7.16-11.37-9.42-4.72-2.26-9.91-3.7-15.07-4.66-10.5-1.9-20.46-2.03-29.39-.9-18.04 2.18-31.18 10.16-39.51 16.12-8.31 6.23-12.16 10.69-12.94 10.15-.76-.47 1.77-6.2 9.53-14.1 3.93-3.87 9.21-8.2 16.08-12.17 6.83-4.01 15.39-7.47 25.28-9.35 9.87-1.9 21.04-2.33 32.71-.72 5.89.84 12.07 2.24 18.23 4.92 6.07 2.7 12.47 6.75 16.85 13.46 4.56 6.55 5.87 15.53 4.16 23.25-1.58 7.86-5.54 14.65-10.17 20.65-9.54 11.85-22.28 20.5-35.95 27.2-8.58 4.13-17.36 7.34-26.1 9.86l-2.62-13c7.29-.65 13.82-.43 20.6.31 6.68.82 13.3 2.14 19.6 4.72 6.28 2.55 12.23 6.25 17.05 11.22 4.59 5.21 7.81 11.41 9.17 17.69.92 3.11 1.02 6.92.58 10.28-.62 3.38-1.67 6.62-3.26 9.32-3.06 5.52-7.15 9.57-11.22 12.93-8.23 6.67-16.68 10.87-24.4 14.34a202.87 202.87 0 0 1-37.59 12.13c-9.04 1.93-14.16 2.26-14.35 1.43zm-183.15 82.82c-.24.37-1.93-.21-4.92-1.85-2.88-1.76-7.18-4.56-11.32-10.03-1.99-2.77-3.82-6.36-4.55-10.74-.71-4.37-.02-9.35 1.9-13.97 1.94-4.64 4.95-8.99 8.61-12.97a70.7 70.7 0 0 1 13.08-11.1l2.49 8.77c-6.17.15-12.23-.23-18.76-1.23-6.47-1.04-13.28-2.65-20.08-6.08-3.38-1.73-6.77-3.97-9.75-7.07-2.97-3.07-5.42-7.11-6.58-11.55-1.21-4.44-1.18-9.03-.51-13.32.83-4.28 1.93-8.17 3.98-12.36 4.1-8.21 11.49-14.48 19.44-18.35 8.01-3.94 16.64-6.02 25.42-6.97 4.41-.45 8.86-.62 13.43-.4 2.29.11 4.6.32 7.02.72 1.22.2 2.45.45 3.82.83 1.43.5 2.7.63 5.31 2.54.41.34.85.8 1.23 1.25.41.46 1.03 1.53 1.31 2.36.9 2.33.1 5.35-.9 6.61-2.03 2.62-2.95 2.61-3.97 3.26-1.8.83-3.03 1.1-4.34 1.45-2.52.59-4.82.92-7.12 1.2-4.59.52-8.97.83-13.55.95-9.54.3-19.28-1.46-27.97-5.51-8.76-3.94-16.06-10.43-21.52-17.77-10.83-14.91-14.18-33.29-11.34-49.56 2.68-16.38 12.03-30.75 24.17-39.12 6.02-4.25 12.52-7.14 18.9-9.09 6.53-1.9 12.41-2.57 18.17-3.65 11.58-1.51 22.26-1.84 31.62-.74 9.35 1.06 17.32 3.66 23.15 7.06 5.87 3.38 9.5 7.41 11.33 10.41 1.87 3.03 2.09 5 1.66 5.15-.81.51-4.14-6.15-15.33-10.89-5.51-2.34-12.8-3.97-21.44-4.26-8.64-.32-18.57.62-29.43 2.62-5.34 1.3-11.28 2.33-16.59 4.16-5.38 1.93-10.69 4.56-15.46 8.2-9.6 7.17-16.64 18.74-18.55 32.11-2.06 13.25 1.09 28.27 9.69 39.78 4.35 5.66 9.9 10.55 16.6 13.5 6.64 3.03 14.17 4.44 21.94 4.2 4.15-.1 8.42-.4 12.39-.84 1.98-.23 3.94-.52 5.59-.91.76-.17 1.61-.44 1.74-.52.07.07-.11-.16.06.18l.42.84c.26.53.75 1.14.96 1.54a4.9 4.9 0 0 0 .86 1.13c.34.34.41.51.72.69.48.33.59.19.39.27-.27.07-.31.15-.6.36-.32.22-.54.48-.77.81-.74.77-1.1 1.59-1.82 2.76-.43.8-.25.56-.29.58l-.11-.04a8.38 8.38 0 0 0-.79-.27c-.66-.2-1.5-.38-2.36-.52-1.73-.3-3.61-.49-5.5-.6-3.79-.21-7.65-.11-11.43.24-15 1.34-29.6 7.15-35.21 17.94-1.35 2.55-2.41 5.87-3.06 8.78-.53 2.96-.58 5.76.02 8.25 1.09 4.97 5.03 8.95 10.14 11.77 10.32 5.56 23 7.2 33.47 7.67h.28a4.74 4.74 0 0 1 4.5 4.94c-.07 1.63-.99 3.05-2.29 3.84-8.74 5.22-16.19 12.15-19.71 19.04-1.77 3.47-2.55 6.95-2.37 10.17.21 3.22 1.25 6.16 2.61 8.67 2.85 5 6.34 8.36 8.58 10.68 2.34 2.25 3.54 3.59 3.28 3.98zm27.18 51.76c.85 1.4-3.13 6.13-12.42 7.52-4.55.62-10.33.45-16.51-2.39-2.98-1.63-6.26-3.67-8.6-7.26-2.3-3.42-3.87-8.03-3.47-12.28-.05-2.21.62-4.05.99-6.02.64-1.76 1.33-3.46 2.08-5.08.9-1.52 1.72-3 2.72-4.4 1.2-1.36 2.11-2.76 3.55-3.9 2.57-2.42 5.92-4.03 9.09-4.78 3.21-.57 6.21-.48 8.59.22 4.87 1.26 7.79 3.62 9.53 5.45 1.72 1.88 2.23 3.4 1.66 4.13-.56.74-2.01.73-4.18.44-2.14-.27-5.13-.86-8.2-.61-3.15.19-5.66 1.32-7.83 3.96-2.13 2.48-4.62 7.66-4.59 11.1-.2 3.47 1.46 5.9 4.59 8.17 3.19 2.06 7.11 3.19 10.46 3.75 6.83 1.19 11.67.17 12.54 1.96zm51 59.93c1.08 1.42-3.17 7.17-12.14 14.5-4.57 3.59-10.17 7.69-17.96 10.85-3.94 1.43-8.52 3.01-14.73 1.99-3.05-.53-6.54-2.25-8.87-4.89-2.36-2.61-3.57-5.56-4.35-8.3-1.43-5.51-1.1-10.18-.82-14.59.39-4.46 1.35-8.74 2.63-12.7 2.69-7.92 7.22-14.19 11.68-18.43 9.14-8.52 17.16-9.6 17.75-7.95.81 1.71-4.85 5.72-10.57 14.15-2.81 4.2-5.51 9.46-7.02 15.76-.69 3.17-1.22 6.53-1.36 10.09-.11 3.6-.13 7.36.65 10.15.39 1.34.87 2.36 1.3 2.86.42.5.78.74 1.66.98 1.77.49 5.01.08 8.01-.81 6.16-1.82 11.99-4.76 16.84-7.14 9.74-4.92 16.13-8.06 17.29-6.53zm72.68-118.91c.33-1.88 6.71-2.12 16.18-3.72 9.17-1.63 22.51-5.12 26.25-16.42 1.01-2.73 1.71-5.9 1.69-8.53l.03-1.97-.36-1.75c-.05-1.24-.77-2.13-1.07-3.23-2.08-3.96-6.46-6.93-10.51-8.95-8.34-3.98-14.72-5.35-14.63-7.29 0-1.7 6.59-3.94 17.7-1.69 5.36 1.3 12.67 3.92 17.96 11.44 1.05 1.97 2.41 3.97 2.89 6.26.31 1.12.65 2.28.89 3.44l.23 3.46c.2 4.67-.66 9.07-2.3 13.6-.61 2.29-2.15 4.32-3.24 6.39-1.32 1.97-2.99 3.7-4.55 5.37-3.47 3-7.21 5.3-10.93 6.62-7.43 2.77-14.19 3.02-19.62 2.71-10.91-.79-16.98-4.02-16.62-5.75zm1071.25 190.71c.43-.32 4.68 4.57 12.3 14.09l32.56 41.88-5.3 2.68-25.76-77.88c-.74-2.23.47-4.63 2.7-5.37a4.25 4.25 0 0 1 4.68 1.41l.07.09 64.84 82.96-9.25 4.74-30.41-98.58c-.97-3.13.79-6.46 3.92-7.43 2.7-.83 5.54.35 6.89 2.7l.03.06 89.14 153.93-11.83 5.64-48.65-125.62-11.03-28.58a6.7 6.7 0 0 1 3.82-8.67c2.92-1.13 6.15-.07 7.89 2.37l109.52 154.45-11.17 5.73-50.26-149.17-.02-.07a5.54 5.54 0 0 1 3.49-7.03c2.41-.81 4.98.13 6.35 2.12l77.54 113.15-7.74 3.65-22.19-84.69-.03-.1c-.42-1.61.54-3.26 2.15-3.68 1.18-.31 2.38.13 3.11 1.02l33.6 41.97c7.59 9.76 11.41 15.1 10.99 15.45s-5.04-4.3-13.41-13.41l-35.81-40.1 5.23-2.77 24.71 83.99c.68 2.29-.63 4.7-2.93 5.37-1.81.53-3.7-.18-4.74-1.63l-.06-.09-79.55-111.75 9.82-4.99 51.74 148.67a6.34 6.34 0 0 1-3.91 8.07c-2.71.95-5.64-.07-7.23-2.29l-.03-.04-110.11-154.03 11.71-6.3 11.04 28.57 48.4 125.71v.03a6.56 6.56 0 0 1-3.76 8.49 6.58 6.58 0 0 1-8.07-2.88l-88.05-154.55 10.84-4.68 29.15 98.96.02.08c.82 2.79-.78 5.73-3.57 6.55-2.17.64-4.42-.19-5.71-1.89L3102.3 720l7.45-3.87 23.37 78.63.03.1c.47 1.59-.43 3.26-2.02 3.73-1.27.38-2.59-.13-3.31-1.15l-30.24-43.58c-6.81-10.12-10.21-15.63-9.77-15.95zm-236.75 234.02c.7-.32 6.88 11.4 17.64 33.27l-4.2 1.11-4.66-41.7a3.12 3.12 0 0 1 2.76-3.45c1.04-.12 2.02.29 2.68 1.02l.09.1 32.6 36.72-6.67 3.87-26.9-73.4c-.91-2.49.37-5.25 2.86-6.16 1.85-.68 3.85-.15 5.13 1.19l.07.07 66.07 69.38-9.04 6.35-48.91-94.71a6.14 6.14 0 0 1 10.08-6.88l.04.04 86.67 98.5-11.02 6.79-52.68-129.27-10.73-26.44a6.7 6.7 0 0 1 3.67-8.74c2.86-1.17 6.06-.2 7.85 2.13l99.56 130.09-11.17 6.07-48.57-138.49-.02-.07c-1.06-3.03.53-6.34 3.56-7.4a5.81 5.81 0 0 1 6.63 2.08l89.89 124.55-8.12 4.18-27.18-86.22-.03-.1c-.57-1.81.43-3.74 2.25-4.32 1.33-.42 2.73.02 3.6 1l47.16 53.82c10.75 12.58 16.28 19.51 15.82 19.94s-6.89-5.68-18.5-17.47l-49.56-51.61 5.83-3.41 29.4 85.49a4.61 4.61 0 0 1-2.86 5.86c-1.94.67-4.03-.04-5.2-1.6l-.06-.08-91.81-123.14 10.17-5.39 49.74 138.07c1.21 3.34-.53 7.03-3.87 8.23-2.7.97-5.61.03-7.27-2.12l-.03-.04-99.97-129.76 11.52-6.6 10.75 26.43 52.41 129.38v.03a6.54 6.54 0 0 1-3.61 8.54c-2.67 1.08-5.63.27-7.42-1.78l-86.05-99.04 10.12-6.84 47.88 95.23.03.07c1.38 2.75.27 6.1-2.48 7.48-2.27 1.14-4.96.58-6.6-1.2l-64.96-70.42 8.05-4.9 25.22 74 .03.1a3.92 3.92 0 0 1-2.44 4.97c-1.58.54-3.26 0-4.27-1.2l-31.43-37.74 5.53-2.33 2.78 41.87v.11a2.18 2.18 0 0 1-2.03 2.33c-.96.06-1.81-.5-2.17-1.33-9.5-22.45-14.33-34.79-13.63-35.11z"/><g class="R"><path d="M3418.4 2869.9c-42.44 45.59-81.21 39.89-81.21 39.89s-93-71.8-172.29-49.01-148.05 119.67-110.88 219.96c0 0-67.69-35.34-77.83-147.46-9.38 33.1-7.94 74.93 17.84 125.8 52.35 103.3 165.68 93.46 165.68 93.46s145.54-19.74 193.16-72.17c22.32-24.55 44.97-41.77 62.73-53.15 19.62-12.56 23.38-40.61 6.89-57.2-7.15-7.2-15.36-13.25-24.19-15.79-27.47-7.89-66.52 15.36-70.67 17.87 72.95-56.16 111.1-60.54 124.27-102.21 7.8-24.64 18.37-52.47 27.01-74.2-17.43 23.37-39.76 51.91-60.52 74.2z"/></g><g class="R"><path d="M1005.08 2968.18c-128.43-33.7-173.1 40.88-173.1 40.88s-38.09-59.37-51.52-114.29l-.96.66c.6 16.04 3.36 34.62 7.27 53.7h-.04s-35.16 49.55-23.99 101.98 180.16 136.4 180.16 136.4c68.87-4.65 117.14-36.08 146.54-71.98 5.08-21.37 8.14-45.59 5.2-68.86-16.7-35.4-44.25-66.6-89.55-78.49z"/></g><path d="M1745.84 2046.8c-72.87-21.23-153.69 40.81-180.51 138.57s10.51 194.23 83.39 215.46c72.87 21.23 153.69-40.81 180.51-138.57s-10.51-194.23-83.39-215.46z"/><path d="m1678.13,2421.38c-11.46,0-22.83-1.62-33.99-4.87-81.27-23.68-123.69-129.3-94.57-235.46,16.6-60.5,52.91-110.19,99.62-136.3,33.18-18.54,68.17-23.26,101.21-13.63,81.26,23.68,123.69,129.3,94.57,235.46-16.6,60.5-52.91,110.19-99.62,136.3-21.97,12.28-44.75,18.5-67.22,18.5Zm38.4-362.43c-17,0-34.41,4.81-51.41,14.31-38.54,21.55-69.97,65.07-84.06,116.43-24.43,89.06,7.96,176.75,72.21,195.46,24.46,7.13,50.78,3.39,76.14-10.79,38.55-21.55,69.97-65.07,84.06-116.43,24.43-89.06-7.96-176.75-72.21-195.46-8.07-2.35-16.35-3.52-24.73-3.52Z"/></g><path d="M1733.71 2087.58c-25.11 4.6-40.89 36.6-35.25 71.47s30.55 59.4 55.66 54.8c25.1-4.6 40.89-36.6 35.25-71.47s-30.55-59.41-55.66-54.8z" class="S"/><path d="M1618.78 2286.75c-12.44 5.52-16.9 23.98-9.96 41.22 6.94 17.25 22.64 26.75 35.08 21.23s16.9-23.98 9.96-41.22c-6.93-17.24-22.64-26.75-35.08-21.23z" fill="#b199c5"/><g class="Q"><path d="M2439.4 2062.88c69.71-20.31 147.03 39.04 172.68 132.57 25.66 93.53-10.06 185.81-79.77 206.12s-147.03-39.04-172.68-132.57c-25.66-93.53 10.06-185.81 79.77-206.12z"/><path d="m2504.16,2421.93c-21.62,0-43.51-5.98-64.64-17.79-44.85-25.07-79.71-72.75-95.64-130.82-27.96-101.93,12.84-203.36,90.95-226.12h0c31.79-9.27,65.46-4.74,97.36,13.1,44.85,25.07,79.71,72.76,95.63,130.82,27.96,101.92-12.84,203.36-90.95,226.12-10.74,3.13-21.69,4.68-32.72,4.69Zm-36.73-346.71c-7.95,0-15.8,1.11-23.46,3.34h0c-61.09,17.8-91.87,101.29-68.6,186.12,13.43,48.95,43.37,90.43,80.08,110.95,24.09,13.47,49.07,17.01,72.29,10.25,61.09-17.8,91.87-101.29,68.59-186.12-13.43-48.95-43.36-90.42-80.08-110.95-16.14-9.02-32.69-13.59-48.83-13.59Zm-28.03-12.34h.05-.05Z"/></g><path d="M2451 2101.89c24.02 4.4 39.12 35.01 33.72 68.37-5.39 33.36-29.23 56.83-53.25 52.43s-39.12-35.01-33.72-68.37c5.39-33.36 29.23-56.83 53.25-52.43z" class="S"/><path d="M2560.95 2292.43c11.9 5.28 16.17 22.94 9.53 39.43-6.63 16.5-21.66 25.59-33.56 20.31s-16.17-22.94-9.53-39.43c6.63-16.5 21.66-25.59 33.56-20.31z" fill="#b199c5"/><circle cx="2035" cy="2882.5" r="67.5" class="Q"/><defs ><path id="B" d="M3045.4 3293.87c-104.98 102.57-242.34 161.84-333.91 136.76-91.57-25.07-228.94-123.59-228.94-123.59s91.57-423.47 167.51-416.63c0 0 132.63 64.87 157.24 167.4 43.11-29.63 108.42-69.07 143.17-62.55 54.72 10.26 199.9 196.03 94.92 298.6z"/><path id="C" d="M3174.2 3119.11l-157.09-132.21s-67.75-31.15-108.7 0-41.69 117.01 41.69 188.43 139.22 88.14 183.15 42.55 40.95-98.77 40.95-98.77z"/><path id="D" d="M994.61 2282.57s84.4-109.38 151.48-104.84 201.09 531.85 186.2 589.59-169.23 41.03-200.01 10.64-144.79-414.85-137.67-495.39z"/><path id="E" d="M1153.07 1806.01c-9.43 0-17.07-7.62-17.07-17.05v-.05a17.07 17.07 0 0 1 34.14 0c0 9.43-7.64 17.09-17.07 17.09z"/><path id="F" d="m2939.21,3546.51c-5.52,0-10-4.48-10-10v-69.52c0-5.52,4.48-10,10-10s10,4.48,10,10v69.52c0,5.52-4.48,10-10,10Z"/></defs></svg>