<svg width="180" height="180" fill="none" xmlns="http://www.w3.org/2000/svg"><path fill="url(#Group21__a)" d="M0 0h180v180H0z"/><ellipse cx="90" cy="117.5" rx="32" ry="17.5" fill="#F4F4F4"/><path fill="#F4F4F4" d="M57 71h67v45H57z"/><path fill="#F4F4F4" d="M57 71h67v45H57z"/><path fill="#F4F4F4" d="M57 71h67v45H57z"/><path fill="#F4F4F4" d="M48 91h10v20H48z"/><path fill="#F4F4F4" d="M48 91h10v20H48z"/><path fill="#F4F4F4" d="M48 91h10v20H48zm74 0h10v20h-10z"/><path fill="#F4F4F4" d="M122 91h10v20h-10z"/><path fill="#F4F4F4" d="M122 91h10v20h-10z"/><path fill="#F4F4F4" d="m126.229 105 5.04 7.494-9.23 6.207-5.04-7.494z"/><path fill="#F4F4F4" d="m126.229 105 5.04 7.494-9.23 6.207-5.04-7.494z"/><path fill="#F4F4F4" d="m126.229 105 5.04 7.494-9.23 6.207-5.04-7.494zm-63.522 4.195L59.3 117.56 49 113.364 52.406 105z"/><path fill="#F4F4F4" d="M62.707 109.195 59.3 117.56 49 113.364 52.406 105z"/><path fill="#F4F4F4" d="M62.707 109.195 59.3 117.56 49 113.364 52.406 105zM82 110h16v54H82z"/><path fill="#F4F4F4" d="M82 110h16v54H82z"/><path fill="#F4F4F4" d="M82 110h16v54H82z"/><path fill="#F4F4F4" d="M73 145h33v12H73z"/><path fill="#F4F4F4" d="M73 145h33v12H73z"/><path fill="#F4F4F4" d="M73 145h33v12H73z"/><path d="M75.188 97.406a2.469 2.469 0 0 0-2.47 2.469v7.406a2.469 2.469 0 1 0 4.938 0v-7.406a2.469 2.469 0 0 0-2.469-2.469Zm29.624 0a2.468 2.468 0 0 0-2.468 2.469v7.406a2.469 2.469 0 1 0 4.937 0v-7.406a2.469 2.469 0 0 0-2.469-2.469Z" fill="#000"/><path d="M33.219 47.093s4.79 11.53 13.06 15.232a9.876 9.876 0 0 1-8.049 0 19.43 19.43 0 0 0 7.85 8.937 6.172 6.172 0 0 1-4.788 0 42.118 42.118 0 0 1 9.085 15.134c.271.814.592 1.604.938 2.468h-.297a4.172 4.172 0 0 0-4.172 4.172v14.245a11.132 11.132 0 0 0 9.579 10.961 25.922 25.922 0 0 0 12.986 13.727 75.38 75.38 0 0 0 8.245 3.135 43.91 43.91 0 0 0 3.753 1.037v4.937a2.814 2.814 0 0 1-2.617 2.79l-17.281 1.16a10.541 10.541 0 0 0-9.875 10.493v9.875h76.531v-9.875a10.544 10.544 0 0 0-9.875-10.493l-17.281-1.16a2.816 2.816 0 0 1-2.617-2.79v-4.937c1.308-.296 2.468-.642 3.752-1.037a75.413 75.413 0 0 0 8.443-3.135 25.917 25.917 0 0 0 13.035-13.652 11.138 11.138 0 0 0 9.579-11.036V92.962a4.17 4.17 0 0 0-4.172-4.172h-.296a43.183 43.183 0 0 0 2.468-7.974c7.826-45.301-14.368-40.413-14.368-40.413A33.595 33.595 0 0 0 90 28.578c-16.985.864-29.625 5.233-39.204 2.172a22.662 22.662 0 0 0 6.518 5.876s-12.196 5.233-23.083-.42c0 0 4.37 9.875 10.69 13.282 0 0-7.629.222-11.702-2.395Zm67.89 99.194 3.506.223c-.741 2.049-3.777 8.048-14.615 8.221-10.838.172-13.924-6.123-14.615-8.197l3.506-.247a5.306 5.306 0 0 0 4.937-5.258v-4.394l1.58.172h1.062c2.348.223 4.712.223 7.06 0h1.037l1.605-.172v4.394a5.31 5.31 0 0 0 4.937 5.258Zm29.625-53.35v14.344a8.661 8.661 0 0 1-8.072 8.591h-.766l-.296.741a23.524 23.524 0 0 1-12.048 13.01 75.927 75.927 0 0 1-7.949 3.111 37.69 37.69 0 0 1-4.444 1.185 37.4 37.4 0 0 1-3.777.543 36.877 36.877 0 0 1-10.541-.543 41.064 41.064 0 0 1-4.42-1.16 81.811 81.811 0 0 1-7.949-3.136 23.525 23.525 0 0 1-12.047-13.01l-.297-.741h-.765a8.663 8.663 0 0 1-8.097-8.591V92.962a1.704 1.704 0 0 1 1.703-1.703h1.21l6.344 17.281-.271-8.27L57.906 90l4.543-15.133A180.668 180.668 0 0 0 90 76.94c9.223.013 18.434-.68 27.551-2.073L122.094 90l-.346 10.147-.271 8.27 6.344-17.281h1.21a1.7 1.7 0 0 1 1.703 1.802Z" fill="#000"/><defs><linearGradient id="Group21__a" x1="90" y1="0" x2="90" y2="180" gradientUnits="userSpaceOnUse"><stop offset=".214" stop-color="#CB1E1E"/><stop offset="1" stop-color="#730303"/></linearGradient></defs></svg>