<?xml version="1.0" encoding="UTF-8"?>
<svg id="Layer_1" data-name="Layer 1" xmlns="http://www.w3.org/2000/svg" xmlns:xlink="http://www.w3.org/1999/xlink" viewBox="0 0 4000 4000">
  <defs>
    <style>
      .cls-1 {
        fill: #3aa5fc;
      }

      .cls-1, .cls-2, .cls-3, .cls-4, .cls-5, .cls-6, .cls-7, .cls-8, .cls-9, .cls-10, .cls-11, .cls-12, .cls-13, .cls-14, .cls-15, .cls-16, .cls-17 {
        stroke-width: 0px;
      }

      .cls-2 {
        fill: #f73737;
      }

      .cls-18 {
        opacity: .5;
      }

      .cls-19 {
        opacity: .6;
      }

      .cls-3 {
        fill: #f9c4b2;
      }

      .cls-4 {
        fill: #995837;
      }

      .cls-5 {
        fill: none;
      }

      .cls-6 {
        fill: #494963;
      }

      .cls-7 {
        fill: #dd3740;
      }

      .cls-8 {
        fill: #c67842;
      }

      .cls-9 {
        fill: #fff;
      }

      .cls-20 {
        opacity: .3;
      }

      .cls-10 {
        fill: #b199c5;
      }

      .cls-11 {
        fill: url(#Dégradé_sans_nom_2);
      }

      .cls-21 {
        clip-path: url(#clippath);
      }

      .cls-12 {
        fill: #545cb3;
      }

      .cls-13 {
        fill: #f2e56e;
      }

      .cls-14 {
        fill: #4c9bff;
      }

      .cls-15 {
        fill: #0fd15d;
      }

      .cls-16 {
        fill: #9d6342;
      }

      .cls-17 {
        fill: #000072;
      }
    </style>
    <linearGradient id="Dégradé_sans_nom_2" data-name="Dégradé sans nom 2" x1="54.09" y1="54.09" x2="3948.73" y2="3948.73" gradientTransform="translate(4000 4000) rotate(-180)" gradientUnits="userSpaceOnUse">
      <stop offset="0" stop-color="#1d7c1d"/>
      <stop offset="1" stop-color="#0a630e"/>
    </linearGradient>
    <clipPath id="clippath">
      <path class="cls-5" d="m2447.14,1906.42l-505.49-115.85s-172.36,212.39-290.8,613.05c0,0,241.41,361.08,869.29,200.33l-73-697.52Z"/>
    </clipPath>
  </defs>
  <rect class="cls-11" width="4000" height="4000" transform="translate(4000 4000) rotate(180)"/>
  <g>
    <path class="cls-7" d="m1438.27,2403.61s183.16-112.84,427.07,28.06c243.9,140.89-7.94-320.55-7.94-320.55,0,0-421.54,7.69-419.13,292.49Z"/>
    <g class="cls-20">
      <path class="cls-17" d="m1438.27,2403.61s183.16-112.84,427.07,28.06c243.9,140.89-7.94-320.55-7.94-320.55,0,0-421.54,7.69-419.13,292.49Z"/>
    </g>
    <path class="cls-17" d="m1865.32,2448.56c-2.87,0-5.77-.73-8.44-2.27-121.09-69.95-225.91-73.96-292.54-64.99-72.38,9.74-116.81,36.44-117.25,36.71-7.95,4.85-18.35,2.36-23.22-5.58-4.87-7.94-2.41-18.32,5.52-23.21,7.83-4.82,194.62-116.46,444.38,27.81,8.08,4.67,10.84,15,6.18,23.08-3.13,5.42-8.81,8.45-14.64,8.45Z"/>
    <path class="cls-4" d="m2717.12,3521.38c-225.23-30.56-450.47,14.63-450.47,14.63-3.77-48.13-3.04-129.37,28.43-215.72l228.47-38.62,119.09,135.16s70.28,31.47,74.48,104.56Z"/>
    <path class="cls-9" d="m2706.98,3580.95h-434.44s-3.72-16.85-5.89-44.94c0,0,225.23-45.18,450.47-14.63,1.01,17.43-1.79,37.27-10.14,59.57Z"/>
    <path class="cls-16" d="m2009.95,3381.11c-7.34,36.25-16.32,70.28-29.78,98.38-9.51,19.84-29.49,32.49-51.51,32.53l-315.84.34c6.66-28.91,25.87-64.1,77.57-82.83l49.82-143.46h222.92s28.77,41.27,46.82,95.05Z"/>
    <path class="cls-9" d="m1986.15,3558.41h-375.31s-3.91-20.56,1.98-46.05l315.84-.34c22.01-.05,42-12.7,51.51-32.53,13.47-28.09,22.45-62.13,29.78-98.38,19.02,56.43,26.26,126.62-23.8,177.3Z"/>
    <path class="cls-13" d="m1690.39,3429.52c41.51-15.06,104.07-19.5,198.01-1.45"/>
    <path class="cls-17" d="m2452.94,3406.8l-8.25-12.53c2.09-1.38,52.07-33.69,118.55-19.11l-3.21,14.65c-60.08-13.18-106.63,16.68-107.09,16.98Z"/>
    <path class="cls-17" d="m2434.64,3376.43l-8-12.69c1.84-1.16,45.82-28.44,105.33-22.39l-1.51,14.92c-54.21-5.48-95.41,19.9-95.82,20.15Z"/>
    <rect class="cls-17" x="2518.72" y="3266.58" width="25" height="164.47" transform="translate(-1591.79 2559.87) rotate(-42.08)"/>
    <rect class="cls-17" x="2414.88" y="3290.82" width="20" height="139.2" transform="translate(-1379.48 1717.46) rotate(-30.83)"/>
    <rect class="cls-17" x="2372.74" y="3305.2" width="25" height="138.61" transform="translate(-1434.81 1798.49) rotate(-32.33)"/>
    <path class="cls-17" d="m2377.79,3452.85c4.46-4.99,8.83-8.53,13.6-12.31,4.77-3.54,9.63-7,14.69-10.06,5-3.27,10.32-5.75,15.54-8.62,5.31-2.59,10.75-4.87,16.17-7.28,21.9-8.99,44.95-14.42,68.12-18.05,23.23-3.78,46.63-4.54,69.96-4.39,11.63.4,23.23,1.25,34.83,2.07,11.48,1.59,23,2.93,34.43,4.78,9.21,1.49,15.46,10.15,13.98,19.36-1.41,8.74-9.3,14.83-17.98,14.15l-.97-.08c-10.97-.9-21.86-2.3-32.79-3.44l-32.73-2.36c-21.77-.65-43.64-1.41-65.24.51-21.62,1.49-43.2,4.43-64.13,9.85l-15.55,4.54c-5.04,1.83-10.31,3.35-15.21,5.53-5.08,1.89-9.95,4.16-14.81,6.51-4.61,2.47-9.68,5.19-13.53,7.86l-.5.34c-2.72,1.88-6.45,1.21-8.33-1.51-1.61-2.32-1.35-5.38.45-7.4Z"/>
    <path class="cls-17" d="m2266.64,3547.36c-5.83,0-11.05-4.11-12.24-10.05-1.36-6.77,3.03-13.36,9.8-14.71,2.27-.46,229.88-45.2,454.59-14.73,6.84.93,11.64,7.23,10.71,14.07-.93,6.84-7.23,11.61-14.07,10.71-220.43-29.9-444.09,14.02-446.32,14.47-.83.17-1.66.25-2.47.25Z"/>
    <path class="cls-17" d="m2707,3596.72h-434.44c-7.93,0-14.79-5.51-16.5-13.25-1.16-5.26-27.83-130.31,23.15-270.1,2.08-5.71,7.07-9.86,13.06-10.87l228.48-38.62c5.76-.98,11.62,1.1,15.49,5.49l116.75,132.52c42.5,20.73,107.56,83.23,69.83,183.86-2.47,6.59-8.78,10.96-15.82,10.96Zm-420.22-33.79h408.08c26.94-91.32-55.52-130.16-59.17-131.83-2.17-.99-4.15-2.44-5.72-4.23l-112.85-128.1-209.4,35.39c-34.63,101.76-25.9,195.11-20.94,228.77Z"/>
    <g class="cls-20">
      <path class="cls-17" d="m2706.98,3579.84h-434.44s-27.32-123.91,22.54-260.66l228.47-38.62,28.24,32.05c-75.93,9.12-157.94,24.23-175.47,47.79-34.18,46.05,54.31,69.32,54.31,69.32,0,0-42.62,35.87,50.3,57.59,52.33,12.21,154.47,14.92,233.68,14.87,4.78,21.43,3.81,47.21-7.63,77.67Z"/>
    </g>
    <path class="cls-17" d="m1612.81,3523.73c-6.9,0-12.49-5.59-12.5-12.49,0-6.9,5.58-12.51,12.49-12.51l315.84-.35c17.04-.02,32.84-10.01,40.25-25.45,11.23-23.4,20.38-53.73,28.8-95.44,1.37-6.77,7.95-11.14,14.73-9.78,6.77,1.37,11.15,7.96,9.78,14.73-8.84,43.8-18.62,75.99-30.77,101.31-11.54,24.05-36.18,39.6-62.76,39.63l-315.84.35h-.01Z"/>
    <path class="cls-17" d="m1865.33,3395.61c-1.34,0-2.69-.36-3.91-1.1-38.93-23.84-109.11-12.5-109.82-12.39-4.08.69-7.95-2.08-8.63-6.16-.68-4.09,2.08-7.95,6.16-8.63,3.1-.52,76.47-12.34,120.11,14.39,3.53,2.16,4.64,6.78,2.48,10.31-1.42,2.31-3.88,3.58-6.4,3.58Z"/>
    <path class="cls-17" d="m1879.89,3373.59c-1.59,0-3.2-.51-4.56-1.55-40.62-31.14-108.2-14.18-108.87-14.01-4.02,1.02-8.1-1.37-9.14-5.38-1.04-4.01,1.37-8.1,5.37-9.14,3.05-.8,75.29-19.01,121.76,16.63,3.29,2.52,3.91,7.23,1.39,10.52-1.48,1.93-3.7,2.94-5.96,2.94Z"/>
    <rect class="cls-17" x="1688.2" y="3338.8" width="139.49" height="25" transform="translate(-1971.5 3993.83) rotate(-72.1)"/>
    <rect class="cls-17" x="1805.43" y="3340.53" width="144.11" height="25" transform="translate(-1905.38 4029.51) rotate(-70.89)"/>
    <g class="cls-20">
      <path class="cls-17" d="m1963.12,3284.94h-222.92l-49.83,143.47h.02c-39.65,14.38-60.19,38.44-70.61,61.9l82.38-63.35s115.43-32.69,184.03,2.56c68.15,35.02,81.5,97.96-269.71,69.2-10.84,30.91-5.63,58.57-5.63,58.57h375.31c97.75-98.96-23.03-272.36-23.03-272.36Z"/>
    </g>
    <path class="cls-17" d="m1887.34,3432.49c-30.19-3.04-60.24-5.42-89.98-5.25l-11.13.08-11.06.56c-3.67.23-7.37.27-11.01.66l-10.9,1.18c-7.3.59-14.34,2.15-21.5,3.15-3.52.7-6.98,1.59-10.46,2.36l-5.21,1.19-5.05,1.56c-27.18,7.57-51.21,21.95-65.91,42.77-7.23,10.47-12.39,22.33-15.06,35.08-1.36,6.35-2.2,12.89-2.42,19.46-.05,3.28-.12,6.57.04,9.81.08,1.62.17,3.23.33,4.79.12,1.46.38,3.34.49,4.04l-17.65-14.62,93.83.34,93.83.55c62.55.37,125.1.11,187.65.19l-12.02,5.02c7.42-7.84,13.93-16.36,19.12-25.67,4.93-9.45,8.61-19.55,10.99-30.12,2.48-10.55,3.17-21.66,3.1-32.81-.11-11.18-1.32-22.51-3.49-33.79-4.19-22.58-11.68-44.94-21.1-66.55-4.7-10.81-9.91-21.46-15.53-31.87-5.56-10.29-11.8-20.89-17.96-30.01l13.86,7.24h-222.92l15.96-11.35-49.83,143.47c-3.06,8.81-12.69,13.48-21.5,10.42-8.81-3.06-13.48-12.69-10.42-21.5l49.83-143.47c2.42-6.97,8.98-11.34,15.96-11.35h223.16c5.63,0,10.66,2.92,13.62,7.24,7.61,11.27,13.8,21.93,19.96,33.26,6.06,11.23,11.67,22.71,16.78,34.45,10.22,23.47,18.53,48.04,23.34,73.86,2.47,12.87,3.91,26.1,4.06,39.52.1,13.4-.77,27.03-3.88,40.48-3,13.43-7.76,26.61-14.27,38.97-6.76,12.23-15.26,23.36-24.81,33.35-3.17,3.32-7.41,5-11.67,5.02h-.35c-62.55.08-125.1-.18-187.65.19l-93.83.55-93.83.34h-.25c-8.72.03-15.99-6.29-17.41-14.62-.52-3.05-.74-4.94-.97-7.28-.23-2.23-.36-4.41-.47-6.59-.22-4.36-.2-8.69-.01-13.01.43-8.63,1.65-17.24,3.61-25.73,3.75-17.02,11.41-33.45,21.99-47.65,10.55-14.28,24.49-25.64,39.34-34.04,14.9-8.44,30.75-14.27,46.73-17.65l5.97-1.4,6-.97c4-.62,7.99-1.34,11.97-1.86l11.96-1.11,5.97-.52,5.95-.13,11.88-.25c3.95-.08,7.88.21,11.81.3l11.77.42,11.67,1.09c31.09,2.94,61.45,9.07,91.1,17.17,3.01.82,4.78,3.93,3.96,6.94-.74,2.7-3.32,4.41-6.01,4.13h-.07Z"/>
    <path class="cls-12" d="m2444.07,2492.75l-742.48-147.07s-130.4,399.04,28.81,930.03c0,0,86.8,99.36,242.48,11.26l71.2-403.07,74.82-21.53,168.95,481.31,261.87-41.03s-.51-574.23-105.65-809.91Z"/>
    <g class="cls-18">
      <path class="cls-9" d="m1765.4,3280.71c-153.1-510.6-38.41-899.13-29.38-928.21l-34.43-6.82s-130.4,399.04,28.81,930.03c0,0,38.83,44.32,111.03,47.46-49.66-12.36-76.03-42.46-76.03-42.46Z"/>
      <polygon class="cls-9" points="2153.9 2867.38 2123.7 2876.07 2287.85 3343.69 2319.36 3338.76 2153.9 2867.38"/>
    </g>
    <g class="cls-20">
      <path class="cls-17" d="m1968.68,2906.45l75.3-22.11-71.1,402.63c-155.67,88.1-242.47-11.25-242.47-11.25-.68-2.32-1.4-4.63-2.03-6.9,37.84,17.33,82.88,23.22,125.51-8.4,100.89-74.82,114.79-353.97,114.79-353.97Z"/>
    </g>
    <g class="cls-20">
      <path class="cls-17" d="m2549.72,3302.66l-261.87,41.03-166.34-473.98c18.3,50.73,130.33,348.42,263.75,410.84,81.24,37.99,131.35-57.59,159.78-149.74,4.63,101.51,4.68,171.85,4.68,171.85Z"/>
    </g>
    <g class="cls-20">
      <path class="cls-17" d="m1665.34,2524.1c14.92-113.05,36.25-178.41,36.25-178.41l742.46,147.08c17.57,39.39,32.25,88.29,44.41,142.35-141.43,41.66-503.37,113.92-823.12-111.02Z"/>
    </g>
    <path class="cls-17" d="m1963.41,2900.06l76.02-32.4c8.65-3.69,18.65.34,22.34,8.99,3.69,8.65-.34,18.65-8.99,22.34-1.3.56-2.73.95-4.07,1.16l-81.66,12.66c-3.65.57-7.06-1.93-7.63-5.58-.48-3.08,1.24-6,3.98-7.17Z"/>
    <path class="cls-17" d="m2287.84,3360.59c-7.07,0-13.53-4.45-15.93-11.3l-163.67-466.26-49.36,14.2-69.37,392.69c-.88,4.97-3.93,9.28-8.32,11.77-165.74,93.79-262.56-13.76-263.52-14.85-1.59-1.82-2.77-3.95-3.46-6.26-82.99-276.78-86.46-517.27-74.77-670.27,12.71-166.25,44.73-265.7,46.09-269.85,2.66-8.12,10.97-12.99,19.34-11.32l742.48,147.07c5.38,1.06,9.91,4.68,12.15,9.69,105.39,236.24,107.09,793.18,107.11,816.78,0,8.33-6.05,15.42-14.28,16.71l-261.87,41.03c-.88.14-1.76.21-2.62.21Zm-168.94-515.11c7,0,13.51,4.38,15.94,11.3l164.29,468.04,233.58-36.6c-1-89.26-10.55-567.35-100.61-780.62l-718.6-142.34c-20.64,75.44-105.51,439.73,31.93,901.73,13.84,13.69,87.09,76.17,212.22,9.09l69.79-395.11c1.12-6.35,5.77-11.51,11.97-13.3l74.82-21.53c1.56-.45,3.13-.66,4.68-.66Z"/>
    <path class="cls-1" d="m2520.13,2603.94c-627.86,160.74-869.27-200.33-869.27-200.33,5.55-18.78,11.25-37.17,16.99-55.13,15.45-48.13,31.62-93.21,47.93-135.3,12.84-32.97,25.83-64.1,38.76-93.31,20.37-46.2,40.6-87.66,59.81-124.35,70.62-135.11,127.29-204.96,127.29-204.96l505.5,115.85,25.83,246.76,14.05,134.24,8.4,80.37,14.14,135.16,10.57,100.98Z"/>
    <g>
      <path class="cls-9" d="m2552.28,2493.49c-14.39,3.43-28.63,6.61-42.72,9.46-91.57,18.87-176.33,26.55-253.71,26.55-163.78.05-294.5-34.47-386.85-70.86-93.12-36.69-160.74-80.13-201.15-110.16,15.45-48.13,31.62-93.21,47.93-135.3.68.58,1.3,1.16,1.93,1.79,1.4,1.4,73.47,68.98,207.18,120.39,172.67,66.42,364.5,77.28,570.52,32.44,8.5-1.83,16.99-3.76,25.49-5.79,36.3-8.64,72.79,13.76,81.43,50.06,8.69,36.3-13.76,72.79-50.06,81.43Z"/>
      <path class="cls-9" d="m2337.06,2296.86c-163.77.02-294.51-34.5-386.84-70.87-157.27-61.95-241.82-143.17-245.34-146.59-26.76-25.99-27.32-68.83-1.33-95.55,26-26.72,68.59-27.33,95.38-1.52,1.43,1.37,73.49,68.94,207.19,120.38,179.76,69.17,380.29,78.1,596.03,26.65,36.3-8.66,72.76,13.75,81.42,50.05,8.66,36.3-13.74,72.76-50.05,81.42-108.04,25.78-207.19,36.01-296.46,36.02Z"/>
    </g>
    <path class="cls-17" d="m2215.93,2661.73c-166.29,0-289.66-40.21-373.51-82.59-141.17-71.35-203.05-162.29-205.61-166.13-2.79-4.17-3.58-9.37-2.16-14.18,118.05-399.3,286.76-610.12,293.89-618.9,4.06-5,10.61-7.26,16.89-5.82l505.49,115.85c7.04,1.61,12.28,7.52,13.03,14.71l73,697.52c.87,8.33-4.5,16.05-12.61,18.12-115.71,29.62-218.36,41.42-308.4,41.42Zm-546.49-261.34c16.26,21.17,76.68,92.66,190.1,149.53,122.04,61.2,331.96,117.39,642.28,41.19l-70.21-670.93-483.16-110.73c-31.76,42.34-175.89,246.51-279,590.93Z"/>
    <g class="cls-21">
      <path class="cls-5" d="m2255.83,2529.52c-163.78.02-294.51-34.5-386.84-70.87-157.27-61.95-241.82-143.17-245.34-146.59-26.76-25.99-27.32-68.83-1.33-95.55,26-26.72,68.59-27.32,95.38-1.52,1.43,1.37,73.49,68.94,207.19,120.39,179.76,69.17,380.29,78.1,596.03,26.65,36.3-8.66,72.76,13.75,81.42,50.05,8.66,36.3-13.74,72.76-50.05,81.42-108.04,25.78-207.19,36.01-296.46,36.02Z"/>
      <path class="cls-5" d="m2337.06,2296.86c-163.77.02-294.51-34.5-386.84-70.87-157.27-61.95-241.82-143.17-245.34-146.59-26.76-25.99-27.32-68.83-1.33-95.55,26-26.72,68.59-27.33,95.38-1.52,1.43,1.37,73.49,68.94,207.19,120.38,179.76,69.17,380.29,78.1,596.03,26.65,36.3-8.66,72.76,13.75,81.42,50.05,8.66,36.3-13.74,72.76-50.05,81.42-108.04,25.78-207.19,36.01-296.46,36.02Z"/>
    </g>
    <ellipse class="cls-3" cx="2229.43" cy="1910.44" rx="138.77" ry="197.91" transform="translate(-248.77 3484.82) rotate(-73.02)"/>
    <g>
      <path class="cls-14" d="m2268.77,2094.1c-29.23,0-60.03-4.51-91.14-14.01-126.85-38.73-203.47-143.59-174.42-238.72,14.61-47.84,53.34-84.19,109.06-102.36,50.88-16.59,110.88-15.97,168.96,1.77,126.85,38.73,203.47,143.59,174.42,238.73-21.93,71.81-96.89,114.59-186.89,114.59Zm-77.8-289.77c-19.5,0-38.14,2.7-54.76,8.12-18.01,5.87-49.63,20.36-59.13,51.48-15.85,51.92,40.52,117.09,123.1,142.3,82.58,25.21,165.75,2.65,181.6-49.27,15.85-51.92-40.53-117.09-123.11-142.31-22.51-6.87-45.66-10.33-67.71-10.33Zm227.75,163.91h.05-.05Z"/>
      <path class="cls-17" d="m2268.77,2110.99c-31.7,0-64.02-4.96-96.07-14.74-64.83-19.79-119.65-56.87-154.38-104.4-35.8-49-46.9-104.19-31.27-155.41,16.26-53.26,58.87-93.56,119.98-113.49,54.15-17.66,117.77-17.07,179.13,1.68,135.91,41.5,217.46,155.62,185.65,259.81-23.48,76.88-103.18,126.55-203.05,126.55Zm-77.72-367.1c-25.77,0-50.67,3.72-73.54,11.18-50.34,16.41-85.19,48.81-98.14,91.23-12.46,40.8-3.14,85.41,26.23,125.61,30.45,41.67,79.09,74.35,136.97,92.02,28.85,8.8,57.85,13.27,86.2,13.27,84.67,0,151.69-40.28,170.73-102.63,26.27-86.07-45.41-181.67-163.2-217.63-28.47-8.7-57.37-13.05-85.25-13.05Zm77.44,289.74c-23.36,0-48.23-3.61-73.24-11.25-42.95-13.11-80.7-36.64-106.31-66.24-27.5-31.78-37.44-66.28-28.02-97.15,11.73-38.43,48.92-55.72,70.05-62.61,18.2-5.94,38.39-8.95,60-8.95,23.81,0,48.94,3.83,72.64,11.06,92.92,28.37,153.17,101.67,134.33,163.4-13.77,45.11-66.05,71.74-129.45,71.74Zm-77.52-212.41c-18.04,0-34.7,2.45-49.52,7.29-14.89,4.85-40.94,16.55-48.21,40.35-5.83,19.07,1.92,42.83,21.25,65.18,21.19,24.49,54.22,44.92,90.62,56.03,72.56,22.16,147.56,4.37,160.51-38.04,12.95-42.42-39.33-99.06-111.88-121.22-20.55-6.27-42.26-9.59-62.78-9.59Z"/>
      <g class="cls-20">
        <path class="cls-17" d="m2520.13,2603.94c-627.86,160.74-869.27-200.33-869.27-200.33,5.55-18.78,11.25-37.17,16.99-55.13,15.45-48.13,31.62-93.21,47.93-135.3,6.81-17.47,13.66-34.47,20.56-50.93-21.72,174.93,103.83,343.55,299.76,384.48,3.81.82,7.58,1.54,11.39,2.22,219.73,40.45,422.18-119.81,413.64-322.89l-13.23-312.32,25.05,239.43,14.05,134.24,8.4,80.37,14.14,135.16,10.57,100.98Z"/>
      </g>
      <g class="cls-20">
        <path class="cls-17" d="m2566.61,1965.04s-287.62,186.73-504.84,84.16c-217.22-102.56-107.48-301-107.48-301,0,0,185.52,232.02,612.32,216.84Z"/>
      </g>
    </g>
    <path class="cls-3" d="m1790.12,1511.46c-5.3,1.02-10.78,1.55-16.37,1.55-48.65,0-88.1-40.25-88.1-89.91s39.44-89.91,88.1-89.91c16.73,0,32.37,4.76,45.7,13.03"/>
    <path class="cls-3" d="m2914.84,1690.02c48.8.34,88.24,36.73,88.24,81.63s-39.82,81.68-88.92,81.68c-19.5,0-37.51-5.74-52.13-15.54"/>
    <path class="cls-8" d="m3376.36,2773.71c-56.33,131.93-175.56,117.73-175.56,117.73-16.65,14.48-38.13,22.2-60.19,21.58-51.02-1.4-142.3-5.94-160.07-19.94-8.93-7.05-17.52-18.68-24.91-30.7h-.05s-42.38,1.5-81.39-63.91c-37.41-62.75-42.62-139.6-16.56-207.81,51.31-134.29,162.82-343.55,276.16-555.12-.82-3.23,13.27-93.74-39.82-105.81-53.1-12.07-64.35-42.62-39.44-60.34,24.96-17.67,177.83,4.83,177.83,4.83,0,0-2.65,17.14,40.21,12.89,42.86-4.25,94.71-24.71,108.03,19.31,13.23,44.02-155.34,62.75-155.34,62.75l-30.22,292.19s237.64,380.38,181.31,512.35Z"/>
    <g class="cls-20">
      <path class="cls-17" d="m3256.98,2845.27c-16.65,14.48-38.13,22.2-60.19,21.58-51.02-1.4-142.3-5.94-160.07-19.94-8.93-7.05-17.52-18.68-24.91-30.7h-.05s-42.38,1.5-81.39-63.91c-37.41-62.75-31.5-137.04-5.43-205.25,37.83-98.95,126.39-260.81,121.07-198.39l67.92-167.66s-7.53,152.8,14.27,164.69,47.05-71.74,47.05-71.74l4.18,60.85s46.01-84.87,45.01-165.48l-66.4-120.29c1.88-3.51,3.75-7.01,5.63-10.53,8.74-16.32,17.52-32.73,26.31-49.14-.82-3.23,13.27-93.74-39.82-105.81-24.72-5.6-40.35-15.21-47.5-25.68-15.4.63-27.47,2.56-33.11,6.52-24.91,17.72-13.66,48.27,39.44,60.34,53.1,12.07,39,102.58,39.82,105.81-113.34,211.57-224.85,420.83-276.16,555.12-26.07,68.21-20.85,145.06,16.56,207.81,39,65.41,81.39,63.91,81.39,63.91h.05c7.39,12.02,15.98,23.65,24.91,30.7,17.76,14,109.04,18.54,160.07,19.94,22.06.63,43.54-7.1,60.19-21.58,0,0,89.64,10.67,150.22-72.55-53.29,38.04-109.04,31.38-109.04,31.38Z"/>
    </g>
    <path class="cls-17" d="m3030.98,2360.17c-3.42-1.33,28.81-92.1,71.98-202.74,43.17-110.64,80.93-199.25,84.34-197.91,3.41,1.33-28.81,92.1-71.98,202.74-43.16,110.63-80.93,199.25-84.34,197.91Z"/>
    <path class="cls-17" d="m3132.59,2324.57c.79.28,0,6.34-3.96,16.79-1.08,2.61-2.22,5.48-4.42,8.65-.58.8-1.18,1.61-2.22,2.47-.42.41-1.19.86-1.96,1.21-.96.32-2.09.59-3.37.23-2.45-.71-3.55-2.45-4.14-3.49-.72-1.22-1.04-2.26-1.43-3.37-1.21-4.29-1.9-8.46-2.05-13.07.02-4.59-.17-9.67.39-14.47,1.41-19.74,4.86-42.67,8.9-68.15,4.1-25.46,9.19-53.31,14.82-82.48,11.35-58.33,22.95-110.84,32.05-148.7,9.12-37.86,15.79-61.04,17.58-60.66,1.79.39-1.63,24.26-8.39,62.58-6.74,38.32-16.88,91.09-28.21,149.32-5.61,29.09-10.94,56.79-15.81,82.06-4.68,25.2-9.07,47.98-11.6,66.96-.86,4.84-.92,9.05-1.3,13.21-.21,4.14.18,8.23.77,11.45.18.73.37,1.55.57,1.95.1.33.17.34.17.43-.15.27-.53.48-.65.71-.2.3-.28.64-.26.5-.06.28.07-.43-.25-.95l-.12-.37h.01s.04,0,.04,0c0,.05.14-.09.21-.12.34-.18.85-.67,1.29-1.16,1.85-2.08,3.39-4.7,4.71-6.95,5.18-9.31,7.7-14.9,8.62-14.56Z"/>
    <path class="cls-17" d="m3165.18,2345.69c-.91.12-2.34-5.32-4.17-15.34-.88-5.01-1.99-11.15-2.93-18.32-.63-7.27-1.35-15.45-2.13-24.45-2.5-36.29-1.6-86.72,4.73-141.78,6.45-55.05,16.45-104.23,25.2-139.4,8.86-35.17,16.39-56.37,18.16-55.87,1.77.49-2.52,22.4-8.98,57.85-6.35,35.46-14.8,84.48-21.19,138.95-6.26,54.48-8.61,104.04-8.54,139.93.06,8.92.11,17.04.15,24.25.26,7.02.48,13.14.67,18.31.23,10.08-.06,15.75-.97,15.87Z"/>
    <path class="cls-17" d="m2933.16,2876.9c-1.08-7.45-1.57-14.53-1.94-21.57-.36-7.03-.47-13.96-.52-20.87-.06-13.82.27-27.51.91-41.19.04-.83.74-1.47,1.57-1.43.66.03,1.2.5,1.38,1.1,3.82,13.05,7.94,26.03,12.39,38.76,2.24,6.35,4.53,12.67,7,18.81,2.47,6.12,5.06,12.16,7.88,17.6,3.88,7.47.97,16.68-6.51,20.56-7.47,3.88-16.68.97-20.56-6.51-.8-1.54-1.31-3.16-1.55-4.78l-.06-.46Z"/>
    <path class="cls-17" d="m3279.21,2815.94l-65.11,101.07c-4.52,7.01-13.86,9.03-20.87,4.52-7.01-4.52-9.03-13.86-4.52-20.87.62-.97,1.4-1.89,2.18-2.66l86.31-83.69c.52-.5,1.34-.49,1.84.03.43.44.48,1.11.16,1.61Z"/>
    <path class="cls-17" d="m3099.86,1862.62c53.69,0,132.5,11.6,132.5,11.6,0,0-2.1,13.57,27.63,13.57,3.68,0,7.85-.21,12.58-.68,21.69-2.15,45.68-8.45,65.81-8.45,19.66,0,35.64,6.01,42.22,27.76,13.23,44.02-155.34,62.75-155.34,62.75l-30.22,292.19s237.64,380.38,181.31,512.35c-46.36,108.57-135.31,118.18-165.36,118.18-6.46,0-10.2-.44-10.2-.44-16.03,13.93-36.52,21.61-57.7,21.61-.83,0-1.66-.01-2.49-.04-51.02-1.4-142.3-5.94-160.07-19.94-8.93-7.05-17.52-18.68-24.91-30.7h-.05s-.08,0-.24,0c-3.46,0-43.85-1.36-81.15-63.91-37.41-62.75-42.62-139.6-16.56-207.81,51.31-134.29,162.82-343.55,276.16-555.12-.82-3.23,13.27-93.74-39.82-105.81-53.1-12.07-64.35-42.62-39.44-60.34,7.04-4.98,24.25-6.77,45.33-6.77m0-30c-31.76,0-50.5,3.67-62.66,12.29-19.43,13.82-28.5,34.55-24.31,55.49,5.55,27.74,32.68,49.1,74.44,58.59,13.29,3.02,19.57,28.52,16.86,68.31-104.34,194.77-221.63,414.12-274.57,552.66-29.5,77.2-22.47,164.63,18.81,233.88,31.99,53.64,67.94,70.75,89.42,76.13,8.05,11.48,16,20.27,24.11,26.67,9.19,7.24,28.27,22.28,177.83,26.37,1.08.03,2.2.05,3.32.05,24.17,0,47.67-7.45,67.37-21.17h.53c31.6,0,138.91-9.84,192.95-136.4,27.24-63.82,4.36-171.83-69.96-330.19-43.93-93.61-92.03-174.64-108.05-200.98l26.75-258.6c12.87-1.96,29.65-4.84,47.19-8.71,57.24-12.63,89.11-27.85,103.33-49.36,8.03-12.15,10.22-26.31,6.14-39.87-5.56-18.38-22.15-49.13-70.95-49.13-14.6,0-29.58,2.53-44.07,4.97-8.76,1.48-17.04,2.87-24.7,3.63-3.55.35-6.79.53-9.62.53-.95,0-1.81-.02-2.57-.05-.3-.45-.6-.89-.92-1.32-4.75-6.44-11.87-10.71-19.78-11.87-3.31-.49-81.63-11.92-136.87-11.92h0Zm152.4,24.46h0Z"/>
    <path class="cls-6" d="m1773.76,1333.2s-12.87-261.87,65.97-416.34c0,0,50.68-54.71,111.83-69.19,0,0-53.5-11.06-82.16-4.12,0,0,110.32-149.54,302.6-168.04,0,0-42.07-56.32-93.44-70.8,0,0,122.4-21.72,260.78,55.51,547.88-272.73,666.95,340.31,903.48,337.09,0,0-19.31,48.27-89.3,63.56,0,0,122.69,88.9,96.14,249.4,0,0-32.58-50.68-91.72-77.23,0,0,59.13,86.89,39.82,203.95l-51.89-73.61s-14.48,201.53-191.88,330.66"/>
    <g class="cls-18">
      <path class="cls-9" d="m2339.33,698.26c516.98-257.35,621.89,274.97,903.48,289.05,29.54-19.41,0,0,0,0-236.53,3.22-355.6-609.83-903.48-337.09-138.38-77.23-260.78-55.51-260.78-55.51,28.69,8.09,54.47,29.22,71.65,46.31,48.43,3.48,116.57,16.75,189.13,57.25Z"/>
      <path class="cls-9" d="m1915.42,837.41c49.4-45.36,141.44-142.44,260.84-153.94,0,0,19.56-11.46-45.36-6.79-166.79,33.61-261.51,161.86-261.51,161.86,12.73-3.08,30.36-2.61,46.03-1.14Z"/>
    </g>
    <g class="cls-20">
      <path class="cls-17" d="m3161.15,1073.7c-24.97,55.25-68.2,123.08-146.15,161.3-333.07,163.32-967.71-31.73-1081.95-231.26-25.53-44.59-38.91-87.57-44.31-127.44-29.46,19.46-49.01,40.55-49.01,40.55-69.27,135.72-67.74,354.31-66.35,405.39l1150.61,351.77c177.4-129.13,191.88-330.66,191.88-330.66l27.55,39.08c-.25,1.54-.52,3.19-.82,4.9,2.63-15.14,3.27-23.99,3.27-23.99l51.89,73.61-27.54-39.06c10.47-107.3-42.29-184.88-42.29-184.88,17.06,7.66,31.89,17.32,44.38,27.2,20.19,11.12,36.68,24.67,49.17,36.88,0,0,0,0,0,0,10.63-91.45-28.02-162.51-60.33-203.42Z"/>
    </g>
    <path class="cls-3" d="m2940.71,1657.82c-45.86,43.44-68.79,132.7-68.79,132.7-1.21,17.28-4.83,34.08-11.01,50.3-60.87,160.07-347.41,199.6-640.03,88.34-292.57-111.31-480.44-331.24-419.57-491.3,5.02-13.27,11.63-25.78,19.69-37.36l-2.22-76.56s88.24-27.32,102.05-191.44l88.24-36.44,2.7-4.73c9.7,11.15,22.88,22.35,40.74,32.53,0,0-8.45-40.45-1.5-60.97l3.67-2.12c15.54,15.21,39.53,27.08,76.41,27.08h.05c25.68,11.34,48.9,11.63,48.9,11.63-30.51-63.77-15.16-144.81,11.87-189.46,0,0,36.78-5.21,87.47,20.13,0,0,91.38,5.45,114.45,38.33-9.99,73.76-14.1,178.36,48.46,235.23,0,0-3.09-19.69,1.69-46.15l5.94,1.06s15.69,51.12,72.6,82.06c0,0-2.41-49.43,14.92-99.25l9.85.48s86.21,56.09,51.36,123.67c2.08-1.3,52.08-33.16,77.38-74.1l4.39.53c3.23,29.78-8.83,61.93-8.83,61.93,26.07-6.95,43.64-19.16,55.46-32.73l6.47,1.35c24.14,93.36,104.6,105.42,104.6,105.42-29.78-38.62-23.32-105.42-23.32-105.42,2.41,6.71,5.7,12.98,9.61,18.78l-.77.53,86.89,155.29c-59.13,178.6,30.17,260.66,30.17,260.66Z"/>
    <g class="cls-20">
      <path class="cls-17" d="m2862.8,1835.56c-.58,1.79-1.21,3.52-1.88,5.26-60.87,160.07-347.41,199.6-640.03,88.34-292.57-111.31-480.44-331.24-419.57-491.3,5.02-13.27,11.63-25.78,19.69-37.36l3.81.72c-43.78,158.52,141.34,368.12,424.64,475.91,261.63,99.49,518.39,78.39,613.33-41.56Z"/>
    </g>
    <g class="cls-20">
      <path class="cls-17" d="m2211,1135.24c-68.3,12.79-126.66-7.24-160.6-23.89-1.93-13.56-3.86-35.19.63-48.46l3.67-2.12c15.54,15.21,39.53,27.08,76.41,27.08h.05c25.68,11.34,48.9,11.63,48.9,11.63-30.51-63.77-15.16-144.81,11.87-189.46,0,0,17.76-2.51,45.62,4.44-64.83,42.33-45.76,153.21-26.55,220.79Z"/>
    </g>
    <g class="cls-20">
      <path class="cls-17" d="m2801.89,1340.2l39.53,52.13c-244.49-26.16-366.52-118.55-426.19-214.86-56.53-90.99-57.39-185.46-53.53-230.74,13.76,5.41,25.68,12.45,32.15,21.72-8.5,62.8-12.74,147.9,24.76,206.94,6.56,10.33,14.38,19.84,23.7,28.29,0,0-3.09-19.69,1.69-46.15l5.94,1.06s15.69,51.12,72.6,82.06c0,0-2.41-49.43,14.92-99.25l9.85.48s86.21,56.09,51.36,123.67c2.08-1.3,52.08-33.16,77.38-74.1l4.39.53c3.23,29.78-8.83,61.93-8.83,61.93,26.07-6.95,43.64-19.16,55.46-32.73l6.47,1.35c24.14,93.36,104.6,105.42,104.6,105.42-29.78-38.62-23.32-105.42-23.32-105.42,2.41,6.71,5.7,12.98,9.61,18.78l-.77.53,76.41,136.61c-64.78-1.01-93.36-32.34-98.18-38.28Z"/>
    </g>
    <path class="cls-17" d="m2542.17,2009.28c-102.75,0-216-22.04-327.27-64.35-144.12-54.81-268.14-137.26-349.2-232.17-83.45-97.7-111.93-197.46-80.2-280.91,4.81-12.64,11.01-24.83,18.47-36.3l-2.06-71.12c-.22-7.58,4.64-14.38,11.88-16.63,3-1.01,77.64-27.66,90.2-176.76.53-6.31,4.54-11.78,10.39-14.2l88.24-36.41c8.63-3.56,18.51.55,22.06,9.17,3.56,8.63-.55,18.5-9.17,22.06l-78.83,32.52c-13.83,130.5-74.32,176.46-100.67,190.49l1.89,65.29c.1,3.6-.95,7.15-3,10.11-7.32,10.57-13.32,21.93-17.82,33.77-27.14,71.37-.75,159.07,74.3,246.96,77.45,90.67,196.6,169.7,335.52,222.53,138.92,52.83,280.48,72.94,398.6,56.65,114.49-15.8,192.49-63.8,219.63-135.17,5.48-14.41,8.82-29.71,9.93-45.47.07-1.02.23-2.03.49-3.02.91-3.53,21.06-80.59,62.31-128.91-23.51-30.23-71.07-114.04-25.67-258.44l-83.29-148.85c-4.56-8.14-1.65-18.44,6.49-22.99,8.14-4.55,18.44-1.65,22.99,6.49l86.89,155.27c2.31,4.14,2.79,9.06,1.29,13.56-54.61,164.94,22.33,239.87,25.64,242.98,3.38,3.19,5.34,7.66,5.35,12.31,0,4.65-1.86,9.13-5.24,12.33-38.79,36.75-60.63,112.21-63.67,123.29-1.45,18.48-5.46,36.46-11.93,53.45-31.73,83.44-119.31,139.07-246.59,156.63-28.19,3.89-57.62,5.81-87.97,5.81Z"/>
    <path class="cls-17" d="m2413.35,1650.58c-141.6,3.22-216.42-86.28-216.42-86.28,0,0-102.98,194.9,19.31,243.97,118.08,47.39,197.11-157.69,197.11-157.69Z"/>
    <path class="cls-2" d="m2191,1701.51c-12.06,0-23.67,1.88-34.56,5.31-.82,42.45,12.95,82.65,59.8,101.45,31.84,12.78,60.83,7.18,86.21-7.78-5.11-55.48-53.04-98.98-111.45-98.98Z"/>
    <path class="cls-9" d="m2649.06,2354.72c-.1-.39-.19-.72-.24-1.11"/>
    <path class="cls-9" d="m1520.33,1447.82s1.16-15.3-1.93-35.87"/>
    <path class="cls-9" d="m1513.91,1476.78c2.51,38.71-6.56,63.43-20.76,78.92"/>
    <path class="cls-9" d="m1464,1626.43c-22.4,5.31-38.23,4.3-49.38-.05"/>
    <path class="cls-9" d="m1435.65,1367.19c-17.83-6.72-38.41-12.33-63.7-16.03"/>
    <path class="cls-9" d="m1181.23,1416.06s69.99-5.63,125.1-2.82"/>
    <line class="cls-9" x1="1194.9" y1="1465.54" x2="1314.78" y2="1455.49"/>
    <line class="cls-9" x1="1228.69" y1="1515.42" x2="1324.23" y2="1499.73"/>
    <path class="cls-9" d="m1392.41,1492.8s20.82-37.41,81.76-32.58"/>
    <path class="cls-9" d="m1583.08,1424.65c5.31,13.56,6.61,30.51.82,51.65"/>
    <path class="cls-3" d="m1493.16,1555.71s-.05.05-.05.05h-.05c-35.77,38.91-104.27,19.98-104.27,19.98-171.99.58-160.12-60.34-160.12-60.34-40.6-12.07-33.79-49.86-33.79-49.86-36.98-16.12-13.66-49.48-13.66-49.48-.1-.34-.19-.68-.24-1.01-5.99-23.7,11.05-47.02,35.38-49.29l155.58-14.63c-25.78-55.51-10.09-111.65,33.36-102.82s28.96,44.26,74.82,85.3c12.89,11.54,21.72,25.63,27.76,39.92,1.5,3.52,2.8,7.05,3.96,10.57,3.23,9.7,5.26,19.26,6.56,27.85l2.17-.34,4.68,1.54c11.25,3.57,19.07,13.9,19.31,25.73.58,32-4.73,93.5-51.41,116.82Z"/>
    <g class="cls-19">
      <path class="cls-9" d="m1267.16,1544.97c-40.6-12.07-33.79-49.86-33.79-49.86-36.98-16.12-13.66-49.48-13.66-49.48-.1-.34-.19-.68-.24-1.01-5.99-23.7,11.05-47.02,35.38-49.28l169.54-28.14c-25.4-54.7-51.59-114.22,16.36-90.36-7.2-14.03-14.74-24.3-35.45-28.51-43.44-8.83-59.13,47.31-33.36,102.82l-155.58,14.63c-24.33,2.27-41.37,25.58-35.38,49.29.05.34.14.68.24,1.01,0,0-23.32,33.36,13.66,49.48,0,0-6.81,37.8,33.79,49.86,0,0-5.16,26.77,41.46,44.65-4.19-8.65-2.98-15.09-2.98-15.09Z"/>
    </g>
    <path class="cls-7" d="m1644.73,1483.69c.24,7.1-.53,15.01-2.51,23.89-18.1,81.05-140.08,194.77-203.95,153.74v-.05c-9.99-6.37-18.54-16.56-25.05-31.23l1.4-3.67c-31.28-12.16-25.82-50.64-25.82-50.64,0,0,68.5,18.92,104.27-19.98h.05s.05,0,.05-.05c46.68-23.31,51.99-84.81,51.41-116.82-.24-11.83-8.06-22.16-19.31-25.73l-4.68-1.54-2.17.34c-1.3-8.59-3.33-18.15-6.56-27.85-1.16-3.52-2.46-7.05-3.96-10.57l1.21-.53s57.2,8.69,74,51.65c0,0,60.29,3.52,61.64,59.04Z"/>
    <path class="cls-7" d="m2013.91,1825.54c-17.91-40.64-55.03-76.46-93.07-104.75-4.15-3.09-8.35-6.13-12.5-9.03-2.08-1.45-4.15-2.9-6.23-4.3-18.68-12.74-36.88-23.51-52.33-32.05-1.74-.92-3.43-1.88-5.07-2.8-2.41-1.26-4.73-2.51-6.95-3.67-1.06-.58-2.17-1.11-3.19-1.69-1.25-.63-2.46-1.26-3.62-1.88-15.78-8.06-25.82-12.41-25.82-12.41-62.75-96.54-160.36-169.29-160.36-169.29h-.05c.24,7.1-.53,15.01-2.51,23.89-18.1,81.05-140.08,194.77-203.95,153.74.24,2.7,10.57,115.13,96.01,253.81,2.61,4.25,5.26,8.5,8.06,12.79,4.15,6.42,8.4,12.89,12.89,19.4,1.45,2.17,2.94,4.34,4.49,6.52,2.7,3.96,5.5,7.92,8.45,11.87,3.48,4.83,7.05,9.65,10.76,14.53,1.64,2.17,3.33,4.39,5.07,6.61,1.69,2.22,3.43,4.44,5.21,6.66s3.57,4.49,5.36,6.71c5.36,6.66,10.96,13.37,16.75,20.08,25.97,30.27,55.9,60.77,90.27,90.8-213.5,86.45-231.03,164.56-231.56,166.97,69.85-113.39,242.8-99.54,399.35-172.38l.05-.05c2.22-1.93,73.28-64.39,125.55-186.38l-21.72-53.92,40.64-39.82Z"/>
    <path class="cls-9" d="m1920.84,1720.8c-4.15-3.09-8.35-6.13-12.5-9.03-2.08-1.45-4.15-2.9-6.23-4.3-18.68-12.74-36.88-23.51-52.33-32.05-1.74-.92-3.43-1.88-5.07-2.8-2.41-1.26-4.73-2.51-6.95-3.67-1.06-.58-2.17-1.11-3.19-1.69-1.26-.63-2.46-1.26-3.62-1.88"/>
    <path class="cls-7" d="m2079.07,1900.37c-55.32,109.24-130.38,168.42-209.64,205.3,2.22-1.93,73.28-64.39,125.55-186.38l-21.72-53.92,40.64-39.82,65.17,74.82Z"/>
    <g class="cls-20">
      <path class="cls-17" d="m2018.91,1825.56c-1.59-3.57-3.33-7.14-5.17-10.67-74.63,74.19-250.82,222.29-363.97,98.86-146.7-160.02-87.95-283.06-87.95-283.06,0,0-53.92-34.03-14.38-98.28,4.83-7.82,11.05-16.07,18.92-24.81,23.36-25.87,28.29-55.03,24.18-82.69-1.59-.19-2.46-.24-2.46-.24-16.8-42.96-74-51.65-74-51.65l-1.21.53c1.5,3.52,2.8,7.05,3.96,10.57,3.23,9.7,5.26,19.26,6.56,27.85l2.17-.34,4.68,1.54c11.25,3.57,19.07,13.9,19.31,25.73.43,23.41-2.32,62.56-22.01,91.04-7.29,10.47-16.85,19.5-29.4,25.78,0,.05-.05.05-.05.05h-.05c-21.31,23.18-54.22,25.83-77.36,24.19,0,0,0,0,.01,0,1.55,12.19,7.18,28.48,25.63,35.66l-1.4,3.67c6.52,14.67,15.06,24.86,25.05,31.23v.05c.24,2.7,10.57,115.13,96.01,253.81,2.61,4.25,5.26,8.5,8.06,12.79,4.15,6.42,8.4,12.89,12.89,19.41,1.45,2.17,2.94,4.34,4.49,6.52,2.7,3.96,5.5,7.92,8.45,11.87,3.48,4.83,7.05,9.65,10.76,14.53,1.64,2.17,3.33,4.39,5.07,6.61,1.69,2.22,3.43,4.44,5.21,6.66,1.79,2.22,3.57,4.49,5.36,6.71,5.36,6.66,10.96,13.37,16.75,20.08,25.97,30.27,55.9,60.77,90.27,90.8-114.22,46.25-172.33,90.1-201.78,121.26,0,0,0,0,0,0,85.22-54.86,219.13-58.33,342.84-115.9l.05-.05c79.26-36.88,154.32-96.06,209.64-205.3l-65.17-74.82Z"/>
    </g>
    <path class="cls-9" d="m1470.03,2278.09v.05c-19.07,30.89-30.46,71.3-31.76,125.46"/>
    <path class="cls-9" d="m1831.68,2065.69c-35.19,10.72-67,21.43-95.67,32.15-12.02,4.44-23.51,8.88-34.42,13.27"/>
    <line class="cls-9" x1="1701.64" y1="2111.17" x2="1701.59" y2="2111.12"/>
    <path class="cls-9" d="m1611.32,2020.32c-5.79-6.71-11.39-13.42-16.75-20.08-1.79-2.22-3.57-4.49-5.36-6.71-1.79-2.22-3.52-4.44-5.21-6.66-1.74-2.22-3.43-4.44-5.07-6.61-3.72-4.88-7.29-9.7-10.76-14.53-2.94-3.96-5.74-7.92-8.45-11.87-1.54-2.17-3.04-4.34-4.49-6.52-4.54-6.52-8.79-12.98-12.89-19.41-2.8-4.3-5.45-8.54-8.06-12.79"/>
    <path class="cls-7" d="m2469.15,1951.82c-33.4,35.72-39.73,136.41-39.73,136.41l-88.1,9.61c8.98-69.12,24.57-116.62,24.57-116.62,0,0,38.62-23.46,103.25-29.4Z"/>
    <path class="cls-7" d="m2922.61,2010.18c-95.34-38.62-264.67-22.49-264.67-22.49v-.05c-5.65-2.66-11.25-5.07-16.8-7.34-1.88-.77-3.72-1.54-5.55-2.27-9.03-3.67-17.86-6.81-26.55-9.61-1.93-.63-3.86-1.21-5.79-1.79-1.74-.53-3.48-1.06-5.21-1.54-1.74-.53-3.48-1.01-5.21-1.5-8.98-2.46-17.72-4.54-26.26-6.28-.97-.14-1.93-.34-2.85-.53-.92-.19-1.88-.39-2.8-.53v.05c-34.37-6.32-65.26-6.85-91.76-4.49-33.4,35.72-39.73,136.41-39.73,136.41l-88.1,9.61c-20.03,155-6.57,418.71,291.66,498.84,0,0,115.85-124.3-36.98-241.89v-.05c6.37.05,12.6.05,18.78-.05,3.91-.05,7.72-.1,11.54-.24,2.22-.05,4.49-.1,6.66-.19,2.12-.05,4.25-.14,6.37-.24,3.19-.1,6.32-.24,9.46-.43,161.95-8.3,251.78-57.88,263.9-64.97.97-.58,1.45-.87,1.45-.87,28.96-104.99,8.45-277.56,8.45-277.56Zm-291.75,458l8.45,26.4s-26.84,29.11-67.24,47.79l-18.44-21.38,77.23-52.81Z"/>
    <path class="cls-9" d="m2648.82,2353.58c-3.14.19-6.28.34-9.46.43-2.12.1-4.25.19-6.37.24-2.17.1-4.44.14-6.66.19-3.81.14-7.63.19-11.54.24-6.18.1-12.41.1-18.78.05"/>
    <path class="cls-9" d="m2657.94,1987.69c-5.65-2.65-11.25-5.12-16.8-7.39-1.88-.77-3.72-1.54-5.55-2.27-9.03-3.57-17.86-6.76-26.55-9.61-1.93-.63-3.86-1.21-5.79-1.79-1.74-.53-3.48-1.06-5.21-1.54-1.74-.53-3.48-1.01-5.21-1.5-8.98-2.46-17.72-4.54-26.26-6.28-.97-.14-1.93-.34-2.85-.53-.97-.19-1.88-.34-2.8-.48"/>
    <path class="cls-9" d="m2566.61,2354.12c-4.1-.14-8.21-.29-12.36-.53-4.78-.24-9.61-.48-14.43-.82"/>
    <path class="cls-9" d="m2520.13,2351.32c-17.09-1.4-34.71-3.23-52.86-5.65"/>
    <path class="cls-7" d="m2639.31,2494.58s-26.84,29.11-67.24,47.79l-18.44-21.38,77.23-52.81,8.45,26.4Z"/>
    <path class="cls-9" d="m2470.46,1950.52l-1.3,1.3"/>
    <path class="cls-7" d="m3044.69,2133.37c-3.33,69.17-19.45,140.23-40.4,163.25-22.01,24.18-43.44,6.42-43.44,6.42,0,0-41.18,18.25-48.13-14.38v-.05c.97-.58,1.45-.87,1.45-.87,28.96-104.99,8.45-277.56,8.45-277.56,0,0,5.65-20.52,26.16-19.31s36.3,23.27,36.3,23.27c0,0,34.76-28.82,44.12-8.79.63,1.35,1.26,2.7,1.79,4.15,12.31,29.59,16.03,76.32,13.71,123.86Z"/>
    <g class="cls-20">
      <path class="cls-17" d="m3005.88,2247.94c-28.34,3.04-29.59-21.72-29.59-21.72,0,0-3.57,19.31-26.55,15.11-22.88-4.25-21.19-55.32-21.19-55.32-21.92,116.04-240.58,153.21-333.17,163.78-25.25,2.9-41.13,3.81-41.13,3.81,0,0-170.69,9.8-169.82-229.96.29-75.59,13.9-127.19,32.39-162.43-32.58,8.88-50.93,20.03-50.93,20.03,0,0-15.59,47.5-24.57,116.62-20.03,155-6.57,418.7,291.66,498.84,0,0,115.85-124.3-36.98-241.89v-.05c6.37.05,12.6.05,18.78-.05,3.91-.05,7.72-.1,11.54-.24,2.22-.05,4.49-.1,6.66-.19,2.12-.05,4.25-.14,6.37-.24,3.19-.1,6.32-.24,9.46-.43,161.95-8.3,251.78-57.88,263.9-64.97v.05c6.95,32.63,48.13,14.38,48.13,14.38,0,0,21.43,17.76,43.44-6.42,16.61-18.25,30.17-66.66,36.73-120.44-11.44,40.69-25.39,70.67-35.14,71.73Zm-375.02,220.26l8.45,26.4s-26.84,29.11-67.24,47.79l-18.44-21.38,77.23-52.81Z"/>
    </g>
    <path class="cls-3" d="m3209.44,2080.61c0,3.43-.05,6.42-.1,8.83-.14,4.83-2.99,9.08-7.29,11.2-21.29,10.28-41.47-5.16-54.69-20.03-5.6-6.28-9.94-12.45-12.6-16.51-1.26-1.93-4.1-1.54-4.92.58-25.44,65.55-85.15,68.69-85.15,68.69,2.32-47.55-1.4-94.27-13.71-123.86h.05s73.42-62.08,129.7-39.53c16.17,6.47,27.03,19.65,34.32,35.14,11.92,25.34,14.19,56.91,14.38,75.5Z"/>
    <path class="cls-3" d="m3286.24,2021.86c-16.46-29.35-91.18-16.75-91.18-16.75,11.92,25.34,14.19,56.91,14.38,75.5,0,3.43-.05,6.42-.1,8.83-.14,4.83-2.99,9.08-7.29,11.2-21.29,10.28-41.47-5.17-54.69-20.03-7.34,13.9-8.25,26.07-4.78,36.3-31.76,21.53-29.3,48.66-12.98,69.08-34.85,13.56,11.01,86.07,53.19,74,48.8-13.95,42.19-58.41,42.19-58.41,28.58-22.25,22.16-48.95,22.16-48.95,5.65-1.93,10.48-4.63,14.19-8.06,32.15-29.78,8.16-76.99,8.16-76.99,20.27-11.2,26.55-28.24,16.75-45.71Z"/>
    <g>
      <path class="cls-17" d="m2602.84,2367.29c-2.31,0-4.62,0-6.93-.03-25.24-.15-51.1-1.32-76.82-3.47-5.96-.5-10.73-5.15-11.38-11.09-23.31-212.43,38.76-392.96,41.42-400.54,2.03-5.81,7.99-9.27,14.04-8.17,33.26,6.07,66.92,16.95,100.05,32.33,5.32,2.47,8.2,8.31,6.94,14.03-.47,2.11-46.16,213.07-9.21,360.21.91,3.63.15,7.47-2.07,10.48-2.22,3.01-5.67,4.86-9.41,5.05-15.5.8-31.15,1.2-46.62,1.2Zm-71.35-27.6c21.66,1.58,43.34,2.45,64.59,2.58,12.31.09,24.75-.07,37.17-.5-28.42-134,1.81-303.82,10.41-346.83-24.68-10.79-49.58-18.91-74.25-24.21-12.43,40.47-54.77,194.67-37.92,368.97Z"/>
      <path class="cls-17" d="m2636.89,2357.57c-.21-.8-.37-1.56-.47-2.4l19.23-2.43-18.76,4.83Z"/>
    </g>
    <path class="cls-17" d="m1611.33,2032.84c-3.57,0-7.06-1.53-9.48-4.35-28.98-33.71-55.29-69.63-78.2-106.77-1.99-3.23-2.41-7.19-1.13-10.77,1.28-3.58,4.11-6.38,7.7-7.61,157.7-54.24,249.39-176.37,290.01-244.35,3.38-5.66,10.57-7.72,16.45-4.71,23.13,11.89,57.81,31.35,91.63,56.5,4.87,3.63,6.44,10.23,3.7,15.65-42.53,84.44-140.14,236.42-316.11,305.54-1.49.58-3.03.86-4.57.86Zm-58.19-111.21c18.64,28.93,39.38,57.02,61.87,83.74,156.81-64.96,247.33-199.47,289.83-280.75-24.99-17.81-49.91-32.33-69.31-42.71-43.7,70.05-133.59,183.38-282.38,239.72Z"/>
    <path class="cls-17" d="m1511.82,1401c-7.09,0-13.69-4.49-16.04-11.59-5.96-18.02-15.03-32.56-26.94-43.22-23.02-20.6-32.75-40.52-39.86-55.07-8.19-16.76-11.25-23.02-27.07-26.25-10.56-2.14-15.35,2.12-18.04,5.52-9.64,12.2-11.57,41.43,3.38,73.67,3.93,8.47.25,18.51-8.22,22.44-8.46,3.93-18.51.24-22.44-8.22-18.86-40.66-18.55-84.4.76-108.84,12.17-15.4,30.88-21.85,51.3-17.68,32.13,6.55,41.56,25.85,50.68,44.52,6.53,13.38,13.94,28.54,32.03,44.72,16.36,14.64,28.64,34.08,36.49,57.78,2.93,8.86-1.87,18.42-10.73,21.35-1.76.58-3.55.86-5.31.86Z"/>
    <path class="cls-17" d="m1517.59,1447.63c-1.81-10.51-4.76-20.96-8.43-30.75-3.63-9.83-8.19-19.1-13.37-27.47-5.05-8.15-2.53-18.86,5.63-23.9,8.15-5.05,18.86-2.53,23.9,5.63,1.36,2.2,2.17,4.58,2.47,6.99l.08.67c1.45,12.13,1.67,23.98.78,35.52-.87,11.56-2.62,22.72-5.56,33.74-.4,1.49-1.93,2.38-3.42,1.98-1.09-.29-1.86-1.18-2.04-2.23l-.03-.18Z"/>
    <path class="cls-17" d="m1393.29,1559.47l10.3,1.17c3.62.28,7.24.65,10.85.79,7.22.31,14.37.39,21.28-.23,13.83-1.05,26.69-4.28,36.91-10.71,5.19-3.16,9.55-7.33,13.55-12.18,4.03-4.82,7.43-10.6,10.3-17.03,6.03-12.83,9.54-28.05,13.25-44.21v-.04c.55-2.34,2.88-3.8,5.22-3.27,1.49.34,2.63,1.43,3.12,2.76,5.84,16.22,7.72,33.98,4.73,52.44-2.66,18.39-13.43,37.42-29.69,50.02-16.26,12.8-36.08,18.22-54.48,19.69-9.3.66-18.46.47-27.42-.68-4.49-.52-8.93-1.26-13.34-2.22-4.53-.98-8.5-2.02-13.58-3.74-8.83-3-13.55-12.59-10.55-21.42,2.6-7.66,10.16-12.23,17.88-11.35l1.67.19Z"/>
    <path class="cls-17" d="m1404.74,1578.02c.19.08.26,1.3.37,2.03l.33,2.57c.19,1.73.51,3.45.77,5.12.63,3.33,1.35,6.47,2.29,9.25,2.04,5.51,4.24,9.67,8.7,13.2,4.4,3.56,11.37,6.05,19.25,7.43,7.97,1.38,16.76,1.62,25.9,1.76h.22c4.11.07,7.38,3.44,7.32,7.55-.04,2.9-1.76,5.39-4.2,6.58-8.94,4.31-18.6,7.45-29.23,8.95-10.57,1.2-22.59.89-34.53-4.64-5.86-2.77-11.55-6.73-16.11-11.73-4.56-4.99-8.08-10.77-10.36-16.7-2.36-5.91-3.56-11.93-3.99-17.82-.24-2.94-.23-5.87-.03-8.78.08-1.46.27-2.91.47-4.39.23-1.59.45-2.69.94-4.91.83-3.74,4.53-6.1,8.26-5.27.4.09.79.21,1.15.36l22.47,9.44Z"/>
    <path class="cls-17" d="m1386.38,1592.66c-84.08,0-138.77-14.59-162.57-43.38-6.55-7.92-9.7-15.57-11.13-21.89-26.06-12.21-34.24-34.9-35.13-52.11-11.77-7.94-16.77-17.6-18.86-25.01-4.22-14.96.73-29.03,4.74-37.09-1.95-14.06,1.51-28.43,9.84-40.22,9.68-13.7,24.82-22.45,41.53-24.01l155.56-14.63c9.27-.84,17.53,5.95,18.4,15.24.87,9.29-5.95,17.53-15.24,18.4l-155.58,14.63c-6.88.64-13.11,4.24-17.09,9.87-3.88,5.49-5.12,12.04-3.5,18.45.07.27.13.53.18.81,1.21,4.76.34,10-2.47,14.03-1.84,2.74-5.33,10.33-3.85,15.42,1.21,4.12,6.33,7.1,10.41,8.89,7.18,3.13,11.26,10.77,9.88,18.48-.8,5.26-1.69,23.64,21.98,30.68,4.36,1.29,8.26,3.32,10.38,7.34,2.04,3.87,2.73,7.49,1.53,11.62.07,1.36.71,5.67,5.78,11.07,10.53,11.2,42.35,29.8,137.55,29.61h.06c9.31,0,16.86,7.53,16.89,16.84.03,9.33-7.51,16.92-16.84,16.95-.82,0-1.65,0-2.47,0Zm-141.12-74.01h0Zm-47.56-106.04s0,.01,0,.02c0,0,0-.01,0-.02Zm0-.02s0,0,0,.01c0,0,0,0,0-.01Zm0-.02s0,0,0,0c0,0,0,0,0,0Z"/>
    <path class="cls-17" d="m1435.15,1368.5c-22.26-2.88-44.17-2.7-65.65-.63-9.56.92-18.06-6.09-18.98-15.65-.92-9.56,6.09-18.06,15.65-18.98,2.75-.26,5.41.13,7.82,1.04l.4.16c21.92,8.41,42.95,18.8,61.75,31.43.66.45.84,1.34.39,2.01-.32.47-.86.69-1.39.63Z"/>
    <path class="cls-17" d="m1179.87,1399.22c10.81.22,21.28.63,31.89,1.12,10.57.5,21.14,1.13,31.69,1.87,21.1,1.51,42.18,3.52,63.1,6.61,2.43.36,4.11,2.62,3.75,5.05-.31,2.13-2.09,3.69-4.17,3.79h-.04c-20.77,1.08-41.45,3.23-62.07,5.86-10.31,1.33-20.6,2.78-30.87,4.34-10.23,1.56-20.59,3.23-30.59,5.04h-.03c-9.23,1.67-18.06-4.46-19.73-13.68-1.67-9.23,4.46-18.06,13.69-19.73,1.1-.2,2.28-.28,3.36-.27Z"/>
    <path class="cls-17" d="m1193.49,1448.7l120.98,3.11c2.05.05,3.66,1.75,3.61,3.8-.05,1.77-1.33,3.22-2.99,3.54l-118.77,23.22c-9.21,1.8-18.14-4.21-19.94-13.42-1.8-9.21,4.21-18.14,13.42-19.94,1.21-.24,2.51-.33,3.7-.31Z"/>
    <path class="cls-17" d="m1225.96,1498.75l97.8-1.92c1.64-.03,3,1.27,3.04,2.92.03,1.35-.85,2.51-2.08,2.9l-93.28,29.45c-8.99,2.84-18.58-2.15-21.42-11.14-2.84-8.99,2.15-18.58,11.14-21.42,1.57-.5,3.24-.75,4.8-.79Z"/>
    <path class="cls-17" d="m1389.26,1491.04c2.39-8.88,7.41-15.97,13.62-22.17,6.18-6.21,13.76-10.95,21.78-14.44,8.09-3.3,16.65-5.34,25.19-5.73,4.26-.39,8.5.15,12.7.39,4.16.67,8.27,1.49,12.27,2.8,4.49,1.47,6.94,6.3,5.47,10.79-.91,2.79-3.12,4.79-5.74,5.56l-1.05.3c-3.69,1.05-7.27,1.43-10.8,1.99l-5.2.94c-1.73.25-3.46.43-5.13.82-6.78,1.19-13.3,2.56-19.77,4.26-6.4,1.87-12.64,4.19-18.87,7.1-6.13,2.92-12.38,6.72-18.19,10.91l-.6.43c-1.65,1.19-3.95.81-5.14-.84-.67-.93-.84-2.08-.57-3.11Z"/>
    <path class="cls-17" d="m1500.58,1570.88l-15.05-30.25c37.94-18.88,42.69-71.67,42.14-101.45-.09-4.54-3.12-8.54-7.54-9.95l-4.71-1.5,10.27-32.19,4.71,1.5c18.22,5.81,30.7,22.5,31.06,41.51.7,37.76-6.28,105.17-60.87,132.33Z"/>
    <path class="cls-17" d="m1511.47,1357.24c4.27.3,7.32.67,10.85,1.32,3.4.62,6.78,1.33,10.1,2.29,6.69,1.77,13.21,4.26,19.62,7.29,12.7,6.12,25.09,14.87,34.57,27.1,9.55,12.05,15.66,27.58,16.2,42.65.22,15.08-4.39,29.18-13.45,39.91-2.23,2.64-6.18,2.98-8.82.75-1.12-.94-1.82-2.19-2.09-3.52l-.05-.23c-2.65-12.81-4.43-23.44-7.18-32.66-1.55-4.54-3-8.81-5.09-12.74-2.07-3.93-4.75-7.48-7.75-10.86-6.07-6.68-13.95-12.53-23.03-17.37-4.5-2.48-9.29-4.67-14.2-6.77l-7.45-2.97c-2.38-.88-5.29-1.9-7.04-2.61l-2.27-.92c-8.15-3.3-12.09-12.58-8.79-20.73,2.65-6.55,9.19-10.37,15.87-9.92Z"/>
    <path class="cls-17" d="m1469.31,1686.86c-31.9,0-57.09-17.48-71.52-49.96-3.79-8.53.05-18.51,8.58-22.3,8.54-3.79,18.51.05,22.3,8.58,9.94,22.36,24.69,31.76,46.45,29.59,54.99-5.48,136.62-86.18,150.61-148.87,4.15-18.61,2.38-33.23-5.26-43.48-12.64-16.93-38.21-18.89-38.46-18.91-9.27-.64-16.33-8.66-15.74-17.93.59-9.28,8.47-16.33,17.8-15.79,1.66.1,41.07,2.72,63.26,32.13,13.98,18.53,17.81,42.52,11.38,71.34-15.81,70.85-103.84,167.52-180.24,175.14-3.11.31-6.16.46-9.16.46Z"/>
    <path class="cls-17" d="m1438.28,2420.51c-.14,0-.27,0-.41,0-9.33-.22-16.71-7.96-16.49-17.29,4.58-191.75,132.67-223.68,268.28-257.48,129.64-32.31,276.25-68.86,369.11-242.92l-57.61-66.14c-1.12-1.28-2.04-2.73-2.72-4.28-41.43-94.06-198.46-163.2-200.04-163.88-3.04-1.32-5.63-3.51-7.44-6.29-60.41-92.93-155.33-164.25-156.28-164.96-7.48-5.58-9.02-16.16-3.45-23.64,5.58-7.48,16.16-9.02,23.64-3.45,4.03,3,98,73.62,161.66,169.44,27.98,12.8,167.54,80.5,211.74,176.76l63.53,72.94c4.52,5.19,5.44,12.59,2.33,18.73-99.49,196.51-264.07,237.54-396.31,270.5-138.58,34.54-238.71,59.5-242.68,225.5-.22,9.19-7.74,16.49-16.88,16.49Z"/>
    <path class="cls-17" d="m1455.26,2275.39c.22-1.01.57-2.52.78-3.08l.72-2.17c.48-1.5,1-2.87,1.55-4.05,1.11-2.45,2.13-5.12,3.43-7.27l3.75-6.76c1.35-2.12,2.76-4.15,4.15-6.22,2.7-4.25,5.77-8,8.84-11.75l4.59-5.66,4.92-5.19c12.93-14.17,27.49-25.93,42.22-37.28,29.8-22.22,61.86-40.07,94.3-56.76,33-15.37,65.82-31.08,99.76-43.84,8.54-3.01,17.14-5.86,25.8-8.54,8.68-2.61,17.31-5.35,26.22-7.14,17.72-3.93,35.59-7.29,53.92-8.75,2.82-.22,5.28,1.88,5.51,4.7.16,1.99-.85,3.8-2.44,4.78l-.16.09c-15.76,9.56-31.98,17.2-48.35,24.29-4.06,1.86-8.24,3.37-12.28,5.25-4.07,1.78-8.1,3.69-12.21,5.35-8.17,3.47-16.4,6.75-24.68,9.88l-12.47,4.58-12.33,4.86c-8.23,3.21-16.52,6.31-24.71,9.62-16.47,6.45-32.17,14.45-48.22,21.74-31.22,16.07-61.95,33.22-89.64,53.89-13.61,10.49-27.04,21.35-38.26,33.71l-4.33,4.54-3.86,4.79c-2.61,3.18-5.23,6.34-7.31,9.69l-3.33,4.94-2.76,4.99c-1.05,1.68-1.54,3.25-2.31,4.86-.41.84-.68,1.57-.87,2.21l-.35,1.01c-.18.49-.01.08-.09.16l-7.25,6.99c-5.3,5.1-13.73,4.94-18.83-.35-3.19-3.31-4.3-7.93-3.41-12.11Z"/>
    <path class="cls-17" d="m1812.78,1977.62l-22.29,29.09c-7.11,9.57-14.14,18.94-20.35,28.71-6.35,9.69-11.6,19.83-16.31,30.01-4.82,10.19-7.98,20.73-11.18,31.28l-.25.84c-2,6.6-8.97,10.33-15.57,8.33-6.13-1.86-9.79-8.01-8.67-14.17,2.36-13.08,6.58-25.81,12.61-37.42,6.14-11.52,13.26-22.41,21.67-32.05,8.37-9.65,17.34-18.65,27.45-26.21,10.09-7.52,20.88-14.21,32.9-18.41Z"/>
    <path class="cls-17" d="m1701.63,2128.07c-3.95,0-7.91-1.37-11.11-4.17-245.8-214.82-268.25-451.27-269.09-461.23-.78-9.3,6.13-17.47,15.42-18.25,9.25-.77,17.45,6.11,18.24,15.4.21,2.42,22.77,233.35,257.65,438.63,7.03,6.14,7.74,16.81,1.6,23.84-3.34,3.82-8.02,5.78-12.73,5.78Z"/>
    <path class="cls-17" d="m1869.4,2122.61c-4.74,0-9.46-1.99-12.8-5.86-6.09-7.06-5.31-17.72,1.75-23.81.73-.63,67.9-59.73,118.34-173.89l-19.08-47.34c-2.55-6.34-1.04-13.59,3.85-18.38l40.63-39.82c6.66-6.53,17.36-6.43,23.89.24,6.53,6.66,6.43,17.36-.24,23.89l-32.56,31.92,17.5,43.43c1.68,4.17,1.63,8.84-.14,12.97-54.02,126.04-127.02,189.9-130.1,192.56-3.19,2.75-7.12,4.1-11.03,4.1Z"/>
    <path class="cls-17" d="m2632.98,2613.59c-1.46,0-2.93-.19-4.38-.58-119.87-32.2-206.5-96.37-257.5-190.73-103.23-191.02-24.67-435.98-21.27-446.32,1.26-3.83,3.84-7.08,7.29-9.17,5.2-3.15,128.49-75.79,303.79,3.66,28.57-2.36,177.76-12.48,268.05,24.09,5.71,2.31,9.71,7.55,10.43,13.66.85,7.18,20.57,177.09-8.94,284.05-1.12,4.07-3.73,7.58-7.31,9.82-5.07,3.18-101.19,61.85-283.52,68.99,31.27,32.65,48.66,68.34,51.81,106.49,6.09,73.76-43.95,128.37-46.08,130.66-3.24,3.48-7.74,5.38-12.36,5.38Zm-252.94-620.83c-11.34,38.97-66.77,251.64,20.87,413.6,44.93,83.04,120.9,140.55,225.93,171.07,11.52-15.52,34.69-52.8,30.89-97.42-3.3-38.69-26.02-75.11-67.56-108.32-38.46-.51-80.18-3.33-125.12-9.26-9.25-1.22-15.76-9.71-14.54-18.96,1.22-9.25,9.72-15.73,18.96-14.54,252.25,33.27,400.37-36.46,430.17-52.38,21.48-86.47,10.91-217.1,7.27-254.22-91.98-32.12-245.78-18-247.38-17.84-3,.28-6-.23-8.72-1.5-142.55-66.25-246.17-22.71-270.76-10.23Z"/>
    <path class="cls-17" d="m2537.35,2511.67c-5.45-5.36-9.52-10.82-13.51-16.72-3.99-5.83-7.39-11.97-10.65-18.21-6.37-12.54-11.3-25.76-15.33-39.22l-2.86-10.16-2.33-10.28c-1.71-6.86-2.57-13.8-3.83-20.74-1.06-6.95-1.69-13.93-2.55-20.94l-1.36-21.04c-.54-8.3,5.76-15.45,14.05-15.99,8.3-.54,15.45,5.76,15.99,14.05.04.63.04,1.26,0,1.88l-.05.8-1.3,19.55c-.04,6.5-.33,13.05-.19,19.57.33,6.49.25,13.08,1.01,19.54l.89,9.76,1.41,9.68c2.08,12.87,5.01,25.66,9.35,37.97,2.24,6.12,4.63,12.22,7.58,18.02,2.83,5.76,6.26,11.66,9.9,16.34l.28.36c1.48,1.9,1.13,4.65-.77,6.12-1.75,1.36-4.2,1.18-5.74-.34Z"/>
    <path class="cls-17" d="m2572.04,2549.89c-2.14,0-4.23-.91-5.69-2.61l-18.4-21.42c-1.39-1.62-2.03-3.75-1.75-5.86.28-2.11,1.44-4.01,3.2-5.21l77.23-52.8c1.96-1.34,4.43-1.67,6.67-.9,2.24.77,3.98,2.55,4.71,4.81l8.45,26.4c.82,2.57.2,5.39-1.63,7.37-1.14,1.23-28.34,30.43-69.64,49.54-1.01.47-2.09.69-3.15.69Zm-7.26-27.46l9.19,10.7c28.4-14.17,49.32-33.25,56.81-40.6l-4-12.5-62.01,42.39Z"/>
    <g class="cls-20">
      <path class="cls-17" d="m2630.87,2468.17l-77.23,52.8,18.4,21.42c40.43-18.71,67.28-47.82,67.28-47.82l-8.45-26.4Z"/>
    </g>
    <path class="cls-17" d="m2343.17,2114.63l-3.66-33.59,74.27-8.1c3.21-31.54,13.73-103.49,44.77-134.39l23.84,23.94c-24.59,24.5-34.39,99.84-36.09,126.8l-.9,14.19-102.24,11.15Z"/>
    <path class="cls-17" d="m2979.04,2326.2c-7.43,0-14.34-1.82-20.12-4.56-10.31,3.07-27.64,6.18-42.22-1.25-7.42-3.78-17.01-11.75-20.53-28.22l33.04-7.06c.9,4.19,2.3,4.9,2.83,5.17,4.92,2.51,16.71-.37,21.93-2.68l9.58-4.25,8.06,6.69c4.13,3.1,11.26,5,20.15-4.79,29-31.92,52.75-200.56,23.54-269.58-4.87,1.54-13.34,6.44-19.48,11.49l-13.95,11.46-10.54-14.65c-2.91-3.97-13.59-15.62-23.56-16.21-5.72-.28-8.05,4.37-8.95,7.2l-32.5-9.23c3.2-11.66,16.37-33.32,43.43-31.7,15.92.93,29.02,9.79,37.7,17.72,10.39-6.32,24.6-12.47,37.42-9.61,8.73,1.96,15.71,7.67,19.65,16.07,35.56,75.93,12.54,265.44-27.74,309.77-12.2,13.43-25.66,18.23-37.74,18.23Z"/>
    <path class="cls-17" d="m3045.55,2150.23l-1.88-33.74c2.01-.13,49.47-3.92,70.4-57.92,2.69-6.94,8.95-11.74,16.35-12.52,7.35-.78,14.44,2.59,18.49,8.79,4.2,6.43,25.39,37.13,43.59,31.44.24-19.26-1.63-86.07-38.02-100.62-38.29-15.31-94.25,21.33-112.58,36.74l-21.79-25.82c3.31-2.8,81.92-68.3,146.92-42.29,56.12,22.45,60.09,102.31,59.2,135.61-.3,11.12-6.74,21.06-16.82,25.94-23.94,11.59-50.72,2.8-74.29-23.48-32.32,54.21-86.99,57.74-89.57,57.88Z"/>
    <path class="cls-17" d="m3209.69,2095.58l-.57-30c39.27-.74,59.54-12.08,64.97-21.57,1.6-2.8,3.25-7.39-.91-14.8-7.38-13.14-48.66-13.84-75.62-9.29l-4.99-29.59c14.22-2.39,86.16-12.48,106.76,24.19,8.37,14.9,8.65,30.67.79,44.4-12.85,22.45-45.82,35.81-90.43,36.66Z"/>
    <path class="cls-17" d="m3219.4,2171.88c-24.56,0-51.15-7.41-69.85-21.79-25.26-19.41-30.89-47.3-15.45-76.51l26.52,14.01c-8.5,16.09-6.21,28.39,7.21,38.71,24.03,18.47,69.46,20.06,83.3,7.24,23.33-21.58,5.73-57.7,4.96-59.22l26.77-13.54c1.19,2.34,28.68,57.75-11.36,94.79-11.85,10.96-31.25,16.31-52.1,16.31Z"/>
    <path class="cls-17" d="m3189.11,2230.87c-30.42,0-62.95-19.84-77.56-44.72-13.49-22.96-14.63-56.48,22.6-81.69l16.82,24.84c-18.31,12.4-22.74,26.02-13.56,41.65,13.19,22.45,46.73,36.32,65.25,26.98,33.76-17.03,30.33-39.56,29.83-42.08l29.23-6.77c.46,1.92,10.68,47.27-45.54,75.63-8.42,4.25-17.64,6.15-27.06,6.15Z"/>
    <path class="cls-17" d="m3173.16,2276.35c-29.86,0-58.37-26.06-67.9-54.47-7.68-22.88-.23-42.46,18.96-49.87l10.81,27.98c-3.22,1.24-3.66,5.4-1.33,12.35,5.68,16.94,27.05,38.35,44.96,33.24,34.54-9.88,31.88-38.7,31.46-41.95l29.69-4.27c2.95,19.88-4.31,61.15-52.91,75.06-4.57,1.31-9.18,1.92-13.75,1.92Z"/>
    <path class="cls-17" d="m2838.14,1344.86c-.83,0-1.67-.06-2.51-.19-3.74-.56-91.81-14.91-118.44-117.87-2.34-9.03,3.09-18.25,12.13-20.59,9.03-2.32,18.25,3.09,20.59,12.13,10.92,42.24,34.49,65.59,54.89,78.32-10.35-36.71-7.01-73.57-6.81-75.71.76-7.88,6.88-14.17,14.74-15.14,7.86-1,15.33,3.63,17.99,11.08,13.36,37.41,62.69,59.14,63.18,59.36,8.55,3.7,12.5,13.64,8.82,22.19-3.69,8.55-13.6,12.51-22.16,8.85-1.54-.66-23.96-10.45-45.63-29.24,2.92,14.08,7.98,28.43,16.59,39.6,4.21,5.46,4.68,12.93,1.18,18.88-3.07,5.21-8.64,8.33-14.56,8.33Z"/>
    <path class="cls-17" d="m2893.48,1154.83c-1.43,11.01-2.21,22.59-2.49,33.9-.28,11.37,0,22.72.78,33.96.72,11.25,2.13,22.38,4.07,33.29,1.79,10.96,4.72,21.55,7.8,31.91l.15.51c2.67,8.98-2.44,18.42-11.41,21.09-8.98,2.67-18.42-2.44-21.09-11.41-.23-.78-.42-1.66-.54-2.44-1.76-12.34-3.16-24.62-3.33-36.83-.32-12.2-.01-24.31,1.02-36.29.97-11.99,2.46-23.86,4.54-35.6,2.09-11.79,4.59-23.24,7.95-34.97.98-3.42,4.55-5.4,7.97-4.42,3.1.89,5.02,3.91,4.61,7.02l-.04.28Z"/>
    <path class="cls-17" d="m2756.38,1153.07c.66,6.52.65,12.44.15,18.64-.19,3.08-.7,6.12-1.06,9.21-.6,3.03-1.15,6.1-1.86,9.14-2.93,12.14-8.03,24.08-15.43,34.74-7.4,10.55-16.57,20.46-27.49,27.7-2.64,1.98-5.34,3.9-8.23,5.37l-8.59,4.77c-5.83,2.91-11.89,5.09-17.93,7.64-8.14,3.3-17.41-.63-20.71-8.77-1.52-3.75-1.5-7.75-.25-11.28l.78-2.2c1.34-3.75,2.82-8.76,3.94-13.26,1.16-4.63,2.1-9.31,2.84-13.95,1.48-9.29,1.93-18.52,1.09-26.99l-.03-.3c-.92-9.29,5.87-17.56,15.15-18.47,9.29-.92,17.55,5.85,18.47,15.14,1.24,12.46.49,24.39-1.3,35.84-.91,5.73-2.05,11.37-3.44,16.93-1.45,5.68-2.89,10.79-5.08,16.93l-20.17-22.26h0c4.89-1.22,10.05-2.07,14.92-3.53,4.64-1.83,9.81-2.99,14.13-5.51,9.36-4.04,17.38-10.3,24.65-17.51,7.22-7.29,13.08-16.2,17.32-26.07,4.27-9.74,7.04-20.86,7.85-31.31l.04-.51c.22-2.83,2.69-4.94,5.52-4.72,2.52.2,4.47,2.17,4.71,4.6Z"/>
    <path class="cls-17" d="m2486.12,1084.78c-4.71,10.2-9.54,19.41-12.82,29.23-1.92,4.72-3.15,9.72-4.76,14.43-1.07,4.97-2.56,9.67-3.39,14.6-1.98,9.72-3.31,19.49-4.23,29.31-.41,4.91-.81,9.83-1.07,14.73-.14,2.45-.32,4.9-.4,7.31-.18,2.31-.18,5.07-.45,6.67l-1.4,8.29c-1.38,8.2-9.15,13.72-17.34,12.34-3.82-.64-7.09-2.7-9.32-5.52h0c-16.24-14.82-29.06-33.13-37.89-52.61-8.95-19.49-14.42-39.96-17.67-60.36-6.44-40.92-4.72-81.6-.25-121.22,2.27-19.82,5.4-39.47,8.74-58.77,1.62-9.57,3.42-19.35,4.56-28.08.28-2.12.45-4.24.47-5.34.03-.41-.02-.19.01-.29.09.58-.11.4.73,2.91.02.18,1.66,3.8,3.75,5.44,1.33,1.25,2.16,1.84,3.49,2.49.62.29,1.25.52,1.88.68l.63.21c.34.1.69.17,1.04.2l.52.02c.06,0,0,.02,0,.02l-.05.02-.06-.02-.44.06c-.58.07-1.26.14-2.22.35-.83.14-1.78.34-2.79.6-.96.21-1.97.47-3.03.77-16.97,4.75-35.22,12.07-52.89,19.24-17.76,7.32-35.59,15.06-53.04,22.99-8.51,3.87-18.55.1-22.42-8.41-.86-1.9-1.34-3.87-1.48-5.83v-.25c-.05-.63-.25-2.32-.42-3.57-.24-1.37-.42-2.75-.74-4.11-.54-2.74-1.27-5.44-2.15-7.98-1.72-5.11-4.05-9.67-6.76-13.13-2.7-3.54-5.68-5.77-9.2-7.02l-1.27-.59-1.48-.26c-1-.14-1.88-.54-2.97-.61-2.02.04-5.06-.34-5.59-.04-2.23.19-6.17,2.29-9.93,5.55-3.83,3.21-7.54,7.66-10.95,12.41-6.91,9.55-12.43,21.02-17.02,32.74-8.89,23.73-13.79,49.49-13.88,74.93-.12,25.42,4.53,50.69,15.09,72.87h0c4.49,7.58,1.99,17.36-5.58,21.85-2.28,1.35-4.76,2.07-7.23,2.21l-2.64.13c-3.35.17-5.5.13-8.15.09-2.53-.09-5.01-.26-7.49-.49-4.96-.44-9.83-1.28-14.71-2.24-9.69-2.12-19.27-5.15-28.46-9.42-18.36-8.38-35.35-21.7-47.14-38.77-11.91-16.97-18.58-36.8-20.31-56.05-1.93-19.3.16-38.16,5.38-55.75.91-3.05,4.11-4.79,7.17-3.88,2.29.68,3.83,2.65,4.09,4.88v.05c1.96,17.43,4.73,34.15,9.73,49.4,2.47,7.63,5.5,14.84,9.19,21.47,3.56,6.71,7.86,12.78,12.76,18.18,9.68,10.88,21.58,19.44,35.22,25.69,6.81,3.1,13.96,5.78,21.34,7.91,3.67,1.15,7.42,2.09,11.17,2.94,1.87.45,3.76.85,5.6,1.2,1.73.41,3.97.72,5.02,1.01l-15.45,24.18h0c-13.17-27.71-18.52-58.04-18.39-87.63.15-29.69,5.67-58.93,16.09-86.79,5.45-13.88,11.89-27.52,21.1-40.36,4.62-6.41,9.74-12.69,16.44-18.41,6.67-5.57,14.83-11.24,26.32-13.22,2.89-.43,5.93-.75,8.03-.54l6.99.33c2.34.2,4.78.87,7.16,1.35l3.57.84,3.51,1.38c4.76,1.68,9.02,4.42,13.14,7.28,1.87,1.59,3.71,3.23,5.51,4.89,1.76,1.68,3.16,3.55,4.72,5.36,5.79,7.4,9.59,15.39,12.28,23.31,1.36,3.97,2.42,7.95,3.22,11.96.45,1.99.75,4.03,1.08,6.06.28,2.16.53,3.89.71,6.7l-23.91-14.5c18.05-8.2,35.98-15.99,54.28-23.53,18.45-7.44,36.42-14.82,57-20.63,1.29-.36,2.64-.7,4.06-1.02,1.36-.33,2.79-.65,4.36-.93,1.43-.3,3.17-.55,5.01-.74l1.38-.14,1.77-.06h1.77s.92,0,.92,0l1.43.15c.95.12,1.91.28,2.84.48.53.12.81.15,1.52.38.9.3,1.81.67,2.7,1.1,1.86.94,3.28,1.75,5.09,3.36,2.42,2.15,4.52,6.21,4.65,7.01,1.3,3.65,1.17,4.7,1.44,6.49.07,1.11.14,2.56.11,3.36-.07,3.78-.39,6.51-.72,9.23-1.39,10.61-3.17,20-4.79,29.65-3.31,19.11-6.3,37.99-8.47,56.91-4.29,37.73-5.69,75.77.05,112.02,5.57,36.08,19.51,70.37,44.92,93.3h0s-28.06,15.11-28.06,15.11c-.99-3.9-1.49-6.67-1.93-9.9-.42-3.13-.65-6.22-.83-9.31-.11-3.1-.07-6.17-.07-9.27l.69-9.22c1.21-12.26,4.48-24.32,9.15-35.74,4.63-11.42,10.83-22.26,18.63-31.7,7.45-9.66,16.89-17.62,26.91-23.96,2.64-1.67,6.14-.89,7.81,1.76,1.06,1.67,1.13,3.69.37,5.37l-.22.48Z"/>
    <path class="cls-17" d="m2466.11,1153.66l.79,2.17,1.1,2.7c.78,1.83,1.64,3.67,2.53,5.5,1.82,3.67,3.84,7.29,6.02,10.83,4.38,7.07,9.37,13.81,14.95,20.02,11.1,12.49,24.41,22.92,39.14,30.96h0s-24.95,15.67-24.95,15.67c.31-8.22,1.1-15.17,2.05-22.6.98-7.3,2.19-14.53,3.64-21.7,2.89-14.34,6.73-28.46,11.67-42.18,4.94-13.71,11.01-27.03,18.47-39.49,7.43-12.47,16.38-23.99,26.69-33.93,1.07-1.04,2.78-1,3.82.07.93.96,1,2.43.23,3.47l-.02.03c-8.17,11.11-14.62,23.22-19.52,35.88-4.92,12.65-8.38,25.79-10.76,39.08-2.38,13.3-3.68,26.76-4.08,40.22-.21,6.72-.19,13.44.05,20.12.25,6.54.71,13.6,1.5,19.37,1.2,8.78-4.94,16.88-13.72,18.08-3.19.44-6.29-.09-9-1.37l-2.23-1.04h0c-18.02-9.83-34.5-22.74-48.2-38.15-6.88-7.68-13.05-15.98-18.49-24.77-2.72-4.4-5.24-8.93-7.57-13.62-1.15-2.36-2.27-4.74-3.32-7.2l-1.54-3.78c-.53-1.4-.92-2.41-1.57-4.41-2.85-8.88,2.03-18.38,10.91-21.23,8.66-2.78,17.91,1.8,21.01,10.26l.38,1.05Z"/>
    <path class="cls-17" d="m2556.51,1127.76c3.38,2.26,5.81,4.08,8.56,6.19,2.64,2.07,5.25,4.16,7.77,6.34,5.06,4.34,9.93,8.92,14.57,13.8,9.23,9.78,17.79,20.6,24.42,33.23,3.31,6.29,6.17,12.99,8.29,20.08,2.05,7.13,3.33,14.62,3.63,22.25.64,15.34-3.45,30.69-10.15,43.73h0s-23.98-22.07-23.98-22.07c5.63-3.88,11.96-8.55,17.89-12.97,5.96-4.56,11.89-9.16,17.59-13.98,11.39-9.62,22.35-19.73,31.64-30.77,4.57-5.56,9.1-11.16,12.61-17.17,3.52-6,6.52-12.15,8.63-18.5,4.56-12.69,4.61-26.29.39-41.79l-.03-.09c-.37-1.37.44-2.79,1.81-3.16.86-.23,1.76,0,2.38.56,6.36,5.62,11.43,13.11,14.6,21.67.63,2.16,1.44,4.35,1.9,6.59.4,2.24.89,4.52,1.17,6.83l.29,6.91c0,2.31-.16,4.59-.38,6.89-1.04,9.13-3.65,17.87-7.18,25.99-3.48,8.17-7.75,15.77-12.56,22.89-9.54,14.34-20.91,26.82-33.05,38.23-6.11,5.67-12.41,11.06-18.98,16.12-6.64,5.14-13.12,9.73-20.77,14.39-7.99,4.88-18.42,2.35-23.3-5.64-3.11-5.09-3.21-11.17-.81-16.18l.13-.27h0c4.4-8.75,6.75-17.8,6.39-27.02-.31-9.21-3.16-18.63-8.01-27.7-4.75-9.1-11.47-17.73-19.02-25.73-3.8-3.99-7.86-7.82-12.09-11.45-2.1-1.83-4.28-3.57-6.46-5.27-2.1-1.63-4.6-3.45-6.3-4.59l-.36-.24c-7.75-5.19-9.83-15.68-4.64-23.44,5.19-7.75,15.67-9.84,23.43-4.65Z"/>
    <path class="cls-17" d="m2030.27,995.79c3.54,11.76,8.65,23.31,14.89,33.17,6.32,9.92,14.08,18.24,22.98,24.41,2.01,1.8,4.53,2.95,6.85,4.3,2.34,1.32,4.57,2.76,7.18,3.64l7.45,3.08c2.68.65,5.31,1.42,7.93,2.15,1.32.36,2.6.78,3.94,1.1l4.17.61c2.77.44,5.53.85,8.28,1.36,5.66.56,11.47.64,17.2,1.34l2.47.3c9.21,1.14,15.76,9.53,14.62,18.74-1.07,8.63-8.58,14.92-17.09,14.75-7.2-.18-14.39-.37-21.6-1.19l-10.85-2.15-5.4-1.15c-1.78-.55-3.55-1.24-5.32-1.86-3.53-1.29-7.08-2.54-10.55-3.91-3.38-1.74-6.71-3.62-10.02-5.46-1.63-.99-3.37-1.72-4.87-2.92l-4.54-3.51c-2.98-2.38-6.08-4.55-8.62-7.43-10.96-10.54-18.83-23.72-23.32-37.36-.98-3.47-1.99-6.89-2.82-10.33-.56-3.52-1.37-6.93-1.66-10.44-.78-7.01-.85-13.82.12-21.01.32-2.38,2.51-4.05,4.89-3.73,1.74.23,3.1,1.47,3.58,3.05l.13.45Z"/>
    <path class="cls-17" d="m1991.58,1024.27c1.05,4.09,2.57,9.11,4.27,13.45,1.83,4.45,3.69,8.79,6.07,12.88,4.5,8.26,10.06,15.66,16.08,22.55,6.33,6.71,13.1,12.86,20.36,18.67,3.47,3.05,7.51,5.58,11.06,8.65,3.86,2.75,7.8,5.46,11.48,8.67l-24.91,18.13h0c-1.16-5.81-1.95-10.92-2.69-16.43-.72-5.42-1.28-10.9-1.59-16.51-.32-5.61-.47-11.3-.09-17.33.41-6.05,1.04-12.29,3.4-19.54,2.88-8.87,12.42-13.73,21.29-10.85,8.87,2.88,13.73,12.42,10.85,21.29l-.04.14-.08.25c-.84,2.52-1.43,6.54-1.67,10.69-.28,4.19-.17,8.77.09,13.39.26,4.62.73,9.35,1.36,14.08.61,4.65,1.41,9.66,2.26,13.91h0c3.17,8.02-.77,17.09-8.79,20.26-4.12,1.62-8.51,1.38-12.24-.33l-3.88-1.79c-5.25-2.43-10.38-5.17-15.33-8.22-4.78-3.42-9.65-6.67-14.04-10.69-4.35-4.06-8.74-8.04-12.43-12.83-4.03-4.4-7.24-9.6-10.54-14.58-6.21-10.33-10.87-21.62-13.39-33.31-2.41-11.84-3.11-23.41-.11-35.81.86-3.58,4.46-5.78,8.04-4.92,2.48.6,4.29,2.51,4.89,4.81l.34,1.33Z"/>
    <path class="cls-17" d="m1773.76,1529.9c-57.89,0-104.99-47.91-104.99-106.8s47.1-106.8,104.99-106.8c19.31,0,38.19,5.38,54.6,15.56,7.93,4.92,10.37,15.33,5.45,23.26-4.92,7.93-15.33,10.36-23.26,5.45-11.06-6.86-23.78-10.49-36.79-10.49-39.26,0-71.2,32.75-71.2,73.01s31.94,73.01,71.2,73.01c4.43,0,8.87-.42,13.19-1.25,9.14-1.77,18.01,4.25,19.77,13.42,1.75,9.17-4.25,18.02-13.42,19.77-6.41,1.23-12.99,1.85-19.55,1.85Z"/>
    <path class="cls-17" d="m2954,1710.92c-5.22,0-10.37-2.41-13.67-6.96-5.49-7.54-3.83-18.11,3.72-23.6,169.1-123.08,184.83-316.27,184.97-318.21.51-7.12,5.44-13.15,12.33-15.07,6.87-1.91,14.22.71,18.33,6.54l25.02,35.5c-.29-85.47-40.28-145.92-40.75-146.62-4.22-6.25-3.79-14.57,1.07-20.34,4.86-5.77,12.95-7.63,19.84-4.55,30.92,13.88,55,33.72,71.67,50.59,1.6-122.96-88.73-190.59-92.96-193.69-5.36-3.92-7.94-10.64-6.57-17.14,1.37-6.5,6.42-11.61,12.91-13.02,31.31-6.84,50.86-20.8,62.47-32.76-77.16-14.22-140.98-84.69-213.59-164.84-145.14-160.22-309.65-341.81-651.93-171.43-5,2.48-10.89,2.34-15.76-.37-74.22-41.43-144.12-53.19-190.96-55.57,26.66,21.18,44.23,44.44,45.39,45.99,3.65,4.89,4.38,11.37,1.91,16.95-2.47,5.58-7.76,9.39-13.83,9.98-130.91,12.6-223.24,89.67-265.21,132.55,22.58,1.44,43.03,5.52,46.57,6.25,7.76,1.6,13.36,8.38,13.47,16.3.11,7.92-5.29,14.86-13,16.68-49.66,11.76-93.17,53.88-101.79,62.64-74.62,148.92-63.15,403.06-63.02,405.62.45,9.32-6.73,17.24-16.05,17.7-9.3.51-17.24-6.72-17.7-16.04-.53-10.88-12.17-268.17,67.8-424.85.71-1.38,1.6-2.66,2.66-3.8,1.44-1.56,24.27-25.93,58.07-47.03-4.45.26-8.53.78-12.03,1.62-6.89,1.67-14.12-1.15-18.05-7.07-3.93-5.92-3.74-13.66.48-19.38,4.43-6,104.93-139.68,282.5-170.51-15.72-15.66-39.06-34.92-64.32-42.04-7.58-2.14-12.68-9.23-12.29-17.1.39-7.87,6.17-14.42,13.92-15.8,5.14-.91,125.41-21.1,264.14,53.12,158.8-77.21,296.67-88.38,421.25-34.2,109.21,47.5,190.83,137.6,262.84,217.09,76.5,84.44,142.49,157.4,218.75,156.34,5.65-.08,10.96,2.67,14.16,7.33,3.2,4.66,3.86,10.6,1.76,15.84-.79,1.98-17.52,42.31-71.34,64.49,36.5,36.53,99.83,120,79.16,244.95-1.14,6.89-6.41,12.38-13.25,13.79-6.83,1.42-13.85-1.53-17.63-7.41-.18-.28-12.99-19.74-36.45-39.97,14.05,38.71,26.22,94.9,15.44,160.29-1.12,6.77-6.21,12.19-12.9,13.72-6.7,1.53-13.63-1.13-17.58-6.73l-27.83-39.49c-14.34,68.13-58.63,203.24-192.19,300.46-3,2.19-6.48,3.24-9.93,3.24Z"/>
    <path class="cls-17" d="m2914.17,1870.21c-22.29,0-43.56-6.36-61.54-18.4-7.75-5.19-9.83-15.69-4.63-23.44,5.19-7.75,15.69-9.83,23.44-4.63,12.39,8.3,27.17,12.68,42.73,12.68,39.71,0,72.02-29.06,72.02-64.78s-32.06-64.46-71.46-64.73c-9.33-.06-16.84-7.68-16.78-17.01.06-9.29,7.62-16.78,16.89-16.78h.12c57.91.4,105.02,44.59,105.02,98.52s-47.47,98.57-105.81,98.57Z"/>
    <path class="cls-17" d="m2393.88,985.34c-5.32,0-10.55-2.5-13.84-7.18-12.71-18.08-67.09-29.11-101.64-31.17-2.28-.14-4.51-.73-6.55-1.75-44.69-22.35-77.35-18.54-77.67-18.49-9.22,1.14-17.7-5.31-18.93-14.51-1.23-9.2,5.12-17.66,14.31-18.97,1.68-.23,41.09-5.43,94.29,20.22,22.51,1.63,98.88,9.72,123.84,45.24,5.36,7.63,3.53,18.17-4.11,23.54-2.95,2.08-6.35,3.07-9.7,3.07Z"/>
    <path class="cls-17" d="m2018.69,1258.78s85.16-165.56,220.24,22.84c5.49,7.66,5.49,17.99-.06,25.61-4.98,6.83-13.39,15.17-27.61,23.41-11.49,6.66-26.11,3.05-33.08-8.25-18.67-30.27-65.87-83.57-159.48-63.61Z"/>
    <path class="cls-17" d="m2593.5,1356.3c-6.78,1.59-13.43-3.06-13.87-10.01-.81-12.71-.47-31.85,6.7-45.68,11.67-22.53,119.87-49.08,180.21,59.13l-6.42,31.37c-1.7,8.3-11.66,11.77-18.09,6.26-24.49-20.96-79.08-57.41-148.52-41.08Z"/>
    <path class="cls-17" d="m2115.43,1352.56c12.96,3.61,24.04,10.91,33.53,20.54,9.4,9.62,16.79,21.82,20.92,35.16,1.93,6.67,3.5,13.54,3.9,20.45.15,1.73.35,3.46.44,5.19l-.1,5.15-.16,5.15-.05,1.29-.02.64v.32s-.13,1.01-.13,1.01l-.24,1.36c-.75,3.7-3.02,7.68-6.18,10.28-3.15,2.64-6.87,4.06-10.73,4.34-3.83.28-8.08-.69-11.65-3.12-1.77-1.2-3.3-2.68-4.49-4.29-1.12-1.42-2.23-3.83-1.98-3.31l-.82-1.67c-.53-1.12-1.08-2.23-1.72-3.32-1.17-2.23-2.49-4.37-3.87-6.49-1.3-2.17-2.91-4.11-4.3-6.22-1.51-2-3.16-3.88-4.72-5.85-13.16-15.07-30.88-24.94-51.74-27.93-20.87-3.58-43.87.12-67.08,5.26l-.14.03c-1.6.36-3.19-.66-3.55-2.26-.28-1.25.28-2.49,1.3-3.15,5.12-3.28,10.4-6.45,15.79-9.5,5.46-2.91,11.3-5.13,17.1-7.59,5.94-2.08,12.12-3.79,18.37-5.31,3.2-.51,6.42-.96,9.67-1.39l4.89-.65,4.98-.08c3.33.01,6.68-.02,10.04.08,3.35.41,6.72.85,10.1,1.37,3.41.34,6.67,1.47,10.01,2.35,3.35.87,6.66,1.89,9.79,3.38,12.89,5.15,24.66,13.24,34.26,23.06,4.7,5,9.23,10.16,13.01,15.84,1.92,2.82,3.77,5.68,5.43,8.67.88,1.46,1.69,2.98,2.47,4.53l1.19,2.3c.42.85-.52-1.23-1.43-2.35-.97-1.31-2.22-2.53-3.69-3.52-2.96-2.01-6.44-2.8-9.54-2.57-3.12.22-6.12,1.37-8.7,3.52-2.59,2.12-4.47,5.43-5.07,8.4l-.19,1.09c-.05.29-.1.96-.08.73v-.23s.03-.47.03-.47l.04-.94.16-3.74c.06-1.25.11-2.5.23-3.75.01-1.24-.08-2.46-.11-3.69-.03-4.95-.54-9.82-1.32-14.68-3.06-19.31-12.94-38.5-27.79-56.28l-.38-.45c-1.47-1.76-1.24-4.39.53-5.86,1.08-.9,2.52-1.16,3.78-.81Z"/>
    <path class="cls-17" d="m2251.64,1832.29c-13.9,0-27.82-2.78-41.69-8.35-30.49-12.24-51.42-33.35-62.2-62.75-29.96-81.68,31.61-199.8,34.25-204.79,2.63-4.98,7.57-8.32,13.17-8.91,5.61-.61,11.13,1.65,14.73,5.97.68.8,71.8,83.08,203.07,80.23,5.57-.3,10.96,2.56,14.2,7.17,3.24,4.61,3.97,10.53,1.94,15.79-2.04,5.31-51.02,130.34-132.96,166.02-14.72,6.41-29.6,9.61-44.51,9.61Zm-49.56-239.14c-15.17,35.14-40.81,106.9-22.6,156.45,7.45,20.29,21.54,34.35,43.05,42.99,20.34,8.16,40,7.87,60.13-.89,50.24-21.88,87.92-89.08,104.93-124.62-94.38-5.06-156.78-48.56-185.5-73.92Z"/>
    <path class="cls-9" d="m3182.35,2532.5c14.4,5.26,23.45-5.42,28.72-19.82,5.28-14.41,4.78-27.1-9.63-32.38-3-1.1-13.85-4.89-28.96-8.29l3.94-23.54c1.26-7.57-3.85-14.73-11.41-16-7.57-1.24-14.73,3.85-16,11.42l-3.93,23.49c-5.96-.66-12.16-1.1-18.49-1.25l4.17-24.94c1.26-7.57-3.85-14.73-11.41-16-7.57-1.24-14.73,3.85-16,11.41l-5.22,31.23c-14.74,2.26-29.27,6.87-42.23,15.09-45.97,29.16-50.77,58.2-46.7,77.44,5.19,24.56,26.81,42.73,64.38,54.29l-8.23,49.24c-6.54-2.41-13.42-5.25-20.72-8.65-14.15-6.58-22.83,1.56-29.1,15.93-6.16,14.12-7,28.64,6.99,35.09,11.92,5.49,23.08,9.87,33.52,13.3l-6.24,37.33c-1.26,7.57,3.85,14.73,11.41,16,.78.13,1.55.19,2.31.19,6.67,0,12.55-4.82,13.69-11.61l5.82-34.79c6.41,1.26,12.5,2.14,18.25,2.67l-5.82,34.82c-1.26,7.57,3.85,14.73,11.41,16,.78.13,1.55.19,2.31.19,6.67,0,12.56-4.82,13.69-11.61l6.62-39.61c24.44-2.82,40.62-12.36,50.37-20.69,22.18-18.95,30.92-48.27,22.82-76.52-6.78-23.64-24.23-42.69-47.94-53.78l8.55-51.11c8.05,1.89,14.78,3.92,19.06,5.46Zm-97.13-2.35c.15-.1.3-.19.45-.29.72-.46,1.53-.81,2.29-1.22l-4.89,29.24c-8.13-7.2-8.08-21.2,2.15-27.73Zm6.99,141.6l8.44-50.47c4.83.94,9.78,1.82,14.98,2.6,1.1.16,2.12.42,3.17.63l-8.31,49.7c-5.51-.27-11.62-1.08-18.29-2.46Zm57.04-24.5c1.22,4.27,2.14,12.41-5.5,18.94-1.21,1.03-2.65,1.96-4.21,2.84l5.11-30.53c2.11,2.66,3.69,5.59,4.6,8.76Zm-21.27-77.6c-1.37-.25-2.72-.54-4.12-.75-5.1-.76-9.75-1.58-14.05-2.43l7.47-44.67c6.12-.22,12.4.06,18.59.66l-7.89,47.19Z"/>
    <polygon class="cls-17" points="2044.08 2883.91 2118.9 2862.38 2043.98 2884.34 2044.08 2883.91"/>
    <path class="cls-5" d="m3044.69,2133.39c-.72,14.34-1.93,28.77-3.67,42.82-11.44,40.69-25.39,70.67-35.14,71.73-28.34,3.04-29.59-21.72-29.59-21.72,0,0-3.57,19.31-26.55,15.11-22.88-4.25-21.19-55.32-21.19-55.32-21.92,116.04-240.58,153.21-333.17,163.78-25.25,2.9-41.13,3.81-41.13,3.81,0,0-170.69,9.8-169.82-229.96.29-75.59,13.9-127.19,32.39-162.43,14.67-4.01,32.25-7.53,52.33-9.36,26.5-2.37,57.39-1.83,91.76,4.49v-.05c.92.14,1.88.34,2.8.53.92.19,1.88.39,2.85.53,8.54,1.74,17.28,3.81,26.26,6.28,1.74.48,3.48.97,5.21,1.5,1.74.48,3.48,1.01,5.21,1.54,1.93.58,3.86,1.16,5.79,1.79,8.69,2.8,17.52,5.94,26.55,9.61,1.83.72,3.67,1.5,5.55,2.27,5.55,2.27,11.15,4.68,16.8,7.34v.05s169.34-16.12,264.67,22.49c0,0,5.65-20.52,26.16-19.31s36.3,23.27,36.3,23.27c0,0,34.76-28.82,44.12-8.79.63,1.35,1.26,2.7,1.79,4.15,12.31,29.59,16.03,76.32,13.71,123.86Z"/>
    <g class="cls-20">
      <path class="cls-17" d="m1493.16,1555.73s-.05.05-.05.05h-.05c-35.77,38.91-104.27,19.98-104.27,19.98-85.34.29-125.41-14.58-144.09-29.64,54.16,4.68,130.09,4.68,194.63-4.15,64.49-8.83,69.32-82.88,24.67-86.5,0,0,32.2-40.21-24.67-113.82-27.56-35.62-38.38-94.23-34.03-93.31,43.44,8.83,28.96,44.26,74.82,85.3,12.89,11.54,21.72,25.63,27.76,39.92,1.5,3.52,2.8,7.05,3.96,10.57,3.23,9.7,5.26,19.26,6.56,27.85l2.17-.34,4.68,1.54c11.25,3.57,19.07,13.9,19.31,25.73.58,32-4.73,93.5-51.41,116.82Z"/>
    </g>
    <g>
      <path class="cls-15" d="m920.69,1564.1c16.01-38.22,36.37-71.19,36.37-71.19-43.69-41.94-169.48-34.2-218.37-29.39-12.33,1.21-22.79,9.58-26.6,21.38-18.06,55.88-55.99,216.84,93.72,247.97,181.82,37.81,196.3-136.62,196.3-136.62l-81.42-32.16Z"/>
      <g class="cls-19">
        <path class="cls-9" d="m737.08,1514.89c3.81-11.79,14.26-20.16,26.6-21.38,41.39-4.08,137.89-10.24,193.04,13.42,3.29-5.72,5.33-9.03,5.33-9.03-43.69-41.94-169.48-34.2-218.37-29.39-12.33,1.21-22.79,9.58-26.6,21.38-14.25,44.07-40.77,153.47,22.07,213.02-36.32-61.42-14.5-149.59-2.07-188.02Z"/>
      </g>
      <path class="cls-17" d="m854.65,1755.13c-16.44,0-33.89-1.91-52.3-5.74-47.76-9.93-82.5-33.06-103.25-68.75-38.05-65.44-18.28-153.98-3.1-200.93,5.87-18.17,21.98-31.12,41.02-33,66.48-6.55,184.99-10.83,231.75,33.98,5.75,5.51,6.87,14.29,2.68,21.07-.17.27-14.5,23.6-28.2,53.07l65.07,25.69c6.93,2.74,11.25,9.69,10.63,17.11-.28,3.35-7.5,82.58-67.91,127.69-26.58,19.85-58.86,29.81-96.38,29.81Zm-40.82-278.54c-24.54,0-49.77,1.41-73.5,3.74-5.66.56-10.44,4.39-12.18,9.76-10.82,33.49-32.47,117.43.16,173.55,15.72,27.04,42.95,44.76,80.92,52.66,50.43,10.49,91.27,4.47,121.38-17.91,35.72-26.55,48.49-70.27,52.73-91.41l-68.87-27.19c-4.22-1.67-7.6-4.97-9.37-9.15-1.76-4.18-1.77-8.91-.01-13.09,10.29-24.55,22.19-46.79,29.8-60.24-25.75-15.1-72.01-20.73-121.07-20.73Z"/>
      <path class="cls-17" d="m913.81,1676.94c-4.74-3-9.49-6.82-12.51-11.81-3.41-4.81-5.26-10.24-6.84-15.64-2.66-10.84-2.72-21.62-1.99-32.03.76-10.45,2.57-20.56,4.75-30.53,2.21-9.96,4.89-19.74,7.88-29.39l.02-.06c2.77-8.96,12.28-13.98,21.24-11.21,8.96,2.77,13.98,12.28,11.21,21.24-.33,1.06-.8,2.15-1.31,3.1-4.45,8.19-8.63,16.5-12.37,24.92-3.71,8.42-7.08,16.99-9.48,25.62-2.39,8.61-4.01,17.37-3.68,25.67.43,8.24,3.04,15.77,9.09,21.22l.43.39c2.19,1.98,2.37,5.36.39,7.55-1.77,1.96-4.67,2.31-6.83.94Z"/>
      <path class="cls-15" d="m392.28,1366.8s57.93,113.81,223.66,126.1c0,0,28.96-168.26,204.35-251.77,0,0-49.88-106.84-138.38-147.47,0,0-204.35,62.35-289.63,273.14Z"/>
      <g class="cls-19">
        <path class="cls-9" d="m681.91,1132.28c58.49,26.85,100.1,82.61,121.6,117.35,5.45-2.91,11.02-5.76,16.78-8.5,0,0-49.88-106.84-138.38-147.47,0,0-204.35,62.35-289.63,273.14,0,0,3.16,6.17,10.02,15.72,90.21-192.42,279.61-250.24,279.61-250.24Z"/>
      </g>
      <g class="cls-20">
        <path class="cls-17" d="m788.29,1188.15c8.34,14.08,12.69,23.36,12.69,23.36-74.95,35.69-123.16,86.85-153.8,133.75-58.79,90-185.85,97.02-254.23,19.94-.22.54-.45,1.07-.67,1.61,0,0,57.93,113.81,223.66,126.1,0,0,28.96-168.26,204.35-251.77,0,0-11.06-23.68-32-52.98Z"/>
      </g>
      <path class="cls-17" d="m615.94,1509.8c-.42,0-.84-.01-1.26-.05-173.23-12.84-234.92-130.29-237.47-135.29-2.22-4.36-2.44-9.47-.6-14,87.3-215.77,291.7-280.32,300.36-282.96,3.95-1.21,8.22-.92,11.98.81,93.06,42.73,144.49,151.08,146.64,155.67,3.93,8.41.33,18.41-8.05,22.4-164.92,78.53-194.69,237.81-194.97,239.41-1.43,8.13-8.5,14-16.64,14Zm-204.85-144.25c14.14,22.43,68.85,95.01,191.68,109.14,11.42-43.4,55.17-167.32,194.52-240.92-16.09-28.51-56.83-91.67-116.47-121.87-33.21,12.08-195.17,78.79-269.74,253.65Zm-18.81,1.25h.05-.05Z"/>
      <path class="cls-15" d="m776.01,850.56c-1.54-5.96,35-150.85,96.54-182.22,0,0,14.48,168.95,260.66,173.78,0,0-26.55,100.08-162.92,134.51,0,0-160.5,4.27-194.29-126.07Z"/>
      <g class="cls-19">
        <path class="cls-9" d="m872.55,668.33c-14.13,7.2-26.92,20.43-38.26,36.54,4.18-3.35,8.47-6.27,12.92-8.53,0,0,14.48,168.95,260.66,173.78,0,0-5.79,21.8-25.82,48.54,40.83-37.64,51.16-76.55,51.16-76.55-246.18-4.83-260.66-173.78-260.66-173.78Z"/>
      </g>
      <path class="cls-17" d="m969.45,993.52c-16.04,0-174.75-3.54-209.8-138.72t0,0c-3.38-13.03,16.47-70.44,25.32-92.18,23.36-57.43,50.25-94.21,79.91-109.33,5.01-2.56,10.96-2.45,15.88.28,4.92,2.73,8.15,7.72,8.63,13.33.59,6.21,17.2,153.88,244.16,158.33,5.19.1,10.04,2.58,13.16,6.72,3.12,4.14,4.17,9.49,2.84,14.5-1.19,4.48-30.76,110.11-175.11,146.56-1.21.3-2.44.47-3.69.51-.08,0-.52,0-1.3,0Zm-176.38-144.57c29.87,107.38,157.51,110.68,175,110.8,87.58-22.7,125.45-73.36,140.32-101.8-117.65-7.9-179.49-54.7-211.01-93.96-19.54-24.34-30-48.58-35.56-66.38-38.94,40.34-65.79,133.32-68.76,151.35Zm-.24,1.74h0Zm-.47-4.37s0,.02,0,.03c0,0,0-.01,0-.02h0Z"/>
      <path class="cls-15" d="m877.81,1144.76s-9.65,95.29,97.75,146.6c0,0,124.1-114.01,320.9-81.43,0,0,4.53-146.78-47.77-177.78-52.29-31-200.73-75.65-370.89,112.61Z"/>
      <g class="cls-19">
        <path class="cls-9" d="m895.31,1176.73c170.16-188.26,318.59-143.61,370.89-112.61,4.72,2.8,8.97,6.57,12.81,11.07-6.99-19.09-16.72-34.99-30.31-43.05-52.29-31-200.73-75.65-370.89,112.61,0,0-4.57,45.21,27.68,90.12-12.78-32.14-10.18-58.14-10.18-58.14Z"/>
      </g>
      <path class="cls-17" d="m975.56,1308.25c-2.47,0-4.96-.54-7.28-1.65-116.78-55.79-107.72-159.17-107.28-163.54.36-3.58,1.86-6.96,4.27-9.63,195.04-215.79,360.79-134.34,392.03-115.82,59.16,35.08,56.54,176.79,56.04,192.83-.15,4.87-2.4,9.44-6.16,12.53-3.76,3.1-8.68,4.43-13.49,3.62-186.52-30.87-305.53,76.12-306.71,77.2-3.18,2.92-7.29,4.45-11.43,4.45Zm-81.11-156.66c0,18.36,5.78,80.02,78.83,119.64,31.71-25.11,142.66-100.82,306.42-80.79-.87-53.34-11.37-127.02-39.61-143.76-27.07-16.04-170.1-85.8-345.64,104.91Z"/>
      <g class="cls-20">
        <path class="cls-17" d="m1278.65,1074.21c-6,26.94-27.38,51.18-77.42,64.11-122.53,31.66-200.42,75.8-240.6,145.13,4.73,2.72,9.65,5.38,14.94,7.9,0,0,124.1-114.01,320.9-81.43,0,0,2.49-81.35-17.81-135.71Z"/>
      </g>
      <g class="cls-20">
        <path class="cls-17" d="m835.63,848.55c.27-61.02,20.99-122.59,39.61-165.71-2.21-9.01-2.69-14.5-2.69-14.5-61.55,31.38-98.09,176.27-96.54,182.22,33.79,130.33,194.29,126.07,194.29,126.07,114.34-28.88,151.46-103.87,160.47-127.35-148.9,113.37-295.6,102.74-295.14-.73Z"/>
      </g>
      <g class="cls-20">
        <path class="cls-17" d="m920.69,1564.1c16.01-38.22,36.37-71.19,36.37-71.19-8.56-8.21-20.27-14.52-33.93-19.32-32.7,68.82-68.74,168.56-25.88,206.98,19.51,17.49,12.83,36.15-6.62,53.9,101.86-22.47,111.48-138.21,111.48-138.21l-81.42-32.16Z"/>
      </g>
    </g>
    <g>
      <path class="cls-17" d="m2630.81,1454.18c-54.17-15.78-114.24,30.34-134.18,103.01-19.94,72.67,7.81,144.38,61.98,160.16,54.17,15.78,114.24-30.33,134.18-103.01,19.94-72.67-7.82-144.38-61.98-160.16Z"/>
      <path class="cls-9" d="m2621.8,1484.5c-18.66,3.42-30.39,27.2-26.2,53.12,4.19,25.92,22.71,44.16,41.37,40.74,18.66-3.42,30.39-27.2,26.2-53.12-4.19-25.92-22.71-44.16-41.37-40.74Z"/>
      <path class="cls-10" d="m2536.37,1632.55c-9.25,4.1-12.56,17.82-7.41,30.64,5.16,12.82,16.83,19.88,26.08,15.78,9.25-4.1,12.56-17.82,7.41-30.64-5.15-12.82-16.83-19.88-26.08-15.78Z"/>
    </g>
  </g>
</svg>