<svg xmlns="http://www.w3.org/2000/svg" xmlns:xlink="http://www.w3.org/1999/xlink" viewBox="0 0 4000 4000" xmlns:v="https://vecta.io/nano"><style><![CDATA[.Y{fill:#fff}.Z{fill:#000072}.a{fill:#e8e8e8}.b{opacity:.5}.c{fill:#96969d}.d{fill:#686969}.e{fill:#ef8b3a}.f{fill:#f3aa69}.g{fill:#3381f2}.h{fill:#e63550}.i{fill:#39a1ff}.j{fill:#e8486b}.k{fill:#ffce39}.l{fill:#e57807}]]></style><path d="M0 0h4000v4000H0z" fill="#ce9df4"/><g class="f"><path d="M2735.96 2899.28l36.74 387.63h-100.07l-97.55-326.82 160.88-60.81zm-463.53 0l-35.04 387.63h-100.08l-25.76-326.82 160.88-60.81zm-541.29 0l35.05 387.63h100.08l25.75-326.82-160.88-60.81z"/><path d="M2772.72 3286.93h-100.09l-51.78-173.4-45.79-153.44 160.89-60.79 20.32 214.23 16.45 173.4zm-1351.74-326.84l-45.79 153.44-51.73 173.4h-100.09l16.41-173.4 20.32-214.23 160.88 60.79zm471.03 0l-12.09 153.44-13.63 173.4h-100.1l-15.66-173.4-19.37-214.23 160.85 60.79zm380.44-60.79l-19.37 214.23-15.7 173.4h-100.06l-13.67-173.4-12.09-153.44 160.89-60.79z"/></g><path d="M1260.1 2899.3l160.88 60.79-45.79 153.44h-135.41l20.32-214.23zm471.06 0l160.85 60.79-12.09 153.44h-129.39l-19.37-214.23zm380.4 60.79l160.89-60.79-19.36 214.23h-129.44l-12.09-153.44zm644.71 153.44h-135.42l-45.78-153.45 160.88-60.79 20.32 214.24z" class="e"/><path d="M2772.7 3307.69h-100.08c-9.18 0-17.28-6.03-19.91-14.83l-97.54-326.83c-3.12-10.44 2.37-21.52 12.56-25.38l160.88-60.81c6.06-2.29 12.84-1.62 18.34 1.8 5.5 3.43 9.08 9.22 9.69 15.67l36.74 387.63a20.77 20.77 0 0 1-5.32 15.94c-3.94 4.33-9.52 6.8-15.37 6.8zm-84.59-41.55h61.76l-32.02-337.8-117.33 44.34 87.59 293.45z" class="Z"/><path d="M2945.16 2613.88c-19.32 109.49-49.99 216.52-73.71 290.82-19.03 59.54-74.29 99.93-136.79 99.93H1518.09c-96.65 0-170.53-86.09-155.9-181.62 20.9-136.45 35.65-336.44-1.5-553.12-61.54-359.04-344.75-1408.08-156.86-1268.23 271.49 202.02 434.08-2.53 658.71-33.78 124.24-17.29 177.8 25.14 217.89 76 136 172.27-5.94 533.35 27.13 778.01 34.94 258.28 156.19 357.71 208.59 394.27 72.83 50.86 155.98 33.16 239.79 4.86 126.56-42.71 254.67-109.69 351.11-1.41 11.14 12.51 20.4 27.1 27.92 43.38 40.18 86.17 33.2 220.3 10.18 350.89" class="i"/><g class="b Y"><path d="m2140.27,1292.23c-2.16-80.82-17.62-152.49-59.83-206.01-40.1-50.86-93.66-93.28-217.89-76-224.63,31.25-387.21,235.8-658.71,33.78-41.51-30.91-60.04-3.74-63.03,61.2-3.37-94.45,13.38-140.53,63.03-103.55,271.49,202.02,434.08-2.53,658.71-33.78,124.24-17.29,177.8,25.14,217.89,76,49.49,62.7,62.16,150.37,59.83,248.35"/></g><g class="b Y"><path d="m2934.98,2262.99c-104.92-49.74-85.8,40.93-84.97,44.75-32.04-92.53-184.69-96.57-294.06-86.72,126.56-42.71,254.67-109.69,351.11-1.41,11.14,12.5,20.4,27.09,27.92,43.38"/></g><path d="m2945.16,2613.88c-19.32,109.49-49.99,216.52-73.71,290.82-19.03,59.54-74.29,99.93-136.79,99.93h-469.28c23.94-172.89,99.56-634.69,234.56-718.67,166.74-103.71,364.66,38.14,364.7,247.66.02,82.5,42,160.05,89.95,19.42,3.44-10.08-21.63,74.47-9.43,60.85" class="g"/><path d="M2734.66 3025.4H1518.09c-52.13 0-101.51-22.68-135.46-62.24-33.95-39.54-48.88-91.77-40.99-143.29 19.87-129.65 35.75-329.7-1.42-546.49-15.31-89.29-45.14-224.86-76.72-368.39-42.16-191.6-89.95-408.77-118.37-582.77-44.59-272.99-23.36-328.32 6.21-347.43 12.51-8.08 33.91-12.88 64.89 10.17 179.05 133.26 308.18 80.36 444.89 24.37 62.58-25.63 127.29-52.14 198.57-62.05 135.77-18.89 196.03 31.72 237.05 83.71 88.71 112.4 66.69 296.63 45.4 474.8-13 108.79-26.44 221.28-13.99 313.31 23.84 176.23 91.1 304.09 199.9 380.02 77.92 54.37 170.63 20.87 268.78-14.6 114.1-41.24 232.08-83.87 325.71 21.25 124.17 139.42 33.67 501.7-31.32 705.24-21.84 68.42-84.76 114.39-156.57 114.39zM1174.15 1009.68c-.17 0-.25.01-.26.01-.07.05-14.07 9.24-12.63 84.09 1 52.06 8.89 123.04 24.12 217 28.13 173.66 76.26 392.34 118.71 585.28l77.09 370.3c38.11 222.29 21.87 427.11 1.53 559.8a136.73 136.73 0 0 0 31.45 109.93 136.84 136.84 0 0 0 103.93 47.75h1216.57c53.65 0 100.66-34.35 116.98-85.48 50.16-157.08 154.46-536.31 39.88-664.96-74.91-84.11-170.21-49.68-280.55-9.8-103.78 37.5-211.1 76.29-306.68 9.6-118.73-82.86-191.83-220.31-217.3-408.53-13.16-97.28.6-212.44 13.91-323.81 20.28-169.74 41.26-345.27-36.76-444.13-33.01-41.83-78.31-85.03-198.71-68.3-66.1 9.19-128.35 34.69-188.54 59.35-141.37 57.91-287.55 117.79-485.45-29.48-10.87-8.09-16.11-8.63-17.29-8.63zM2648.33 2212.2c7.16-1.67 13.41-2.75 20.12-3.65 6.62-.85 13.25-1.45 19.91-1.81 13.31-.68 26.75-.58 40.19.95 26.79 2.9 53.97 10.76 78 25.71 11.94 7.5 22.92 16.73 32.42 27.28 9.46 10.58 17.36 22.48 23.56 35.01 6.28 12.51 10.89 25.62 14.33 38.85 3.34 13.3 5.44 26.56 6.83 39.7 2.87 26.3 3.17 52.31 2.36 78.12-.7 25.82-2.83 51.42-5.53 76.91-5.48 51-13.52 101.26-24.48 151.43-1.47 6.72-8.11 10.99-14.84 9.52-6.47-1.41-10.66-7.62-9.66-14.08l.05-.28c3.88-24.61 7.51-49.66 10.5-74.57 3-24.96 5.83-49.92 7.82-74.9 3.76-49.84 6.07-100.15.95-148.48-2.61-24.13-7.87-47.06-17.9-67.52-9.98-20.39-24.74-37.76-43.62-50.02-18.77-12.43-41.2-19.86-64.55-23.46-11.69-1.75-23.64-2.72-35.65-2.74-6-.01-12.02.19-18.01.61-5.88.38-12.21.98-17.47 1.8l-.54.09c-6.8 1.06-13.17-3.6-14.23-10.4-1.01-6.47 3.21-12.57 9.48-14.05" class="Z"/><path d="m1996.02,2138.33c-123.74-11.72-41.51-38.6-10.01-70.43,12.09-12.26,74.63-41.38,152.07-55.18,100.31-17.91,225.62-10.02,298.5,93.82,17.21,24.52,31.5,54.35,41.85,90.46,83.51,291.68-358.71-46.91-482.41-58.67" class="c"/><path d="m1996.02,2138.33c-123.74-11.72-41.51-38.6-10.01-70.43,12.09-12.26,74.63-41.38,152.07-55.18,40.64,60.71,134.38,156.11,298.5,93.82,17.21,24.52,31.5,54.35,41.85,90.46,83.51,291.68-358.71-46.91-482.41-58.67" class="d"/><path d="M2434.57 2335.93c-65.36 0-162.83-49.7-264.62-101.61-69.43-35.4-141.22-72.01-175.92-75.3-48.62-4.61-77.94-11.7-83.93-34.3-5.93-22.38 15.5-37.45 36.22-52.02 9.2-6.46 18.7-13.15 24.92-19.43h0c27.45-27.76 194.97-94.4 335.63-58.42 95.48 24.43 161.7 92.35 191.51 196.42 18.41 64.29 14.09 106.48-13.22 128.98-13.25 10.91-30.39 15.67-50.61 15.67zm-472.73-223.26c7.74 1.6 19.23 3.39 36.11 4.99 42.59 4.04 111.3 39.08 190.87 79.65 93.53 47.7 234.89 119.79 269.93 90.88 12.61-10.39 12.5-40.74-.31-85.47-25.63-89.49-79.31-145.68-159.54-167-128.11-34.05-281.57 30.67-298.13 46.79-8.82 8.92-20.36 17.03-30.55 24.19l-8.38 5.97z" class="Z"/><path d="m2684.72,2501.57c-97.77,359.75-868.75,229.07-1041.23,105.91-124.57-88.92-220.22-293.65-195.08-527.74,5.65-52.52,17.41-106.49,36.23-160.96l198.32-30.83,370.97-57.63s-32.16,234.68,68.27,262.98c14.83,4.16,32.53,3.86,53.64-2.37,104.42-30.75,212.37-63.24,329.96-5.15,27.43,13.54,51.65,28.62,72.92,45.04,120.05,92.62,144.81,227.78,106,370.76" class="c"/><path d="m2122.2,2093.29c-62.22,32.83-127.48,58.25-214.98,64.36-116.76,8.15-196.29,68.98-249.02,50.49-58.17-20.41-80.73-107.29-209.79-128.4,5.65-52.52,17.41-106.5,36.23-160.96l198.32-30.83,370.97-57.64s-32.16,234.68,68.27,262.98" class="d"/><path d="M2122.2 2093.29c-62.2 32.82-127.48 58.25-214.98 64.36-43.01 3-76.7 4.2-104.75 3.58-94.69-99.72-123.66-195.92-119.51-273.28l370.97-57.64s-5.65 41.22-4.82 91.16l.17 6.86.17 5.65.17 3.87.25 4.49.41 7.06c.42 5.9.91 11.88 1.58 17.83l.42 3.58.91 7.1.5 3.53c1.78 12.22 4.2 24.27 7.44 35.65.45 1.67.95 3.33 1.45 4.99.04.21.13.37.17.54l1.91 5.9c1.5 4.28 3.08 8.43 4.82 12.47l1.33 2.95c1.04 2.29 2.16 4.57 3.32 6.78.79 1.49 1.58 2.9 2.41 4.32 1.75 3.04 3.61 5.98 5.61 8.77.63.91 1.29 1.79 1.91 2.62 4.65 6.07 9.85 11.39 15.75 15.79.84.62 1.67 1.25 2.54 1.83l2.82 1.83c.84.49 1.67.99 2.54 1.45 4.49 2.49 9.3 4.52 14.5 5.98" class="a"/><path d="m2578.72,2130.81c-57.09,53.43-182.27,216.95-294.33,220.03-160.62,4.43-272.32-22.83-373.02-95.63-182.28-131.77-233.85-265.76-228.41-367.27l370.97-57.63s-42.34,309.02,121.91,260.61c104.42-30.75,212.37-63.24,329.96-5.15,27.43,13.55,51.65,28.63,72.92,45.04" class="Y"/><path d="M2122.2 2093.29c-62.2 32.82-127.48 58.25-214.98 64.36-43.01 3-76.7 4.2-104.75 3.58-94.69-99.72-123.66-195.92-119.51-273.28l370.97-57.64s-5.65 41.22-4.82 91.16l.17 6.86.17 5.65.17 3.87.25 4.49.41 7.06c.42 5.9.91 11.88 1.58 17.83l.42 3.58.91 7.1c.12 1.17.29 2.33.5 3.53 1.78 12.22 4.2 24.27 7.44 35.65a127.97 127.97 0 0 0 1.45 4.99c.04.21.13.37.17.54l1.91 5.9c1.5 4.28 3.08 8.43 4.82 12.47.41 1 .87 1.96 1.33 2.95 1.04 2.29 2.16 4.57 3.32 6.78.74 1.45 1.58 2.9 2.41 4.32 1.75 3.04 3.61 5.98 5.61 8.77l1.91 2.62c4.65 6.07 9.85 11.39 15.75 15.79.84.62 1.67 1.25 2.54 1.83l2.82 1.83c.84.49 1.67.99 2.54 1.45 4.49 2.49 9.3 4.52 14.5 5.98" class="a"/><path d="M2208.57 2756.93c-238.31 0-487.78-68.72-577.15-132.52-82.68-59.03-149.44-162.93-183.14-285.06-26.54-96.16-45.17-248.37 16.75-427.38 3.75-10.84 15.57-16.61 26.43-12.84 10.84 3.75 16.59 15.58 12.84 26.43-96.73 279.62.95 557.72 151.27 665.04 117.81 84.11 555.5 180 821.11 85.23 102.25-36.48 165.5-96.95 187.99-179.72 33.74-124.16 31.97-292.9-168.06-391.72-109.45-54.06-212.72-23.63-312.6 5.8l-2.29.68c-39.88 11.75-73.29 6.37-99.28-15.99-74.53-64.09-51.91-246.75-49.08-267.37 1.56-11.36 12.03-19.3 23.4-17.76 11.36 1.55 19.32 12.03 17.77 23.39-6.79 49.83-13.74 188.34 35.02 230.24 14.83 12.74 34.6 15.24 60.43 7.62l2.29-.67c107.54-31.69 218.73-64.46 342.75-3.2 175.84 86.87 243.23 243.09 189.76 439.87-26.27 96.67-98.31 166.64-214.13 207.96-83.53 29.8-181.83 41.97-282.07 41.97zm33.26-1050.62c7.35-9.92 15.28-17.98 23.83-25.99 4.35-3.82 8.59-7.83 13.21-11.31 4.53-3.6 9.04-7.27 13.87-10.46 9.38-6.79 19.28-12.84 29.4-18.43 5.1-2.73 10.16-5.54 15.37-8.04l15.79-7.18c5.25-2.43 10.73-4.29 16.11-6.37l8.11-3.04c2.71-.99 5.51-1.74 8.25-2.62l16.55-5.01 16.82-3.91c5.6-1.32 11.21-2.55 16.92-3.29l17.04-2.5 4.25-.59 4.29-.31 8.57-.62c5.7-.45 11.42-.74 17.11-1.06a8.31 8.31 0 0 1 8.75 7.83 8.3 8.3 0 0 1-6.64 8.59l-.71.15c-10.82 2.19-21.71 3.47-32.4 5.83-10.62 2.7-21.41 4.41-31.8 7.78l-15.7 4.45-15.41 5.31c-2.56.9-5.17 1.67-7.69 2.68l-7.53 3.08c-4.97 2.15-10.13 3.89-15.02 6.22-19.87 8.7-38.75 19.35-57.08 30.82-9.2 5.71-17.99 12-26.75 18.37-8.51 6.47-17.24 13.45-24.79 20.27l-.47.43a8.31 8.31 0 0 1-11.74-.59 8.32 8.32 0 0 1-.52-10.52m12.26 82.86c9.09-5.68 18.08-10.04 27.56-14.07 9.41-4.01 19.06-7.41 28.89-10.3 19.64-5.83 40.06-9.31 60.7-10.5 10.31-.71 20.71-.57 31.07.15 10.37.6 20.7 2.16 30.88 4.35 20.39 4.31 40.04 12.22 57.72 22.95 3.93 2.39 5.18 7.5 2.8 11.43a8.33 8.33 0 0 1-10.4 3.33l-.17-.08c-17.42-7.48-35.49-12.87-54.07-15.56-4.6-.84-9.3-1.2-13.94-1.75-4.7-.26-9.35-.73-14.06-.81-9.39-.38-18.81-.06-28.23.6-18.86 1.3-37.59 4.71-56.19 8.95-18.51 4.28-37.25 9.89-54.95 16.08l-.43.15a8.34 8.34 0 0 1-10.62-5.12 8.33 8.33 0 0 1 3.45-9.81" class="Z"/><path d="m2192.58,1456.65l-197.83-96.07-228.6-110.97c79.95-134.75,260.67-304.21,334.29-280.58,13.95,4.5,27.5,19.13,39.93,41.52,46.64,83.96,77.34,276.45,52.21,446.11" class="c"/><path d="m2192.58,1456.65l-197.83-96.07c17.64-118.47,67.35-391.54,145.62-350.04,46.64,83.96,77.34,276.45,52.21,446.11" class="d"/><g class="b Y"><path d="m2145.59,1020.54c-9.06-12.2-18.62-20.25-28.31-23.37-70.9-22.79-240.89,133.32-324.85,265.21l-26.27-12.76c79.95-134.75,260.67-304.21,334.29-280.58,15.91,5.11,31.34,23.52,45.15,51.51"/></g><path d="M2192.59 1473.8a16.9 16.9 0 0 1-2.54-.19c-9.37-1.39-15.83-10.1-14.44-19.47 14.45-97.47 11.12-210.64-9.12-310.48-20.17-99.51-51.09-151.81-71.28-158.29-57.4-18.44-230.72 132.09-314.31 272.99a17.15 17.15 0 0 1-23.49 6 17.15 17.15 0 0 1-6-23.49c78.79-132.8 266.46-316.35 354.28-288.14 81.39 26.14 135.73 291.2 103.83 506.45-1.26 8.51-8.58 14.63-16.94 14.63z" class="Z"/><path d="m2142.44,1301.14c-45.47-38.38-81.83-63.29-112.63-81.04-27-15.51-49.7-25.49-70.53-34.09-.64-22.7,106.11-174.75,136.53-142.12,9.1,9.76,17.67,25.85,25.13,45.66,23.2,61.31,35.95,158.09,21.5,211.59" fill="#ee7e80"/><path d="m2120.94,1089.55c-11.55-9.02-28.27-18.99-39.88-12.98-19.76,10.23-47.25,90.88-51.25,143.54-27-15.51-49.7-25.49-70.52-34.09-.64-22.7,106.11-174.74,136.53-142.11,9.1,9.75,17.67,25.85,25.13,45.65" fill="#ea5c66"/><path d="m2149.23,1322.89l-14.7-12.4c-83.2-70.2-134.5-94.39-179.91-113.16l-7.33-3.03-.23-7.93c-.78-26.63,77.95-137.52,122.97-156.01,18.82-7.73,29.85-.07,34.75,5.18,41.6,44.63,69.35,195.35,49.48,268.79l-5.02,18.56Zm-175.36-144.05c41.78,17.77,89.52,41.93,160.55,99.74,10.01-73.8-17.42-194.01-47.56-226.35h0c-.31-.34-1.28-1.37-5.78.12-32.97,10.96-94.39,97.12-107.2,126.48Z" class="Z"/><path d="m1680.06,1237.13l-300.04,166.65-129.66,72.01c-41.14-175.73-19.82-381.24,27.2-461.16,9.68-16.44,20.42-27.54,31.94-32.02,75.13-29.17,276.81,126.17,370.56,254.53" class="c"/><path d="m1380.03,1403.78l-129.66,72.01c-41.14-175.73-19.82-381.24,27.2-461.16,27.57-20.29,66-29.93,75.93,61.1,10.34,94.28,20.86,242.64,26.54,328.05" class="d"/><g class="b Y"><path d="m1680.06,1237.13l-18.91,10.49c-99.33-123.23-300.7-260.59-352.16-248.21-41.83,10.06-70.06,140.42-80.06,247.87,4.19-134.91,36.88-247.72,80.58-264.67,75.13-29.17,276.81,126.17,370.56,254.53"/></g><path d="m1250.36,1492.94c-7.78,0-14.83-5.33-16.68-13.24-49.73-212.39-13.29-480.92,69.62-513.09,89.09-34.57,298.36,134.15,390.6,260.41,5.59,7.64,3.92,18.37-3.73,23.96-7.65,5.58-18.37,3.92-23.96-3.73-98.23-134.45-291.5-271.56-350.52-248.66-21.44,8.32-49.15,62.03-62.72,163.28-13.54,101.01-8.41,214.01,14.07,310.03,2.16,9.22-3.56,18.44-12.78,20.6-1.31.31-2.63.46-3.92.46Z" class="Z"/><g opacity=".7" class="Y"><path d="m1532.68,1131.78c-5.42,2.41-2.68,10.65,3.09,9.29,39.71-9.4,78.08-14.98,113.03-16.28,40.19-1.48,92.65-.54,152.41,6.81-.62-14.84-2.19-29.46-4.72-43.82-51.46-2.96-96.14-.03-129.19,4.13-41.18,5.17-88.17,19.19-134.63,39.87"/></g><g class="c"><path d="m1519.08,1138.01c50.81-24.1,103.02-40.42,148.23-46.1,72.99-9.17,202.92-12.42,336.81,40.73,256.97,102,277.25,396.94,292.47,481.65,3.97,22.13,69.83,104.41,45.66,216.58-19.5,90.49-120.92,181.34-288.47,240.76-106.05,37.61-218.35,54.47-330.85,52.08l-24.76-.53c-325.29-31.08-460.09-156.46-500.44-247.83-63.44-143.67,13.42-346.65,66.39-468.97"/><path d="M1722.85 2123.71l-24.67-.53c-325.27-31.08-460.09-156.46-500.46-247.84l-3.22-7.65c-.59-1.48-1.13-2.98-1.69-4.44-1.46-3.8-2.9-7.6-4.11-11.49l-2.04-6.53c-.07-.17-.1-.33-.12-.49a9.07 9.07 0 0 0-.34-1.08l-1.43-5.26c-.62-2.11-1.16-4.23-1.66-6.34-.51-1.97-.94-3.91-1.38-5.85l-1.54-7.18c-.82-4.21-1.57-8.52-2.26-12.81l-.59-4.22c-.27-1.47-.45-2.97-.63-4.5-.25-1.78-.45-3.62-.66-5.42-7.33-65.97 3.93-137.62 22.47-205.27 18.42-67.23 44-130.55 65.63-180.42 0 0 31.97-64.16 108.31-146.99 65.14-70.64 125.81-109.11 142.25-118.87l4.35-2.53c50.81-24.08 103.03-40.41 148.27-46.09 72.98-9.18 202.89-12.44 336.76 40.73 104.81 41.58 170.23 115.25 212.02 193.69 60.7 113.88 71.49 237.77 80.48 287.95 2.43 13.39 27.4 48.72 41.51 99.4v.04c1.1 3.87 2.07 7.82 3 11.88l1.27 5.85c.44 2.06.85 4.11 1.21 6.18.02.05.05.09.03.16l.92 5.34.47 3.05c.49 3.51.96 7.06 1.3 10.68.25 2.19.42 4.4.59 6.65a158 158 0 0 1 .34 5.48c.03.81.1 1.66.13 2.5l.15 5.62c.07 2.33.05 4.67 0 7.01-.02 4.66-.25 9.44-.59 14.28l-.64 7.25v.03l-.77 6.46c-.1.61-.16 1.24-.27 1.89-.29 2.11-.64 4.29-.99 6.47-.59 3.43-1.23 6.89-1.99 10.39-19.53 90.49-120.94 181.31-288.49 240.73-106.08 37.62-218.4 54.48-330.92 52.08"/></g><path d="M1186.2 1843.66l-1.43-5.26-1.66-6.34-1.38-5.85-1.53-7.18c-.82-4.21-1.57-8.52-2.26-12.8a91.23 91.23 0 0 1-.59-4.22c-.26-1.48-.45-2.97-.62-4.5-.26-1.78-.46-3.62-.66-5.42-7.33-65.98 3.92-137.63 22.47-205.27-2.65 74.72-5.66 178.68 27.21 235.53 19.6 33.9-4.55 34.23-39.53 21.32" class="d"/><path d="M2257 1959.91c-48.47 42.2-116.01 80.49-200.54 110.77-106.88 38.28-220.17 55.45-333.68 53.04l-24.6-.53c-325.27-31.08-460.09-156.46-500.46-247.84l-3.22-7.65c-.59-1.48-1.13-2.98-1.69-4.44-1.46-3.8-2.89-7.6-4.11-11.49l-2.04-6.53a2.33 2.33 0 0 1-.12-.49l-1.77-6.34c-.62-2.11-1.16-4.23-1.66-6.34-.51-1.96-.94-3.9-1.38-5.85l-1.53-7.18c-.82-4.21-1.57-8.52-2.26-12.81a91.23 91.23 0 0 1-.59-4.22c-.26-1.48-.45-2.97-.62-4.5-.26-1.78-.46-3.62-.66-5.42 14.73 9.7 31.34 20 49.67 30.26 78.62 44.23 188.02 88.25 308.94 82.6 183.28-8.49 257.91-122.24 291.22-155.78 20.28-20.39 107.14-33.34 134.6 3.6 58.37 78.5 318.84 140.29 377.61-39.04 1.1 3.88 2.07 7.83 3.01 11.88l1.27 5.85c.44 2.06.85 4.11 1.21 6.18.02.05.05.09.03.16l.91 5.34.47 3.05a311.94 311.94 0 0 1 1.3 10.68c.25 2.19.43 4.4.59 6.65a158 158 0 0 1 .34 5.48l.13 2.5.15 5.62c.07 2.33.05 4.67 0 7.01-.03 4.65-.24 9.44-.58 14.28l-.65 7.25v.04l-.77 6.45c-.1.62-.16 1.25-.27 1.9-.29 2.11-.64 4.29-.99 6.47-.59 3.43-1.23 6.89-1.99 10.39-9.52 44.16-38.54 88.39-85.27 129.01" class="Y"/><path d="M2257 1959.91c-48.47 42.2-116.01 80.49-200.54 110.77-106.88 38.28-220.17 55.45-333.68 53.04l-24.6-.53c-325.27-31.08-460.09-156.46-500.46-247.84l-3.22-7.65c-.59-1.48-1.13-2.98-1.69-4.44-1.46-3.8-2.89-7.6-4.11-11.49l-2.04-6.53a2.33 2.33 0 0 1-.12-.49l-1.77-6.34c-.62-2.11-1.16-4.23-1.66-6.34-.51-1.96-.94-3.9-1.38-5.85l-1.53-7.18c-.82-4.21-1.57-8.52-2.26-12.81a91.23 91.23 0 0 1-.59-4.22c-.26-1.48-.45-2.97-.62-4.5-.26-1.78-.46-3.62-.66-5.42 14.73 9.7 31.34 20 49.67 30.26 52.16 68.94 163 154.27 370.69 199.47 304.43 66.26 521.89 20.33 660.57-61.91" class="a"/><path d="M1271.76 1409.69c-7.18 23.78-15.11 47.11-22.77 70.45l-11.41 34.95-10.98 34.95c-14.31 46.59-26.03 93.91-31.54 141.64-5.53 47.58-4.82 95.84 7.06 140.65 2.98 11.18 6.7 22.09 11.22 32.61 4.49 10.44 9.84 20.44 15.99 30.15 6.11 9.71 12.99 19.04 20.51 27.91 7.45 8.92 15.46 17.45 24 25.5 33.88 32.55 74.64 58.45 117.81 79.26 21.64 10.4 44 19.47 66.76 27.56 22.73 8.2 45.96 15.21 69.47 21.3 11.71 3.21 23.61 5.78 35.44 8.6l35.83 7.19c23.94 4.59 48.15 7.99 72.37 11.16l18.16 2.12 9.08 1.12c2.26.31 5.47.48 8.36.66 11.9.79 24.14 1.14 36.36 1.62 24.49.88 49.16 1.67 73.97 3.73h.03a8.39 8.39 0 0 1 7.66 9.05c-.32 3.84-3.19 6.86-6.8 7.55-24.63 4.65-49.43 7.54-74.45 9.12a564.11 564.11 0 0 1-37.89 1.2c-3.3-.06-6.28-.06-10.18-.35l-9.39-.84-18.77-1.81c-24.91-2.92-49.79-6.07-74.55-10.46-12.41-1.96-24.73-4.57-37.08-6.92-12.29-2.74-24.64-5.25-36.85-8.41-49.01-11.88-97.28-28.12-143.4-49.93-23.04-10.92-45.51-23.31-67.02-37.43-21.49-14.12-42.12-29.9-60.85-48.03-9.42-8.98-18.34-18.57-26.71-28.7-8.42-10.06-16.23-20.73-23.25-32.02-7.03-11.23-13.33-23.15-18.55-35.49-5.19-12.25-9.41-24.86-12.74-37.62-6.74-25.52-9.95-51.61-10.63-77.47-.72-25.87.98-51.55 4.23-76.85 6.66-50.6 19.2-99.75 35.11-147.4 16.14-47.59 36.33-93.54 61.11-136.93 2.29-4.01 7.4-5.4 11.41-3.11 3.45 1.97 4.97 6.03 3.86 9.67l-.02.05zm243.76-279.19c33.33-18.86 68.98-33.94 106.44-44.38 9.36-2.61 18.88-4.82 28.49-6.78 4.8-.97 9.67-1.72 14.54-2.49l14.35-1.94c19.13-2.46 38.36-3.78 57.62-4.44 38.51-1.4 77.12.75 115.4 5.64 38.29 4.86 76.25 12.95 113.23 24.44 9.2 3.02 18.52 5.69 27.55 9.2 9.1 3.36 18.22 6.5 27.22 10.57l13.54 5.79c4.46 2.06 8.81 4.36 13.22 6.53 4.37 2.26 8.85 4.29 13.13 6.75l12.78 7.4 6.39 3.71c2.09 1.3 4.12 2.7 6.18 4.05l12.32 8.18c4.14 2.68 7.93 5.85 11.92 8.75 3.9 3.02 7.97 5.83 11.71 9.03 7.42 6.49 15.22 12.57 22.17 19.57l10.67 10.23 10.1 10.78c26.91 28.81 48.95 61.65 67.67 95.88 9.05 17.29 17.51 34.86 24.84 52.86 7.27 18 14.02 36.21 19.68 54.69 11.62 36.9 19.91 74.61 26.44 112.29 3.28 18.83 6.06 37.71 8.84 56.23l2.16 13.65.56 3.35.14.84c.05.22.1.22.14.34a6.3 6.3 0 0 1 .22.55c-.03.34.91 2.48 1.62 4.14 3.28 7.34 7.84 15.95 12.05 24.56 8.57 17.29 16.6 35.53 22.73 54.55 6.17 19.01 10.51 38.79 12.73 58.9 2.32 20.15 1.39 40.59-1 60.69-1.8 10.01-3.11 19.9-6.04 30.1-2.96 9.96-6.36 19.8-10.77 29.07-8.48 18.74-19.59 35.82-32.03 51.48-12.45 15.68-26.29 29.95-40.96 43.06-29.41 26.2-62.02 47.8-95.87 66.47-67.87 37.13-141.6 61.77-216.95 73.3-4.56.7-8.81-2.43-9.51-6.98-.62-4.01 1.73-7.78 5.41-9.11l.1-.04c35.34-12.79 70.52-24.98 104.74-39.27 34.33-13.94 67.89-29.4 99.96-47.24 31.94-17.97 62.34-38.58 89.02-62.8 13.32-12.1 25.67-25.11 36.53-39.05 10.86-13.92 20.28-28.77 27.19-44.46 3.64-7.79 6.29-15.86 8.65-23.95 2.24-7.97 3.31-16.81 4.82-25.35 1.85-17.28 2.54-34.73.41-52.06-1.98-17.33-5.78-34.51-11.29-51.33-5.49-16.86-12.7-33.19-20.92-49.62-4.07-8.3-8.43-16.31-12.89-26.15-1.11-2.68-2.24-4.8-3.39-9.05l-.78-2.84-.34-1.36-.15-.9-.62-3.61-2.31-14.25-8.89-55.42c-3.23-18.27-6.88-36.4-11.07-54.36-4.24-17.95-9.07-35.69-14.42-53.24-5.31-17.57-11.63-34.75-18.4-51.71-6.83-16.94-14.68-33.37-23.04-49.5-17.31-31.87-37.5-62.19-62.01-88.57-24.31-26.51-52.08-49.79-82.96-68.25l-11.61-6.87c-3.87-2.29-7.98-4.16-11.96-6.27l-12.05-6.1-12.4-5.42c-8.14-3.79-16.82-6.86-25.37-10.11-8.5-3.41-17.3-5.99-25.97-8.93-34.9-11.18-70.86-19.18-107.29-24.13l-13.67-1.82-13.72-1.41c-9.14-1.05-18.33-1.51-27.51-2.19-18.38-.91-36.8-1.53-55.21-1.2-18.42.29-36.83 1.18-55.18 2.61l-13.72 1.28-13.41 1.7c-8.95 1.24-17.93 2.73-26.86 4.64-35.8 7.39-71.1 18.82-105.91 32.1l-.05.02a8.33 8.33 0 0 1-10.75-4.82c-1.49-3.9.15-8.23 3.68-10.22m642.58 277.99c5.74-9.57-45.87-111.98-121.2-87.31-27.59 9.04-22.24 33.47-5.93 40.78 15.52 6.95 39.22 5.74 59.1 13.38 38.75 14.9 62.28 42.72 68.03 33.15m-635.7 34.02c-7.01-10.13 42.61-126.59 127.32-104.73 31.03 8.01 26.86 35.3 9.41 44.49-16.6 8.75-42.79 9.09-64.14 18.92-41.63 19.15-65.58 51.46-72.59 41.32" class="Z"/><path d="m1965.28,1850.7c-28.42,17.82-57.3-5.01-70.58-22.25,0,0-29.94,49.23-71.93,30.55-14.77-6.6-18.71-20.56-19.13-32.36,58.16,25.3,92.83-61.62,92.83-61.62,14.75,19.18,50.05,62.07,81.09,58.48.42,9.79-1.91,20.72-12.27,27.2" class="a"/><g class="Z"><path d="M1905.71 1774.94c1.24 4.9 2.05 9.34 2.7 14.09.63 4.69 1.01 9.44 1.13 14.25.15 4.81-.04 9.69-.53 14.62-.43 4.94-1.44 9.92-2.66 14.93-1.64 6.74-8.43 10.87-15.17 9.23a12.57 12.57 0 0 1-9.24-15.17c.23-.93.56-1.82.97-2.65l.09-.18c1.7-3.35 3.38-6.85 4.62-10.63 1.3-3.75 2.41-7.66 3.23-11.69.85-4.02 1.49-8.15 1.91-12.33.41-4.12.6-8.53.56-12.41v-.45a6.28 6.28 0 0 1 6.21-6.35c2.96-.03 5.46 1.99 6.16 4.74"/><path d="m1828.5,1771.37c2.72,12.29,48.38,33.11,73.25,31.3,26.7-1.94,54.01-25.36,56.63-37.52,3.07-14.23-20.29-29.61-72.73-24.43-42.88,4.24-60.14,17.18-57.16,30.64"/></g><g opacity=".7" class="Y"><path d="m1887.49,1751.98c-.79,3.68,8.87,8.01,16.52,7.91,4.34-.06,19.93-.45,20.8-4.49.87-4.03-3.55-7.69-18.01-8.76-13.14-.98-18.52,1.66-19.32,5.34"/></g><path d="m1475.82,1176.24c-43.15,25.46-94.27,58.53-171.07,143.57-2.53-5.4-4.82-11.38-6.83-17.78-14.26-44.69-16.88-111.06-9.83-165.16,4.36-33.68,12.42-62.61,23.76-78.64,26.24-37.18,161.01,95.5,163.97,118.01" fill="#ee7e80"/><path d="m1475.82,1176.24c-43.15,25.46-94.27,58.53-171.07,143.57-2.53-5.4-4.82-11.38-6.83-17.78,10.84-37.92,48.11-75.1,65.11-105.94,35.3-63.96-9.98-114.16-30.52-110.17-12.17,2.37-34.95,36.08-44.43,50.95,4.36-33.68,12.42-62.61,23.76-78.64,26.24-37.18,161.01,95.5,163.97,118.01" fill="#ea5c66"/><g class="Z"><path d="M1304.75 1332.06c-.6 0-1.21-.04-1.82-.14a12.25 12.25 0 0 1-9.28-6.93c-32.35-69.36-27.75-222.89 8.19-273.81 4.26-6.04 14.56-15.39 35.69-10.16 49.07 12.13 147.08 108.18 150.41 133.65.64 4.87-1.69 9.64-5.92 12.14-44.02 25.96-93.27 58.25-168.18 141.22a12.25 12.25 0 0 1-9.09 4.04zm21.05-268.11c-1.99 0-3.31.45-3.95 1.35h0c-26.08 36.94-35.21 160.71-12.78 231.68 64.76-69.41 110.52-101.21 151.09-125.67-17.67-26.36-93.97-100.85-131-107.05-1.28-.21-2.4-.32-3.37-.32zm-13.95-5.71h.05-.05zm28.94 745.46c-9.25-4.64-19.7-9.1-29.81-13.11-10.31-3.86-20.64-7.62-31.21-10.7-21.08-6.22-42.5-11.48-64.34-14.56-5.43-.95-10.95-1.24-16.41-1.98l-8.22-.96c-2.74-.3-5.51-.34-8.26-.52l-16.54-.98-16.6-.05c-11.09-.44-22.13.84-33.27 1.11-11.11.62-22.13 2.36-33.32 3.18l-.73.05a8.29 8.29 0 0 1-8.88-7.66c-.31-4.17 2.52-7.85 6.49-8.71l17.04-3.64 8.55-1.73 4.29-.87 4.33-.58 17.35-2.21c5.78-.84 11.61-1.16 17.46-1.4l17.53-.77 17.56.37c2.93.11 5.86.08 8.78.31l8.76.76c5.84.57 11.71.88 17.5 1.82l17.41 2.7c5.78 1.02 11.5 2.39 17.24 3.66 11.43 2.71 22.77 5.91 33.81 9.98 5.59 1.81 11 4.16 16.43 6.44 5.47 2.14 10.72 4.89 16.02 7.43 10.55 5.48 20.53 11.19 30.43 18.87 3.63 2.81 4.29 8.04 1.48 11.66a8.31 8.31 0 0 1-10.29 2.34l-.57-.29zm16.78 87.03c-19.03-1.25-38.92-1.62-58.21-.76-19.38.93-38.67 2.72-57.49 6.61-9.4 1.94-18.73 4.21-27.82 7.15-4.59 1.37-9.02 3.11-13.55 4.65-4.4 1.82-8.9 3.46-13.18 5.54-17.46 7.72-33.67 17.96-48.67 30.08l-.15.12c-3.57 2.88-8.81 2.33-11.7-1.25-2.65-3.27-2.4-7.94.41-10.92 14.37-15.32 31.44-28.41 50.21-38.2 9.36-4.92 19.04-9.27 29.02-12.69 9.94-3.54 20.06-6.51 30.35-8.64 20.51-4.49 41.43-6.66 62.24-6.34 10.4.13 20.78.82 31.08 2.15 10.37 1.34 20.37 3.14 30.81 6.2 4.42 1.29 6.96 5.92 5.66 10.33-1.11 3.82-4.72 6.23-8.54 5.98l-.45-.03zm635.93-89.31c.79 6.47.78 12.37.24 18.68-.57 6.23-1.77 12.56-4.14 19.03-2.44 6.36-6.05 13.23-12.8 18.76-1.67 1.37-3.52 2.61-5.5 3.67-1.87 1-3.17 1.59-4.84 2.31-3.19 1.36-6.56 2.45-10.01 3.33-13.92 3.58-29.48 1.23-41.75-5.04-12.43-6.25-22.29-15.42-29.85-26.1l20.69-1.4c-1.15 2.06-1.88 3.29-2.9 4.79a84.23 84.23 0 0 1-2.99 4.15c-2.04 2.71-4.31 5.23-6.72 7.64-4.8 4.84-10.32 9.17-16.59 12.58-6.26 3.37-13.26 5.92-20.54 6.86-7.26 1-14.69.66-21.58-.94-6.91-1.66-13.2-3.93-19.55-7.74-6.12-3.78-11.18-8.58-15.46-13.69-4.27-5.13-7.77-10.62-10.59-16.33-2.86-5.8-5.15-11.34-6.91-17.92a7.48 7.48 0 0 1 14.02-5.07l.22.49c4.27 9.26 10.55 18.76 17.68 25.6 7.3 7.1 15.32 10.68 24.82 12.05 9.12 1.26 17.54-.96 25.28-5.61 3.86-2.34 7.6-5.24 11.04-8.61 1.72-1.7 3.35-3.51 4.96-5.34.8-.92 1.56-1.87 2.29-2.81l1.9-2.5 10.2-13.43 10.5 12.02c6.34 7.26 13.95 13.53 21.9 17.44 7.99 3.96 16.18 5.33 24.52 3.89 2.08-.4 4.18-.91 6.28-1.65l2.96-1.12c.56-.21 1.13-.48 1.7-.85 2.3-1.45 4.96-4.51 7.1-8.49 4.43-7.92 7.28-18.72 9.5-28.77l.13-.58c.89-4.06 4.92-6.62 8.98-5.73 3.2.71 5.47 3.37 5.85 6.44"/><use xlink:href="#B"/><use xlink:href="#B"/><path d="M1866.27 3307.69h-100.08a20.78 20.78 0 0 1-20.69-18.91l-35.05-387.63a20.77 20.77 0 0 1 8.12-18.41 20.78 20.78 0 0 1 19.92-2.89l160.88 60.81a20.76 20.76 0 0 1 13.36 21.07l-25.76 326.83c-.85 10.81-9.87 19.14-20.71 19.14zm-81.09-41.55h61.89l23.02-292.13-115.27-43.56 30.35 335.7zm452.21 41.55h-100.08a20.78 20.78 0 0 1-20.71-19.14l-25.76-326.83c-.73-9.21 4.72-17.8 13.36-21.07l160.88-60.81c6.69-2.53 14.22-1.44 19.92 2.89a20.77 20.77 0 0 1 8.12 18.41l-35.05 387.63a20.78 20.78 0 0 1-20.69 18.91zm-80.87-41.55h61.89l30.35-335.7-115.27 43.56 23.02 292.13z"/></g><path d="M2822.58 2788.44c-19.2 73.79-48.37 149.5-74.33 179.96-6.44 7.56-13.59 13.54-20.86 18.28-29.34 19.03-61.25 17.95-61.25 17.95h-1116.6c-154.03 0-286.29-109.24-315.67-260.44l-14.62-71.97c-27.13-127.81-65.61-279.22-118.46-429.76l-69.51-204.02c-43.17-130.84-80.32-252.38-111.11-363.28-50.31-181.41-83.64-334.36-98.31-452.82-18.74-151.7-6.98-246.9 38.68-273.11 77.7-44.63 286.24-70.55 375.87 95.57a513.44 513.44 0 0 1 35.07 80.73c47.49 141.02 27.51 283.05 9.81 421.24-12.01 93.99-22.98 186.19-10.97 275.11 6.11 45.21 14.88 85.59 25.47 121.58 49.82 169.61 139.9 242.53 183.12 272.7 99.89 69.68 194.33-23.98 309.68-48.95 5.7-1.2 11.43-2.29 17.21-3.16 107.04-16.08 195.5-21.35 264.02 55.56 7.15 8.02 13.5 16.87 19.11 26.47 42.63 72.51 44.25 187.89 28.42 306.98-.46 3.37 1.41 6.32 5.36 8.98 64.11 43.13 674.79-.46 713.81 56.84 14.79 21.69 5.56 94.66-13.92 169.57" class="i"/><g class="b Y"><path d="M1271.48 1125.52c-20.4-23.6-37.64-38.94-59.15-31.33-21.54 7.62-26.29 71.26-26.29 71.26l-364.19 56.88c-18.74-151.7-6.98-246.9 38.68-273.12 77.7-44.63 286.24-70.55 375.87 95.57a513.44 513.44 0 0 1 35.07 80.73"/></g><path d="m1295.79,1943.46c-34.33-35.47-145.05-43.18-214.54,15.49-14.79,12.49-32.94,71.26-49.98,79.49-43.17-130.84-80.32-252.38-111.11-363.28,74.25-120.58,154.28-206.92,212.74-154.69,56.38,50.36,112.07,41.88,148.38,26.3-12.01,93.99-22.98,186.19-10.97,275.11,6.11,45.21,14.88,85.6,25.47,121.58" class="g"/><g class="b Y"><path d="m2088.92,2246.07c-58.67-13.13-92.08,9.14-92.08,9.14l-208.25-88.01c5.69-1.21,11.43-2.29,17.2-3.16,107.04-16.08,195.5-21.36,264.02,55.55,7.15,8.02,13.5,16.87,19.11,26.47"/></g><path d="M2822.58 2788.48l-3.66 13.55-1.62 5.78-1.66 5.78-1.66 5.73c-5.11 17.29-10.68 34.32-16.5 50.48l-5.86 15.62-1.25 3.2-2.41 6.07-4.9 11.72-3.57 8.1c-2.95 6.52-5.9 12.71-8.89 18.49l-2.49 4.82-2.49 4.57c-.83 1.5-1.66 2.95-2.53 4.4l-2.45 4.16c0 .04-.04.04-.04.04l-2.5 3.95a151.77 151.77 0 0 1-2.49 3.74l-2.33 3.32a108.55 108.55 0 0 1-5.03 6.4c-6.44 7.56-13.59 13.55-20.86 18.28-29.34 19.03-61.25 17.95-61.25 17.95h-1116.6c-154.03 0-286.29-109.24-315.67-260.44l-14.62-71.97c254.08-57.26 771.02-154.69 780.58-2.12l.22 3.37c4.51 65.78 100.78 67.01 107.19 1.39 3.86-39.54 9.59-78.56 15.46-112.84 64.11 43.13 674.79-.46 713.81 56.84 14.79 21.69 5.53 94.69-13.92 169.61" class="g"/><path d="M2791.63 2885.42l5.86-15.62-5.86 15.62" fill="#08aeae"/><path d="M2666.99 3025.41h-1.08-1116.37c-163.53 0-304.86-116.6-336.05-277.25h0c-35.19-181.23-79.7-349.05-132.3-498.82-127.71-363.62-217.63-674.61-260.04-899.36-46.06-244.11-36.56-381.09 29.05-418.76 54.35-31.21 155.96-49.54 245-24.18 69.97 19.92 125.13 64.15 159.52 127.89 91.46 169.53 69.67 339.4 48.59 503.68-12.6 98.17-24.49 190.9-12.37 280.52 23.84 176.24 91.1 304.1 199.9 380.02 58.48 40.8 114.13 16.79 184.59-13.61 39.98-17.25 81.32-35.09 127.27-42 109.61-16.48 206.54-23.16 282.61 62.25 56.25 63.17 74.32 178.03 53.74 341.46 35.69 14.21 195.61 15.68 314.06 16.78 259.71 2.39 376.09 7.2 400.57 43.17 23.43 34.43 3.44 130.56-10.56 184.8-17.4 67.39-47.29 152.66-79.04 189.89-35.39 41.51-87.26 43.54-97.08 43.54zm-1412.72-285.18c27.41 141.16 151.59 243.62 295.26 243.62h1116.6l.7.01c.31.01 40.46.55 65.61-28.96 22.03-25.84 50.33-95.49 70.42-173.32 24.33-94.26 21.88-141.5 16.73-150.57-3.34-2.76-22.82-13.81-124.1-19.77-69.56-4.09-157.62-4.9-242.79-5.69-229.63-2.12-325.49-5.67-349-32.77-5.57-6.42-8.04-14.4-6.97-22.49 20.35-153.26 5.66-262.84-42.47-316.89-62.35-70-144.5-63.96-245.41-48.8-40.62 6.11-79.44 22.86-116.99 39.06-72.45 31.26-147.37 63.59-224.83 9.54-118.73-82.85-191.84-220.3-217.3-408.53-12.86-95.04-.05-194.85 12.34-291.38 20.24-157.76 41.18-320.89-43.94-478.66-29.36-54.41-74.55-90.63-134.33-107.65-87.14-24.81-175.08-1.49-212.93 20.25-75.23 43.2-55.02 401.29 249.51 1268.32 53.26 151.66 98.32 321.48 133.89 504.67h0zm1565.62-108.97h0z" class="Z"/><path d="m1997.88,2679.24c-18.49,85.76-41.88,166.08-60.83,225.46-18.99,59.54-74.29,99.93-136.79,99.93h-476.88c-82.02,0-151.87-59.46-165.12-140.4-23.89-145.59-71.39-384.8-154.61-621.77-40.84-116.3-75.59-223.75-104.84-322.69-154.78-523.42-156.81-808.92-105.08-906.69,55.76-105.46,255.91-134.42,345.54,31.7,141.81,262.85.84,532.44,33.91,777.09,34.94,258.28,156.19,357.71,208.62,394.28,8.48,5.9,17.04,10.89,25.77,15.04,77.32,36.77,164.37,8.02,250.63-23.06,114.35-41.14,227.33-86.38,314.46,11.47,80.06,89.92,62.7,285.95,25.22,459.64" fill="#5abec6"/><path d="M1997.88 2679.24c-18.49 85.76-41.88 166.08-60.83 225.46-18.99 59.54-74.29 99.93-136.79 99.93h-476.88c-82.02 0-151.87-59.46-165.12-140.4-23.89-145.59-71.39-384.8-154.61-621.77-40.84-116.3-75.59-223.75-104.84-322.69-121.08-409.49-148.71-673.38-130.18-815.65 5.11-39.6 13.84-69.76 25.1-91.04 55.76-105.46 255.91-134.42 345.54 31.7 21.65 40.1 36.69 80.36 46.79 120.66l.12.54c55.76 223.71-41.01 448.71-13 655.88l2.86 19.57c38.27 243.78 154.66 339.1 205.76 374.71 8.48 5.9 17.04 10.89 25.77 15.04 77.32 36.77 164.37 8.02 250.63-23.06 114.35-41.14 227.33-86.38 314.46 11.47 8.39 9.43 15.7 20.03 22.06 31.66 54.15 99.14 36.69 272.49 3.16 427.98" class="i"/><g class="b Y"><path d="M1186.18 1165.99S1069.26 976.35 916.1 984.7c-72.34 3.95-118.55 59.42-147.46 119.42 5.11-39.6 13.84-69.76 25.1-91.04 55.76-105.46 255.91-134.42 345.54 31.7 21.65 40.1 36.69 80.36 46.79 120.66l.12.54z"/></g><path d="M1997.88 2679.24c-18.49 85.76-41.88 166.08-60.83 225.46-18.99 59.54-74.29 99.93-136.79 99.93h-476.88c-82.02 0-151.87-59.46-165.12-140.4-23.89-145.59-71.39-384.8-154.61-621.77-40.84-116.3-75.59-223.75-104.84-322.69 104.22 141.58 193.92 505.6 274.98 707.9 72.28 180.38 148.39 136.39 163.19 98.26 36.47-93.91-105.59-219.98-61.6-383.04 12.77-47.36 65.53-84.68 132.18-111.69 77.32 36.77 164.37 8.02 250.63-23.06-75.18 47.08-72.81 225.95-47.21 399.36 28.7 194.38 266.32 242.24 379.85 81.88l7.04-10.13" class="g"/><g class="b Y"><path d="m1994.72,2251.27c-222.17-107.53-266.18,47.9-517.81,31.77-287.68-18.45-300.88-441.59-300.88-441.59,38.27,243.78,154.65,339.1,205.76,374.71,8.48,5.9,17.04,10.89,25.76,15.04,77.33,36.77,164.38,8.02,250.64-23.06,114.35-41.14,227.33-86.38,314.46,11.47,8.39,9.43,15.71,20.03,22.06,31.66"/></g><path d="M1800.27 3025.4h-476.88c-92.58 0-170.65-66.36-185.64-157.8-25.33-154.54-72.56-387.24-153.71-618.28-255.29-726.85-275.19-1120.2-208.67-1245.96 31.02-58.65 100.3-96.74 176.5-97.06h.97c86.04 0 160.61 46.82 204.73 128.59 91.46 169.53 69.67 339.4 48.59 503.68-12.6 98.17-24.49 190.9-12.37 280.52 23.84 176.24 91.09 304.09 199.9 380.02 77.92 54.38 170.63 20.87 268.78-14.6 114.1-41.23 232.09-83.87 325.71 21.25 124.16 139.41 33.67 501.69-31.33 705.24-21.84 68.42-84.76 114.39-156.56 114.39zM952.81 947.87h-.78c-60.13.25-116.36 30.36-139.94 74.93-59.55 112.59-39.98 497.77 211.15 1212.76 82.14 233.88 129.9 469.15 155.51 625.32 11.68 71.25 72.51 122.97 144.64 122.97h476.88c53.65 0 100.66-34.35 116.98-85.48 50.16-157.08 154.45-536.32 39.88-664.96-74.92-84.12-170.22-49.68-280.56-9.8-103.79 37.51-211.1 76.29-306.68 9.6-118.73-82.85-191.84-220.3-217.3-408.52-12.86-95.04-.05-194.85 12.33-291.38 20.24-157.76 41.17-320.89-43.95-478.66-36.63-67.89-97.89-106.77-168.18-106.77z" class="Z"/><path d="m2117.34,2553.04s-16.43,71.78,0,108.93" class="Y"/><path d="M2133.54 2556.74c-2.43 7.89-4.6 16.82-6.44 25.37-1.83 8.66-3.37 17.38-4.38 26.08-1.01 8.69-1.71 17.44-1.43 25.96.25 8.5 1.17 16.92 3.64 24.47l.12.37a8.33 8.33 0 0 1-5.31 10.5 8.33 8.33 0 0 1-10.01-4.14c-4.78-9.43-7.3-19.26-9.1-29-1.81-9.77-2.48-19.47-2.82-29.14-.34-9.68-.11-19.29.45-28.87.6-9.68 1.38-18.91 2.87-29 1.35-9.11 9.82-15.4 18.93-14.06s15.4 9.82 14.06 18.93c-.12.81-.3 1.61-.53 2.38l-.05.16z" class="Z"/><g class="c"><use xlink:href="#C"/><use xlink:href="#C"/></g><g class="b Y"><path d="m1393.49,2128.33c-26.07,19.9-43.13,45.22-43.11,66.85.04,42.42,29.18-28.23,94.19-61.47,37.85-19.35-.18-44.24-51.08-5.38"/></g><path d="m1689.45,2142.24l-22.48,47.7c-86.76,20.44-101.88,94.49-105.04,175.26-4.45,113.1,14.63,239.38-106.7,249.93-79.65,6.9-132.59-39.23-162.13-105.96,35.11,30.16,93.57,63.44,161.17,33.44,100.76-44.75,23.31-241.25,107.66-346.12,34.61-43.05,110.69-64.66,127.52-54.27" class="d"/><use xlink:href="#D" class="a"/><path d="m1561.92,2365.2c-4.44,113.1,14.63,239.38-106.7,249.93-118.79,10.3-178.21-97.4-189.02-215.44,32.24-28.75,77.04-51.15,133.84-50.19,92.37,1.58,130.51,36.19,161.88,15.71" class="Y"/><use xlink:href="#D" class="a"/><path d="M1685.07 2149.32c-15.14-5.25-29.47-11.41-43.72-17.48l-42.38-18.11c-28.19-11.67-57.4-20.43-86.86-24.35-29.4-3.86-59.13-2.57-86.41 6.13-27.36 8.48-51.71 24.56-71.51 45.57-19.84 21.03-35.01 46.89-46.08 74.57-11.11 27.74-18.22 57.36-22.21 87.46-4.08 30.1-5.03 60.66-2.69 90.93 2.36 30.24 7.96 60.23 17.7 88.47 9.8 28.13 23.93 54.69 43.52 75.46 19.45 20.84 44.65 34.93 72.44 39.32a145.46 145.46 0 0 0 42.51.54c3.57-.3 6.91-1.16 10.38-1.7 3.3-.89 6.76-1.48 9.89-2.65 6.5-1.93 12.47-4.7 17.97-8 11.09-6.52 19.67-16.11 26.14-27.76 6.43-11.68 10.53-25.42 13.26-39.79 5.38-28.89 5.73-59.98 6.17-91.36.37-31.45-.01-63.57 3.44-96.32 1.75-16.38 4.3-32.93 8.96-49.4 2.3-8.23 5.02-16.45 8.51-24.49 3.44-8.04 7.43-16.01 12.48-23.46 4.98-7.44 10.67-14.58 17.4-20.65 6.63-6.13 13.81-11.73 21.7-15.92 15.55-8.77 32.65-13.35 49.37-14.51a8.42 8.42 0 0 1 8.98 7.82c.25 3.59-1.8 6.83-4.89 8.24l-.27.12c-13.94 6.34-26.9 13.08-37.76 21.82l-4.02 3.28-3.76 3.53c-1.32 1.09-2.44 2.39-3.63 3.6-1.18 1.23-2.4 2.4-3.44 3.75-4.49 5.09-8.32 10.71-11.88 16.55-14.29 23.53-19.94 53.11-22.79 83.16-2.6 30.27-2.68 61.51-3.05 93.29-.44 31.78-1.06 64.31-7.64 97.64-3.39 16.6-8.49 33.57-17.44 49.59-8.83 15.95-22.16 30.7-38.5 40.13-8.07 4.78-16.63 8.58-25.3 11.13-4.32 1.5-8.69 2.29-13.04 3.38-4.34.71-8.72 1.7-13.04 2.07-17.21 2.09-34.61 2.07-52.04-.7-17.36-2.76-34.47-8.47-50.04-16.94-15.59-8.43-29.58-19.51-41.54-32.11-24.01-25.33-40.08-55.99-51.24-87.37-11.13-31.51-17.42-64.18-20.24-96.95-2.77-32.78-2.07-65.82 2.2-98.42 4.29-32.58 11.95-64.98 24.33-96.02 12.35-30.96 29.55-60.77 53.15-85.88 23.36-25.2 53.88-44.65 87.14-54.61 33.26-10.23 68.29-11.16 101.43-6.47 33.25 4.77 65.03 14.78 95.12 27.56 15.06 6.39 29.59 13.86 43.33 22.55 13.73 8.67 26.83 18.31 38.64 29.62a8.49 8.49 0 0 1 .25 12.01c-2.37 2.47-5.88 3.2-8.91 2.16l-.08-.03z" class="Z"/><path d="M2786.53 2929.25c-106.5 23.39-165.95-51.69-194.46-124.15-8.72-22.27-6.23-77.28-9.26-126.65-2.95-47.66-11.02-90.08-39.35-92.58l-49.41-44.83-209.62-190.18-242.82-220.34c175.3-88.72 332.32-80.41 332.32-80.41l7.69.46c159.81 11.05 255.16 80.86 311.8 155.07 7.27 9.52 13.92 19.11 19.94 28.67q0 0 .04.09c23.02 36.31 37.56 72 46.71 100.72 11.8 37.15 14.46 62.62 14.46 62.62 5.95 5.24 11.38 10.76 16.29 16.54 70.68 81.81 49.07 213.4 44.04 285.58-1.04 14.25-1.41 26.18-.3 34.94 21.65 37.81 34.57 71.47 36.86 99.93 3.99 47.58-21.52 80.61-84.93 94.53" class="c"/><path d="M2790.85 2414.27c-17.04-7.15-46.13-15.46-82.15-10.48-52.35 7.23 46.44-10.28 51.4-68.68 11.8 37.15 14.46 62.62 14.46 62.62 5.95 5.23 11.38 10.76 16.29 16.54m-4.32 514.98c-106.5 23.39-165.95-51.69-194.46-124.15-8.72-22.27-6.23-77.28-9.26-126.65-2.95-47.66-11.02-90.08-39.35-92.58l35.26 11s-69.75-137.92-10.31-147.57c31.77-5.16 128.3-50.63 94.95-24.02-91.4 72.96 74.24 163.82 18.96 320.15-49.2 139.07 100.47 161.47 189.14 89.29 3.99 47.58-21.52 80.61-84.93 94.53" class="d"/><path d="M2869.92 2863.07l-.87 3.57-1 3.45c-4.57 14.3-13.34 26.51-26.68 36.32-1.66 1.33-3.4 2.53-5.24 3.69-2.32 1.5-4.77 2.95-7.35 4.32-2.16 1.17-4.41 2.29-6.77 3.33-10.14 4.7-21.94 8.56-35.48 11.51-106.5 23.39-165.96-51.69-194.46-124.15-8.73-22.28-6.23-77.28-9.27-126.65 24.97 15.5 62.29 34.45 107.08 44.05-2.24 7.44-4.77 15.08-7.56 22.93-49.2 139.08 100.47 161.47 189.14 89.3.83 10.14.37 19.57-1.54 28.34" class="a"/><path d="m2786.52,2929.25c-106.5,23.39-165.95-51.69-194.46-124.15-8.72-22.27-6.23-77.28-9.26-126.65,31.54,19.57,82.81,44.67,143.97,49.45,45.54,3.57,82.35-11.59,108.12-28.05-1.04,14.25-1.41,26.18-.3,34.94,57.84,101.09,53.23,172.23-48.07,194.46" class="Y"/><path d="M2869.92 2863.07l-.87 3.57-1 3.45c-4.57 14.3-13.34 26.51-26.68 36.32-1.66 1.33-3.4 2.53-5.24 3.69-2.32 1.5-4.77 2.95-7.35 4.32-2.16 1.17-4.41 2.29-6.77 3.33-10.14 4.7-21.94 8.56-35.48 11.51-106.5 23.39-165.96-51.69-194.46-124.15-8.73-22.28-6.23-77.28-9.27-126.65 24.97 15.5 62.29 34.45 107.08 44.05-2.24 7.44-4.77 15.08-7.56 22.93-49.2 139.08 100.47 161.47 189.14 89.3.87 10.09.37 19.57-1.54 28.34" class="a"/><path d="M2284.41 2350.86l-155.96-112.79-86.86-107.55c175.3-88.72 332.32-80.41 332.32-80.41l7.69.46c159.81 11.06 255.16 80.86 311.8 155.07 7.27 9.52 13.92 19.11 19.94 28.67q0 0 .04.09c32.08 122.95-428.97 116.46-428.97 116.46" class="Y"/><path d="M2544.92 2569.34c6.01.51 12.35 2.43 17.75 5.59 5.44 3.13 9.85 7.26 13.27 11.5 6.82 8.58 10.38 17.36 13.21 25.77 5.38 16.88 7.42 33.03 8.99 48.97 2.89 31.79 2.66 62.88 3.87 93.08.31 7.52.71 14.97 1.38 22.15.66 7.13 1.64 14.25 3.19 19.74.21.61.39 1.32.59 1.87.2.54.36 1.06.77 2.02l2.06 5.07c1.45 3.34 2.85 6.71 4.42 9.99 3.04 6.6 6.32 13.08 9.89 19.34 14.16 25.06 32.62 47.49 55.55 62.46 11.43 7.47 23.9 13.03 37.02 16.3 13.1 3.36 26.85 4.33 40.68 3.5 13.78-.95 27.9-3.76 41.35-7.85 13.28-4.2 25.65-9.98 35.28-17.82 9.55-7.91 16.02-17.75 18.96-29.44 3.08-11.65 2.46-25.05-.07-38.51-2.72-13.51-7.28-27.15-13.05-40.51-5.73-13.39-12.49-26.56-19.87-39.49l-.07-.13a16.4 16.4 0 0 1-1.99-6.05c-1.08-9.19-.85-17.08-.59-24.93.32-7.8.89-15.36 1.49-22.84l3.76-44.19c2.25-29.14 3.47-58.04 1.72-86.47-1.73-28.37-6.44-56.32-16.13-81.97-4.87-12.79-10.99-24.94-18.44-36.11-7.47-11.16-16.35-21.25-26.35-30.15h0c-3.12-2.8-4.97-6.49-5.48-10.34l-.05-.4c-.22-1.69-.6-4.13-.97-6.26l-1.24-6.67c-.89-4.46-1.88-8.94-2.96-13.41-2.16-8.93-4.59-17.84-7.32-26.66-5.45-17.65-12.06-34.96-19.77-51.72-15.48-33.49-34.87-65.13-58.68-93.02-47.43-56.04-112.1-95.98-183.24-116.31-35.53-10.32-72.56-16.18-109.85-18.62-4.03-.29-8.84-.36-13.39-.4-4.61-.04-9.27.03-13.92.13-9.32.23-18.68.69-28.04 1.38-18.71 1.42-37.44 3.42-56.08 6.18-74.57 11.16-147.81 32.68-217.24 63.88h-.02c-4.19 1.89-9.12.02-11-4.17-1.77-3.95-.18-8.57 3.52-10.67 67.91-38.14 142.64-64.68 219.79-78.86 19.29-3.55 38.75-6.36 58.36-8.2a602.65 602.65 0 0 1 29.54-2.12l14.91-.48c5.06-.06 9.89-.14 15.44.14 39.47 2.11 78.94 7.84 117.43 18.52 38.43 10.68 75.87 26.29 110.14 47.53 34.28 21.18 65.11 48.04 91.11 78.77 25.99 30.75 47.47 65.17 63.49 101.83a457.05 457.05 0 0 1 20.56 56.29c2.79 9.6 5.35 19.27 7.42 29.1 1.05 4.91 2.01 9.84 2.86 14.83l1.2 7.55c.38 2.62.69 4.94 1.01 8.02l-5.53-10.74h0c12.14 10.78 22.97 23.11 31.97 36.57 9 13.47 16.25 27.95 21.92 42.84 11.26 29.87 16.34 61.04 18.22 91.72 1.88 30.73.54 61.16-1.76 91.06l-3.77 44.34c-.59 7.27-1.12 14.48-1.41 21.49-.27 6.93-.33 13.9.35 19.43l-2.07-6.17c7.87 13.79 15.21 28.03 21.59 42.94 6.4 14.88 11.76 30.55 15.11 47.23 3.11 16.67 4.35 34.77-.36 53.06-2.3 9.07-6.1 18-11.3 25.99-5.18 8.01-11.67 15.03-18.75 20.9-14.33 11.61-30.49 18.78-46.46 23.87-15.99 4.86-32.23 8.11-49.16 9.3-16.86 1.02-34.19-.16-50.92-4.44-16.75-4.17-32.77-11.33-47.08-20.7-28.79-18.86-50.27-45.6-66.3-73.93-4.05-7.11-7.74-14.37-11.13-21.74-1.74-3.67-3.31-7.4-4.91-11.12l-2.29-5.62c-.34-.81-.82-2.11-1.28-3.38-.46-1.26-.77-2.41-1.15-3.63-2.58-9.35-3.5-17.58-4.32-25.75-.76-8.14-1.18-16.06-1.5-23.91-1.23-31.29-1.05-61.84-3.76-91.37-1.39-14.64-3.45-29.21-7.48-41.69-1.99-6.15-4.62-11.76-7.48-15.22-1.41-1.74-2.78-2.88-4.01-3.59-1.25-.71-2.43-1.11-4.08-1.28l-.17-.02a16.62 16.62 0 0 1-14.83-18.23c.93-9.03 8.93-15.62 17.94-14.86" class="Z"/><path d="m3555.76,3286.93h-761.09c-147.59,0-312.51,18.28-323.52-171.98-12.96-224.29,138.99-477.01-112.98-510.21l-2.53-104.5-1.66-67.15,210.5,22.02s109.45,43.01,135.33,149.63c45,185.03-83.52,396.9-18.58,488.35,39.19,55.18,235.43,15.42,444.27-13.8,204.18-28.46,420.41-46.87,513.49,43.46,17.11,16.62,29.09,33.66,36.02,50.19,25.3,60.42-16.41,113.97-119.25,113.97" class="c"/><g class="b Y"><path d="m2550.32,2508.4c-11.73,19.55,59.83,48.15,71.61,174.27,9.76,104.49,36.22,68.7,43.74-13.19,10.99-119.81-103.62-180.63-115.35-161.07"/></g><path d="m3555.76,3286.93h-761.09c-147.59,0-312.51,18.28-323.52-171.98-12.96-224.29,138.99-477.01-112.98-510.21l-2.53-104.5,7.14-58.32c53.11,31.76,67.01,62.33,89.77,130.75,18.54,55.73,105.57,83.82,98.75,198.22-12.99,217.7-43.38,392.16,66.49,443.85,56.09,26.43,232.64,19.32,433.08,20.53,289.49,1.75,574.32,35.94,624.14-62.33,25.3,60.42-16.41,113.97-119.25,113.97" class="d"/><use xlink:href="#E" class="a"/><path d="m3555.75,3286.93h-431.01c-5.3-38.19-19.99-11.7-28.76-26.46-8.07-13.57,14.3-58.3,14.3-76.13,0-19.24-23.51,6.7-29.34-11.12-5.86-17.97,39.88-78.16,44.54-93.92,204.19-28.46,420.42-46.87,513.49,43.46,79.61,77.24,47.78,164.17-83.22,164.17" class="Y"/><use xlink:href="#E" class="a"/><path d="M2566.23 2447.38c19.89 6.37 37.54 15.67 54.74 26.73 8.47 5.62 16.72 11.67 24.57 18.3 7.79 6.67 15.24 13.84 22.24 21.48 7.04 7.62 13.32 15.99 19.18 24.66 5.84 8.68 11.16 17.82 15.42 27.48 4.38 9.59 8.09 19.53 10.86 29.74 2.91 10.17 4.87 19.98 6.56 30.1 6.75 40.28 6.33 80.95 2.58 120.59-3.8 39.71-11.08 78.57-18.9 116.84-7.75 38.24-16.45 76.05-21.57 113.38-2.48 18.62-4.07 37.18-3.07 54.87.93 17.66 4.65 34.38 12.75 47.55.47.84 1.06 1.61 1.58 2.42.53.81 1.09 1.69 1.46 2.09.76 1.07 1.76 2.06 2.83 3.05 2.16 1.98 4.95 3.83 8.2 5.47 6.51 3.27 14.61 5.61 23.1 7.25 17.14 3.21 35.84 3.94 54.57 3.74 37.62-.53 75.95-4.62 114.19-9.31 153.23-19.47 306.76-50.46 464.59-55.72 39.45-1.12 79.22-.41 119.11 4.22 39.76 4.79 80.15 13.24 118.15 31.62 18.86 9.27 37.08 21.27 52.54 36.57 15.01 14.79 28.68 31.94 38.02 52.65 4.63 10.34 8.04 21.65 9.29 33.67 1.25 11.99.15 24.72-3.87 36.67-3.99 11.97-10.87 22.84-19.24 31.63-8.37 8.83-18.1 15.66-28.16 20.97-20.21 10.6-41.56 15.44-62.42 17.89-10.45 1.15-20.88 1.66-31.2 1.67h-29.15l-116.61-.03-233.21-.05-233.22-.05-116.61-.02c-19.49.02-38.82-.07-58.13.13l-58.62.27c-19.71-.17-39.59-.76-59.65-2.44-20.04-1.7-40.33-4.49-60.53-9.64-20.14-5.19-40.37-12.79-58.9-24.48-18.54-11.57-34.94-27.53-46.85-46.05-12.04-18.49-19.67-39.02-24.4-59.5-4.74-20.46-6.59-41.37-7.08-61.38-1.15-40.3 2.48-80.03 7.55-119.07 5.11-39.05 11.94-77.48 17.73-115.6 5.69-38.04 10.72-76.07 9.53-112.81-.71-18.28-3.14-36.19-8.63-52.48-5.45-16.3-14.14-30.74-26.16-42.24-11.96-11.55-27.08-20.25-43.73-26.39-16.57-6.32-34.64-10.03-52.94-12.64l-.27-.04c-9.09-1.29-15.4-9.71-14.11-18.8s9.64-15.41 18.73-14.12c20.14 2.78 40.45 6.76 60.28 14.19 19.78 7.2 39.27 17.98 55.4 33.39 16.23 15.3 28.12 35.14 35.03 55.65 7.02 20.57 9.78 41.6 10.69 62.1 1.48 41.08-3.78 80.54-9.34 119.31l-17.1 114.99c-4.77 38.02-7.99 76-6.74 113.46.55 18.82 2.33 36.82 6.44 54.24 4.08 17.31 10.41 33.71 19.69 47.8 9.23 14.12 21.37 25.87 35.83 34.84 14.43 9.02 31.02 15.33 48.49 19.72 35.09 8.76 73.13 10.47 111.35 10.84l57.98-.3 58.47-.16 116.61-.02 233.22-.04 233.21-.05 116.61-.03h29.15c9.12-.02 18.13-.47 26.99-1.45 17.63-2.03 34.82-6.24 49.1-13.81 14.33-7.47 25.06-18.4 29.33-31.37 4.4-12.94 2.53-28.36-4.13-43.15-6.6-14.83-17.34-28.83-29.95-41.26-12.18-12.11-26.77-21.87-42.73-29.79-32.1-15.71-68.88-23.85-106.08-28.38-37.35-4.44-75.52-5.27-113.75-4.28-76.55 2.11-153.37 11.17-230.08 21.61l-231.18 32.64c-38.9 4.65-78.02 8.78-118.17 9.27-20.09.12-40.45-.55-61.56-4.52-10.55-2.11-21.36-5.01-32.24-10.47-5.42-2.75-10.87-6.24-15.88-10.81-2.49-2.3-4.91-4.8-7.03-7.65-1.18-1.48-1.92-2.66-2.73-3.87-.8-1.23-1.66-2.43-2.38-3.69-6.06-10.03-10.3-20.85-12.98-31.65-2.77-10.81-4.06-21.59-4.62-32.15-1.08-21.17.84-41.51 3.53-61.38 5.6-39.7 14.53-77.72 22.33-115.62 7.87-37.84 15-75.51 18.73-113.21 3.69-37.64 4.09-75.41-1.92-111.91-1.45-9.05-3.39-18.31-5.61-26.89-2.15-8.59-5.11-16.98-8.67-25.12-6.96-16.35-16.43-31.74-27.73-45.93-5.63-7.12-11.74-13.92-18.26-20.39-6.47-6.52-13.3-12.78-20.51-18.63-7.17-5.91-14.62-11.55-22.36-16.82-3.86-2.66-7.78-5.23-11.77-7.68-3.91-2.46-8.11-4.96-11.88-6.98l-.39-.21a8.32 8.32 0 0 1-3.39-11.27c1.93-3.59 6.12-5.19 9.87-3.99" class="Z"/><path d="M2459.19 2824.59c-1.33 66.93-59.04 109.86-137.24 106.45-116.05-5.03-202.98-101.59-204.43-242.08v-57.54c.96-88.05 6.32-136.74 8.68-187.27l.25-5.69 218.52-13.17c89.54 71.97 69.18 206.14 72.63 270.29.42 8.52 1.29 15.84 2.9 21.57 27.72 39.55 39.39 76.12 38.69 107.45" class="c"/><path d="M2459.19 2824.59c-1.33 66.93-59.04 109.86-137.24 106.45-116.05-5.03-202.98-101.59-204.43-242.08v-57.54c.96-88.05 6.32-136.74 8.68-187.27 19.85 10.97 121.05 3.61 108.82 10.97-98.5 59.27-56.02 104.94-66.97 198.96-24.19 207.64 191.7 274.19 291.14 170.52" class="d"/><path d="M2459.19 2824.59c-.09 4.03-.37 7.93-.83 11.75.04.05.04.12-.04.17-.21 1.83-.5 3.66-.79 5.45 0 .12 0 .25-.08.37-.33 1.78-.71 3.57-1.12 5.36-.46 1.83-.91 3.61-1.45 5.4-.5 1.75-1.08 3.49-1.66 5.19 0 .09-.04.17-.12.25-.58 1.66-1.2 3.32-1.91 4.94-.71 1.67-1.45 3.32-2.24 4.95-1.58 3.2-3.28 6.31-5.15 9.3-.12.21-.25.42-.42.62-.87 1.38-1.78 2.7-2.74 3.99-.96 1.37-1.99 2.75-3.07 4.08-.21.33-.46.66-.75.95-.91 1.17-1.87 2.29-2.87 3.37-.04.08-.12.17-.25.25a64.59 64.59 0 0 1-3.28 3.53c-.33.38-.71.71-1.08 1.04-.91.92-1.83 1.79-2.78 2.7-.33.3-.67.58-1.04.91-1.12 1-2.24 1.96-3.45 2.91-1.41 1.17-2.83 2.29-4.32 3.37-.08.04-.17.12-.25.17-1.37 1.04-2.78 1.99-4.2 2.95-.33.21-.66.45-1 .66-1.29.83-2.58 1.67-3.91 2.41-1.95 1.16-3.95 2.29-5.98 3.33-1.37.75-2.78 1.45-4.2 2.12-3.32 1.58-6.73 3.03-10.26 4.36a124.48 124.48 0 0 1-5.73 1.99c-1.17.42-2.33.75-3.49 1.08-3.57 1.08-7.27 2.03-11.02 2.82-3.32.75-6.69 1.38-10.13 1.91-11.26 1.71-23.19 2.33-35.61 1.79-116.05-5.03-202.98-101.59-204.43-242.08v-57.54c11.63 21.73 27.59 44.58 48.78 61.16 5.03 177.01 199.9 228.95 292.89 132.01" class="a"/><path d="M2321.94 2931.04c-116.05-5.03-202.98-101.59-204.43-242.08v-57.54c16.04 30 40.35 62.07 75.21 76.91 72.92 31.08 162.17 27.71 224.88-12.76.41 8.52 1.28 15.84 2.9 21.57 86.92 124.07 16.25 218.89-98.56 213.9" class="Y"/><path d="M2459.19 2824.59c-.04 4.03-.29 7.93-.83 11.75.04.05.04.12-.04.17-.21 1.83-.5 3.66-.79 5.45 0 .12 0 .25-.08.37-.33 1.78-.71 3.57-1.12 5.36-.46 1.83-.91 3.61-1.45 5.4-.5 1.75-1.08 3.49-1.66 5.19 0 .09-.04.17-.12.25-.58 1.66-1.2 3.32-1.91 4.94-.71 1.67-1.45 3.32-2.24 4.95a96.56 96.56 0 0 1-5.15 9.3c-.12.21-.25.42-.42.62-.87 1.38-1.78 2.7-2.74 3.99-.96 1.37-1.99 2.75-3.07 4.08-.21.33-.46.66-.75.95-.91 1.17-1.87 2.29-2.87 3.37-.04.08-.12.17-.25.25a64.59 64.59 0 0 1-3.28 3.53c-.33.38-.71.71-1.08 1.04-.91.92-1.83 1.79-2.78 2.7-.33.3-.67.58-1.04.91-1.12 1-2.24 1.96-3.45 2.91-1.41 1.17-2.83 2.29-4.32 3.37-.08.04-.17.12-.25.17-1.37 1.04-2.78 1.99-4.2 2.95-.33.21-.66.45-1 .66-1.29.83-2.58 1.67-3.91 2.41-1.95 1.16-3.95 2.29-5.98 3.33-1.37.75-2.78 1.45-4.2 2.12-3.32 1.58-6.73 3.03-10.26 4.36a124.48 124.48 0 0 1-5.73 1.99c-1.17.42-2.33.75-3.49 1.08-3.57 1.08-7.27 2.03-11.02 2.82-3.32.75-6.69 1.38-10.13 1.91-11.26 1.71-23.19 2.33-35.61 1.79-116.05-5.03-202.98-101.59-204.43-242.08v-57.54c11.63 21.73 27.59 44.58 48.78 61.16 5.03 177.01 199.9 228.95 292.89 132.01" class="a"/><path d="M2143.04 2439.14l-6.66 114.1c-1.79 37.72-2.48 75.48-2.4 113.32l.09 14.19.05 7.1c.03 2.35.2 4.54.3 6.81.58 9.01.49 18.11 1.98 27l1.72 13.4c.66 4.44 1.81 8.78 2.68 13.18 1.03 4.35 1.64 8.84 3.01 13.09l3.89 12.81c.68 2.13 1.23 4.3 2 6.39l2.5 6.18 4.97 12.39 6.04 11.83 3.01 5.92c1.03 1.96 2.34 3.75 3.48 5.63l7.09 11.17c2.54 3.59 5.37 6.96 8.03 10.46l4.04 5.21c1.39 1.7 3 3.2 4.48 4.81l9.04 9.54 9.93 8.55c1.67 1.4 3.27 2.91 4.99 4.24l5.38 3.73c3.61 2.43 7.06 5.14 10.8 7.37l11.44 6.32c15.56 7.75 32.01 14.05 49.29 16.95 34.3 6.82 71.09 4.65 100.5-10.68 14.68-7.53 27.03-18.51 35.32-31.94 8.53-13.34 12.37-29.26 12.63-45.61-.09-8.21-.99-16.52-2.68-24.82-1.94-8.26-4.22-16.54-7.57-24.6-6.39-16.19-15.2-31.77-25.52-46.51l-.31-.44c-1-1.42-1.69-3.02-2.08-4.62v-.02c-2.5-8.35-3.36-15.52-4.04-22.63-.64-7.09-.93-13.82-1.09-20.54-.31-13.35-.25-26.34-.28-39.2-.09-25.68-.75-50.86-3.68-75.45-3.11-24.5-8.38-48.43-17.98-70.29-4.66-10.99-10.18-21.47-16.44-31.68-6.31-10.19-13.48-19.94-21.24-30.03l-.2-.25a8.48 8.48 0 0 1 1.56-11.89c2.68-2.07 6.22-2.26 9.05-.82 12.41 6.39 23.58 15.3 33.22 25.67 9.73 10.32 17.8 22.25 24.07 34.88 12.44 25.38 19.91 52.55 23.74 79.58 3.97 27.04 4.73 54.04 4.45 80.39l-.73 38.89c-.01 6.29-.17 12.58.09 18.47.24 5.85.56 11.73 1.51 15.95h0l-2.39-5.04c11.5 16.43 21.63 34.17 29.22 53.4 3.94 9.53 6.81 19.65 9.17 29.91 2.13 10.36 3.32 21.03 3.4 31.85-.22 21.61-5.6 44.09-17.63 62.98-5.88 9.46-13.12 18.01-21.28 25.4-8.17 7.4-17.34 13.45-26.88 18.47-9.54 5.04-19.57 8.91-29.78 11.66-10.19 2.84-20.56 4.73-30.93 5.63-10.37 1.04-20.75 1.15-31 .49-10.2-1.03-20.47-1.5-30.52-3.91-20.29-3.49-39.84-10.84-58.23-20.06l-13.54-7.51c-4.42-2.65-8.53-5.79-12.79-8.68l-6.33-4.44c-2.04-1.57-3.93-3.32-5.9-4.97l-11.67-10.11-10.62-11.16c-1.74-1.89-3.59-3.67-5.23-5.65l-4.73-6.05c-3.11-4.07-6.38-8.02-9.33-12.2l-8.23-12.92c-1.33-2.18-2.82-4.27-4.01-6.52l-3.49-6.79-6.9-13.61-5.69-14.1-2.83-7.06c-.87-2.38-1.51-4.82-2.28-7.23l-4.4-14.5c-1.51-4.82-2.24-9.81-3.39-14.71-.99-4.93-2.24-9.83-2.99-14.78l-1.93-14.92c-1.62-9.93-1.59-19.94-2.2-29.91l-.31-7.45-.05-7.18-.09-14.35c-.09-38.29.61-76.67 2.43-114.99l6.66-113.9v-.08c.4-9.17 8.16-16.28 17.33-15.88s16.28 8.16 15.88 17.33h0z" class="Z"/><g class="b Y"><path d="m2638.06,2768.46c17.73-3.14,20.04,48.39,5.62,66.97-27.3,35.17-35.97-61.59-5.62-66.97"/></g><path d="M1451.16 2513.18c.71 9.64 2.29 19.76 4.63 29.25 2.4 9.51 5.52 18.81 10.01 26.8 4.43 7.96 10.23 14.6 16.83 17.48 3.28 1.5 6.72 2.2 10.37 2.29 3.66.09 7.58-.77 11.51-1.81l.56-.15c6.67-1.75 13.5 2.24 15.25 8.91s-2.23 13.5-8.9 15.25c-.37.1-.77.18-1.14.24-6.15 1.02-12.52 1.69-19.18.84-6.61-.83-13.26-3-19.01-6.49-5.76-3.46-10.57-8.04-14.26-12.97-3.73-4.94-6.56-10.17-8.84-15.44-4.57-10.58-6.91-21.35-8.49-32.03-1.5-10.75-2.1-21.22-1.79-32.18a6.22 6.22 0 0 1 6.4-6.05c3.22.09 5.8 2.61 6.04 5.75l.02.31zm-88.68 2.09a72.23 72.23 0 0 0-1.99 14.64c-.12 2.51.02 5.02.06 7.52l.86 7.39c1.67 9.71 5.19 18.91 10.86 26.59 1.3 1.98 3.08 3.66 4.55 5.51.81.88 1.46 1.87 2.37 2.66l2.73 2.37c1.88 1.51 3.43 3.32 5.53 4.6l6.09 4.01c1.91 1.46 4.26 2.41 6.47 3.52l6.63 3.27 14.17 5.07 1.19.43c6.5 2.32 9.88 9.47 7.56 15.97-2.33 6.49-9.47 9.88-15.97 7.55-.36-.12-.73-.28-1.06-.43l-16.14-7.57-7.72-4.73c-2.55-1.61-5.17-3.03-7.49-5.09l-7.11-5.76c-2.39-1.87-4.34-4.38-6.5-6.54l-3.14-3.37c-1.04-1.13-1.85-2.49-2.78-3.73-1.73-2.58-3.7-4.97-5.17-7.7-6.37-10.68-9.7-22.92-10.57-34.9-.26-3-.12-6-.18-8.99.22-2.97.35-5.95.78-8.88.8-5.97 2.03-11.46 4.21-17.56a6.21 6.21 0 0 1 7.94-3.76c3.02 1.08 4.7 4.26 3.95 7.32l-.15.61z" class="Z"/><path d="M838.14 2784.57l-28.54 127.11-84.31 375.25h-54.35l59.34-375.25 20.11-127.11h87.75zm473.31 502.36h-54.39l-84.26-375.25-28.55-127.11h87.71l20.11 127.11 59.38 375.25z" class="f"/><path d="M750.39 2784.57h87.75l-28.54 127.11h-79.32l20.11-127.11zm501.68 127.11h-79.27l-28.55-127.11h87.71l20.11 127.11z" class="e"/><path d="M725.28 3302.5h-54.36c-4.56 0-8.89-1.99-11.85-5.46a15.54 15.54 0 0 1-3.54-12.55l79.48-502.33c1.2-7.57 7.72-13.15 15.39-13.15h87.73a15.61 15.61 0 0 1 12.17 5.84c2.96 3.7 4.07 8.54 3.04 13.15l-112.85 502.33c-1.6 7.11-7.91 12.17-15.2 12.17zm-36.12-31.16h23.65l105.85-471.17h-54.95l-74.55 471.17zm622.27 31.16h-54.36a15.57 15.57 0 0 1-15.2-12.17L1129.03 2788c-1.04-4.62.08-9.46 3.04-13.15s7.43-5.84 12.17-5.84h87.73c7.67 0 14.19 5.57 15.39 13.15l79.47 502.33c.71 4.5-.58 9.09-3.54 12.55-2.96 3.47-7.29 5.46-11.85 5.46zm-41.89-31.16h23.65l-74.54-471.17h-54.95l105.84 471.17z" class="Z"/><path d="M1038.58 2784.57l-4.08 127.11-12.01 375.25H968.1l-12.92-375.25-4.36-127.11h87.76z" class="f"/><path d="M1038.58 2784.57l-4.08 127.11h-79.32l-4.36-127.11h87.76z" class="e"/><path d="M1022.47 3302.5h-54.36a15.58 15.58 0 0 1-15.57-15.05l-17.28-502.33a15.55 15.55 0 0 1 4.37-11.36 15.58 15.58 0 0 1 11.21-4.75h87.73c4.22 0 8.26 1.71 11.19 4.74a15.62 15.62 0 0 1 4.38 11.34l-16.1 502.33a15.58 15.58 0 0 1-15.57 15.08zm-39.3-31.16h24.21l15.1-471.17h-55.52l16.21 471.17z" class="Z"/><path d="M1119.38 2374.35h-1.72l-2.15-27.74h1.72l2.15 27.74z" class="a"/><path d="M1127.52 2480.09l4.82 62.37-1.75-.54-4.82-62.78h-.05l-8.06-104.79h1.7l8.14 105.75z" class="h"/><path d="M1117.23 2346.61l2.15 27.74h-1.75l-2.12-27.74h1.72z" class="a"/><path d="M1310.27 1978.61l-137 116.09v212.41h-33.82v-228.07l16.04-13.59 132.92-112.64 21.86 25.8z" class="Y"/><path d="M1152.75 2293.82V2085.2l142.96-120.89 4.67 5.51-140.4 118.73v205.27h-7.23z" class="j"/><path d="M1173.27 2314.9h-33.82c-4.3 0-7.79-3.49-7.79-7.79v-228.07a7.8 7.8 0 0 1 2.75-5.94l148.96-126.23c1.57-1.34 3.59-2.01 5.68-1.82a7.76 7.76 0 0 1 5.3 2.73l21.86 25.8c2.78 3.28 2.37 8.2-.91 10.98l-134.24 113.75v208.8c0 4.3-3.49 7.79-7.79 7.79zm-26.03-15.58h18.24V2094.7a7.8 7.8 0 0 1 2.75-5.94l131.05-111.05-11.79-13.91-140.26 118.86v216.67z" class="Z"/><path d="M1257 2346.63l-2.16 27.71-3.32 43.21-3.75 48.37-14.16 183.74h-171.69l-8.31-107.74-4.86-62.79-8.1-104.79-2.12-27.71H1257z" class="j"/><g class="Y"><path d="M1251.52 2417.55l-3.74 48.37c-3.62-.33-7.27-.3-10.93-.09-20.65 1.2-39.18 14.75-57.26 31.87-12.17 11.51-57.09 67.15-125.98 44.21l-4.86-62.79c15 8.44 30.37 14.38 46.12 17.83 18.28 4.03 36.52 4.03 54.72-2.04 15.79-5.27 30.37-16.5 44.42-30.66l27.42-27.71c9.56-9.76 19.65-15.71 30.08-18.99"/><path d="M1251.52 2417.55l-3.74 48.37c-3.62-.33-7.27-.3-10.93-.09-3.41.21-6.73.71-10.01 1.58-16.75 4.2-32.16 16-47.25 30.29-12.09 11.43-56.34 66.19-124.23 44.75-.59-.17-1.16-.34-1.75-.54l-4.86-62.79h.04c.58.33 1.16.66 1.75.96 14.42 7.94 29.21 13.55 44.34 16.87 18.28 4.03 36.52 4.03 54.72-2.04 15.79-5.27 30.37-16.5 44.42-30.66l27.42-27.71c2.74-2.78 5.53-5.27 8.35-7.47 7.02-5.49 14.29-9.18 21.73-11.51"/></g><use xlink:href="#F" class="a"/><path d="m1256.99,2346.61l-2.15,27.73-21.25,275.33h-171.66l-21.26-275.33h1.72l17.46,226.34c56.66,0,107.16-35.76,125.96-89.21l.46-1.32c23.33-66.32-25.89-135.81-96.19-135.81h-47.69l-2.15-27.73h216.75Z" class="h"/><use xlink:href="#F" class="a"/><path d="M1288.45 2314.59v9.47c0 12.47-10.1 22.57-22.56 22.57h-236.26a22.56 22.56 0 0 1-22.56-22.57v-9.47c0-12.47 10.1-22.57 22.56-22.57h236.26a22.56 22.56 0 0 1 22.56 22.57" class="Y"/><g class="a"><path d="m1288.45,2314.59v9.47c0,.25,0,.54-.04.79v-11.05c.04.25.04.54.04.79"/><path d="M1288.41 2313.63v11.22c-.37 12.09-10.3 21.77-22.52 21.77h-247.27c-6.36 0-11.55-5.19-11.55-11.59v-21.4c0 6.4 5.19 11.59 11.55 11.59h126.06c16.83 0 27.48-18.57 18.47-32.78l-.27-.42h103.01c12.13 0 22.02 9.6 22.52 21.61"/><path d="m1288.41,2324.85v10.18c0,6.4-5.15,11.59-11.55,11.59h-10.97c12.22,0,22.15-9.68,22.52-21.77"/></g><path d="m1265.89,2359.6h-236.27c-19.59,0-35.54-15.94-35.54-35.53v-9.48c0-19.59,15.94-35.53,35.54-35.53h236.27c19.59,0,35.53,15.94,35.53,35.53v9.48c0,19.59-15.94,35.53-35.53,35.53Zm-236.27-54.58c-5.28,0-9.57,4.29-9.57,9.56v9.48c0,5.27,4.29,9.56,9.57,9.56h236.27c5.27,0,9.56-4.29,9.56-9.56v-9.48c0-5.27-4.29-9.56-9.56-9.56h-236.27Z" class="Z"/><path d="m1257.96,2292.03h-220.43c0-16.12,6.52-30.71,17.08-41.26,10.6-10.59,25.18-17.12,41.3-17.12h103.71c32.2,0,58.34,26.14,58.34,58.38" class="Y"/><path d="m1257.96,2292.03h-101.59c18.4-11.43,36.61-30.45,20.48-58.38h22.77c32.2,0,58.34,26.14,58.34,58.38" class="a"/><path d="M1257.96 2305.02h-220.42a13 13 0 0 1-12.99-12.99c0-39.34 32-71.35 71.34-71.35h103.7c39.34 0 71.35 32.01 71.35 71.35a13 13 0 0 1-12.99 12.99zm-205.54-25.97h190.66c-5.6-18.71-22.97-32.39-43.48-32.39h-103.7c-20.51 0-37.88 13.68-43.48 32.39zm181.18 383.59h-171.68c-6.78 0-12.42-5.22-12.95-11.99l-23.4-303.04a12.96 12.96 0 0 1 3.42-9.82c2.46-2.65 5.91-4.17 9.53-4.17H1257c3.62 0 7.07 1.51 9.53 4.17a12.96 12.96 0 0 1 3.42 9.82l-23.4 303.04c-.52 6.77-6.16 11.99-12.95 11.99zm-159.66-25.97h147.64l21.39-277.07h-190.43l21.39 277.07z" class="Z"/><g class="f"><use xlink:href="#G"/><use xlink:href="#G"/></g><path d="M1425.71 2683.4c0 9.31-3.78 17.74-9.89 23.85a33.46 33.46 0 0 1-23.81 9.89H591.56c-17.67 0-33.23-13.07-34.79-30.67a33.5 33.5 0 0 1 2.77-16.74c5.28 11.8 17.07 20.03 30.83 20.03h536.71c3.53 0 6.6-2.77 6.61-6.29v-.07c0-18.61-15.08-33.74-33.74-33.74h292.06c13.75 0 25.6 8.27 30.79 20.07a21.19 21.19 0 0 1 .66 1.58l.5 1.45c.79 2.24 1.29 4.61 1.54 7.02a9.48 9.48 0 0 1 .12 1.5c.05.71.09 1.41.09 2.12" class="e"/><path d="M1391.99 2732.71H590.37c-27.19 0-49.31-22.12-49.31-49.31s22.12-49.31 49.31-49.31h801.62c27.19 0 49.31 22.12 49.31 49.31s-22.12 49.31-49.31 49.31zm-801.62-67.45c-10 0-18.15 8.14-18.15 18.14s8.14 18.15 18.15 18.15h801.62c10 0 18.15-8.14 18.15-18.15s-8.14-18.14-18.15-18.14H590.37z" class="Z"/><path d="M1265.25 2784.58H717.11c-37.25 0-67.45-30.2-67.45-67.46h683.05c0 37.25-30.2 67.46-67.46 67.46" class="e"/><path d="M1265.25 2800.17H717.11c-45.79 0-83.03-37.25-83.03-83.04 0-8.61 6.98-15.58 15.58-15.58h683.05c8.61 0 15.58 6.98 15.58 15.58 0 45.79-37.25 83.04-83.04 83.04zm-597.62-67.46c6.63 21.02 26.31 36.3 49.48 36.3h548.14c23.18 0 42.86-15.28 49.49-36.3H667.63z" class="Z"/><path d="m711.69,2232.6c-35.52-22.57-13.72-53.8,5.76-50.04-5.78-5.1.25-16.09,7.57-9.25-13.54-28.74,15.71-46.71,31.26-22.44-2.35-10.69,6.7-19.36,15.42-11.51-21.98-58.84,70.19-89.82,75.33-22.68,12.26-32.72,47.26-28.51,51.84,4.97,1.4-9.13,5.14-17.21,15.09-17.12,9.29.09,15.25,5.57,16.65,15.76,3.25-52.77,85.01-41.58,78.54,3.89,40.77-51.69,96.42,11.21,44.5,46.29,23.62-7.92,73.72,33.38,14.63,72.64-321.82,213.87-377.13,16.77-354.69-9.12" class="k"/><g class="b Y"><path d="m784.52,2129.95c-.26.51-4.65-26.58,10.9-34.19,19.44-9.51,35.14,7.51,35.14,13.65s-28.45-13.85-46.04,20.54"/></g><g class="b Y"><path d="m947.44,2114.81c-.49.3,1.69-13.68,18.9-15.58,25.08-2.78,30.02,20.89,26.48,25.91-1.53,2.17-10.58-31.49-45.38-10.33"/></g><g class="b Y"><path d="m1026.06,2123.03c-.55.02,9.66-9.37,23.55-3.64,20.24,8.34,9.32,27.79,3.62,30.02-2.47.96,11.56-27.54-27.17-26.37"/></g><g class="b Y"><path d="m723.62,2221.15c.22.36-16.28-5.39-16.59-16.71-.31-11.33,17.51-11.25,21.39-8.48,3.98,2.84-19.07,2.33-4.8,25.19"/></g><path d="M822.94 2352.51c-51.49 0-81.85-20.77-99-40.27-21.42-24.35-28.7-55.97-23.42-74.79-18.81-14.6-20.75-32.31-15.84-44.68 3.78-9.5 11.6-16.56 20.54-19.46.94-3.95 3.18-7.34 6.22-9.6-1.74-14.41 4.9-26.04 14.43-31.31 7-3.87 16.42-4.69 25.23-.26 1.33-1.47 2.88-2.74 4.63-3.76.8-.47 1.62-.86 2.45-1.2-1.64-15.94 3.53-30.85 15.04-42.4 14.76-14.81 36.7-20.33 54.63-13.72 10.26 3.79 18.24 11.2 23.35 21.34 7.42-6.34 16.46-9.42 25.9-8.39 9.51 1.06 17.69 6.13 23.48 14 5.01-3.35 10.3-3.85 13.48-3.89 4.73.05 9.02 1.09 12.71 3 4.46-7.59 11.07-13.57 19.56-17.52 17.48-8.13 40.61-5.72 56.23 5.88 6.38 4.74 11.12 10.69 14.01 17.4 11.53-7.9 24.26-10.59 36.67-7.47 16.05 4.05 28.28 17.32 31.17 33.82 2.06 11.76-.75 23.29-7.87 33.44 10.71 4.52 20.51 13.01 25.71 23.65 5.18 10.59 12.8 38.16-28.23 65.43-115.04 76.45-195.42 100.74-251.09 100.74zm-104.2-127.54a10.31 10.31 0 0 1 1.65 1.17 10.38 10.38 0 0 1 1.04 14.65c-3.91 4.57-3.61 33.18 18.27 57.91 25.18 28.46 107.04 79.16 322.83-64.25 11.32-7.52 29.1-22.58 21.07-38.99-5.59-11.42-20.13-17.34-26.65-15.15-4.93 1.65-10.32-.59-12.62-5.25s-.81-10.3 3.5-13.21c12.05-8.14 17.93-18.72 16.12-29.03-1.46-8.31-7.8-15.24-15.79-17.26-10.23-2.57-21.18 2.77-30.86 15.04-2.91 3.69-7.93 4.96-12.25 3.12-4.32-1.85-6.86-6.36-6.19-11.01 1.2-8.46-1.72-15.37-8.68-20.54-9.62-7.14-24.38-8.7-35.09-3.73-8.7 4.05-13.45 11.61-14.12 22.48-.33 5.33-4.64 9.54-9.98 9.74-5.34.26-9.96-3.67-10.68-8.96-.86-6.24-3.44-6.77-6.46-6.79-1.2-.04-3.44-.03-4.73 8.31-.78 5.1-5.38 8.89-10.35 8.81-5.16-.04-9.51-3.87-10.21-8.98-1.43-10.39-6.83-17.61-13.78-18.38-7.18-.79-14.13 5.19-18.05 15.65a10.39 10.39 0 0 1-11.19 6.64c-4.83-.69-8.53-4.63-8.9-9.49-1.08-14.14-6.62-23.44-16-26.9-10.27-3.8-23.72-.14-32.71 8.89-5.45 5.47-13.55 17.46-6.53 36.26 1.67 4.48.07 9.53-3.89 12.22a10.4 10.4 0 0 1-11.19.32c.02.12.04.25.07.38a10.4 10.4 0 0 1-6.17 11.83c-4.65 1.92-10.01.24-12.72-3.99-3.58-5.6-8.03-7.86-11.59-5.88-4 2.21-5.8 9.2-1.52 18.29 2.12 4.51.75 9.89-3.28 12.82a10.26 10.26 0 0 1-3.33 1.61c-.1 1.3-.44 2.6-1.04 3.83-2.07 4.2-6.69 6.51-11.29 5.62-4.28-.83-9.47 2.61-11.48 7.68-3.02 7.59 1.81 16.12 13.26 23.39.54.34 1.03.72 1.48 1.14zm5.58-50.2z" class="l"/><path d="m795.51,2198.81c-15.84,11.75-41.7-8.2-31.03-28.41,7.67-14.53,27.11-12.74,33.47-4.27-.98-13.53,4.48-36.16,31.4-36.18,29.43-.02,43.55,43.71,11.06,60.04" fill="#f8b03c"/><path d="m804.66,2199.58c-12.37,9.18-32.55-6.4-24.22-22.18,5.99-11.34,21.16-9.94,26.14-3.33-.77-10.56,3.49-28.23,24.51-28.24,22.98-.01,34,34.12,8.64,46.87" class="k"/><path d="M807.14 2202.91c-2.95 2.83-7.18 4.53-11.42 4.8-4.25.27-8.47-.77-12.16-2.72-3.66-1.99-6.92-4.87-9.32-8.61-2.39-3.69-3.97-8.41-3.66-13.23.29-4.8 1.72-9.22 4.49-13.13 2.74-3.98 7.05-7.03 11.59-8.57 4.59-1.53 9.33-1.67 13.88-.59 4.47 1.12 9.15 3.35 12.66 8.19h0l-14.93 5.6c-.64-5.66-.08-11.28 1.77-16.94 1.85-5.6 5.53-11.32 10.94-15.12 5.36-3.87 11.72-5.44 17.38-5.77 5.68-.41 12.73.77 18.04 4.16 5.47 3.22 9.64 8.05 12.33 13.39 2.68 5.34 4.09 11.35 3.49 17.35a28.81 28.81 0 0 1-6.73 16.22c-3.84 4.48-8.96 7.08-13.93 8.46a4.2 4.2 0 0 1-5.17-2.93c-.4-1.45 0-2.94.96-3.97l.49-.53c2.82-3.06 5.28-5.74 6.56-8.81 1.3-3.02 1.79-6.02 1.71-9.05-.09-6.12-3.89-12.1-8.6-14.61-.62-.25-1.2-.57-1.8-.84a17.74 17.74 0 0 1-1.91-.47c-1.37-.08-2.5-.34-4.28-.15-3.31.18-5.95 1.11-8.01 2.43-2.02 1.37-3.61 3.49-4.86 6.3-1.17 2.85-1.75 6.35-1.82 9.69a8.56 8.56 0 0 1-8.73 8.39c-2.18-.05-4.15-.9-5.63-2.26l-.56-.52h0c-.41-.08-1.59-.91-3.2-1.07-1.54-.28-3.26-.25-4.61.22-1.4.39-2.44 1.06-3.44 2.09-1 1.08-1.72 2.77-2.12 4.13-.73 2.78.73 6.7 3.95 9.55 3.3 2.7 7.49 4.01 11.68 2.26l.46-.19a4.17 4.17 0 0 1 5.46 2.24c.68 1.63.24 3.47-.96 4.62" class="l"/><path d="m1018.19,2199.83c38.62-4.4,25.7-48.16,14.45-54.3-13.87-7.57-26.49-1.54-35,11.7-.7-11.74-4.13-42.41-41.19-39.52-29.36,2.29-43.82,54.49-2.59,59.68" fill="#f8b03c"/><path d="m1023.49,2201.52c25.82-12.43,11.34-35.27.57-38.82-14.82-4.88-23.52.57-34.75,14.97-.62-10.38.15-42.12-32.62-39.57-25.96,2.02-38.75,48.19-2.29,52.77" class="k"/><path d="M1021.69 2197.78c5.9-3.86 9.99-9.03 9.81-13.71-.04-4.61-3.56-10.15-7.82-12.74-.5-.23-1-.52-1.42-.68-.45-.07-.53-.2-1.47-.37-1.51-.33-2.97-.63-4.29-.7-2.7-.19-4.78.14-6.86 1.09-4.23 1.64-9 6.81-13.78 12.12l-.72.8c-2.99 3.32-8.12 3.59-11.45.6-1.77-1.59-2.67-3.81-2.68-6.02h0c-.51-6.05-.91-10.92-2.04-15.64-1-4.69-2.94-8.49-5.35-11.07-2.35-2.62-5.62-4.23-9.95-4.81l-1.6-.26h-1.74c-1.11.03-2.44-.12-3.39-.05-1.83.07-3.66.48-5.44 1.3-7.25 3.15-13.06 12.46-13.28 21.17-.12 4.38 1.26 8.41 4.14 11.56 2.91 3.17 7.49 5.21 12.54 6.39l.12.02a4.17 4.17 0 0 1 3.12 5c-.46 2-2.3 3.32-4.28 3.22-6.26-.33-13.04-2.07-18.76-6.61-5.76-4.52-9.09-11.93-9.64-18.97-.61-7.11.9-14.13 4.12-20.31 3.22-6.16 8.07-11.77 14.7-15.48 3.3-1.85 7.06-3.12 10.94-3.61 1.89-.26 3.45-.25 5.2-.32l2.56-.05 2.67.27c7.01.58 14.98 3.61 20.54 9.38 5.56 5.72 8.38 12.85 9.79 19.33 1.43 6.49 1.61 13.13 1.6 18.53h0l-14.85-4.61c2.31-3.34 4.91-6.64 8.1-9.8 3.2-3.09 7.07-6.27 12.11-8.28 2.47-1.04 5.21-1.63 7.89-1.96 2.68-.2 5.36-.12 7.79.32 2.48.36 4.77 1 6.91 1.78.93.27 2.56 1.03 3.89 1.69 1.28.71 2.37 1.51 3.48 2.31 4.1 3.34 7.03 7.3 9.12 11.83 2.09 4.5 3.03 9.84 2.11 15.11-.89 5.31-3.87 9.97-7.41 13.06-3.52 3.28-7.53 5.11-11.46 6.65-2.14.84-4.55-.21-5.4-2.36a4.17 4.17 0 0 1 1.59-5l.2-.13z" class="l"/><path d="M1042.6 2649.3H746.15l-32.51-378.78h361.47l-32.51 378.78z" class="j"/><path d="M1069.93 2330.84l-27.32 318.46H746.15l-7.92-92.34c12.88 10.93 28.23 20.71 46.29 27.43 13.26 4.95 28 8.24 44.29 9.13 13.48.74 28.01-.17 43.67-3.14 11.46-2.17 23.52-5.46 36.21-10.01 2.61-.95 5.2-1.98 7.75-3.11 16.4-7.23 31.49-18.22 45.29-31.85 18.56-18.29 34.84-41.34 48.96-66.39 27.38-48.49 46.76-104.53 59.24-148.19" class="h"/><g class="b Y"><path d="M804.94 2436.75c1.91 60.49-8.85 110.16-24.01 110.92-15.17.77-29.01-47.65-30.92-108.15s8.84-110.16 24.01-110.92c15.17-.77 29.01 47.65 30.92 108.15"/></g><g class="h"><path d="M1075.12 2270.52l-2.24 26.05h-357l-2.23-26.05h361.47zm-246.34 323.02l2.06 55.75h-42.35l-3.98-64.88c13.3 4.92 28.03 8.24 44.28 9.13m79.91-13.16l7.75-3.09-.9 72H873.2l-.71-58.88c11.46-2.19 23.5-5.46 36.22-10.03"/><use xlink:href="#H"/><path d="M1075.13 2270.5l-2.24 26.06H766.86l-1.56-26.06h309.83z"/></g><path d="M816.92 2270.5l.94 26.06h-51l-1.56-26.06h51.62zm51.62 0h51.67l-.31 26.06h-51.04l-.32-26.06zm154.92 0l-1.57 26.06h-51l.94-26.06h51.63z" class="a"/><path d="M830.85 2649.3H788.5l-3.98-64.9-17.64-287.83-1.59-26.05h51.62l.96 26.05 10.93 296.96 2.05 55.77zm89.35-378.78l-.32 26.05-3.45 280.7-.88 72.03H873.2l-.72-58.92-3.61-293.81-.31-26.05h51.64zm103.28 0l-1.6 26.05-11.19 182.47-10.44 170.26H957.9l3.83-103.88 9.15-248.85.95-26.05h51.65z" class="Y"/><g class="a"><path d="M817.86 2296.56h-51l-1.56-26.06h51.62l.94 26.06zm102.35-26.06l-.31 26.06h-51.04l-.32-26.06h51.67zm103.25 0l-1.57 26.06h-51l.94-26.06h51.63zm-192.62 378.78h-42.35l-3.98-64.88c13.3 4.92 28.03 8.24 44.28 9.13l2.06 55.74zm85.61-71.99l-.9 72H873.2l-.71-58.88c11.46-2.19 23.5-5.46 36.22-10.03 2.6-.94 5.19-1.97 7.75-3.09"/><use xlink:href="#H"/></g><path d="M1042.61 2662.29H746.15c-6.74 0-12.36-5.16-12.94-11.88l-32.5-378.79a12.99 12.99 0 0 1 12.94-14.1h361.46a12.99 12.99 0 0 1 12.94 14.1l-32.5 378.79c-.58 6.72-6.2 11.88-12.94 11.88zm-284.54-25.97h272.62l30.27-352.81H727.79l30.28 352.81z" class="Z"/><path d="M1084.26 2270.52H704.49c-12.27 0-22.2-9.94-22.2-22.2v-3.44c0-12.26 9.94-22.2 22.2-22.2h379.77c12.26 0 22.2 9.94 22.2 22.2v3.44c0 12.26-9.94 22.2-22.2 22.2" class="Y"/><path d="M1106.46 2241.62v9.96c0 10.46-6.69 18.93-14.97 18.93H697.25c-8.27 0-14.97-8.47-14.97-18.93v-9.96c0-2.1.27-4.1.77-5.98 1.96 7.52 7.57 12.97 14.19 12.97h394.24c6.62 0 12.24-5.44 14.19-12.97.5 1.88.77 3.88.77 5.98" class="a"/><path d="M1084.26 2283.51H704.49c-19.4 0-35.19-15.79-35.19-35.19v-3.44c0-19.4 15.79-35.19 35.19-35.19h379.77c19.4 0 35.19 15.79 35.19 35.19v3.44c0 19.4-15.79 35.19-35.19 35.19zm-379.77-47.85a9.24 9.24 0 0 0-9.22 9.22v3.44a9.24 9.24 0 0 0 9.22 9.22h379.77a9.24 9.24 0 0 0 9.22-9.22v-3.44a9.24 9.24 0 0 0-9.22-9.22H704.49z" class="Z"/><g class="b Y"><path d="m820.53,2162.34c-.36.09,4.72-7.62,13.7-4.38,14.09,5.09,8.09,18.55,4.39,20.5-1.6.84,4.49-21.3-18.09-16.12"/></g><g class="b Y"><path d="m953.16,2154.61c-.37.09,4.72-7.62,13.7-4.38,14.09,5.09,8.09,18.55,4.39,20.5-1.6.84,4.49-21.3-18.09-16.12"/></g><g class="Z"><path d="M386.02 3291.02c142.05-13.88 284.1-10.91 426.15-12.14l1278.46-4.78 1598.07 4.53c35.51 2.36 71.03 5.65 106.54 12.39-35.51 6.74-71.03 10.03-106.54 12.38l-1598.07 4.54-1278.46-4.78c-142.05-1.23-284.1 1.74-426.15-12.14h0z"/><ellipse cx="1659.47" cy="1713.02" rx="93.63" ry="108.01" transform="matrix(.997859 -.065403 .065403 .997859 -108.35 112.06)"/></g><ellipse cx="1685.82" cy="1695.46" rx="30.53" ry="38.6" transform="matrix(.997825 -.065926 .065926 .997825 -108.22 114.96)" class="Y"/><g opacity=".2" class="Y"><ellipse cx="1632.01" cy="1753.13" rx="16.91" ry="26.12" transform="matrix(.99779 -.066448 .066448 .99779 -112.93 112.36)"/></g><ellipse cx="2085.62" cy="1668.94" rx="93.63" ry="108.01" transform="matrix(.997859 -.065403 .065403 .997859 -104.56 139.79)" class="Z"/><ellipse cx="2111.97" cy="1651.38" rx="30.53" ry="38.6" transform="matrix(.997825 -.065926 .065926 .997825 -104.38 142.99)" class="Y"/><g opacity=".2" class="Y"><ellipse cx="2058.17" cy="1709.05" rx="16.91" ry="26.12" transform="matrix(.99779 -.066448 .066448 .99779 -109.05 140.59)"/></g><path d="M2470.42 1295.22c-12.65-24.48-17.7-53.14-12.57-82.38 12.47-70.97 80.1-118.39 151.07-105.92s118.39 80.1 105.92 151.07-80.1 118.39-151.07 105.92c-19.74-3.47-37.65-11.21-52.96-22.1l-61.19 9.19 20.8-55.77z" class="Y"/><g class="b Y"><path d="M2572.93 1130.75c-66.84 7.92-115.85 65.05-115.11 130.87-1.02-4.48-1.84-9.06-2.39-13.73-8.47-71.55 42.66-136.43 114.21-144.9s136.43 42.66 144.9 114.21c.56 4.69.84 9.35.89 13.97-14.63-64.2-75.64-108.34-142.51-100.42z"/></g><path d="m2469.78,1293.92c33.48,32.7,81.64,49.43,131.27,40.79,55.04-9.58,97.84-47.9,115.75-96.85-.13,6.65-.77,13.38-1.96,20.13-12.47,70.97-80.1,118.39-151.07,105.92-19.74-3.47-37.65-11.21-52.96-22.1l-61.19,9.19,20.8-55.77c-.22-.43-.42-.87-.64-1.3Z" fill="#d3d2d2"/><path d="M2586.65 1378.16c-8.3 0-16.65-.72-25-2.19-19.42-3.41-37.49-10.59-53.79-21.34l-56.43 8.47c-4.28.65-8.6-1.03-11.33-4.39-2.73-3.37-3.48-7.93-1.96-11.99l18.95-50.82c-12.52-26.65-16.43-55.98-11.3-85.17 6.59-37.54 27.41-70.27 58.63-92.16 31.21-21.88 69.06-30.3 106.62-23.71 77.5 13.62 129.48 87.75 115.86 165.25-6.59 37.54-27.41 70.27-58.63 92.16-24.27 17.02-52.58 25.9-81.62 25.9zm-75.84-48.6c2.53 0 5.01.78 7.09 2.27 14.37 10.22 30.52 16.95 47.99 20.02 31.09 5.45 62.47-1.51 88.32-19.64s43.1-45.24 48.57-76.34c11.28-64.2-31.77-125.61-95.98-136.89-31.11-5.47-62.47 1.51-88.32 19.64s-43.1 45.24-48.57 76.34c-4.51 25.69-.58 51.5 11.38 74.64 1.59 3.07 1.8 6.66.6 9.9l-13.54 36.3 40.63-6.1c.61-.09 1.21-.14 1.82-.14z" class="Z"/><path d="M2544.07 1198.75h0c11.29-11.29 29.6-9.27 40.89 2.02l1.76 1.76 1.76-1.76c11.29-11.29 29.6-13.31 40.89-2.02h0c11.29 11.29 11.29 29.6 0 40.89l-1.76 1.76-35.5 35.5a7.62 7.62 0 0 1-10.78 0l-35.5-35.5-1.76-1.76c-11.29-11.29-11.29-29.6 0-40.89z" fill="#ff0068"/><defs ><path id="B" d="M1323.45 3307.69h-100.08c-5.85 0-11.43-2.47-15.37-6.8s-5.87-10.11-5.31-15.94l36.74-387.63c.61-6.45 4.2-12.24 9.69-15.67 5.5-3.43 12.28-4.09 18.34-1.8l160.88 60.81c10.2 3.85 15.68 14.93 12.56 25.38l-97.55 326.83c-2.63 8.8-10.72 14.83-19.91 14.83zm-77.24-41.55h61.76l87.59-293.45-117.33-44.35-32.02 337.8z"/><path id="C" d="m1689.45,2142.24l-22.48,47.7c-86.76,20.44-101.88,94.49-105.04,175.26-4.45,113.1,14.63,239.38-106.7,249.93-79.65,6.9-132.59-39.23-162.13-105.96-14.5-32.83-23.31-70.6-26.88-109.49-2.58-28.09-2.41-56.71.37-84.51,18.04-180,137.58-320.52,373.96-200.53,15.75,8.02,32.08,17.2,48.91,27.59"/><path id="D" d="M1561.93 2365.2c-4.44 113.1 14.63 239.38-106.7 249.93-7.27.62-14.29.83-21.11.54-.79 0-1.58-.04-2.37-.08-1.33-.04-2.66-.12-3.94-.21-.59-.04-1.2-.08-1.83-.17-1.75-.12-3.49-.29-5.19-.54-.25 0-.54 0-.79-.08-1.95-.21-3.91-.5-5.85-.84a145.88 145.88 0 0 1-6.03-1.12c-1.87-.37-3.65-.79-5.44-1.2-.37-.08-.75-.17-1.16-.29-1.75-.46-3.45-.91-5.16-1.45-1.5-.42-2.95-.87-4.4-1.37-.87-.29-1.75-.58-2.57-.91a54.33 54.33 0 0 1-4.32-1.58l-4.16-1.74c-.84-.29-1.62-.66-2.41-1.08-1.13-.46-2.21-1-3.28-1.5-1.96-.96-3.91-1.95-5.82-3.03-1.66-.87-3.28-1.83-4.9-2.78-.04-.04-.08-.04-.12-.08-1.66-1-3.28-1.99-4.86-3.07-1.5-.96-2.95-1.95-4.4-2.99-5.03-3.53-9.81-7.44-14.42-11.63-.99-.91-2.03-1.87-3.03-2.87-8.9-8.52-16.92-18.16-24.15-28.79a116.83 116.83 0 0 1-2.7-4.11c-.87-1.33-1.75-2.66-2.58-4.07l-1.83-3.03a222.03 222.03 0 0 1-7.35-13.34l-1.99-4.07a247.42 247.42 0 0 1-3.9-8.39c35.11 30.17 93.57 63.41 161.13 33.41 56.18-24.97 56.97-97.06 61.25-174.18 18.95 4.24 33.28 5.32 46.41-3.24"/><path id="E" d="M3682.2 3206.4c0 45.42-43.17 80.53-126.44 80.53h-431.01c-5.32-38.19-19.99-11.72-28.75-26.47-2.99-4.99-1.83-14.13.75-24.64 273.03 4.44 531.02 30.21 578.27-62.83l1.16 2.91.96 2.62a63.89 63.89 0 0 1 1.45 4.45c1.25 4.07 2.16 8.06 2.74 12.01.17 1.12.29 2.2.42 3.32.17 1.37.29 2.7.33 4.07.08 1.37.12 2.7.12 4.03"/><path id="F" d="M1251.52 2417.55l-3.74 48.37c-3.62-.33-7.27-.3-10.93-.09-3.41.21-6.73.71-10.01 1.58-12.38 3.12-24.02 10.35-35.32 19.65.79-6.93.79-13.8.17-20.53.79-.75 1.57-1.49 2.33-2.29l27.42-27.71c2.74-2.78 5.53-5.27 8.35-7.47 7.02-5.49 14.29-9.18 21.73-11.51"/><path id="G" d="M1391.99 2717.13H590.37c-18.62 0-33.73-15.1-33.73-33.73s15.1-33.73 33.73-33.73h801.62c18.63 0 33.73 15.1 33.73 33.73s-15.1 33.73-33.73 33.73"/><path id="H" d="m1010.7,2479.05l-10.43,170.23h-42.35l3.8-103.87c18.59-18.27,34.84-41.33,48.98-66.36"/></defs></svg>