<svg width="180" height="180" fill="none" xmlns="http://www.w3.org/2000/svg"><path fill="url(#serie__a)" d="M0 0h180v180H0z"/><path d="M124.863 87.984c5.509 0 9.975-4.466 9.975-9.974 0-5.51-4.466-9.975-9.975-9.975-5.508 0-9.974 4.466-9.974 9.975 0 5.508 4.466 9.974 9.974 9.974Z" fill="#FBC0AA"/><path d="M137.794 131.731c-2.151-5.031-7.824-8.352-14.201-8.352h-1.811c-1.635-14.716-15.018-18.238-31.282-18.238-16.263 0-29.647 3.522-31.282 18.238h-1.811c-6.377 0-12.05 3.346-14.2 8.352l-3.02 7.144a75.468 75.468 0 0 0 100.625 0l-3.018-7.144Z" fill="#F8DC25"/><path d="M90.5 158.095h1.258v-15.22a1.258 1.258 0 1 0-2.516 0v15.194l1.258.026Z" fill="#F2BC0F"/><path d="M105.594 127.781a15.103 15.103 0 0 0-6.528-12.447 15.087 15.087 0 0 0-13.955-1.672 15.1 15.1 0 0 0-9.282 10.554 15.095 15.095 0 0 0 3.439 13.628h-.088l9.446 10.502a2.514 2.514 0 0 0 3.773 0l9.421-10.502a14.96 14.96 0 0 0 3.774-10.063Z" fill="#fff"/><path d="M90.5 108.6v17.295" stroke="#FBC0AA" stroke-width="20" stroke-linecap="round" stroke-linejoin="round"/><path d="M56.137 87.984c5.508 0 9.974-4.466 9.974-9.974 0-5.51-4.466-9.975-9.974-9.975-5.51 0-9.975 4.466-9.975 9.975 0 5.508 4.466 9.974 9.975 9.974Z" fill="#FBC0AA"/><path d="M90.5 122.75c-14.502 0-30.338-12.49-34.716-37.483-4.113-23.47-1.257-29.86-1.257-29.86 0-20.641 72.097-20.641 72.097 0 0 0 1.535 9.006-1.257 29.86-3.183 22.389-20.339 37.483-34.867 37.483Z" fill="#FFD8C9"/><path opacity=".2" d="M102.034 112.788H78.966c0-2.012-1.359-10.616.214-14.112 3.408-7.547 11.32-10.93 11.32-10.93s8.364 3.181 11.723 10.93c1.371 3.131-.189 12.276-.189 14.112Z" fill="#515570"/><path opacity=".4" d="M90.5 103.883c6.29 0 8.805-3.774 8.805-3.774h-17.61s2.516 3.774 8.805 3.774Z" fill="#F85565"/><path d="M104.336 100.109c-.088-6.289-7.547-6.39-13.836-6.39-6.29 0-13.735.101-13.836 6.39v20.327a35.82 35.82 0 0 0 27.672 0v-20.327Zm-6.29 11.321h-2.792a1.26 1.26 0 0 1-1.257-.956l-.78-3.12a1.259 1.259 0 0 0-1.258-.956h-2.993a1.26 1.26 0 0 0-1.258.956l-.78 3.12a1.258 1.258 0 0 1-1.258.956h-2.717a2.515 2.515 0 0 1-2.516-2.516v-6.188a2.515 2.515 0 0 1 2.516-2.516h15.094a2.515 2.515 0 0 1 2.515 2.516v6.188a2.518 2.518 0 0 1-2.515 2.516Z" fill="#7F3838"/><path d="M90.5 77.154v15.723m3.144-1.572h-6.288" stroke="#FBC0AA" stroke-width="4" stroke-linecap="round" stroke-linejoin="round"/><path opacity=".3" d="M93.016 90.047h1.257" stroke="#F85565" stroke-width="2" stroke-linecap="round" stroke-linejoin="round"/><path opacity=".1" d="M125.228 85.38a12.213 12.213 0 0 0-10.83 12.214v12.364a48.324 48.324 0 0 0 10.83-24.578Zm-69.418.026c1.849 10.452 5.76 18.691 10.64 24.766V97.594a12.226 12.226 0 0 0-10.64-12.188Z" fill="#515570"/><path d="M98.563 72.438h15.32a3.03 3.03 0 0 1 3.031 3.03v4.516a7.548 7.548 0 0 1-7.547 7.547h-5.572a8.262 8.262 0 0 1-8.264-8.264v-3.773a3.033 3.033 0 0 1 3.032-3.056ZM77.205 87.531h-5.572a7.547 7.547 0 0 1-7.547-7.547v-4.477a3.032 3.032 0 0 1 3.031-3.07h15.32a3.031 3.031 0 0 1 3.032 3.032v3.773a8.264 8.264 0 0 1-8.264 8.29Z" fill="#393C54"/><path d="M98.563 72.438h15.32a3.03 3.03 0 0 1 3.031 3.03v4.516a7.548 7.548 0 0 1-7.547 7.547h-5.572a8.262 8.262 0 0 1-8.264-8.264v-3.773a3.033 3.033 0 0 1 3.032-3.056ZM77.205 87.531h-5.572a7.547 7.547 0 0 1-7.547-7.547v-4.477a3.032 3.032 0 0 1 3.031-3.07h15.32a3.031 3.031 0 0 1 3.032 3.032v3.773a8.264 8.264 0 0 1-8.264 8.29Z" stroke="#515570" stroke-width="2" stroke-linecap="round" stroke-linejoin="round"/><path d="M85.469 79.984a5.031 5.031 0 1 1 10.062 0m21.383-4.515 9.207-7.434m-62.035 7.434-9.207-7.346" stroke="#515570" stroke-width="2" stroke-linecap="round" stroke-linejoin="round"/><path d="M125.719 40.992H55.281a2.516 2.516 0 0 0-2.515 2.516v13.836a2.516 2.516 0 0 0 2.515 2.515h70.438a2.515 2.515 0 0 0 2.515-2.515V43.508a2.515 2.515 0 0 0-2.515-2.516Z" fill="#393C54"/><path d="M105.594 33.86H74.916L61.08 42.665h58.35l-13.836-8.805Z" fill="#393C54"/><path d="M52.766 42.25h75.468" stroke="#515570" stroke-width="2" stroke-linecap="round" stroke-linejoin="round"/><path d="m41.694 47.729 20.964-20.964 4.189 4.19a2.969 2.969 0 0 1-.071 4.144L50.019 51.856a2.968 2.968 0 0 1-4.198 0l-4.127-4.127Z" fill="#393C54"/><path d="M61.049 24.124 39.045 46.128a2.226 2.226 0 1 0 3.148 3.149l22.004-22.004a2.226 2.226 0 0 0-3.148-3.149Z" fill="#F85565"/><path d="M48.703 28.075 37.458 39.319a2.955 2.955 0 0 0 0 4.189l2.1 2.1 20.968-20.967-.515-.516a2.968 2.968 0 0 0-3.472-.49l-7.12 3.949c-.26.13-.5.295-.716.49Z" fill="#FF8475"/><path d="m130.975 51.854-16.756-16.757a2.968 2.968 0 0 1 0-4.198l4.127-4.127 20.963 20.964-4.154 4.153a2.966 2.966 0 0 1-4.18-.035Z" fill="#393C54"/><path d="m116.825 27.262 22.004 22.004a2.226 2.226 0 1 0 3.148-3.149l-22.004-22.003a2.226 2.226 0 1 0-3.148 3.148Z" fill="#F85565"/><path d="m132.297 28.075 11.245 11.244a2.963 2.963 0 0 1 .87 2.095 2.96 2.96 0 0 1-.87 2.094l-2.101 2.1-20.967-20.967.515-.516a2.97 2.97 0 0 1 3.535-.49l7.119 3.949c.238.135.458.3.654.49Z" fill="#FF8475"/><path d="M99.305 34.703h-17.61l-2.515-8.805h22.64l-2.515 8.805Z" fill="#393C54"/><path d="M76.664 25.898h27.672" stroke="#515570" stroke-width="2" stroke-linecap="round" stroke-linejoin="round"/><path d="m129.97 67.167-12.578-11.622 5.119-5.547 12.579 11.61a3.773 3.773 0 0 1 .226 5.333 3.778 3.778 0 0 1-4.085.997 3.771 3.771 0 0 1-1.261-.77Zm-79.242 0 12.578-11.622-5.12-5.547-12.577 11.61a3.774 3.774 0 0 0-.214 5.333 3.773 3.773 0 0 0 5.333.226Z" fill="#515570"/><path d="m70.375 62.375 13.836 2.516 15.094-1.258 13.836-1.258m-44.024 3.773 16.352 3.774 11.32-1.258h16.352M80.438 56.086l6.289 18.867m5.031-18.867L90.5 74.953" opacity=".1" stroke="#515570" stroke-width="2" stroke-linecap="round" stroke-linejoin="round"/><path d="M57.407 123.379a17.84 17.84 0 0 0-3.874.428s1.748 11.521 11.81 16.552a24.298 24.298 0 0 1-6.125-16.98h-1.811Zm58.249 16.98c10.063-5.031 11.811-16.552 11.811-16.552a17.84 17.84 0 0 0-3.874-.428h-1.811a24.296 24.296 0 0 1-6.126 16.98Z" fill="#F2BC0F"/><defs><linearGradient id="serie__a" x1="90" y1="0" x2="90" y2="180" gradientUnits="userSpaceOnUse"><stop offset=".354" stop-color="#4AD671"/><stop offset="1" stop-color="#1C8D3B"/></linearGradient></defs></svg>