<svg xmlns="http://www.w3.org/2000/svg" viewBox="0 0 71 154" width="100%" height="100%" xmlns:v="https://vecta.io/nano"><path stroke="#595959" stroke-width="4" d="M40.06 115.808H4.473c2.978 10.779 8.963 19.347 17.994 25.774C32.213 148.518 44.564 152 59.576 152c18.638 0 32.935-6.302 43.069-18.925C112.854 120.36 118 101.544 118 76.577c0-14.417-2.321-27.275-6.953-38.588-4.594-11.219-11.422-20.008-20.503-26.412C81.502 5.201 70.138 2 56.396 2c-6.98 0-13.713 1.16-20.211 3.48a54.41 54.41 0 0 0-17.49 10.205c-5.163 4.474-9.236 9.824-12.227 16.065C3.493 37.956 2 45.064 2 53.096c0 8.816 2.028 16.606 6.079 23.41 4.065 6.827 9.504 12.187 16.343 16.105 6.83 3.913 14.437 5.87 22.857 5.87 7.806 0 14.33-1.119 19.576-3.333 5.202-2.196 9.597-5.551 13.206-10.086l3.998-5.023-.438 6.405c-.873 12.78-3.522 21.994-8.067 27.663-4.622 5.765-10.781 8.682-18.309 8.682-4.375 0-8.053-.688-11.031-2.096-2.62-1.238-4.682-2.867-6.153-4.885zM57.5 31c5.866 0 10.942 1.936 15.13 5.783C76.861 40.668 79 45.619 79 51.5s-2.139 10.832-6.37 14.717C68.442 70.064 63.366 72 57.5 72s-10.942-1.936-15.13-5.783C38.139 62.332 36 57.381 36 51.5s2.139-10.832 6.37-14.717C46.558 32.936 51.634 31 57.5 31z" stroke-linejoin="square"/></svg>