<?xml version="1.0" encoding="UTF-8" standalone="no"?>
<svg
  viewBox="0 0 111 30"
  data-uia="netflix-logo"
  class="svg-icon svg-icon-netflix-logo"
  aria-hidden="true"
  focusable="false"
  version="1.1"
  id="svg4"
  sodipodi:docname="devflix.svg"
  inkscape:version="1.2.1 (9c6d41e410, 2022-07-14)"
  xmlns:inkscape="http://www.inkscape.org/namespaces/inkscape"
  xmlns:sodipodi="http://sodipodi.sourceforge.net/DTD/sodipodi-0.dtd"
  xmlns="http://www.w3.org/2000/svg"
  xmlns:svg="http://www.w3.org/2000/svg"
  fill="#e50914">
  <defs
    id="defs8" />
  <sodipodi:namedview
    id="namedview6"
    pagecolor="#ffffff"
    bordercolor="#000000"
    borderopacity="0.25"
    inkscape:showpageshadow="2"
    inkscape:pageopacity="0.0"
    inkscape:pagecheckerboard="0"
    inkscape:deskcolor="#d1d1d1"
    showgrid="false"
    inkscape:zoom="8.1476538"
    inkscape:cx="48.541581"
    inkscape:cy="28.842659"
    inkscape:window-width="3440"
    inkscape:window-height="1369"
    inkscape:window-x="-8"
    inkscape:window-y="-8"
    inkscape:window-maximized="1"
    inkscape:current-layer="svg4" />
  <g
    id="netflix-logo">
    <path
      d="M 105.06233,14.280626 110.99916,30 c -1.74993,-0.250258 -3.49893,-0.563314 -5.28072,-0.844503 l -3.34427,-8.68685 -3.437063,7.968882 c -1.68713,-0.281188 -3.344268,-0.375855 -5.031399,-0.594245 L 99.937201,14.093167 94.468085,0 h 5.063267 L 102.5935,7.874215 105.87497,0 h 5.12419 z M 90.468648,0 h -4.593683 v 27.249977 c 1.499672,0.09373 3.062142,0.15559 4.593683,0.343049 z M 81.905521,26.93692 C 77.718624,26.655732 73.53079,26.406411 69.250164,26.311744 V 0 h 4.686475 v 21.87459 c 2.688162,0.0628 5.375387,0.281188 7.968882,0.405849 z M 64.249695,10.656107 v 4.687412 H 57.844222 V 25.999625 H 53.218671 V 0 h 13.124941 v 4.6874121 h -8.49939 v 5.9686949 z m -33.499859,4.936732 c -2.062049,0 -4.499953,0 -6.249883,0.09467 v 6.968788 C 27.249977,22.467898 30,22.249508 32.780954,22.155778 v 4.499954 L 19.812541,27.687693 V 0 h 12.968413 v 4.6874121 h -8.281001 v 6.3117439 c 1.812729,0 4.593683,-0.09373 6.249883,-0.09373 z"
      id="Fill-14"
      sodipodi:nodetypes="ccccccccccccccccccccccccccccccccccccccccccccccccc" />
    <path
      d="m 39.873251,7.6293945e-7 h -4.16825 L 39.72805,26.166929 c 0,0 2.029431,-0.09924 3.012297,-0.16054 1.241159,-0.07741 3.148059,-0.12646 3.148059,-0.12646 L 49.974685,7.6293945e-7 H 46.181953 L 43.065154,21.442078 h -0.0751 z"
      id="path1066"
      style="font-size:37.5518px;font-family:'Bebas Neue';-inkscape-font-specification:'Bebas Neue';display:inline;stroke-width:2"
      sodipodi:nodetypes="cccscccccc" />
  </g>
  <g
    aria-label="D"
    id="text291"
    style="font-size:42.7913px;font-family:Thyeena;-inkscape-font-specification:Thyeena;stroke-width:2"
    inkscape:transform-center-x="-0.086786574"
    inkscape:transform-center-y="0.47732557">
    <path
      d="M 2.861023e-8,29.953911 8.271062,29.01415 c 6.924316,-0.786743 6.253664,-2.513544 6.235791,-8.502618 L 14.46346,5.9709167 C 14.449158,1.1783122 12.15273,-3.8146973e-7 7.4456865,-3.8146973e-7 H 2.861023e-8 Z M 7.3601039,4.2791298 c 1.4976956,0 2.3963129,0.7702434 2.3963129,2.9098085 V 22.764972 c 0,2.139565 -0.8986173,2.909809 -2.3963129,2.909809 H 4.7070432 V 4.2791298 Z"
      style="font-family:'Bebas Neue';-inkscape-font-specification:'Bebas Neue';display:inline"
      id="path503"
      sodipodi:nodetypes="cssssccssssccs" />
  </g>
</svg>